<?xml version="1.0" encoding="UTF-8" standalone="no"?>
<!DOCTYPE svg PUBLIC "-//W3C//DTD SVG 1.1//EN"
 "http://www.w3.org/Graphics/SVG/1.1/DTD/svg11.dtd">
<!-- Generated by graphviz version 2.43.0 (0)
 -->
<!-- Title: %3 Pages: 1 -->
<svg width="1860pt" height="508pt"
 viewBox="0.00 0.00 1860.29 508.00" xmlns="http://www.w3.org/2000/svg" xmlns:xlink="http://www.w3.org/1999/xlink">
<g id="graph0" class="graph" transform="scale(1 1) rotate(0) translate(4 504)">
<title>%3</title>
<polygon fill="white" stroke="transparent" points="-4,4 -4,-504 1856.29,-504 1856.29,4 -4,4"/>
<!-- q_kinova -->
<g id="node1" class="node">
<title>q_kinova</title>
<polygon fill="none" stroke="green" points="570.93,-310.54 570.93,-325.46 538.34,-336 492.24,-336 459.64,-325.46 459.64,-310.54 492.24,-300 538.34,-300 570.93,-310.54"/>
<polygon fill="none" stroke="green" points="574.94,-307.64 574.94,-328.36 538.97,-340 491.61,-340 455.64,-328.36 455.64,-307.64 491.61,-296 538.97,-296 574.94,-307.64"/>
<text text-anchor="middle" x="515.29" y="-314.3" font-family="Times,serif" font-size="14.00">q_kinova</text>
</g>
<!-- error_q_kinova_q_init_kinova -->
<g id="node5" class="node">
<title>error_q_kinova_q_init_kinova</title>
<ellipse fill="none" stroke="green" cx="144.29" cy="-238" rx="144.07" ry="18"/>
<text text-anchor="middle" x="144.29" y="-234.3" font-family="Times,serif" font-size="14.00">error_q_kinova_q_init_kinova</text>
</g>
<!-- q_kinova&#45;&gt;error_q_kinova_q_init_kinova -->
<g id="edge1" class="edge">
<title>q_kinova&#45;&gt;error_q_kinova_q_init_kinova</title>
<path fill="none" stroke="black" d="M461.34,-305.66C399.06,-292.56 296,-270.9 224.36,-255.83"/>
<polygon fill="black" stroke="black" points="224.97,-252.39 214.47,-253.75 223.53,-259.24 224.97,-252.39"/>
</g>
<!-- limits_q_kinova -->
<g id="node9" class="node">
<title>limits_q_kinova</title>
<polygon fill="none" stroke="magenta" points="510.91,-238 463.6,-256 368.98,-256 321.66,-238 368.98,-220 463.6,-220 510.91,-238"/>
<text text-anchor="middle" x="416.29" y="-234.3" font-family="Times,serif" font-size="14.00">limits_q_kinova</text>
</g>
<!-- q_kinova&#45;&gt;limits_q_kinova -->
<g id="edge2" class="edge">
<title>q_kinova&#45;&gt;limits_q_kinova</title>
<path fill="none" stroke="black" d="M489.28,-296.51C476.09,-286.12 460,-273.44 446.29,-262.64"/>
<polygon fill="black" stroke="black" points="448.13,-259.63 438.11,-256.19 443.8,-265.13 448.13,-259.63"/>
</g>
<!-- pose_7_kinova -->
<g id="node17" class="node">
<title>pose_7_kinova</title>
<ellipse fill="none" stroke="green" cx="614.29" cy="-238" rx="77.19" ry="18"/>
<text text-anchor="middle" x="614.29" y="-234.3" font-family="Times,serif" font-size="14.00">pose_7_kinova</text>
</g>
<!-- q_kinova&#45;&gt;pose_7_kinova -->
<g id="edge3" class="edge">
<title>q_kinova&#45;&gt;pose_7_kinova</title>
<path fill="none" stroke="black" d="M541.3,-296.51C554.9,-285.79 571.58,-272.65 585.56,-261.63"/>
<polygon fill="black" stroke="black" points="587.75,-264.37 593.44,-255.43 583.41,-258.87 587.75,-264.37"/>
</g>
<!-- qd_kinova -->
<g id="node2" class="node">
<title>qd_kinova</title>
<polygon fill="none" stroke="green" points="1249.11,-390.54 1249.11,-405.46 1212.89,-416 1161.68,-416 1125.47,-405.46 1125.47,-390.54 1161.68,-380 1212.89,-380 1249.11,-390.54"/>
<polygon fill="none" stroke="green" points="1253.1,-387.54 1253.1,-408.46 1213.46,-420 1161.11,-420 1121.47,-408.46 1121.47,-387.54 1161.11,-376 1213.46,-376 1253.1,-387.54"/>
<text text-anchor="middle" x="1187.29" y="-394.3" font-family="Times,serif" font-size="14.00">qd_kinova</text>
</g>
<!-- qd_kinova&#45;&gt;q_kinova -->
<g id="edge23" class="edge">
<title>qd_kinova&#45;&gt;q_kinova</title>
<path fill="none" stroke="black" stroke-dasharray="5,2" d="M1121.32,-389.34C994.14,-374.58 716.09,-342.31 585.57,-327.16"/>
<polygon fill="black" stroke="black" points="585.64,-323.64 575.3,-325.97 584.83,-330.6 585.64,-323.64"/>
</g>
<!-- stationary_qd_kinova -->
<g id="node8" class="node">
<title>stationary_qd_kinova</title>
<polygon fill="none" stroke="magenta" points="1189.45,-318 1126.87,-336 1001.71,-336 939.12,-318 1001.71,-300 1126.87,-300 1189.45,-318"/>
<text text-anchor="middle" x="1064.29" y="-314.3" font-family="Times,serif" font-size="14.00">stationary_qd_kinova</text>
</g>
<!-- qd_kinova&#45;&gt;stationary_qd_kinova -->
<g id="edge4" class="edge">
<title>qd_kinova&#45;&gt;stationary_qd_kinova</title>
<path fill="none" stroke="black" d="M1156.25,-377.32C1139,-366.38 1117.48,-352.73 1099.59,-341.39"/>
<polygon fill="black" stroke="black" points="1101.46,-338.43 1091.14,-336.03 1097.71,-344.34 1101.46,-338.43"/>
</g>
<!-- limits_qd_kinova -->
<g id="node11" class="node">
<title>limits_qd_kinova</title>
<polygon fill="none" stroke="magenta" points="1410.42,-318 1359.85,-336 1258.72,-336 1208.15,-318 1258.72,-300 1359.85,-300 1410.42,-318"/>
<text text-anchor="middle" x="1309.29" y="-314.3" font-family="Times,serif" font-size="14.00">limits_qd_kinova</text>
</g>
<!-- qd_kinova&#45;&gt;limits_qd_kinova -->
<g id="edge5" class="edge">
<title>qd_kinova&#45;&gt;limits_qd_kinova</title>
<path fill="none" stroke="black" d="M1218.07,-377.32C1235.02,-366.48 1256.14,-352.98 1273.78,-341.7"/>
<polygon fill="black" stroke="black" points="1276.12,-344.36 1282.66,-336.03 1272.34,-338.46 1276.12,-344.36"/>
</g>
<!-- qdd_kinova -->
<g id="node3" class="node">
<title>qdd_kinova</title>
<polygon fill="none" stroke="cyan" points="1601.75,-470.54 1601.75,-485.46 1561.65,-496 1504.93,-496 1464.82,-485.46 1464.82,-470.54 1504.93,-460 1561.65,-460 1601.75,-470.54"/>
<polygon fill="none" stroke="cyan" points="1605.77,-467.46 1605.77,-488.54 1562.17,-500 1504.41,-500 1460.81,-488.54 1460.81,-467.46 1504.41,-456 1562.17,-456 1605.77,-467.46"/>
<text text-anchor="middle" x="1533.29" y="-474.3" font-family="Times,serif" font-size="14.00">qdd_kinova</text>
</g>
<!-- qdd_kinova&#45;&gt;qd_kinova -->
<g id="edge24" class="edge">
<title>qdd_kinova&#45;&gt;qd_kinova</title>
<path fill="none" stroke="black" stroke-dasharray="5,2" d="M1474.59,-463.77C1413.1,-449.91 1316.73,-428.18 1252.8,-413.77"/>
<polygon fill="black" stroke="black" points="1253.36,-410.31 1242.83,-411.52 1251.82,-417.13 1253.36,-410.31"/>
</g>
<!-- limits_qdd_kinova -->
<g id="node13" class="node">
<title>limits_qdd_kinova</title>
<polygon fill="none" stroke="magenta" points="1641.43,-398 1587.36,-416 1479.22,-416 1425.15,-398 1479.22,-380 1587.36,-380 1641.43,-398"/>
<text text-anchor="middle" x="1533.29" y="-394.3" font-family="Times,serif" font-size="14.00">limits_qdd_kinova</text>
</g>
<!-- qdd_kinova&#45;&gt;limits_qdd_kinova -->
<g id="edge6" class="edge">
<title>qdd_kinova&#45;&gt;limits_qdd_kinova</title>
<path fill="none" stroke="black" d="M1533.29,-455.69C1533.29,-446.64 1533.29,-435.99 1533.29,-426.37"/>
<polygon fill="black" stroke="black" points="1536.79,-426.09 1533.29,-416.09 1529.79,-426.09 1536.79,-426.09"/>
</g>
<!-- reg_qdd_kinova -->
<g id="node15" class="node">
<title>reg_qdd_kinova</title>
<polygon fill="none" stroke="magenta" points="1851.41,-398 1803.35,-416 1707.22,-416 1659.16,-398 1707.22,-380 1803.35,-380 1851.41,-398"/>
<text text-anchor="middle" x="1755.29" y="-394.3" font-family="Times,serif" font-size="14.00">reg_qdd_kinova</text>
</g>
<!-- qdd_kinova&#45;&gt;reg_qdd_kinova -->
<g id="edge7" class="edge">
<title>qdd_kinova&#45;&gt;reg_qdd_kinova</title>
<path fill="none" stroke="black" d="M1580.1,-460.55C1614.31,-448.53 1660.93,-432.15 1697.47,-419.31"/>
<polygon fill="black" stroke="black" points="1698.73,-422.58 1707.01,-415.96 1696.41,-415.98 1698.73,-422.58"/>
</g>
<!-- q_init_kinova -->
<g id="node4" class="node">
<title>q_init_kinova</title>
<polygon fill="none" stroke="blue" points="221.56,-310.54 221.56,-325.46 176.3,-336 112.28,-336 67.01,-325.46 67.01,-310.54 112.28,-300 176.3,-300 221.56,-310.54"/>
<polygon fill="none" stroke="blue" points="225.56,-307.37 225.56,-328.63 176.75,-340 111.82,-340 63.02,-328.63 63.02,-307.37 111.82,-296 176.75,-296 225.56,-307.37"/>
<text text-anchor="middle" x="144.29" y="-314.3" font-family="Times,serif" font-size="14.00">q_init_kinova</text>
</g>
<!-- q_init_kinova&#45;&gt;error_q_kinova_q_init_kinova -->
<g id="edge8" class="edge">
<title>q_init_kinova&#45;&gt;error_q_kinova_q_init_kinova</title>
<path fill="none" stroke="black" d="M144.29,-295.69C144.29,-286.64 144.29,-275.99 144.29,-266.37"/>
<polygon fill="black" stroke="black" points="147.79,-266.09 144.29,-256.09 140.79,-266.09 147.79,-266.09"/>
</g>
<!-- equality_q_kinova -->
<g id="node6" class="node">
<title>equality_q_kinova</title>
<polygon fill="none" stroke="magenta" points="220.43,-162 166.86,-180 59.72,-180 6.15,-162 59.72,-144 166.86,-144 220.43,-162"/>
<text text-anchor="middle" x="113.29" y="-158.3" font-family="Times,serif" font-size="14.00">equality_q_kinova</text>
</g>
<!-- error_q_kinova_q_init_kinova&#45;&gt;equality_q_kinova -->
<g id="edge9" class="edge">
<title>error_q_kinova_q_init_kinova&#45;&gt;equality_q_kinova</title>
<path fill="none" stroke="black" d="M137.1,-219.84C133.3,-210.78 128.56,-199.47 124.31,-189.32"/>
<polygon fill="black" stroke="black" points="127.53,-187.94 120.44,-180.07 121.07,-190.65 127.53,-187.94"/>
</g>
<!-- (&#39;initial&#39;, &#39;equality_q_kinova&#39;) -->
<g id="node7" class="node">
<title>(&#39;initial&#39;, &#39;equality_q_kinova&#39;)</title>
<polygon fill="none" stroke="purple" points="222.79,-108 3.79,-108 3.79,-72 222.79,-72 222.79,-108"/>
<text text-anchor="middle" x="113.29" y="-86.3" font-family="Times,serif" font-size="14.00">(&#39;initial&#39;, &#39;equality_q_kinova&#39;)</text>
</g>
<!-- equality_q_kinova&#45;&gt;(&#39;initial&#39;, &#39;equality_q_kinova&#39;) -->
<g id="edge10" class="edge">
<title>equality_q_kinova&#45;&gt;(&#39;initial&#39;, &#39;equality_q_kinova&#39;)</title>
<path fill="none" stroke="black" d="M113.29,-143.7C113.29,-135.98 113.29,-126.71 113.29,-118.11"/>
<polygon fill="black" stroke="black" points="116.79,-118.1 113.29,-108.1 109.79,-118.1 116.79,-118.1"/>
</g>
<!-- (&#39;terminal&#39;, &#39;stationary_qd_kinova&#39;) -->
<g id="node24" class="node">
<title>(&#39;terminal&#39;, &#39;stationary_qd_kinova&#39;)</title>
<polygon fill="none" stroke="purple" points="1195.79,-256 932.79,-256 932.79,-220 1195.79,-220 1195.79,-256"/>
<text text-anchor="middle" x="1064.29" y="-234.3" font-family="Times,serif" font-size="14.00">(&#39;terminal&#39;, &#39;stationary_qd_kinova&#39;)</text>
</g>
<!-- stationary_qd_kinova&#45;&gt;(&#39;terminal&#39;, &#39;stationary_qd_kinova&#39;) -->
<g id="edge11" class="edge">
<title>stationary_qd_kinova&#45;&gt;(&#39;terminal&#39;, &#39;stationary_qd_kinova&#39;)</title>
<path fill="none" stroke="black" d="M1064.29,-299.69C1064.29,-289.89 1064.29,-277.42 1064.29,-266.33"/>
<polygon fill="black" stroke="black" points="1067.79,-266.26 1064.29,-256.26 1060.79,-266.26 1067.79,-266.26"/>
</g>
<!-- (&#39;path&#39;, &#39;limits_q_kinova&#39;) -->
<g id="node10" class="node">
<title>(&#39;path&#39;, &#39;limits_q_kinova&#39;)</title>
<polygon fill="none" stroke="purple" points="431.79,-180 238.79,-180 238.79,-144 431.79,-144 431.79,-180"/>
<text text-anchor="middle" x="335.29" y="-158.3" font-family="Times,serif" font-size="14.00">(&#39;path&#39;, &#39;limits_q_kinova&#39;)</text>
</g>
<!-- limits_q_kinova&#45;&gt;(&#39;path&#39;, &#39;limits_q_kinova&#39;) -->
<g id="edge12" class="edge">
<title>limits_q_kinova&#45;&gt;(&#39;path&#39;, &#39;limits_q_kinova&#39;)</title>
<path fill="none" stroke="black" d="M397.5,-219.84C386.77,-210.03 373.14,-197.58 361.38,-186.84"/>
<polygon fill="black" stroke="black" points="363.72,-184.23 353.97,-180.07 358.99,-189.4 363.72,-184.23"/>
</g>
<!-- (&#39;path&#39;, &#39;limits_qd_kinova&#39;) -->
<g id="node12" class="node">
<title>(&#39;path&#39;, &#39;limits_qd_kinova&#39;)</title>
<polygon fill="none" stroke="purple" points="1416.29,-256 1214.29,-256 1214.29,-220 1416.29,-220 1416.29,-256"/>
<text text-anchor="middle" x="1315.29" y="-234.3" font-family="Times,serif" font-size="14.00">(&#39;path&#39;, &#39;limits_qd_kinova&#39;)</text>
</g>
<!-- limits_qd_kinova&#45;&gt;(&#39;path&#39;, &#39;limits_qd_kinova&#39;) -->
<g id="edge13" class="edge">
<title>limits_qd_kinova&#45;&gt;(&#39;path&#39;, &#39;limits_qd_kinova&#39;)</title>
<path fill="none" stroke="black" d="M1310.62,-299.69C1311.37,-289.89 1312.33,-277.42 1313.18,-266.33"/>
<polygon fill="black" stroke="black" points="1316.68,-266.5 1313.96,-256.26 1309.7,-265.96 1316.68,-266.5"/>
</g>
<!-- (&#39;path&#39;, &#39;limits_qdd_kinova&#39;) -->
<g id="node14" class="node">
<title>(&#39;path&#39;, &#39;limits_qdd_kinova&#39;)</title>
<polygon fill="none" stroke="purple" points="1639.79,-336 1428.79,-336 1428.79,-300 1639.79,-300 1639.79,-336"/>
<text text-anchor="middle" x="1534.29" y="-314.3" font-family="Times,serif" font-size="14.00">(&#39;path&#39;, &#39;limits_qdd_kinova&#39;)</text>
</g>
<!-- limits_qdd_kinova&#45;&gt;(&#39;path&#39;, &#39;limits_qdd_kinova&#39;) -->
<g id="edge14" class="edge">
<title>limits_qdd_kinova&#45;&gt;(&#39;path&#39;, &#39;limits_qdd_kinova&#39;)</title>
<path fill="none" stroke="black" d="M1533.51,-379.69C1533.63,-369.89 1533.79,-357.42 1533.94,-346.33"/>
<polygon fill="black" stroke="black" points="1537.44,-346.31 1534.07,-336.26 1530.44,-346.22 1537.44,-346.31"/>
</g>
<!-- (&#39;path&#39;, &#39;reg_qdd_kinova&#39;) -->
<g id="node16" class="node">
<title>(&#39;path&#39;, &#39;reg_qdd_kinova&#39;)</title>
<polygon fill="none" stroke="purple" points="1852.29,-336 1658.29,-336 1658.29,-300 1852.29,-300 1852.29,-336"/>
<text text-anchor="middle" x="1755.29" y="-314.3" font-family="Times,serif" font-size="14.00">(&#39;path&#39;, &#39;reg_qdd_kinova&#39;)</text>
</g>
<!-- reg_qdd_kinova&#45;&gt;(&#39;path&#39;, &#39;reg_qdd_kinova&#39;) -->
<g id="edge15" class="edge">
<title>reg_qdd_kinova&#45;&gt;(&#39;path&#39;, &#39;reg_qdd_kinova&#39;)</title>
<path fill="none" stroke="black" d="M1755.29,-379.69C1755.29,-369.89 1755.29,-357.42 1755.29,-346.33"/>
<polygon fill="black" stroke="black" points="1758.79,-346.26 1755.29,-336.26 1751.79,-346.26 1758.79,-346.26"/>
</g>
<!-- trans_error_pose_7_kinova_vs_goal -->
<g id="node19" class="node">
<title>trans_error_pose_7_kinova_vs_goal</title>
<ellipse fill="none" stroke="green" cx="622.29" cy="-162" rx="172.77" ry="18"/>
<text text-anchor="middle" x="622.29" y="-158.3" font-family="Times,serif" font-size="14.00">trans_error_pose_7_kinova_vs_goal</text>
</g>
<!-- pose_7_kinova&#45;&gt;trans_error_pose_7_kinova_vs_goal -->
<g id="edge16" class="edge">
<title>pose_7_kinova&#45;&gt;trans_error_pose_7_kinova_vs_goal</title>
<path fill="none" stroke="black" d="M616.14,-219.84C617.09,-211.06 618.27,-200.16 619.34,-190.27"/>
<polygon fill="black" stroke="black" points="622.85,-190.39 620.44,-180.07 615.89,-189.64 622.85,-190.39"/>
</g>
<!-- rotmat_error_pose_7_kinova_vs_goal -->
<g id="node21" class="node">
<title>rotmat_error_pose_7_kinova_vs_goal</title>
<ellipse fill="none" stroke="green" cx="993.29" cy="-162" rx="180.07" ry="18"/>
<text text-anchor="middle" x="993.29" y="-158.3" font-family="Times,serif" font-size="14.00">rotmat_error_pose_7_kinova_vs_goal</text>
</g>
<!-- pose_7_kinova&#45;&gt;rotmat_error_pose_7_kinova_vs_goal -->
<g id="edge17" class="edge">
<title>pose_7_kinova&#45;&gt;rotmat_error_pose_7_kinova_vs_goal</title>
<path fill="none" stroke="black" d="M664.78,-224.29C676.72,-221.43 689.43,-218.51 701.29,-216 765.49,-202.44 838.07,-189.25 894.82,-179.43"/>
<polygon fill="black" stroke="black" points="895.6,-182.84 904.86,-177.69 894.41,-175.94 895.6,-182.84"/>
</g>
<!-- goal_pose_kinova -->
<g id="node18" class="node">
<title>goal_pose_kinova</title>
<polygon fill="none" stroke="blue" points="910.77,-230.54 910.77,-245.46 853.08,-256 771.5,-256 713.81,-245.46 713.81,-230.54 771.5,-220 853.08,-220 910.77,-230.54"/>
<polygon fill="none" stroke="blue" points="914.77,-227.21 914.77,-248.79 853.44,-260 771.13,-260 709.81,-248.79 709.81,-227.21 771.13,-216 853.44,-216 914.77,-227.21"/>
<text text-anchor="middle" x="812.29" y="-234.3" font-family="Times,serif" font-size="14.00">goal_pose_kinova</text>
</g>
<!-- goal_pose_kinova&#45;&gt;trans_error_pose_7_kinova_vs_goal -->
<g id="edge18" class="edge">
<title>goal_pose_kinova&#45;&gt;trans_error_pose_7_kinova_vs_goal</title>
<path fill="none" stroke="black" d="M762.37,-217.56C735.22,-206.98 701.68,-193.92 674.23,-183.23"/>
<polygon fill="black" stroke="black" points="675.38,-179.92 664.79,-179.56 672.84,-186.45 675.38,-179.92"/>
</g>
<!-- goal_pose_kinova&#45;&gt;rotmat_error_pose_7_kinova_vs_goal -->
<g id="edge19" class="edge">
<title>goal_pose_kinova&#45;&gt;rotmat_error_pose_7_kinova_vs_goal</title>
<path fill="none" stroke="black" d="M860.79,-217.17C886.23,-206.77 917.37,-194.04 943.06,-183.54"/>
<polygon fill="black" stroke="black" points="944.68,-186.65 952.61,-179.63 942.03,-180.17 944.68,-186.65"/>
</g>
<!-- trans_con_pose_7_kinova_vs_goal -->
<g id="node20" class="node">
<title>trans_con_pose_7_kinova_vs_goal</title>
<polygon fill="none" stroke="magenta" points="804.04,-90 708.66,-108 517.91,-108 422.54,-90 517.91,-72 708.66,-72 804.04,-90"/>
<text text-anchor="middle" x="613.29" y="-86.3" font-family="Times,serif" font-size="14.00">trans_con_pose_7_kinova_vs_goal</text>
</g>
<!-- trans_error_pose_7_kinova_vs_goal&#45;&gt;trans_con_pose_7_kinova_vs_goal -->
<g id="edge20" class="edge">
<title>trans_error_pose_7_kinova_vs_goal&#45;&gt;trans_con_pose_7_kinova_vs_goal</title>
<path fill="none" stroke="black" d="M620.06,-143.7C619.07,-135.98 617.88,-126.71 616.77,-118.11"/>
<polygon fill="black" stroke="black" points="620.23,-117.58 615.49,-108.1 613.29,-118.47 620.23,-117.58"/>
</g>
<!-- ax_ang_error_pose_7_kinova_vs_goal -->
<g id="node22" class="node">
<title>ax_ang_error_pose_7_kinova_vs_goal</title>
<ellipse fill="none" stroke="green" cx="1002.29" cy="-90" rx="180.87" ry="18"/>
<text text-anchor="middle" x="1002.29" y="-86.3" font-family="Times,serif" font-size="14.00">ax_ang_error_pose_7_kinova_vs_goal</text>
</g>
<!-- rotmat_error_pose_7_kinova_vs_goal&#45;&gt;ax_ang_error_pose_7_kinova_vs_goal -->
<g id="edge21" class="edge">
<title>rotmat_error_pose_7_kinova_vs_goal&#45;&gt;ax_ang_error_pose_7_kinova_vs_goal</title>
<path fill="none" stroke="black" d="M995.51,-143.7C996.5,-135.98 997.7,-126.71 998.8,-118.11"/>
<polygon fill="black" stroke="black" points="1002.28,-118.47 1000.09,-108.1 995.34,-117.58 1002.28,-118.47"/>
</g>
<!-- rot_con_pose_7_kinova_vs_goal -->
<g id="node23" class="node">
<title>rot_con_pose_7_kinova_vs_goal</title>
<polygon fill="none" stroke="magenta" points="1180.02,-18 1091.15,-36 913.42,-36 824.56,-18 913.42,0 1091.15,0 1180.02,-18"/>
<text text-anchor="middle" x="1002.29" y="-14.3" font-family="Times,serif" font-size="14.00">rot_con_pose_7_kinova_vs_goal</text>
</g>
<!-- ax_ang_error_pose_7_kinova_vs_goal&#45;&gt;rot_con_pose_7_kinova_vs_goal -->
<g id="edge22" class="edge">
<title>ax_ang_error_pose_7_kinova_vs_goal&#45;&gt;rot_con_pose_7_kinova_vs_goal</title>
<path fill="none" stroke="black" d="M1002.29,-71.7C1002.29,-63.98 1002.29,-54.71 1002.29,-46.11"/>
<polygon fill="black" stroke="black" points="1005.79,-46.1 1002.29,-36.1 998.79,-46.1 1005.79,-46.1"/>
</g>
</g>
</svg>
