<?xml version="1.0" encoding="UTF-8" standalone="no"?>
<!DOCTYPE svg PUBLIC "-//W3C//DTD SVG 1.1//EN"
 "http://www.w3.org/Graphics/SVG/1.1/DTD/svg11.dtd">
<!-- Generated by graphviz version 2.43.0 (0)
 -->
<!-- Title: %3 Pages: 1 -->
<svg width="2478pt" height="508pt"
 viewBox="0.00 0.00 2478.07 508.00" xmlns="http://www.w3.org/2000/svg" xmlns:xlink="http://www.w3.org/1999/xlink">
<g id="graph0" class="graph" transform="scale(1 1) rotate(0) translate(4 504)">
<title>%3</title>
<polygon fill="white" stroke="transparent" points="-4,4 -4,-504 2474.07,-504 2474.07,4 -4,4"/>
<!-- q_mmo_500_ppr -->
<g id="node1" class="node">
<title>q_mmo_500_ppr</title>
<polygon fill="none" stroke="green" points="810.11,-310.54 810.11,-325.46 755.26,-336 677.7,-336 622.85,-325.46 622.85,-310.54 677.7,-300 755.26,-300 810.11,-310.54"/>
<polygon fill="none" stroke="green" points="814.11,-307.24 814.11,-328.76 755.64,-340 677.32,-340 618.85,-328.76 618.85,-307.24 677.32,-296 755.64,-296 814.11,-307.24"/>
<text text-anchor="middle" x="716.48" y="-314.3" font-family="Times,serif" font-size="14.00">q_mmo_500_ppr</text>
</g>
<!-- error_q_mmo_500_ppr_q_init_mmo_500_ppr -->
<g id="node5" class="node">
<title>error_q_mmo_500_ppr_q_init_mmo_500_ppr</title>
<ellipse fill="none" stroke="green" cx="214.48" cy="-238" rx="214.46" ry="18"/>
<text text-anchor="middle" x="214.48" y="-234.3" font-family="Times,serif" font-size="14.00">error_q_mmo_500_ppr_q_init_mmo_500_ppr</text>
</g>
<!-- q_mmo_500_ppr&#45;&gt;error_q_mmo_500_ppr_q_init_mmo_500_ppr -->
<g id="edge1" class="edge">
<title>q_mmo_500_ppr&#45;&gt;error_q_mmo_500_ppr_q_init_mmo_500_ppr</title>
<path fill="none" stroke="black" d="M634.15,-304.21C548.8,-290.95 415.04,-270.16 321.53,-255.63"/>
<polygon fill="black" stroke="black" points="321.9,-252.15 311.48,-254.07 320.82,-259.07 321.9,-252.15"/>
</g>
<!-- limits_q_mmo_500_ppr -->
<g id="node9" class="node">
<title>limits_q_mmo_500_ppr</title>
<polygon fill="none" stroke="magenta" points="718.66,-238 651.07,-256 515.89,-256 448.3,-238 515.89,-220 651.07,-220 718.66,-238"/>
<text text-anchor="middle" x="583.48" y="-234.3" font-family="Times,serif" font-size="14.00">limits_q_mmo_500_ppr</text>
</g>
<!-- q_mmo_500_ppr&#45;&gt;limits_q_mmo_500_ppr -->
<g id="edge2" class="edge">
<title>q_mmo_500_ppr&#45;&gt;limits_q_mmo_500_ppr</title>
<path fill="none" stroke="black" d="M680.49,-295.89C662.24,-285.19 640.08,-272.2 621.55,-261.33"/>
<polygon fill="black" stroke="black" points="623.18,-258.22 612.78,-256.18 619.63,-264.26 623.18,-258.22"/>
</g>
<!-- pose_9_mmo_500_ppr -->
<g id="node17" class="node">
<title>pose_9_mmo_500_ppr</title>
<ellipse fill="none" stroke="green" cx="849.48" cy="-238" rx="112.38" ry="18"/>
<text text-anchor="middle" x="849.48" y="-234.3" font-family="Times,serif" font-size="14.00">pose_9_mmo_500_ppr</text>
</g>
<!-- q_mmo_500_ppr&#45;&gt;pose_9_mmo_500_ppr -->
<g id="edge3" class="edge">
<title>q_mmo_500_ppr&#45;&gt;pose_9_mmo_500_ppr</title>
<path fill="none" stroke="black" d="M752.47,-295.89C770.98,-285.04 793.52,-271.82 812.21,-260.86"/>
<polygon fill="black" stroke="black" points="814.19,-263.75 821.05,-255.68 810.65,-257.72 814.19,-263.75"/>
</g>
<!-- qd_mmo_500_ppr -->
<g id="node2" class="node">
<title>qd_mmo_500_ppr</title>
<polygon fill="none" stroke="green" points="1700.28,-390.54 1700.28,-405.46 1641.82,-416 1559.14,-416 1500.68,-405.46 1500.68,-390.54 1559.14,-380 1641.82,-380 1700.28,-390.54"/>
<polygon fill="none" stroke="green" points="1704.27,-387.2 1704.27,-408.8 1642.17,-420 1558.79,-420 1496.69,-408.8 1496.69,-387.2 1558.79,-376 1642.17,-376 1704.27,-387.2"/>
<text text-anchor="middle" x="1600.48" y="-394.3" font-family="Times,serif" font-size="14.00">qd_mmo_500_ppr</text>
</g>
<!-- qd_mmo_500_ppr&#45;&gt;q_mmo_500_ppr -->
<g id="edge23" class="edge">
<title>qd_mmo_500_ppr&#45;&gt;q_mmo_500_ppr</title>
<path fill="none" stroke="black" stroke-dasharray="5,2" d="M1496.48,-387.82C1327.66,-372.93 995.68,-343.64 824.39,-328.52"/>
<polygon fill="black" stroke="black" points="824.61,-325.03 814.35,-327.64 824,-332 824.61,-325.03"/>
</g>
<!-- stationary_qd_mmo_500_ppr -->
<g id="node8" class="node">
<title>stationary_qd_mmo_500_ppr</title>
<polygon fill="none" stroke="magenta" points="1592.2,-318 1509.34,-336 1343.62,-336 1260.76,-318 1343.62,-300 1509.34,-300 1592.2,-318"/>
<text text-anchor="middle" x="1426.48" y="-314.3" font-family="Times,serif" font-size="14.00">stationary_qd_mmo_500_ppr</text>
</g>
<!-- qd_mmo_500_ppr&#45;&gt;stationary_qd_mmo_500_ppr -->
<g id="edge4" class="edge">
<title>qd_mmo_500_ppr&#45;&gt;stationary_qd_mmo_500_ppr</title>
<path fill="none" stroke="black" d="M1554.76,-376.51C1529.85,-365.34 1499.07,-351.54 1473.9,-340.26"/>
<polygon fill="black" stroke="black" points="1475.11,-336.96 1464.55,-336.06 1472.24,-343.35 1475.11,-336.96"/>
</g>
<!-- limits_qd_mmo_500_ppr -->
<g id="node11" class="node">
<title>limits_qd_mmo_500_ppr</title>
<polygon fill="none" stroke="magenta" points="1894.17,-318 1823.32,-336 1681.64,-336 1610.8,-318 1681.64,-300 1823.32,-300 1894.17,-318"/>
<text text-anchor="middle" x="1752.48" y="-314.3" font-family="Times,serif" font-size="14.00">limits_qd_mmo_500_ppr</text>
</g>
<!-- qd_mmo_500_ppr&#45;&gt;limits_qd_mmo_500_ppr -->
<g id="edge5" class="edge">
<title>qd_mmo_500_ppr&#45;&gt;limits_qd_mmo_500_ppr</title>
<path fill="none" stroke="black" d="M1641.61,-375.89C1662.75,-365.04 1688.48,-351.84 1709.84,-340.88"/>
<polygon fill="black" stroke="black" points="1711.7,-343.86 1719,-336.18 1708.5,-337.63 1711.7,-343.86"/>
</g>
<!-- qdd_mmo_500_ppr -->
<g id="node3" class="node">
<title>qdd_mmo_500_ppr</title>
<polygon fill="none" stroke="cyan" points="2136.93,-470.54 2136.93,-485.46 2074.57,-496 1986.39,-496 1924.03,-485.46 1924.03,-470.54 1986.39,-460 2074.57,-460 2136.93,-470.54"/>
<polygon fill="none" stroke="cyan" points="2140.94,-467.16 2140.94,-488.84 2074.91,-500 1986.05,-500 1920.03,-488.84 1920.03,-467.16 1986.05,-456 2074.91,-456 2140.94,-467.16"/>
<text text-anchor="middle" x="2030.48" y="-474.3" font-family="Times,serif" font-size="14.00">qdd_mmo_500_ppr</text>
</g>
<!-- qdd_mmo_500_ppr&#45;&gt;qd_mmo_500_ppr -->
<g id="edge24" class="edge">
<title>qdd_mmo_500_ppr&#45;&gt;qd_mmo_500_ppr</title>
<path fill="none" stroke="black" stroke-dasharray="5,2" d="M1949.1,-462.24C1875,-448.8 1765.81,-428.99 1689.44,-415.14"/>
<polygon fill="black" stroke="black" points="1689.82,-411.65 1679.36,-413.31 1688.57,-418.54 1689.82,-411.65"/>
</g>
<!-- limits_qdd_mmo_500_ppr -->
<g id="node13" class="node">
<title>limits_qdd_mmo_500_ppr</title>
<polygon fill="none" stroke="magenta" points="2179.17,-398 2104.83,-416 1956.13,-416 1881.79,-398 1956.13,-380 2104.83,-380 2179.17,-398"/>
<text text-anchor="middle" x="2030.48" y="-394.3" font-family="Times,serif" font-size="14.00">limits_qdd_mmo_500_ppr</text>
</g>
<!-- qdd_mmo_500_ppr&#45;&gt;limits_qdd_mmo_500_ppr -->
<g id="edge6" class="edge">
<title>qdd_mmo_500_ppr&#45;&gt;limits_qdd_mmo_500_ppr</title>
<path fill="none" stroke="black" d="M2030.48,-455.69C2030.48,-446.64 2030.48,-435.99 2030.48,-426.37"/>
<polygon fill="black" stroke="black" points="2033.98,-426.09 2030.48,-416.09 2026.98,-426.09 2033.98,-426.09"/>
</g>
<!-- reg_qdd_mmo_500_ppr -->
<g id="node15" class="node">
<title>reg_qdd_mmo_500_ppr</title>
<polygon fill="none" stroke="magenta" points="2470.16,-398 2401.82,-416 2265.14,-416 2196.8,-398 2265.14,-380 2401.82,-380 2470.16,-398"/>
<text text-anchor="middle" x="2333.48" y="-394.3" font-family="Times,serif" font-size="14.00">reg_qdd_mmo_500_ppr</text>
</g>
<!-- qdd_mmo_500_ppr&#45;&gt;reg_qdd_mmo_500_ppr -->
<g id="edge7" class="edge">
<title>qdd_mmo_500_ppr&#45;&gt;reg_qdd_mmo_500_ppr</title>
<path fill="none" stroke="black" d="M2097.35,-459.79C2144.63,-447.61 2208.11,-431.27 2257.34,-418.6"/>
<polygon fill="black" stroke="black" points="2258.49,-421.92 2267.3,-416.04 2256.75,-415.14 2258.49,-421.92"/>
</g>
<!-- q_init_mmo_500_ppr -->
<g id="node4" class="node">
<title>q_init_mmo_500_ppr</title>
<polygon fill="none" stroke="blue" points="329.73,-310.54 329.73,-325.46 262.22,-336 166.74,-336 99.23,-325.46 99.23,-310.54 166.74,-300 262.22,-300 329.73,-310.54"/>
<polygon fill="none" stroke="blue" points="333.73,-307.12 333.73,-328.88 262.53,-340 166.43,-340 95.24,-328.88 95.24,-307.12 166.43,-296 262.53,-296 333.73,-307.12"/>
<text text-anchor="middle" x="214.48" y="-314.3" font-family="Times,serif" font-size="14.00">q_init_mmo_500_ppr</text>
</g>
<!-- q_init_mmo_500_ppr&#45;&gt;error_q_mmo_500_ppr_q_init_mmo_500_ppr -->
<g id="edge8" class="edge">
<title>q_init_mmo_500_ppr&#45;&gt;error_q_mmo_500_ppr_q_init_mmo_500_ppr</title>
<path fill="none" stroke="black" d="M214.48,-295.69C214.48,-286.64 214.48,-275.99 214.48,-266.37"/>
<polygon fill="black" stroke="black" points="217.98,-266.09 214.48,-256.09 210.98,-266.09 217.98,-266.09"/>
</g>
<!-- equality_q_mmo_500_ppr -->
<g id="node6" class="node">
<title>equality_q_mmo_500_ppr</title>
<polygon fill="none" stroke="magenta" points="360.17,-162 286.33,-180 138.63,-180 64.79,-162 138.63,-144 286.33,-144 360.17,-162"/>
<text text-anchor="middle" x="212.48" y="-158.3" font-family="Times,serif" font-size="14.00">equality_q_mmo_500_ppr</text>
</g>
<!-- error_q_mmo_500_ppr_q_init_mmo_500_ppr&#45;&gt;equality_q_mmo_500_ppr -->
<g id="edge9" class="edge">
<title>error_q_mmo_500_ppr_q_init_mmo_500_ppr&#45;&gt;equality_q_mmo_500_ppr</title>
<path fill="none" stroke="black" d="M214.02,-219.84C213.78,-211.06 213.49,-200.16 213.22,-190.27"/>
<polygon fill="black" stroke="black" points="216.71,-189.97 212.94,-180.07 209.71,-190.16 216.71,-189.97"/>
</g>
<!-- (&#39;initial&#39;, &#39;equality_q_mmo_500_ppr&#39;) -->
<g id="node7" class="node">
<title>(&#39;initial&#39;, &#39;equality_q_mmo_500_ppr&#39;)</title>
<polygon fill="none" stroke="purple" points="348.98,-108 75.98,-108 75.98,-72 348.98,-72 348.98,-108"/>
<text text-anchor="middle" x="212.48" y="-86.3" font-family="Times,serif" font-size="14.00">(&#39;initial&#39;, &#39;equality_q_mmo_500_ppr&#39;)</text>
</g>
<!-- equality_q_mmo_500_ppr&#45;&gt;(&#39;initial&#39;, &#39;equality_q_mmo_500_ppr&#39;) -->
<g id="edge10" class="edge">
<title>equality_q_mmo_500_ppr&#45;&gt;(&#39;initial&#39;, &#39;equality_q_mmo_500_ppr&#39;)</title>
<path fill="none" stroke="black" d="M212.48,-143.7C212.48,-135.98 212.48,-126.71 212.48,-118.11"/>
<polygon fill="black" stroke="black" points="215.98,-118.1 212.48,-108.1 208.98,-118.1 215.98,-118.1"/>
</g>
<!-- (&#39;terminal&#39;, &#39;stationary_qd_mmo_500_ppr&#39;) -->
<g id="node24" class="node">
<title>(&#39;terminal&#39;, &#39;stationary_qd_mmo_500_ppr&#39;)</title>
<polygon fill="none" stroke="purple" points="1595.98,-256 1278.98,-256 1278.98,-220 1595.98,-220 1595.98,-256"/>
<text text-anchor="middle" x="1437.48" y="-234.3" font-family="Times,serif" font-size="14.00">(&#39;terminal&#39;, &#39;stationary_qd_mmo_500_ppr&#39;)</text>
</g>
<!-- stationary_qd_mmo_500_ppr&#45;&gt;(&#39;terminal&#39;, &#39;stationary_qd_mmo_500_ppr&#39;) -->
<g id="edge11" class="edge">
<title>stationary_qd_mmo_500_ppr&#45;&gt;(&#39;terminal&#39;, &#39;stationary_qd_mmo_500_ppr&#39;)</title>
<path fill="none" stroke="black" d="M1428.92,-299.69C1430.3,-289.89 1432.06,-277.42 1433.63,-266.33"/>
<polygon fill="black" stroke="black" points="1437.12,-266.65 1435.05,-256.26 1430.18,-265.68 1437.12,-266.65"/>
</g>
<!-- (&#39;path&#39;, &#39;limits_q_mmo_500_ppr&#39;) -->
<g id="node10" class="node">
<title>(&#39;path&#39;, &#39;limits_q_mmo_500_ppr&#39;)</title>
<polygon fill="none" stroke="purple" points="624.98,-180 377.98,-180 377.98,-144 624.98,-144 624.98,-180"/>
<text text-anchor="middle" x="501.48" y="-158.3" font-family="Times,serif" font-size="14.00">(&#39;path&#39;, &#39;limits_q_mmo_500_ppr&#39;)</text>
</g>
<!-- limits_q_mmo_500_ppr&#45;&gt;(&#39;path&#39;, &#39;limits_q_mmo_500_ppr&#39;) -->
<g id="edge12" class="edge">
<title>limits_q_mmo_500_ppr&#45;&gt;(&#39;path&#39;, &#39;limits_q_mmo_500_ppr&#39;)</title>
<path fill="none" stroke="black" d="M564.46,-219.84C553.6,-210.03 539.8,-197.58 527.9,-186.84"/>
<polygon fill="black" stroke="black" points="530.17,-184.17 520.4,-180.07 525.48,-189.37 530.17,-184.17"/>
</g>
<!-- (&#39;path&#39;, &#39;limits_qd_mmo_500_ppr&#39;) -->
<g id="node12" class="node">
<title>(&#39;path&#39;, &#39;limits_qd_mmo_500_ppr&#39;)</title>
<polygon fill="none" stroke="purple" points="1880.48,-256 1624.48,-256 1624.48,-220 1880.48,-220 1880.48,-256"/>
<text text-anchor="middle" x="1752.48" y="-234.3" font-family="Times,serif" font-size="14.00">(&#39;path&#39;, &#39;limits_qd_mmo_500_ppr&#39;)</text>
</g>
<!-- limits_qd_mmo_500_ppr&#45;&gt;(&#39;path&#39;, &#39;limits_qd_mmo_500_ppr&#39;) -->
<g id="edge13" class="edge">
<title>limits_qd_mmo_500_ppr&#45;&gt;(&#39;path&#39;, &#39;limits_qd_mmo_500_ppr&#39;)</title>
<path fill="none" stroke="black" d="M1752.48,-299.69C1752.48,-289.89 1752.48,-277.42 1752.48,-266.33"/>
<polygon fill="black" stroke="black" points="1755.98,-266.26 1752.48,-256.26 1748.98,-266.26 1755.98,-266.26"/>
</g>
<!-- (&#39;path&#39;, &#39;limits_qdd_mmo_500_ppr&#39;) -->
<g id="node14" class="node">
<title>(&#39;path&#39;, &#39;limits_qdd_mmo_500_ppr&#39;)</title>
<polygon fill="none" stroke="purple" points="2176.98,-336 1911.98,-336 1911.98,-300 2176.98,-300 2176.98,-336"/>
<text text-anchor="middle" x="2044.48" y="-314.3" font-family="Times,serif" font-size="14.00">(&#39;path&#39;, &#39;limits_qdd_mmo_500_ppr&#39;)</text>
</g>
<!-- limits_qdd_mmo_500_ppr&#45;&gt;(&#39;path&#39;, &#39;limits_qdd_mmo_500_ppr&#39;) -->
<g id="edge14" class="edge">
<title>limits_qdd_mmo_500_ppr&#45;&gt;(&#39;path&#39;, &#39;limits_qdd_mmo_500_ppr&#39;)</title>
<path fill="none" stroke="black" d="M2033.59,-379.69C2035.35,-369.89 2037.58,-357.42 2039.57,-346.33"/>
<polygon fill="black" stroke="black" points="2043.06,-346.72 2041.38,-336.26 2036.17,-345.49 2043.06,-346.72"/>
</g>
<!-- (&#39;path&#39;, &#39;reg_qdd_mmo_500_ppr&#39;) -->
<g id="node16" class="node">
<title>(&#39;path&#39;, &#39;reg_qdd_mmo_500_ppr&#39;)</title>
<polygon fill="none" stroke="purple" points="2457.48,-336 2209.48,-336 2209.48,-300 2457.48,-300 2457.48,-336"/>
<text text-anchor="middle" x="2333.48" y="-314.3" font-family="Times,serif" font-size="14.00">(&#39;path&#39;, &#39;reg_qdd_mmo_500_ppr&#39;)</text>
</g>
<!-- reg_qdd_mmo_500_ppr&#45;&gt;(&#39;path&#39;, &#39;reg_qdd_mmo_500_ppr&#39;) -->
<g id="edge15" class="edge">
<title>reg_qdd_mmo_500_ppr&#45;&gt;(&#39;path&#39;, &#39;reg_qdd_mmo_500_ppr&#39;)</title>
<path fill="none" stroke="black" d="M2333.48,-379.69C2333.48,-369.89 2333.48,-357.42 2333.48,-346.33"/>
<polygon fill="black" stroke="black" points="2336.98,-346.26 2333.48,-336.26 2329.98,-346.26 2336.98,-346.26"/>
</g>
<!-- trans_error_pose_9_mmo_500_ppr_vs_goal -->
<g id="node19" class="node">
<title>trans_error_pose_9_mmo_500_ppr_vs_goal</title>
<ellipse fill="none" stroke="green" cx="850.48" cy="-162" rx="207.96" ry="18"/>
<text text-anchor="middle" x="850.48" y="-158.3" font-family="Times,serif" font-size="14.00">trans_error_pose_9_mmo_500_ppr_vs_goal</text>
</g>
<!-- pose_9_mmo_500_ppr&#45;&gt;trans_error_pose_9_mmo_500_ppr_vs_goal -->
<g id="edge16" class="edge">
<title>pose_9_mmo_500_ppr&#45;&gt;trans_error_pose_9_mmo_500_ppr_vs_goal</title>
<path fill="none" stroke="black" d="M849.71,-219.84C849.83,-211.06 849.98,-200.16 850.11,-190.27"/>
<polygon fill="black" stroke="black" points="853.61,-190.12 850.25,-180.07 846.62,-190.02 853.61,-190.12"/>
</g>
<!-- rotmat_error_pose_9_mmo_500_ppr_vs_goal -->
<g id="node21" class="node">
<title>rotmat_error_pose_9_mmo_500_ppr_vs_goal</title>
<ellipse fill="none" stroke="green" cx="1291.48" cy="-162" rx="215.26" ry="18"/>
<text text-anchor="middle" x="1291.48" y="-158.3" font-family="Times,serif" font-size="14.00">rotmat_error_pose_9_mmo_500_ppr_vs_goal</text>
</g>
<!-- pose_9_mmo_500_ppr&#45;&gt;rotmat_error_pose_9_mmo_500_ppr_vs_goal -->
<g id="edge17" class="edge">
<title>pose_9_mmo_500_ppr&#45;&gt;rotmat_error_pose_9_mmo_500_ppr_vs_goal</title>
<path fill="none" stroke="black" d="M922.69,-224.32C938.76,-221.56 955.69,-218.67 971.48,-216 1043.95,-203.76 1125.7,-190.23 1188.44,-179.9"/>
<polygon fill="black" stroke="black" points="1189.04,-183.34 1198.34,-178.27 1187.9,-176.44 1189.04,-183.34"/>
</g>
<!-- goal_pose_mmo_500_ppr -->
<g id="node18" class="node">
<title>goal_pose_mmo_500_ppr</title>
<polygon fill="none" stroke="blue" points="1256.94,-230.54 1256.94,-245.46 1177,-256 1063.96,-256 984.03,-245.46 984.03,-230.54 1063.96,-220 1177,-220 1256.94,-230.54"/>
<polygon fill="none" stroke="blue" points="1260.94,-227.04 1260.94,-248.96 1177.27,-260 1063.7,-260 980.03,-248.96 980.03,-227.04 1063.7,-216 1177.27,-216 1260.94,-227.04"/>
<text text-anchor="middle" x="1120.48" y="-234.3" font-family="Times,serif" font-size="14.00">goal_pose_mmo_500_ppr</text>
</g>
<!-- goal_pose_mmo_500_ppr&#45;&gt;trans_error_pose_9_mmo_500_ppr_vs_goal -->
<g id="edge18" class="edge">
<title>goal_pose_mmo_500_ppr&#45;&gt;trans_error_pose_9_mmo_500_ppr_vs_goal</title>
<path fill="none" stroke="black" d="M1050.25,-217.75C1009.97,-206.71 959.62,-192.91 919.55,-181.93"/>
<polygon fill="black" stroke="black" points="920.42,-178.54 909.85,-179.27 918.57,-185.29 920.42,-178.54"/>
</g>
<!-- goal_pose_mmo_500_ppr&#45;&gt;rotmat_error_pose_9_mmo_500_ppr_vs_goal -->
<g id="edge19" class="edge">
<title>goal_pose_mmo_500_ppr&#45;&gt;rotmat_error_pose_9_mmo_500_ppr_vs_goal</title>
<path fill="none" stroke="black" d="M1169.03,-215.99C1192.37,-205.89 1220.27,-193.82 1243.53,-183.75"/>
<polygon fill="black" stroke="black" points="1245.07,-186.9 1252.86,-179.71 1242.29,-180.47 1245.07,-186.9"/>
</g>
<!-- trans_con_pose_9_mmo_500_ppr_vs_goal -->
<g id="node20" class="node">
<title>trans_con_pose_9_mmo_500_ppr_vs_goal</title>
<polygon fill="none" stroke="magenta" points="1069.78,-90 954.13,-108 722.83,-108 607.18,-90 722.83,-72 954.13,-72 1069.78,-90"/>
<text text-anchor="middle" x="838.48" y="-86.3" font-family="Times,serif" font-size="14.00">trans_con_pose_9_mmo_500_ppr_vs_goal</text>
</g>
<!-- trans_error_pose_9_mmo_500_ppr_vs_goal&#45;&gt;trans_con_pose_9_mmo_500_ppr_vs_goal -->
<g id="edge20" class="edge">
<title>trans_error_pose_9_mmo_500_ppr_vs_goal&#45;&gt;trans_con_pose_9_mmo_500_ppr_vs_goal</title>
<path fill="none" stroke="black" d="M847.51,-143.7C846.19,-135.98 844.6,-126.71 843.13,-118.11"/>
<polygon fill="black" stroke="black" points="846.55,-117.37 841.41,-108.1 839.65,-118.55 846.55,-117.37"/>
</g>
<!-- ax_ang_error_pose_9_mmo_500_ppr_vs_goal -->
<g id="node22" class="node">
<title>ax_ang_error_pose_9_mmo_500_ppr_vs_goal</title>
<ellipse fill="none" stroke="green" cx="1303.48" cy="-90" rx="215.56" ry="18"/>
<text text-anchor="middle" x="1303.48" y="-86.3" font-family="Times,serif" font-size="14.00">ax_ang_error_pose_9_mmo_500_ppr_vs_goal</text>
</g>
<!-- rotmat_error_pose_9_mmo_500_ppr_vs_goal&#45;&gt;ax_ang_error_pose_9_mmo_500_ppr_vs_goal -->
<g id="edge21" class="edge">
<title>rotmat_error_pose_9_mmo_500_ppr_vs_goal&#45;&gt;ax_ang_error_pose_9_mmo_500_ppr_vs_goal</title>
<path fill="none" stroke="black" d="M1294.45,-143.7C1295.77,-135.98 1297.36,-126.71 1298.83,-118.11"/>
<polygon fill="black" stroke="black" points="1302.31,-118.55 1300.55,-108.1 1295.41,-117.37 1302.31,-118.55"/>
</g>
<!-- rot_con_pose_9_mmo_500_ppr_vs_goal -->
<g id="node23" class="node">
<title>rot_con_pose_9_mmo_500_ppr_vs_goal</title>
<polygon fill="none" stroke="magenta" points="1521.77,-18 1412.62,-36 1194.34,-36 1085.2,-18 1194.34,0 1412.62,0 1521.77,-18"/>
<text text-anchor="middle" x="1303.48" y="-14.3" font-family="Times,serif" font-size="14.00">rot_con_pose_9_mmo_500_ppr_vs_goal</text>
</g>
<!-- ax_ang_error_pose_9_mmo_500_ppr_vs_goal&#45;&gt;rot_con_pose_9_mmo_500_ppr_vs_goal -->
<g id="edge22" class="edge">
<title>ax_ang_error_pose_9_mmo_500_ppr_vs_goal&#45;&gt;rot_con_pose_9_mmo_500_ppr_vs_goal</title>
<path fill="none" stroke="black" d="M1303.48,-71.7C1303.48,-63.98 1303.48,-54.71 1303.48,-46.11"/>
<polygon fill="black" stroke="black" points="1306.98,-46.1 1303.48,-36.1 1299.98,-46.1 1306.98,-46.1"/>
</g>
</g>
</svg>
