<?xml version="1.0" encoding="UTF-8" standalone="no"?>
<!DOCTYPE svg PUBLIC "-//W3C//DTD SVG 1.1//EN"
 "http://www.w3.org/Graphics/SVG/1.1/DTD/svg11.dtd">
<!-- Generated by graphviz version 2.43.0 (0)
 -->
<!-- Title: %3 Pages: 1 -->
<svg width="2045pt" height="580pt"
 viewBox="0.00 0.00 2045.04 580.00" xmlns="http://www.w3.org/2000/svg" xmlns:xlink="http://www.w3.org/1999/xlink">
<g id="graph0" class="graph" transform="scale(1 1) rotate(0) translate(4 576)">
<title>%3</title>
<polygon fill="white" stroke="transparent" points="-4,4 -4,-576 2041.04,-576 2041.04,4 -4,4"/>
<!-- q_indy7 -->
<g id="node1" class="node">
<title>q_indy7</title>
<polygon fill="none" stroke="green" points="872.83,-382.54 872.83,-397.46 843.07,-408 801,-408 771.24,-397.46 771.24,-382.54 801,-372 843.07,-372 872.83,-382.54"/>
<polygon fill="none" stroke="green" points="876.84,-379.72 876.84,-400.28 843.77,-412 800.3,-412 767.23,-400.28 767.23,-379.72 800.3,-368 843.77,-368 876.84,-379.72"/>
<text text-anchor="middle" x="822.04" y="-386.3" font-family="Times,serif" font-size="14.00">q_indy7</text>
</g>
<!-- error_q_indy7_jointpos_init_indy7 -->
<g id="node5" class="node">
<title>error_q_indy7_jointpos_init_indy7</title>
<ellipse fill="none" stroke="green" cx="167.04" cy="-310" rx="167.07" ry="18"/>
<text text-anchor="middle" x="167.04" y="-306.3" font-family="Times,serif" font-size="14.00">error_q_indy7_jointpos_init_indy7</text>
</g>
<!-- q_indy7&#45;&gt;error_q_indy7_jointpos_init_indy7 -->
<g id="edge1" class="edge">
<title>q_indy7&#45;&gt;error_q_indy7_jointpos_init_indy7</title>
<path fill="none" stroke="black" d="M767.32,-382.48C661.63,-369.9 427.27,-341.99 284.66,-325.01"/>
<polygon fill="black" stroke="black" points="284.9,-321.51 274.55,-323.8 284.07,-328.46 284.9,-321.51"/>
</g>
<!-- limits_q_indy7 -->
<g id="node10" class="node">
<title>limits_q_indy7</title>
<polygon fill="none" stroke="magenta" points="1001.15,-310 956.59,-328 867.48,-328 822.92,-310 867.48,-292 956.59,-292 1001.15,-310"/>
<text text-anchor="middle" x="912.04" y="-306.3" font-family="Times,serif" font-size="14.00">limits_q_indy7</text>
</g>
<!-- q_indy7&#45;&gt;limits_q_indy7 -->
<g id="edge2" class="edge">
<title>q_indy7&#45;&gt;limits_q_indy7</title>
<path fill="none" stroke="black" d="M845.68,-368.51C857.56,-358.21 872.02,-345.68 884.41,-334.95"/>
<polygon fill="black" stroke="black" points="886.93,-337.39 892.2,-328.19 882.35,-332.1 886.93,-337.39"/>
</g>
<!-- pose_6_indy7 -->
<g id="node18" class="node">
<title>pose_6_indy7</title>
<ellipse fill="none" stroke="green" cx="732.04" cy="-310" rx="72.59" ry="18"/>
<text text-anchor="middle" x="732.04" y="-306.3" font-family="Times,serif" font-size="14.00">pose_6_indy7</text>
</g>
<!-- q_indy7&#45;&gt;pose_6_indy7 -->
<g id="edge3" class="edge">
<title>q_indy7&#45;&gt;pose_6_indy7</title>
<path fill="none" stroke="black" d="M798.39,-368.51C786.26,-357.99 771.43,-345.14 758.87,-334.25"/>
<polygon fill="black" stroke="black" points="760.84,-331.33 750.99,-327.43 756.26,-336.62 760.84,-331.33"/>
</g>
<!-- qd_indy7 -->
<g id="node2" class="node">
<title>qd_indy7</title>
<polygon fill="none" stroke="green" points="1453,-462.54 1453,-477.46 1419.63,-488 1372.44,-488 1339.07,-477.46 1339.07,-462.54 1372.44,-452 1419.63,-452 1453,-462.54"/>
<polygon fill="none" stroke="green" points="1457,-459.61 1457,-480.39 1420.25,-492 1371.82,-492 1335.07,-480.39 1335.07,-459.61 1371.82,-448 1420.25,-448 1457,-459.61"/>
<text text-anchor="middle" x="1396.04" y="-466.3" font-family="Times,serif" font-size="14.00">qd_indy7</text>
</g>
<!-- qd_indy7&#45;&gt;q_indy7 -->
<g id="edge26" class="edge">
<title>qd_indy7&#45;&gt;q_indy7</title>
<path fill="none" stroke="black" stroke-dasharray="5,2" d="M1334.88,-460.69C1225.77,-445.86 998.54,-414.99 886.85,-399.81"/>
<polygon fill="black" stroke="black" points="887.12,-396.31 876.74,-398.43 886.17,-403.25 887.12,-396.31"/>
</g>
<!-- stationary_qd_indy7 -->
<g id="node8" class="node">
<title>stationary_qd_indy7</title>
<polygon fill="none" stroke="magenta" points="1398.69,-390 1338.36,-408 1217.71,-408 1157.38,-390 1217.71,-372 1338.36,-372 1398.69,-390"/>
<text text-anchor="middle" x="1278.04" y="-386.3" font-family="Times,serif" font-size="14.00">stationary_qd_indy7</text>
</g>
<!-- qd_indy7&#45;&gt;stationary_qd_indy7 -->
<g id="edge4" class="edge">
<title>qd_indy7&#45;&gt;stationary_qd_indy7</title>
<path fill="none" stroke="black" d="M1366.56,-449.52C1350.17,-438.68 1329.68,-425.14 1312.54,-413.81"/>
<polygon fill="black" stroke="black" points="1314.2,-410.71 1303.93,-408.11 1310.34,-416.55 1314.2,-410.71"/>
</g>
<!-- limits_qd_indy7 -->
<g id="node12" class="node">
<title>limits_qd_indy7</title>
<polygon fill="none" stroke="magenta" points="1609.16,-390 1561.1,-408 1464.97,-408 1416.91,-390 1464.97,-372 1561.1,-372 1609.16,-390"/>
<text text-anchor="middle" x="1513.04" y="-386.3" font-family="Times,serif" font-size="14.00">limits_qd_indy7</text>
</g>
<!-- qd_indy7&#45;&gt;limits_qd_indy7 -->
<g id="edge5" class="edge">
<title>qd_indy7&#45;&gt;limits_qd_indy7</title>
<path fill="none" stroke="black" d="M1425.26,-449.52C1441.51,-438.68 1461.83,-425.14 1478.82,-413.81"/>
<polygon fill="black" stroke="black" points="1480.99,-416.57 1487.36,-408.11 1477.1,-410.75 1480.99,-416.57"/>
</g>
<!-- qdd_indy7 -->
<g id="node3" class="node">
<title>qdd_indy7</title>
<polygon fill="none" stroke="cyan" points="1792.18,-542.54 1792.18,-557.46 1755.19,-568 1702.88,-568 1665.9,-557.46 1665.9,-542.54 1702.88,-532 1755.19,-532 1792.18,-542.54"/>
<polygon fill="none" stroke="cyan" points="1796.16,-539.52 1796.16,-560.48 1755.74,-572 1702.33,-572 1661.91,-560.48 1661.91,-539.52 1702.33,-528 1755.74,-528 1796.16,-539.52"/>
<text text-anchor="middle" x="1729.04" y="-546.3" font-family="Times,serif" font-size="14.00">qdd_indy7</text>
</g>
<!-- qdd_indy7&#45;&gt;qd_indy7 -->
<g id="edge27" class="edge">
<title>qdd_indy7&#45;&gt;qd_indy7</title>
<path fill="none" stroke="black" stroke-dasharray="5,2" d="M1673.67,-536.03C1614.28,-522.12 1520.18,-500.08 1458.26,-485.58"/>
<polygon fill="black" stroke="black" points="1458.77,-482.1 1448.23,-483.23 1457.17,-488.92 1458.77,-482.1"/>
</g>
<!-- limits_qdd_indy7 -->
<g id="node14" class="node">
<title>limits_qdd_indy7</title>
<polygon fill="none" stroke="magenta" points="1831.67,-470 1780.35,-488 1677.72,-488 1626.4,-470 1677.72,-452 1780.35,-452 1831.67,-470"/>
<text text-anchor="middle" x="1729.04" y="-466.3" font-family="Times,serif" font-size="14.00">limits_qdd_indy7</text>
</g>
<!-- qdd_indy7&#45;&gt;limits_qdd_indy7 -->
<g id="edge6" class="edge">
<title>qdd_indy7&#45;&gt;limits_qdd_indy7</title>
<path fill="none" stroke="black" d="M1729.04,-527.69C1729.04,-518.64 1729.04,-507.99 1729.04,-498.37"/>
<polygon fill="black" stroke="black" points="1732.54,-498.09 1729.04,-488.09 1725.54,-498.09 1732.54,-498.09"/>
</g>
<!-- reg_qdd_indy7 -->
<g id="node16" class="node">
<title>reg_qdd_indy7</title>
<polygon fill="none" stroke="magenta" points="2032.65,-470 1987.34,-488 1896.73,-488 1851.42,-470 1896.73,-452 1987.34,-452 2032.65,-470"/>
<text text-anchor="middle" x="1942.04" y="-466.3" font-family="Times,serif" font-size="14.00">reg_qdd_indy7</text>
</g>
<!-- qdd_indy7&#45;&gt;reg_qdd_indy7 -->
<g id="edge7" class="edge">
<title>qdd_indy7&#45;&gt;reg_qdd_indy7</title>
<path fill="none" stroke="black" d="M1773.17,-532.84C1806.03,-520.81 1851.11,-504.3 1886.43,-491.36"/>
<polygon fill="black" stroke="black" points="1887.93,-494.54 1896.12,-487.81 1885.52,-487.97 1887.93,-494.54"/>
</g>
<!-- jointpos_init_indy7 -->
<g id="node4" class="node">
<title>jointpos_init_indy7</title>
<polygon fill="none" stroke="red" points="273.48,-382.54 273.48,-397.46 211.13,-408 122.94,-408 60.59,-397.46 60.59,-382.54 122.94,-372 211.13,-372 273.48,-382.54"/>
<polygon fill="none" stroke="red" points="277.49,-379.16 277.49,-400.84 211.46,-412 122.61,-412 56.58,-400.84 56.58,-379.16 122.61,-368 211.46,-368 277.49,-379.16"/>
<text text-anchor="middle" x="167.04" y="-386.3" font-family="Times,serif" font-size="14.00">jointpos_init_indy7</text>
</g>
<!-- jointpos_init_indy7&#45;&gt;error_q_indy7_jointpos_init_indy7 -->
<g id="edge8" class="edge">
<title>jointpos_init_indy7&#45;&gt;error_q_indy7_jointpos_init_indy7</title>
<path fill="none" stroke="black" d="M167.04,-367.69C167.04,-358.64 167.04,-347.99 167.04,-338.37"/>
<polygon fill="black" stroke="black" points="170.54,-338.09 167.04,-328.09 163.54,-338.09 170.54,-338.09"/>
</g>
<!-- equality_q_indy7 -->
<g id="node6" class="node">
<title>equality_q_indy7</title>
<polygon fill="none" stroke="magenta" points="218.67,-234 167.35,-252 64.72,-252 13.4,-234 64.72,-216 167.35,-216 218.67,-234"/>
<text text-anchor="middle" x="116.04" y="-230.3" font-family="Times,serif" font-size="14.00">equality_q_indy7</text>
</g>
<!-- error_q_indy7_jointpos_init_indy7&#45;&gt;equality_q_indy7 -->
<g id="edge9" class="edge">
<title>error_q_indy7_jointpos_init_indy7&#45;&gt;equality_q_indy7</title>
<path fill="none" stroke="black" d="M155.21,-291.84C148.77,-282.5 140.68,-270.76 133.53,-260.39"/>
<polygon fill="black" stroke="black" points="136.36,-258.32 127.8,-252.07 130.59,-262.29 136.36,-258.32"/>
</g>
<!-- (&#39;initial&#39;, &#39;equality_q_indy7&#39;) -->
<g id="node7" class="node">
<title>(&#39;initial&#39;, &#39;equality_q_indy7&#39;)</title>
<polygon fill="none" stroke="purple" points="220.04,-180 8.04,-180 8.04,-144 220.04,-144 220.04,-180"/>
<text text-anchor="middle" x="114.04" y="-158.3" font-family="Times,serif" font-size="14.00">(&#39;initial&#39;, &#39;equality_q_indy7&#39;)</text>
</g>
<!-- equality_q_indy7&#45;&gt;(&#39;initial&#39;, &#39;equality_q_indy7&#39;) -->
<g id="edge10" class="edge">
<title>equality_q_indy7&#45;&gt;(&#39;initial&#39;, &#39;equality_q_indy7&#39;)</title>
<path fill="none" stroke="black" d="M115.54,-215.7C115.32,-207.98 115.06,-198.71 114.81,-190.11"/>
<polygon fill="black" stroke="black" points="118.31,-190 114.52,-180.1 111.31,-190.2 118.31,-190"/>
</g>
<!-- (&#39;initial&#39;, &#39;stationary_qd_indy7&#39;) -->
<g id="node9" class="node">
<title>(&#39;initial&#39;, &#39;stationary_qd_indy7&#39;)</title>
<polygon fill="none" stroke="purple" points="1529.04,-328 1293.04,-328 1293.04,-292 1529.04,-292 1529.04,-328"/>
<text text-anchor="middle" x="1411.04" y="-306.3" font-family="Times,serif" font-size="14.00">(&#39;initial&#39;, &#39;stationary_qd_indy7&#39;)</text>
</g>
<!-- stationary_qd_indy7&#45;&gt;(&#39;initial&#39;, &#39;stationary_qd_indy7&#39;) -->
<g id="edge11" class="edge">
<title>stationary_qd_indy7&#45;&gt;(&#39;initial&#39;, &#39;stationary_qd_indy7&#39;)</title>
<path fill="none" stroke="black" d="M1307.22,-371.88C1326.63,-360.5 1352.3,-345.45 1373.25,-333.16"/>
<polygon fill="black" stroke="black" points="1375.06,-336.16 1381.92,-328.08 1371.52,-330.12 1375.06,-336.16"/>
</g>
<!-- (&#39;terminal&#39;, &#39;stationary_qd_indy7&#39;) -->
<g id="node27" class="node">
<title>(&#39;terminal&#39;, &#39;stationary_qd_indy7&#39;)</title>
<polygon fill="none" stroke="purple" points="1275.04,-328 1019.04,-328 1019.04,-292 1275.04,-292 1275.04,-328"/>
<text text-anchor="middle" x="1147.04" y="-306.3" font-family="Times,serif" font-size="14.00">(&#39;terminal&#39;, &#39;stationary_qd_indy7&#39;)</text>
</g>
<!-- stationary_qd_indy7&#45;&gt;(&#39;terminal&#39;, &#39;stationary_qd_indy7&#39;) -->
<g id="edge12" class="edge">
<title>stationary_qd_indy7&#45;&gt;(&#39;terminal&#39;, &#39;stationary_qd_indy7&#39;)</title>
<path fill="none" stroke="black" d="M1249.29,-371.88C1230.26,-360.55 1205.12,-345.58 1184.52,-333.32"/>
<polygon fill="black" stroke="black" points="1186.1,-330.19 1175.72,-328.08 1182.52,-336.2 1186.1,-330.19"/>
</g>
<!-- (&#39;path&#39;, &#39;limits_q_indy7&#39;) -->
<g id="node11" class="node">
<title>(&#39;path&#39;, &#39;limits_q_indy7&#39;)</title>
<polygon fill="none" stroke="purple" points="1148.04,-252 962.04,-252 962.04,-216 1148.04,-216 1148.04,-252"/>
<text text-anchor="middle" x="1055.04" y="-230.3" font-family="Times,serif" font-size="14.00">(&#39;path&#39;, &#39;limits_q_indy7&#39;)</text>
</g>
<!-- limits_q_indy7&#45;&gt;(&#39;path&#39;, &#39;limits_q_indy7&#39;) -->
<g id="edge13" class="edge">
<title>limits_q_indy7&#45;&gt;(&#39;path&#39;, &#39;limits_q_indy7&#39;)</title>
<path fill="none" stroke="black" d="M945.2,-291.84C965.42,-281.38 991.43,-267.91 1013.07,-256.71"/>
<polygon fill="black" stroke="black" points="1014.78,-259.77 1022.05,-252.07 1011.56,-253.56 1014.78,-259.77"/>
</g>
<!-- (&#39;path&#39;, &#39;limits_qd_indy7&#39;) -->
<g id="node13" class="node">
<title>(&#39;path&#39;, &#39;limits_qd_indy7&#39;)</title>
<polygon fill="none" stroke="purple" points="1742.54,-328 1547.54,-328 1547.54,-292 1742.54,-292 1742.54,-328"/>
<text text-anchor="middle" x="1645.04" y="-306.3" font-family="Times,serif" font-size="14.00">(&#39;path&#39;, &#39;limits_qd_indy7&#39;)</text>
</g>
<!-- limits_qd_indy7&#45;&gt;(&#39;path&#39;, &#39;limits_qd_indy7&#39;) -->
<g id="edge14" class="edge">
<title>limits_qd_indy7&#45;&gt;(&#39;path&#39;, &#39;limits_qd_indy7&#39;)</title>
<path fill="none" stroke="black" d="M1542,-371.88C1561.17,-360.55 1586.51,-345.58 1607.26,-333.32"/>
<polygon fill="black" stroke="black" points="1609.31,-336.18 1616.13,-328.08 1605.74,-330.15 1609.31,-336.18"/>
</g>
<!-- (&#39;path&#39;, &#39;limits_qdd_indy7&#39;) -->
<g id="node15" class="node">
<title>(&#39;path&#39;, &#39;limits_qdd_indy7&#39;)</title>
<polygon fill="none" stroke="purple" points="1831.04,-408 1627.04,-408 1627.04,-372 1831.04,-372 1831.04,-408"/>
<text text-anchor="middle" x="1729.04" y="-386.3" font-family="Times,serif" font-size="14.00">(&#39;path&#39;, &#39;limits_qdd_indy7&#39;)</text>
</g>
<!-- limits_qdd_indy7&#45;&gt;(&#39;path&#39;, &#39;limits_qdd_indy7&#39;) -->
<g id="edge15" class="edge">
<title>limits_qdd_indy7&#45;&gt;(&#39;path&#39;, &#39;limits_qdd_indy7&#39;)</title>
<path fill="none" stroke="black" d="M1729.04,-451.69C1729.04,-441.89 1729.04,-429.42 1729.04,-418.33"/>
<polygon fill="black" stroke="black" points="1732.54,-418.26 1729.04,-408.26 1725.54,-418.26 1732.54,-418.26"/>
</g>
<!-- (&#39;path&#39;, &#39;reg_qdd_indy7&#39;) -->
<g id="node17" class="node">
<title>(&#39;path&#39;, &#39;reg_qdd_indy7&#39;)</title>
<polygon fill="none" stroke="purple" points="2037.04,-408 1849.04,-408 1849.04,-372 2037.04,-372 2037.04,-408"/>
<text text-anchor="middle" x="1943.04" y="-386.3" font-family="Times,serif" font-size="14.00">(&#39;path&#39;, &#39;reg_qdd_indy7&#39;)</text>
</g>
<!-- reg_qdd_indy7&#45;&gt;(&#39;path&#39;, &#39;reg_qdd_indy7&#39;) -->
<g id="edge16" class="edge">
<title>reg_qdd_indy7&#45;&gt;(&#39;path&#39;, &#39;reg_qdd_indy7&#39;)</title>
<path fill="none" stroke="black" d="M1942.26,-451.69C1942.38,-441.89 1942.54,-429.42 1942.68,-418.33"/>
<polygon fill="black" stroke="black" points="1946.19,-418.31 1942.81,-408.26 1939.19,-418.22 1946.19,-418.31"/>
</g>
<!-- trans_error_pose_6_indy7_vs_goal -->
<g id="node20" class="node">
<title>trans_error_pose_6_indy7_vs_goal</title>
<ellipse fill="none" stroke="green" cx="776.04" cy="-234" rx="168.17" ry="18"/>
<text text-anchor="middle" x="776.04" y="-230.3" font-family="Times,serif" font-size="14.00">trans_error_pose_6_indy7_vs_goal</text>
</g>
<!-- pose_6_indy7&#45;&gt;trans_error_pose_6_indy7_vs_goal -->
<g id="edge17" class="edge">
<title>pose_6_indy7&#45;&gt;trans_error_pose_6_indy7_vs_goal</title>
<path fill="none" stroke="black" d="M742.24,-291.84C747.74,-282.59 754.63,-271 760.76,-260.7"/>
<polygon fill="black" stroke="black" points="763.78,-262.45 765.89,-252.07 757.77,-258.88 763.78,-262.45"/>
</g>
<!-- rotmat_error_pose_6_indy7_vs_goal -->
<g id="node23" class="node">
<title>rotmat_error_pose_6_indy7_vs_goal</title>
<ellipse fill="none" stroke="green" cx="414.04" cy="-234" rx="175.47" ry="18"/>
<text text-anchor="middle" x="414.04" y="-230.3" font-family="Times,serif" font-size="14.00">rotmat_error_pose_6_indy7_vs_goal</text>
</g>
<!-- pose_6_indy7&#45;&gt;rotmat_error_pose_6_indy7_vs_goal -->
<g id="edge18" class="edge">
<title>pose_6_indy7&#45;&gt;rotmat_error_pose_6_indy7_vs_goal</title>
<path fill="none" stroke="black" d="M680.94,-297.11C629.74,-285.2 550.28,-266.7 491.35,-252.99"/>
<polygon fill="black" stroke="black" points="491.88,-249.52 481.34,-250.66 490.29,-256.34 491.88,-249.52"/>
</g>
<!-- goal_pose_indy7 -->
<g id="node19" class="node">
<title>goal_pose_indy7</title>
<polygon fill="none" stroke="red" points="550.66,-302.54 550.66,-317.46 495.82,-328 418.25,-328 363.41,-317.46 363.41,-302.54 418.25,-292 495.82,-292 550.66,-302.54"/>
<polygon fill="none" stroke="red" points="554.66,-299.24 554.66,-320.76 496.2,-332 417.87,-332 359.41,-320.76 359.41,-299.24 417.87,-288 496.2,-288 554.66,-299.24"/>
<text text-anchor="middle" x="457.04" y="-306.3" font-family="Times,serif" font-size="14.00">goal_pose_indy7</text>
</g>
<!-- goal_pose_indy7&#45;&gt;trans_error_pose_6_indy7_vs_goal -->
<g id="edge19" class="edge">
<title>goal_pose_indy7&#45;&gt;trans_error_pose_6_indy7_vs_goal</title>
<path fill="none" stroke="black" d="M524.3,-293.4C575.49,-281.52 646,-265.16 699.38,-252.78"/>
<polygon fill="black" stroke="black" points="700.19,-256.19 709.14,-250.52 698.61,-249.37 700.19,-256.19"/>
</g>
<!-- goal_pose_indy7&#45;&gt;rotmat_error_pose_6_indy7_vs_goal -->
<g id="edge20" class="edge">
<title>goal_pose_indy7&#45;&gt;rotmat_error_pose_6_indy7_vs_goal</title>
<path fill="none" stroke="black" d="M444.83,-287.99C439.96,-279.62 434.31,-269.89 429.19,-261.08"/>
<polygon fill="black" stroke="black" points="432.15,-259.2 424.1,-252.31 426.09,-262.72 432.15,-259.2"/>
</g>
<!-- trans_con_pose_6_indy7_vs_goal -->
<g id="node21" class="node">
<title>trans_con_pose_6_indy7_vs_goal</title>
<polygon fill="none" stroke="magenta" points="979.28,-162 886.66,-180 701.41,-180 608.79,-162 701.41,-144 886.66,-144 979.28,-162"/>
<text text-anchor="middle" x="794.04" y="-158.3" font-family="Times,serif" font-size="14.00">trans_con_pose_6_indy7_vs_goal</text>
</g>
<!-- trans_error_pose_6_indy7_vs_goal&#45;&gt;trans_con_pose_6_indy7_vs_goal -->
<g id="edge21" class="edge">
<title>trans_error_pose_6_indy7_vs_goal&#45;&gt;trans_con_pose_6_indy7_vs_goal</title>
<path fill="none" stroke="black" d="M780.48,-215.7C782.49,-207.9 784.9,-198.51 787.14,-189.83"/>
<polygon fill="black" stroke="black" points="790.54,-190.66 789.64,-180.1 783.76,-188.92 790.54,-190.66"/>
</g>
<!-- (&#39;terminal&#39;, &#39;trans_con_pose_6_indy7_vs_goal&#39;) -->
<g id="node22" class="node">
<title>(&#39;terminal&#39;, &#39;trans_con_pose_6_indy7_vs_goal&#39;)</title>
<polygon fill="none" stroke="purple" points="965.04,-108 623.04,-108 623.04,-72 965.04,-72 965.04,-108"/>
<text text-anchor="middle" x="794.04" y="-86.3" font-family="Times,serif" font-size="14.00">(&#39;terminal&#39;, &#39;trans_con_pose_6_indy7_vs_goal&#39;)</text>
</g>
<!-- trans_con_pose_6_indy7_vs_goal&#45;&gt;(&#39;terminal&#39;, &#39;trans_con_pose_6_indy7_vs_goal&#39;) -->
<g id="edge22" class="edge">
<title>trans_con_pose_6_indy7_vs_goal&#45;&gt;(&#39;terminal&#39;, &#39;trans_con_pose_6_indy7_vs_goal&#39;)</title>
<path fill="none" stroke="black" d="M794.04,-143.7C794.04,-135.98 794.04,-126.71 794.04,-118.11"/>
<polygon fill="black" stroke="black" points="797.54,-118.1 794.04,-108.1 790.54,-118.1 797.54,-118.1"/>
</g>
<!-- ax_ang_error_pose_6_indy7_vs_goal -->
<g id="node24" class="node">
<title>ax_ang_error_pose_6_indy7_vs_goal</title>
<ellipse fill="none" stroke="green" cx="414.04" cy="-162" rx="176.27" ry="18"/>
<text text-anchor="middle" x="414.04" y="-158.3" font-family="Times,serif" font-size="14.00">ax_ang_error_pose_6_indy7_vs_goal</text>
</g>
<!-- rotmat_error_pose_6_indy7_vs_goal&#45;&gt;ax_ang_error_pose_6_indy7_vs_goal -->
<g id="edge23" class="edge">
<title>rotmat_error_pose_6_indy7_vs_goal&#45;&gt;ax_ang_error_pose_6_indy7_vs_goal</title>
<path fill="none" stroke="black" d="M414.04,-215.7C414.04,-207.98 414.04,-198.71 414.04,-190.11"/>
<polygon fill="black" stroke="black" points="417.54,-190.1 414.04,-180.1 410.54,-190.1 417.54,-190.1"/>
</g>
<!-- rot_con_pose_6_indy7_vs_goal -->
<g id="node25" class="node">
<title>rot_con_pose_6_indy7_vs_goal</title>
<polygon fill="none" stroke="magenta" points="586.76,-90 500.4,-108 327.67,-108 241.31,-90 327.67,-72 500.4,-72 586.76,-90"/>
<text text-anchor="middle" x="414.04" y="-86.3" font-family="Times,serif" font-size="14.00">rot_con_pose_6_indy7_vs_goal</text>
</g>
<!-- ax_ang_error_pose_6_indy7_vs_goal&#45;&gt;rot_con_pose_6_indy7_vs_goal -->
<g id="edge24" class="edge">
<title>ax_ang_error_pose_6_indy7_vs_goal&#45;&gt;rot_con_pose_6_indy7_vs_goal</title>
<path fill="none" stroke="black" d="M414.04,-143.7C414.04,-135.98 414.04,-126.71 414.04,-118.11"/>
<polygon fill="black" stroke="black" points="417.54,-118.1 414.04,-108.1 410.54,-118.1 417.54,-118.1"/>
</g>
<!-- (&#39;terminal&#39;, &#39;rot_con_pose_6_indy7_vs_goal&#39;) -->
<g id="node26" class="node">
<title>(&#39;terminal&#39;, &#39;rot_con_pose_6_indy7_vs_goal&#39;)</title>
<polygon fill="none" stroke="purple" points="577.04,-36 251.04,-36 251.04,0 577.04,0 577.04,-36"/>
<text text-anchor="middle" x="414.04" y="-14.3" font-family="Times,serif" font-size="14.00">(&#39;terminal&#39;, &#39;rot_con_pose_6_indy7_vs_goal&#39;)</text>
</g>
<!-- rot_con_pose_6_indy7_vs_goal&#45;&gt;(&#39;terminal&#39;, &#39;rot_con_pose_6_indy7_vs_goal&#39;) -->
<g id="edge25" class="edge">
<title>rot_con_pose_6_indy7_vs_goal&#45;&gt;(&#39;terminal&#39;, &#39;rot_con_pose_6_indy7_vs_goal&#39;)</title>
<path fill="none" stroke="black" d="M414.04,-71.7C414.04,-63.98 414.04,-54.71 414.04,-46.11"/>
<polygon fill="black" stroke="black" points="417.54,-46.1 414.04,-36.1 410.54,-46.1 417.54,-46.1"/>
</g>
</g>
</svg>
