<?xml version="1.0" encoding="UTF-8" standalone="no"?>
<!DOCTYPE svg PUBLIC "-//W3C//DTD SVG 1.1//EN"
 "http://www.w3.org/Graphics/SVG/1.1/DTD/svg11.dtd">
<!-- Generated by graphviz version 2.43.0 (0)
 -->
<!-- Title: %3 Pages: 1 -->
<svg width="1789pt" height="508pt"
 viewBox="0.00 0.00 1789.00 508.00" xmlns="http://www.w3.org/2000/svg" xmlns:xlink="http://www.w3.org/1999/xlink">
<g id="graph0" class="graph" transform="scale(1 1) rotate(0) translate(4 504)">
<title>%3</title>
<polygon fill="white" stroke="transparent" points="-4,4 -4,-504 1785,-504 1785,4 -4,4"/>
<!-- q_indy7 -->
<g id="node1" class="node">
<title>q_indy7</title>
<polygon fill="none" stroke="green" points="545.79,-310.54 545.79,-325.46 516.04,-336 473.96,-336 444.21,-325.46 444.21,-310.54 473.96,-300 516.04,-300 545.79,-310.54"/>
<polygon fill="none" stroke="green" points="549.8,-307.72 549.8,-328.28 516.73,-340 473.27,-340 440.2,-328.28 440.2,-307.72 473.27,-296 516.73,-296 549.8,-307.72"/>
<text text-anchor="middle" x="495" y="-314.3" font-family="Times,serif" font-size="14.00">q_indy7</text>
</g>
<!-- error_q_indy7_q_init_indy7 -->
<g id="node5" class="node">
<title>error_q_indy7_q_init_indy7</title>
<ellipse fill="none" stroke="green" cx="141" cy="-238" rx="135.68" ry="18"/>
<text text-anchor="middle" x="141" y="-234.3" font-family="Times,serif" font-size="14.00">error_q_indy7_q_init_indy7</text>
</g>
<!-- q_indy7&#45;&gt;error_q_indy7_q_init_indy7 -->
<g id="edge1" class="edge">
<title>q_indy7&#45;&gt;error_q_indy7_q_init_indy7</title>
<path fill="none" stroke="black" d="M445.03,-305.99C385.9,-292.96 286.8,-271.13 217.88,-255.94"/>
<polygon fill="black" stroke="black" points="218.46,-252.48 207.94,-253.75 216.95,-259.32 218.46,-252.48"/>
</g>
<!-- limits_q_indy7 -->
<g id="node9" class="node">
<title>limits_q_indy7</title>
<polygon fill="none" stroke="magenta" points="490.12,-238 445.56,-256 356.44,-256 311.88,-238 356.44,-220 445.56,-220 490.12,-238"/>
<text text-anchor="middle" x="401" y="-234.3" font-family="Times,serif" font-size="14.00">limits_q_indy7</text>
</g>
<!-- q_indy7&#45;&gt;limits_q_indy7 -->
<g id="edge2" class="edge">
<title>q_indy7&#45;&gt;limits_q_indy7</title>
<path fill="none" stroke="black" d="M470.3,-296.51C457.78,-286.12 442.51,-273.44 429.49,-262.64"/>
<polygon fill="black" stroke="black" points="431.65,-259.89 421.72,-256.19 427.18,-265.27 431.65,-259.89"/>
</g>
<!-- pose_6_indy7 -->
<g id="node17" class="node">
<title>pose_6_indy7</title>
<ellipse fill="none" stroke="green" cx="590" cy="-238" rx="72.59" ry="18"/>
<text text-anchor="middle" x="590" y="-234.3" font-family="Times,serif" font-size="14.00">pose_6_indy7</text>
</g>
<!-- q_indy7&#45;&gt;pose_6_indy7 -->
<g id="edge3" class="edge">
<title>q_indy7&#45;&gt;pose_6_indy7</title>
<path fill="none" stroke="black" d="M519.46,-296.91C532.49,-286.22 548.55,-273.03 562.06,-261.94"/>
<polygon fill="black" stroke="black" points="564.59,-264.39 570.09,-255.34 560.14,-258.98 564.59,-264.39"/>
</g>
<!-- qd_indy7 -->
<g id="node2" class="node">
<title>qd_indy7</title>
<polygon fill="none" stroke="green" points="1196.97,-390.54 1196.97,-405.46 1163.6,-416 1116.4,-416 1083.03,-405.46 1083.03,-390.54 1116.4,-380 1163.6,-380 1196.97,-390.54"/>
<polygon fill="none" stroke="green" points="1200.97,-387.61 1200.97,-408.39 1164.21,-420 1115.79,-420 1079.03,-408.39 1079.03,-387.61 1115.79,-376 1164.21,-376 1200.97,-387.61"/>
<text text-anchor="middle" x="1140" y="-394.3" font-family="Times,serif" font-size="14.00">qd_indy7</text>
</g>
<!-- qd_indy7&#45;&gt;q_indy7 -->
<g id="edge23" class="edge">
<title>qd_indy7&#45;&gt;q_indy7</title>
<path fill="none" stroke="black" stroke-dasharray="5,2" d="M1079.03,-389.63C957.31,-374.91 685.17,-342 560.12,-326.87"/>
<polygon fill="black" stroke="black" points="560.28,-323.37 549.93,-325.64 559.43,-330.32 560.28,-323.37"/>
</g>
<!-- stationary_qd_indy7 -->
<g id="node8" class="node">
<title>stationary_qd_indy7</title>
<polygon fill="none" stroke="magenta" points="1142.66,-318 1082.33,-336 961.67,-336 901.34,-318 961.67,-300 1082.33,-300 1142.66,-318"/>
<text text-anchor="middle" x="1022" y="-314.3" font-family="Times,serif" font-size="14.00">stationary_qd_indy7</text>
</g>
<!-- qd_indy7&#45;&gt;stationary_qd_indy7 -->
<g id="edge4" class="edge">
<title>qd_indy7&#45;&gt;stationary_qd_indy7</title>
<path fill="none" stroke="black" d="M1110.53,-377.52C1094.14,-366.68 1073.64,-353.14 1056.51,-341.81"/>
<polygon fill="black" stroke="black" points="1058.16,-338.71 1047.89,-336.11 1054.3,-344.55 1058.16,-338.71"/>
</g>
<!-- limits_qd_indy7 -->
<g id="node11" class="node">
<title>limits_qd_indy7</title>
<polygon fill="none" stroke="magenta" points="1353.13,-318 1305.06,-336 1208.94,-336 1160.87,-318 1208.94,-300 1305.06,-300 1353.13,-318"/>
<text text-anchor="middle" x="1257" y="-314.3" font-family="Times,serif" font-size="14.00">limits_qd_indy7</text>
</g>
<!-- qd_indy7&#45;&gt;limits_qd_indy7 -->
<g id="edge5" class="edge">
<title>qd_indy7&#45;&gt;limits_qd_indy7</title>
<path fill="none" stroke="black" d="M1169.22,-377.52C1185.48,-366.68 1205.79,-353.14 1222.79,-341.81"/>
<polygon fill="black" stroke="black" points="1224.95,-344.57 1231.33,-336.11 1221.07,-338.75 1224.95,-344.57"/>
</g>
<!-- qdd_indy7 -->
<g id="node3" class="node">
<title>qdd_indy7</title>
<polygon fill="none" stroke="cyan" points="1536.14,-470.54 1536.14,-485.46 1499.15,-496 1446.85,-496 1409.86,-485.46 1409.86,-470.54 1446.85,-460 1499.15,-460 1536.14,-470.54"/>
<polygon fill="none" stroke="cyan" points="1540.13,-467.52 1540.13,-488.48 1499.71,-500 1446.29,-500 1405.87,-488.48 1405.87,-467.52 1446.29,-456 1499.71,-456 1540.13,-467.52"/>
<text text-anchor="middle" x="1473" y="-474.3" font-family="Times,serif" font-size="14.00">qdd_indy7</text>
</g>
<!-- qdd_indy7&#45;&gt;qd_indy7 -->
<g id="edge24" class="edge">
<title>qdd_indy7&#45;&gt;qd_indy7</title>
<path fill="none" stroke="black" stroke-dasharray="5,2" d="M1417.64,-464.03C1358.25,-450.12 1264.14,-428.08 1202.23,-413.58"/>
<polygon fill="black" stroke="black" points="1202.73,-410.1 1192.2,-411.23 1201.14,-416.92 1202.73,-410.1"/>
</g>
<!-- limits_qdd_indy7 -->
<g id="node13" class="node">
<title>limits_qdd_indy7</title>
<polygon fill="none" stroke="magenta" points="1575.63,-398 1524.32,-416 1421.68,-416 1370.37,-398 1421.68,-380 1524.32,-380 1575.63,-398"/>
<text text-anchor="middle" x="1473" y="-394.3" font-family="Times,serif" font-size="14.00">limits_qdd_indy7</text>
</g>
<!-- qdd_indy7&#45;&gt;limits_qdd_indy7 -->
<g id="edge6" class="edge">
<title>qdd_indy7&#45;&gt;limits_qdd_indy7</title>
<path fill="none" stroke="black" d="M1473,-455.69C1473,-446.64 1473,-435.99 1473,-426.37"/>
<polygon fill="black" stroke="black" points="1476.5,-426.09 1473,-416.09 1469.5,-426.09 1476.5,-426.09"/>
</g>
<!-- reg_qdd_indy7 -->
<g id="node15" class="node">
<title>reg_qdd_indy7</title>
<polygon fill="none" stroke="magenta" points="1776.62,-398 1731.31,-416 1640.69,-416 1595.38,-398 1640.69,-380 1731.31,-380 1776.62,-398"/>
<text text-anchor="middle" x="1686" y="-394.3" font-family="Times,serif" font-size="14.00">reg_qdd_indy7</text>
</g>
<!-- qdd_indy7&#45;&gt;reg_qdd_indy7 -->
<g id="edge7" class="edge">
<title>qdd_indy7&#45;&gt;reg_qdd_indy7</title>
<path fill="none" stroke="black" d="M1517.13,-460.84C1549.99,-448.81 1595.08,-432.3 1630.4,-419.36"/>
<polygon fill="black" stroke="black" points="1631.9,-422.54 1640.08,-415.81 1629.49,-415.97 1631.9,-422.54"/>
</g>
<!-- q_init_indy7 -->
<g id="node4" class="node">
<title>q_init_indy7</title>
<polygon fill="none" stroke="blue" points="213.42,-310.54 213.42,-325.46 171,-336 111,-336 68.58,-325.46 68.58,-310.54 111,-300 171,-300 213.42,-310.54"/>
<polygon fill="none" stroke="blue" points="217.42,-307.42 217.42,-328.58 171.49,-340 110.51,-340 64.58,-328.58 64.58,-307.42 110.51,-296 171.49,-296 217.42,-307.42"/>
<text text-anchor="middle" x="141" y="-314.3" font-family="Times,serif" font-size="14.00">q_init_indy7</text>
</g>
<!-- q_init_indy7&#45;&gt;error_q_indy7_q_init_indy7 -->
<g id="edge8" class="edge">
<title>q_init_indy7&#45;&gt;error_q_indy7_q_init_indy7</title>
<path fill="none" stroke="black" d="M141,-295.69C141,-286.64 141,-275.99 141,-266.37"/>
<polygon fill="black" stroke="black" points="144.5,-266.09 141,-256.09 137.5,-266.09 144.5,-266.09"/>
</g>
<!-- equality_q_indy7 -->
<g id="node6" class="node">
<title>equality_q_indy7</title>
<polygon fill="none" stroke="magenta" points="208.63,-162 157.32,-180 54.68,-180 3.37,-162 54.68,-144 157.32,-144 208.63,-162"/>
<text text-anchor="middle" x="106" y="-158.3" font-family="Times,serif" font-size="14.00">equality_q_indy7</text>
</g>
<!-- error_q_indy7_q_init_indy7&#45;&gt;equality_q_indy7 -->
<g id="edge9" class="edge">
<title>error_q_indy7_q_init_indy7&#45;&gt;equality_q_indy7</title>
<path fill="none" stroke="black" d="M132.88,-219.84C128.6,-210.78 123.25,-199.47 118.45,-189.32"/>
<polygon fill="black" stroke="black" points="121.51,-187.61 114.07,-180.07 115.19,-190.61 121.51,-187.61"/>
</g>
<!-- (&#39;initial&#39;, &#39;equality_q_indy7&#39;) -->
<g id="node7" class="node">
<title>(&#39;initial&#39;, &#39;equality_q_indy7&#39;)</title>
<polygon fill="none" stroke="purple" points="212,-108 0,-108 0,-72 212,-72 212,-108"/>
<text text-anchor="middle" x="106" y="-86.3" font-family="Times,serif" font-size="14.00">(&#39;initial&#39;, &#39;equality_q_indy7&#39;)</text>
</g>
<!-- equality_q_indy7&#45;&gt;(&#39;initial&#39;, &#39;equality_q_indy7&#39;) -->
<g id="edge10" class="edge">
<title>equality_q_indy7&#45;&gt;(&#39;initial&#39;, &#39;equality_q_indy7&#39;)</title>
<path fill="none" stroke="black" d="M106,-143.7C106,-135.98 106,-126.71 106,-118.11"/>
<polygon fill="black" stroke="black" points="109.5,-118.1 106,-108.1 102.5,-118.1 109.5,-118.1"/>
</g>
<!-- (&#39;terminal&#39;, &#39;stationary_qd_indy7&#39;) -->
<g id="node24" class="node">
<title>(&#39;terminal&#39;, &#39;stationary_qd_indy7&#39;)</title>
<polygon fill="none" stroke="purple" points="1150,-256 894,-256 894,-220 1150,-220 1150,-256"/>
<text text-anchor="middle" x="1022" y="-234.3" font-family="Times,serif" font-size="14.00">(&#39;terminal&#39;, &#39;stationary_qd_indy7&#39;)</text>
</g>
<!-- stationary_qd_indy7&#45;&gt;(&#39;terminal&#39;, &#39;stationary_qd_indy7&#39;) -->
<g id="edge11" class="edge">
<title>stationary_qd_indy7&#45;&gt;(&#39;terminal&#39;, &#39;stationary_qd_indy7&#39;)</title>
<path fill="none" stroke="black" d="M1022,-299.69C1022,-289.89 1022,-277.42 1022,-266.33"/>
<polygon fill="black" stroke="black" points="1025.5,-266.26 1022,-256.26 1018.5,-266.26 1025.5,-266.26"/>
</g>
<!-- (&#39;path&#39;, &#39;limits_q_indy7&#39;) -->
<g id="node10" class="node">
<title>(&#39;path&#39;, &#39;limits_q_indy7&#39;)</title>
<polygon fill="none" stroke="purple" points="413,-180 227,-180 227,-144 413,-144 413,-180"/>
<text text-anchor="middle" x="320" y="-158.3" font-family="Times,serif" font-size="14.00">(&#39;path&#39;, &#39;limits_q_indy7&#39;)</text>
</g>
<!-- limits_q_indy7&#45;&gt;(&#39;path&#39;, &#39;limits_q_indy7&#39;) -->
<g id="edge12" class="edge">
<title>limits_q_indy7&#45;&gt;(&#39;path&#39;, &#39;limits_q_indy7&#39;)</title>
<path fill="none" stroke="black" d="M382.21,-219.84C371.48,-210.03 357.86,-197.58 346.09,-186.84"/>
<polygon fill="black" stroke="black" points="348.43,-184.23 338.68,-180.07 343.71,-189.4 348.43,-184.23"/>
</g>
<!-- (&#39;path&#39;, &#39;limits_qd_indy7&#39;) -->
<g id="node12" class="node">
<title>(&#39;path&#39;, &#39;limits_qd_indy7&#39;)</title>
<polygon fill="none" stroke="purple" points="1363.5,-256 1168.5,-256 1168.5,-220 1363.5,-220 1363.5,-256"/>
<text text-anchor="middle" x="1266" y="-234.3" font-family="Times,serif" font-size="14.00">(&#39;path&#39;, &#39;limits_qd_indy7&#39;)</text>
</g>
<!-- limits_qd_indy7&#45;&gt;(&#39;path&#39;, &#39;limits_qd_indy7&#39;) -->
<g id="edge13" class="edge">
<title>limits_qd_indy7&#45;&gt;(&#39;path&#39;, &#39;limits_qd_indy7&#39;)</title>
<path fill="none" stroke="black" d="M1259,-299.69C1260.13,-289.89 1261.57,-277.42 1262.85,-266.33"/>
<polygon fill="black" stroke="black" points="1266.34,-266.6 1264.01,-256.26 1259.38,-265.8 1266.34,-266.6"/>
</g>
<!-- (&#39;path&#39;, &#39;limits_qdd_indy7&#39;) -->
<g id="node14" class="node">
<title>(&#39;path&#39;, &#39;limits_qdd_indy7&#39;)</title>
<polygon fill="none" stroke="purple" points="1575,-336 1371,-336 1371,-300 1575,-300 1575,-336"/>
<text text-anchor="middle" x="1473" y="-314.3" font-family="Times,serif" font-size="14.00">(&#39;path&#39;, &#39;limits_qdd_indy7&#39;)</text>
</g>
<!-- limits_qdd_indy7&#45;&gt;(&#39;path&#39;, &#39;limits_qdd_indy7&#39;) -->
<g id="edge14" class="edge">
<title>limits_qdd_indy7&#45;&gt;(&#39;path&#39;, &#39;limits_qdd_indy7&#39;)</title>
<path fill="none" stroke="black" d="M1473,-379.69C1473,-369.89 1473,-357.42 1473,-346.33"/>
<polygon fill="black" stroke="black" points="1476.5,-346.26 1473,-336.26 1469.5,-346.26 1476.5,-346.26"/>
</g>
<!-- (&#39;path&#39;, &#39;reg_qdd_indy7&#39;) -->
<g id="node16" class="node">
<title>(&#39;path&#39;, &#39;reg_qdd_indy7&#39;)</title>
<polygon fill="none" stroke="purple" points="1781,-336 1593,-336 1593,-300 1781,-300 1781,-336"/>
<text text-anchor="middle" x="1687" y="-314.3" font-family="Times,serif" font-size="14.00">(&#39;path&#39;, &#39;reg_qdd_indy7&#39;)</text>
</g>
<!-- reg_qdd_indy7&#45;&gt;(&#39;path&#39;, &#39;reg_qdd_indy7&#39;) -->
<g id="edge15" class="edge">
<title>reg_qdd_indy7&#45;&gt;(&#39;path&#39;, &#39;reg_qdd_indy7&#39;)</title>
<path fill="none" stroke="black" d="M1686.22,-379.69C1686.35,-369.89 1686.51,-357.42 1686.65,-346.33"/>
<polygon fill="black" stroke="black" points="1690.15,-346.31 1686.78,-336.26 1683.15,-346.22 1690.15,-346.31"/>
</g>
<!-- trans_error_pose_6_indy7_vs_goal -->
<g id="node19" class="node">
<title>trans_error_pose_6_indy7_vs_goal</title>
<ellipse fill="none" stroke="green" cx="599" cy="-162" rx="168.17" ry="18"/>
<text text-anchor="middle" x="599" y="-158.3" font-family="Times,serif" font-size="14.00">trans_error_pose_6_indy7_vs_goal</text>
</g>
<!-- pose_6_indy7&#45;&gt;trans_error_pose_6_indy7_vs_goal -->
<g id="edge16" class="edge">
<title>pose_6_indy7&#45;&gt;trans_error_pose_6_indy7_vs_goal</title>
<path fill="none" stroke="black" d="M592.09,-219.84C593.16,-211.06 594.48,-200.16 595.68,-190.27"/>
<polygon fill="black" stroke="black" points="599.19,-190.42 596.92,-180.07 592.24,-189.57 599.19,-190.42"/>
</g>
<!-- rotmat_error_pose_6_indy7_vs_goal -->
<g id="node21" class="node">
<title>rotmat_error_pose_6_indy7_vs_goal</title>
<ellipse fill="none" stroke="green" cx="961" cy="-162" rx="175.47" ry="18"/>
<text text-anchor="middle" x="961" y="-158.3" font-family="Times,serif" font-size="14.00">rotmat_error_pose_6_indy7_vs_goal</text>
</g>
<!-- pose_6_indy7&#45;&gt;rotmat_error_pose_6_indy7_vs_goal -->
<g id="edge17" class="edge">
<title>pose_6_indy7&#45;&gt;rotmat_error_pose_6_indy7_vs_goal</title>
<path fill="none" stroke="black" d="M636.97,-224.2C648.09,-221.35 659.93,-218.44 671,-216 734.18,-202.06 805.67,-188.96 861.87,-179.27"/>
<polygon fill="black" stroke="black" points="862.55,-182.71 871.82,-177.57 861.37,-175.81 862.55,-182.71"/>
</g>
<!-- goal_pose_indy7 -->
<g id="node18" class="node">
<title>goal_pose_indy7</title>
<polygon fill="none" stroke="blue" points="871.63,-230.54 871.63,-245.46 816.78,-256 739.22,-256 684.37,-245.46 684.37,-230.54 739.22,-220 816.78,-220 871.63,-230.54"/>
<polygon fill="none" stroke="blue" points="875.63,-227.24 875.63,-248.76 817.16,-260 738.84,-260 680.37,-248.76 680.37,-227.24 738.84,-216 817.16,-216 875.63,-227.24"/>
<text text-anchor="middle" x="778" y="-234.3" font-family="Times,serif" font-size="14.00">goal_pose_indy7</text>
</g>
<!-- goal_pose_indy7&#45;&gt;trans_error_pose_6_indy7_vs_goal -->
<g id="edge18" class="edge">
<title>goal_pose_indy7&#45;&gt;trans_error_pose_6_indy7_vs_goal</title>
<path fill="none" stroke="black" d="M730.5,-217.36C705.25,-206.92 674.22,-194.1 648.65,-183.52"/>
<polygon fill="black" stroke="black" points="649.71,-180.18 639.14,-179.59 647.04,-186.65 649.71,-180.18"/>
</g>
<!-- goal_pose_indy7&#45;&gt;rotmat_error_pose_6_indy7_vs_goal -->
<g id="edge19" class="edge">
<title>goal_pose_indy7&#45;&gt;rotmat_error_pose_6_indy7_vs_goal</title>
<path fill="none" stroke="black" d="M826.08,-217.56C852.11,-207.03 884.25,-194.04 910.62,-183.37"/>
<polygon fill="black" stroke="black" points="912.1,-186.55 920.06,-179.56 909.48,-180.06 912.1,-186.55"/>
</g>
<!-- trans_con_pose_6_indy7_vs_goal -->
<g id="node20" class="node">
<title>trans_con_pose_6_indy7_vs_goal</title>
<polygon fill="none" stroke="magenta" points="775.24,-90 682.62,-108 497.38,-108 404.76,-90 497.38,-72 682.62,-72 775.24,-90"/>
<text text-anchor="middle" x="590" y="-86.3" font-family="Times,serif" font-size="14.00">trans_con_pose_6_indy7_vs_goal</text>
</g>
<!-- trans_error_pose_6_indy7_vs_goal&#45;&gt;trans_con_pose_6_indy7_vs_goal -->
<g id="edge20" class="edge">
<title>trans_error_pose_6_indy7_vs_goal&#45;&gt;trans_con_pose_6_indy7_vs_goal</title>
<path fill="none" stroke="black" d="M596.78,-143.7C595.78,-135.98 594.59,-126.71 593.49,-118.11"/>
<polygon fill="black" stroke="black" points="596.95,-117.58 592.2,-108.1 590,-118.47 596.95,-117.58"/>
</g>
<!-- ax_ang_error_pose_6_indy7_vs_goal -->
<g id="node22" class="node">
<title>ax_ang_error_pose_6_indy7_vs_goal</title>
<ellipse fill="none" stroke="green" cx="970" cy="-90" rx="176.27" ry="18"/>
<text text-anchor="middle" x="970" y="-86.3" font-family="Times,serif" font-size="14.00">ax_ang_error_pose_6_indy7_vs_goal</text>
</g>
<!-- rotmat_error_pose_6_indy7_vs_goal&#45;&gt;ax_ang_error_pose_6_indy7_vs_goal -->
<g id="edge21" class="edge">
<title>rotmat_error_pose_6_indy7_vs_goal&#45;&gt;ax_ang_error_pose_6_indy7_vs_goal</title>
<path fill="none" stroke="black" d="M963.22,-143.7C964.22,-135.98 965.41,-126.71 966.51,-118.11"/>
<polygon fill="black" stroke="black" points="970,-118.47 967.8,-108.1 963.05,-117.58 970,-118.47"/>
</g>
<!-- rot_con_pose_6_indy7_vs_goal -->
<g id="node23" class="node">
<title>rot_con_pose_6_indy7_vs_goal</title>
<polygon fill="none" stroke="magenta" points="1142.72,-18 1056.36,-36 883.64,-36 797.28,-18 883.64,0 1056.36,0 1142.72,-18"/>
<text text-anchor="middle" x="970" y="-14.3" font-family="Times,serif" font-size="14.00">rot_con_pose_6_indy7_vs_goal</text>
</g>
<!-- ax_ang_error_pose_6_indy7_vs_goal&#45;&gt;rot_con_pose_6_indy7_vs_goal -->
<g id="edge22" class="edge">
<title>ax_ang_error_pose_6_indy7_vs_goal&#45;&gt;rot_con_pose_6_indy7_vs_goal</title>
<path fill="none" stroke="black" d="M970,-71.7C970,-63.98 970,-54.71 970,-46.11"/>
<polygon fill="black" stroke="black" points="973.5,-46.1 970,-36.1 966.5,-46.1 973.5,-46.1"/>
</g>
</g>
</svg>
