<?xml version="1.0" encoding="UTF-8" standalone="no"?>
<!DOCTYPE svg PUBLIC "-//W3C//DTD SVG 1.1//EN"
 "http://www.w3.org/Graphics/SVG/1.1/DTD/svg11.dtd">
<!-- Generated by graphviz version 2.43.0 (0)
 -->
<!-- Title: %3 Pages: 1 -->
<svg width="2108pt" height="580pt"
 viewBox="0.00 0.00 2107.50 580.00" xmlns="http://www.w3.org/2000/svg" xmlns:xlink="http://www.w3.org/1999/xlink">
<g id="graph0" class="graph" transform="scale(1 1) rotate(0) translate(4 576)">
<title>%3</title>
<polygon fill="white" stroke="transparent" points="-4,4 -4,-576 2103.5,-576 2103.5,4 -4,4"/>
<!-- q_kinova -->
<g id="node1" class="node">
<title>q_kinova</title>
<polygon fill="none" stroke="green" points="895.15,-382.54 895.15,-397.46 862.55,-408 816.45,-408 783.85,-397.46 783.85,-382.54 816.45,-372 862.55,-372 895.15,-382.54"/>
<polygon fill="none" stroke="green" points="899.15,-379.64 899.15,-400.36 863.18,-412 815.82,-412 779.85,-400.36 779.85,-379.64 815.82,-368 863.18,-368 899.15,-379.64"/>
<text text-anchor="middle" x="839.5" y="-386.3" font-family="Times,serif" font-size="14.00">q_kinova</text>
</g>
<!-- error_q_kinova_q_init_kinova -->
<g id="node5" class="node">
<title>error_q_kinova_q_init_kinova</title>
<ellipse fill="none" stroke="green" cx="175.5" cy="-310" rx="144.07" ry="18"/>
<text text-anchor="middle" x="175.5" y="-306.3" font-family="Times,serif" font-size="14.00">error_q_kinova_q_init_kinova</text>
</g>
<!-- q_kinova&#45;&gt;error_q_kinova_q_init_kinova -->
<g id="edge1" class="edge">
<title>q_kinova&#45;&gt;error_q_kinova_q_init_kinova</title>
<path fill="none" stroke="black" d="M779.9,-382.15C687.65,-371.53 504.71,-350.39 349.5,-332 328.63,-329.53 306.36,-326.86 284.96,-324.28"/>
<polygon fill="black" stroke="black" points="285.21,-320.79 274.87,-323.07 284.38,-327.74 285.21,-320.79"/>
</g>
<!-- limits_q_kinova -->
<g id="node10" class="node">
<title>limits_q_kinova</title>
<polygon fill="none" stroke="magenta" points="1029.12,-310 981.81,-328 887.19,-328 839.88,-310 887.19,-292 981.81,-292 1029.12,-310"/>
<text text-anchor="middle" x="934.5" y="-306.3" font-family="Times,serif" font-size="14.00">limits_q_kinova</text>
</g>
<!-- q_kinova&#45;&gt;limits_q_kinova -->
<g id="edge2" class="edge">
<title>q_kinova&#45;&gt;limits_q_kinova</title>
<path fill="none" stroke="black" d="M864.96,-368.1C877.61,-357.71 892.95,-345.12 905.99,-334.41"/>
<polygon fill="black" stroke="black" points="908.27,-337.07 913.77,-328.02 903.83,-331.66 908.27,-337.07"/>
</g>
<!-- pose_7_kinova -->
<g id="node18" class="node">
<title>pose_7_kinova</title>
<ellipse fill="none" stroke="green" cx="744.5" cy="-310" rx="77.19" ry="18"/>
<text text-anchor="middle" x="744.5" y="-306.3" font-family="Times,serif" font-size="14.00">pose_7_kinova</text>
</g>
<!-- q_kinova&#45;&gt;pose_7_kinova -->
<g id="edge3" class="edge">
<title>q_kinova&#45;&gt;pose_7_kinova</title>
<path fill="none" stroke="black" d="M814.04,-368.1C801.21,-357.56 785.61,-344.76 772.45,-333.95"/>
<polygon fill="black" stroke="black" points="774.56,-331.15 764.61,-327.51 770.12,-336.56 774.56,-331.15"/>
</g>
<!-- qd_kinova -->
<g id="node2" class="node">
<title>qd_kinova</title>
<polygon fill="none" stroke="green" points="1496.32,-462.54 1496.32,-477.46 1460.11,-488 1408.89,-488 1372.68,-477.46 1372.68,-462.54 1408.89,-452 1460.11,-452 1496.32,-462.54"/>
<polygon fill="none" stroke="green" points="1500.31,-459.54 1500.31,-480.46 1460.68,-492 1408.32,-492 1368.69,-480.46 1368.69,-459.54 1408.32,-448 1460.68,-448 1500.31,-459.54"/>
<text text-anchor="middle" x="1434.5" y="-466.3" font-family="Times,serif" font-size="14.00">qd_kinova</text>
</g>
<!-- qd_kinova&#45;&gt;q_kinova -->
<g id="edge26" class="edge">
<title>qd_kinova&#45;&gt;q_kinova</title>
<path fill="none" stroke="black" stroke-dasharray="5,2" d="M1368.55,-460.35C1255.47,-445.53 1025.6,-415.4 909.68,-400.2"/>
<polygon fill="black" stroke="black" points="909.87,-396.7 899.5,-398.87 908.96,-403.64 909.87,-396.7"/>
</g>
<!-- stationary_qd_kinova -->
<g id="node8" class="node">
<title>stationary_qd_kinova</title>
<polygon fill="none" stroke="magenta" points="1436.66,-390 1374.08,-408 1248.92,-408 1186.34,-390 1248.92,-372 1374.08,-372 1436.66,-390"/>
<text text-anchor="middle" x="1311.5" y="-386.3" font-family="Times,serif" font-size="14.00">stationary_qd_kinova</text>
</g>
<!-- qd_kinova&#45;&gt;stationary_qd_kinova -->
<g id="edge4" class="edge">
<title>qd_kinova&#45;&gt;stationary_qd_kinova</title>
<path fill="none" stroke="black" d="M1403.46,-449.32C1386.21,-438.38 1364.69,-424.73 1346.8,-413.39"/>
<polygon fill="black" stroke="black" points="1348.67,-410.43 1338.35,-408.03 1344.92,-416.34 1348.67,-410.43"/>
</g>
<!-- limits_qd_kinova -->
<g id="node12" class="node">
<title>limits_qd_kinova</title>
<polygon fill="none" stroke="magenta" points="1657.63,-390 1607.07,-408 1505.93,-408 1455.37,-390 1505.93,-372 1607.07,-372 1657.63,-390"/>
<text text-anchor="middle" x="1556.5" y="-386.3" font-family="Times,serif" font-size="14.00">limits_qd_kinova</text>
</g>
<!-- qd_kinova&#45;&gt;limits_qd_kinova -->
<g id="edge5" class="edge">
<title>qd_kinova&#45;&gt;limits_qd_kinova</title>
<path fill="none" stroke="black" d="M1465.29,-449.32C1482.24,-438.48 1503.35,-424.98 1521,-413.7"/>
<polygon fill="black" stroke="black" points="1523.33,-416.36 1529.87,-408.03 1519.56,-410.46 1523.33,-416.36"/>
</g>
<!-- qdd_kinova -->
<g id="node3" class="node">
<title>qdd_kinova</title>
<polygon fill="none" stroke="cyan" points="1848.97,-542.54 1848.97,-557.46 1808.86,-568 1752.14,-568 1712.03,-557.46 1712.03,-542.54 1752.14,-532 1808.86,-532 1848.97,-542.54"/>
<polygon fill="none" stroke="cyan" points="1852.98,-539.46 1852.98,-560.54 1809.38,-572 1751.62,-572 1708.02,-560.54 1708.02,-539.46 1751.62,-528 1809.38,-528 1852.98,-539.46"/>
<text text-anchor="middle" x="1780.5" y="-546.3" font-family="Times,serif" font-size="14.00">qdd_kinova</text>
</g>
<!-- qdd_kinova&#45;&gt;qd_kinova -->
<g id="edge27" class="edge">
<title>qdd_kinova&#45;&gt;qd_kinova</title>
<path fill="none" stroke="black" stroke-dasharray="5,2" d="M1721.81,-535.77C1660.31,-521.91 1563.95,-500.18 1500.01,-485.77"/>
<polygon fill="black" stroke="black" points="1500.57,-482.31 1490.04,-483.52 1499.03,-489.13 1500.57,-482.31"/>
</g>
<!-- limits_qdd_kinova -->
<g id="node14" class="node">
<title>limits_qdd_kinova</title>
<polygon fill="none" stroke="magenta" points="1888.64,-470 1834.57,-488 1726.43,-488 1672.36,-470 1726.43,-452 1834.57,-452 1888.64,-470"/>
<text text-anchor="middle" x="1780.5" y="-466.3" font-family="Times,serif" font-size="14.00">limits_qdd_kinova</text>
</g>
<!-- qdd_kinova&#45;&gt;limits_qdd_kinova -->
<g id="edge6" class="edge">
<title>qdd_kinova&#45;&gt;limits_qdd_kinova</title>
<path fill="none" stroke="black" d="M1780.5,-527.69C1780.5,-518.64 1780.5,-507.99 1780.5,-498.37"/>
<polygon fill="black" stroke="black" points="1784,-498.09 1780.5,-488.09 1777,-498.09 1784,-498.09"/>
</g>
<!-- reg_qdd_kinova -->
<g id="node16" class="node">
<title>reg_qdd_kinova</title>
<polygon fill="none" stroke="magenta" points="2098.63,-470 2050.56,-488 1954.44,-488 1906.37,-470 1954.44,-452 2050.56,-452 2098.63,-470"/>
<text text-anchor="middle" x="2002.5" y="-466.3" font-family="Times,serif" font-size="14.00">reg_qdd_kinova</text>
</g>
<!-- qdd_kinova&#45;&gt;reg_qdd_kinova -->
<g id="edge7" class="edge">
<title>qdd_kinova&#45;&gt;reg_qdd_kinova</title>
<path fill="none" stroke="black" d="M1827.31,-532.55C1861.52,-520.53 1908.14,-504.15 1944.68,-491.31"/>
<polygon fill="black" stroke="black" points="1945.95,-494.58 1954.22,-487.96 1943.63,-487.98 1945.95,-494.58"/>
</g>
<!-- q_init_kinova -->
<g id="node4" class="node">
<title>q_init_kinova</title>
<polygon fill="none" stroke="blue" points="252.77,-382.54 252.77,-397.46 207.51,-408 143.49,-408 98.23,-397.46 98.23,-382.54 143.49,-372 207.51,-372 252.77,-382.54"/>
<polygon fill="none" stroke="blue" points="256.77,-379.37 256.77,-400.63 207.97,-412 143.03,-412 94.23,-400.63 94.23,-379.37 143.03,-368 207.97,-368 256.77,-379.37"/>
<text text-anchor="middle" x="175.5" y="-386.3" font-family="Times,serif" font-size="14.00">q_init_kinova</text>
</g>
<!-- q_init_kinova&#45;&gt;error_q_kinova_q_init_kinova -->
<g id="edge8" class="edge">
<title>q_init_kinova&#45;&gt;error_q_kinova_q_init_kinova</title>
<path fill="none" stroke="black" d="M175.5,-367.69C175.5,-358.64 175.5,-347.99 175.5,-338.37"/>
<polygon fill="black" stroke="black" points="179,-338.09 175.5,-328.09 172,-338.09 179,-338.09"/>
</g>
<!-- equality_q_kinova -->
<g id="node6" class="node">
<title>equality_q_kinova</title>
<polygon fill="none" stroke="magenta" points="218.64,-234 165.07,-252 57.93,-252 4.36,-234 57.93,-216 165.07,-216 218.64,-234"/>
<text text-anchor="middle" x="111.5" y="-230.3" font-family="Times,serif" font-size="14.00">equality_q_kinova</text>
</g>
<!-- error_q_kinova_q_init_kinova&#45;&gt;equality_q_kinova -->
<g id="edge9" class="edge">
<title>error_q_kinova_q_init_kinova&#45;&gt;equality_q_kinova</title>
<path fill="none" stroke="black" d="M160.66,-291.84C152.42,-282.31 142.02,-270.29 132.92,-259.76"/>
<polygon fill="black" stroke="black" points="135.45,-257.34 126.26,-252.07 130.16,-261.92 135.45,-257.34"/>
</g>
<!-- (&#39;initial&#39;, &#39;equality_q_kinova&#39;) -->
<g id="node7" class="node">
<title>(&#39;initial&#39;, &#39;equality_q_kinova&#39;)</title>
<polygon fill="none" stroke="purple" points="219,-180 0,-180 0,-144 219,-144 219,-180"/>
<text text-anchor="middle" x="109.5" y="-158.3" font-family="Times,serif" font-size="14.00">(&#39;initial&#39;, &#39;equality_q_kinova&#39;)</text>
</g>
<!-- equality_q_kinova&#45;&gt;(&#39;initial&#39;, &#39;equality_q_kinova&#39;) -->
<g id="edge10" class="edge">
<title>equality_q_kinova&#45;&gt;(&#39;initial&#39;, &#39;equality_q_kinova&#39;)</title>
<path fill="none" stroke="black" d="M111.01,-215.7C110.79,-207.98 110.52,-198.71 110.27,-190.11"/>
<polygon fill="black" stroke="black" points="113.77,-190 109.99,-180.1 106.78,-190.2 113.77,-190"/>
</g>
<!-- (&#39;initial&#39;, &#39;stationary_qd_kinova&#39;) -->
<g id="node9" class="node">
<title>(&#39;initial&#39;, &#39;stationary_qd_kinova&#39;)</title>
<polygon fill="none" stroke="purple" points="1571,-328 1328,-328 1328,-292 1571,-292 1571,-328"/>
<text text-anchor="middle" x="1449.5" y="-306.3" font-family="Times,serif" font-size="14.00">(&#39;initial&#39;, &#39;stationary_qd_kinova&#39;)</text>
</g>
<!-- stationary_qd_kinova&#45;&gt;(&#39;initial&#39;, &#39;stationary_qd_kinova&#39;) -->
<g id="edge11" class="edge">
<title>stationary_qd_kinova&#45;&gt;(&#39;initial&#39;, &#39;stationary_qd_kinova&#39;)</title>
<path fill="none" stroke="black" d="M1341.78,-371.88C1361.92,-360.5 1388.55,-345.45 1410.3,-333.16"/>
<polygon fill="black" stroke="black" points="1412.3,-336.05 1419.29,-328.08 1408.86,-329.95 1412.3,-336.05"/>
</g>
<!-- (&#39;terminal&#39;, &#39;stationary_qd_kinova&#39;) -->
<g id="node27" class="node">
<title>(&#39;terminal&#39;, &#39;stationary_qd_kinova&#39;)</title>
<polygon fill="none" stroke="purple" points="1310,-328 1047,-328 1047,-292 1310,-292 1310,-328"/>
<text text-anchor="middle" x="1178.5" y="-306.3" font-family="Times,serif" font-size="14.00">(&#39;terminal&#39;, &#39;stationary_qd_kinova&#39;)</text>
</g>
<!-- stationary_qd_kinova&#45;&gt;(&#39;terminal&#39;, &#39;stationary_qd_kinova&#39;) -->
<g id="edge12" class="edge">
<title>stationary_qd_kinova&#45;&gt;(&#39;terminal&#39;, &#39;stationary_qd_kinova&#39;)</title>
<path fill="none" stroke="black" d="M1282.31,-371.88C1262.91,-360.5 1237.24,-345.45 1216.28,-333.16"/>
<polygon fill="black" stroke="black" points="1218.02,-330.12 1207.62,-328.08 1214.47,-336.16 1218.02,-330.12"/>
</g>
<!-- (&#39;path&#39;, &#39;limits_q_kinova&#39;) -->
<g id="node11" class="node">
<title>(&#39;path&#39;, &#39;limits_q_kinova&#39;)</title>
<polygon fill="none" stroke="purple" points="1172,-252 979,-252 979,-216 1172,-216 1172,-252"/>
<text text-anchor="middle" x="1075.5" y="-230.3" font-family="Times,serif" font-size="14.00">(&#39;path&#39;, &#39;limits_q_kinova&#39;)</text>
</g>
<!-- limits_q_kinova&#45;&gt;(&#39;path&#39;, &#39;limits_q_kinova&#39;) -->
<g id="edge13" class="edge">
<title>limits_q_kinova&#45;&gt;(&#39;path&#39;, &#39;limits_q_kinova&#39;)</title>
<path fill="none" stroke="black" d="M967.2,-291.84C987.05,-281.42 1012.56,-268.03 1033.84,-256.87"/>
<polygon fill="black" stroke="black" points="1035.75,-259.82 1042.97,-252.07 1032.49,-253.62 1035.75,-259.82"/>
</g>
<!-- (&#39;path&#39;, &#39;limits_qd_kinova&#39;) -->
<g id="node13" class="node">
<title>(&#39;path&#39;, &#39;limits_qd_kinova&#39;)</title>
<polygon fill="none" stroke="purple" points="1791.5,-328 1589.5,-328 1589.5,-292 1791.5,-292 1791.5,-328"/>
<text text-anchor="middle" x="1690.5" y="-306.3" font-family="Times,serif" font-size="14.00">(&#39;path&#39;, &#39;limits_qd_kinova&#39;)</text>
</g>
<!-- limits_qd_kinova&#45;&gt;(&#39;path&#39;, &#39;limits_qd_kinova&#39;) -->
<g id="edge14" class="edge">
<title>limits_qd_kinova&#45;&gt;(&#39;path&#39;, &#39;limits_qd_kinova&#39;)</title>
<path fill="none" stroke="black" d="M1585.91,-371.88C1605.46,-360.5 1631.32,-345.45 1652.43,-333.16"/>
<polygon fill="black" stroke="black" points="1654.28,-336.13 1661.16,-328.08 1650.76,-330.08 1654.28,-336.13"/>
</g>
<!-- (&#39;path&#39;, &#39;limits_qdd_kinova&#39;) -->
<g id="node15" class="node">
<title>(&#39;path&#39;, &#39;limits_qdd_kinova&#39;)</title>
<polygon fill="none" stroke="purple" points="1887,-408 1676,-408 1676,-372 1887,-372 1887,-408"/>
<text text-anchor="middle" x="1781.5" y="-386.3" font-family="Times,serif" font-size="14.00">(&#39;path&#39;, &#39;limits_qdd_kinova&#39;)</text>
</g>
<!-- limits_qdd_kinova&#45;&gt;(&#39;path&#39;, &#39;limits_qdd_kinova&#39;) -->
<g id="edge15" class="edge">
<title>limits_qdd_kinova&#45;&gt;(&#39;path&#39;, &#39;limits_qdd_kinova&#39;)</title>
<path fill="none" stroke="black" d="M1780.72,-451.69C1780.85,-441.89 1781.01,-429.42 1781.15,-418.33"/>
<polygon fill="black" stroke="black" points="1784.65,-418.31 1781.28,-408.26 1777.65,-418.22 1784.65,-418.31"/>
</g>
<!-- (&#39;path&#39;, &#39;reg_qdd_kinova&#39;) -->
<g id="node17" class="node">
<title>(&#39;path&#39;, &#39;reg_qdd_kinova&#39;)</title>
<polygon fill="none" stroke="purple" points="2099.5,-408 1905.5,-408 1905.5,-372 2099.5,-372 2099.5,-408"/>
<text text-anchor="middle" x="2002.5" y="-386.3" font-family="Times,serif" font-size="14.00">(&#39;path&#39;, &#39;reg_qdd_kinova&#39;)</text>
</g>
<!-- reg_qdd_kinova&#45;&gt;(&#39;path&#39;, &#39;reg_qdd_kinova&#39;) -->
<g id="edge16" class="edge">
<title>reg_qdd_kinova&#45;&gt;(&#39;path&#39;, &#39;reg_qdd_kinova&#39;)</title>
<path fill="none" stroke="black" d="M2002.5,-451.69C2002.5,-441.89 2002.5,-429.42 2002.5,-418.33"/>
<polygon fill="black" stroke="black" points="2006,-418.26 2002.5,-408.26 1999,-418.26 2006,-418.26"/>
</g>
<!-- trans_error_pose_7_kinova_vs_goal -->
<g id="node20" class="node">
<title>trans_error_pose_7_kinova_vs_goal</title>
<ellipse fill="none" stroke="green" cx="788.5" cy="-234" rx="172.77" ry="18"/>
<text text-anchor="middle" x="788.5" y="-230.3" font-family="Times,serif" font-size="14.00">trans_error_pose_7_kinova_vs_goal</text>
</g>
<!-- pose_7_kinova&#45;&gt;trans_error_pose_7_kinova_vs_goal -->
<g id="edge17" class="edge">
<title>pose_7_kinova&#45;&gt;trans_error_pose_7_kinova_vs_goal</title>
<path fill="none" stroke="black" d="M754.71,-291.84C760.2,-282.59 767.1,-271 773.22,-260.7"/>
<polygon fill="black" stroke="black" points="776.25,-262.45 778.35,-252.07 770.23,-258.88 776.25,-262.45"/>
</g>
<!-- rotmat_error_pose_7_kinova_vs_goal -->
<g id="node23" class="node">
<title>rotmat_error_pose_7_kinova_vs_goal</title>
<ellipse fill="none" stroke="green" cx="417.5" cy="-234" rx="180.07" ry="18"/>
<text text-anchor="middle" x="417.5" y="-230.3" font-family="Times,serif" font-size="14.00">rotmat_error_pose_7_kinova_vs_goal</text>
</g>
<!-- pose_7_kinova&#45;&gt;rotmat_error_pose_7_kinova_vs_goal -->
<g id="edge18" class="edge">
<title>pose_7_kinova&#45;&gt;rotmat_error_pose_7_kinova_vs_goal</title>
<path fill="none" stroke="black" d="M691.23,-296.95C638.43,-285 556.92,-266.55 496.57,-252.89"/>
<polygon fill="black" stroke="black" points="497.22,-249.45 486.69,-250.66 495.67,-256.28 497.22,-249.45"/>
</g>
<!-- goal_pose_kinova -->
<g id="node19" class="node">
<title>goal_pose_kinova</title>
<polygon fill="none" stroke="blue" points="558.98,-302.54 558.98,-317.46 501.29,-328 419.71,-328 362.02,-317.46 362.02,-302.54 419.71,-292 501.29,-292 558.98,-302.54"/>
<polygon fill="none" stroke="blue" points="562.98,-299.21 562.98,-320.79 501.65,-332 419.35,-332 358.02,-320.79 358.02,-299.21 419.35,-288 501.65,-288 562.98,-299.21"/>
<text text-anchor="middle" x="460.5" y="-306.3" font-family="Times,serif" font-size="14.00">goal_pose_kinova</text>
</g>
<!-- goal_pose_kinova&#45;&gt;trans_error_pose_7_kinova_vs_goal -->
<g id="edge19" class="edge">
<title>goal_pose_kinova&#45;&gt;trans_error_pose_7_kinova_vs_goal</title>
<path fill="none" stroke="black" d="M530.46,-293.22C582.98,-281.37 654.93,-265.14 709.51,-252.82"/>
<polygon fill="black" stroke="black" points="710.51,-256.18 719.49,-250.57 708.97,-249.36 710.51,-256.18"/>
</g>
<!-- goal_pose_kinova&#45;&gt;rotmat_error_pose_7_kinova_vs_goal -->
<g id="edge20" class="edge">
<title>goal_pose_kinova&#45;&gt;rotmat_error_pose_7_kinova_vs_goal</title>
<path fill="none" stroke="black" d="M448.29,-287.99C443.43,-279.62 437.78,-269.89 432.65,-261.08"/>
<polygon fill="black" stroke="black" points="435.61,-259.2 427.56,-252.31 429.56,-262.72 435.61,-259.2"/>
</g>
<!-- trans_con_pose_7_kinova_vs_goal -->
<g id="node21" class="node">
<title>trans_con_pose_7_kinova_vs_goal</title>
<polygon fill="none" stroke="magenta" points="997.25,-162 901.87,-180 711.13,-180 615.75,-162 711.13,-144 901.87,-144 997.25,-162"/>
<text text-anchor="middle" x="806.5" y="-158.3" font-family="Times,serif" font-size="14.00">trans_con_pose_7_kinova_vs_goal</text>
</g>
<!-- trans_error_pose_7_kinova_vs_goal&#45;&gt;trans_con_pose_7_kinova_vs_goal -->
<g id="edge21" class="edge">
<title>trans_error_pose_7_kinova_vs_goal&#45;&gt;trans_con_pose_7_kinova_vs_goal</title>
<path fill="none" stroke="black" d="M792.95,-215.7C794.95,-207.9 797.37,-198.51 799.6,-189.83"/>
<polygon fill="black" stroke="black" points="803,-190.66 802.1,-180.1 796.22,-188.92 803,-190.66"/>
</g>
<!-- (&#39;terminal&#39;, &#39;trans_con_pose_7_kinova_vs_goal&#39;) -->
<g id="node22" class="node">
<title>(&#39;terminal&#39;, &#39;trans_con_pose_7_kinova_vs_goal&#39;)</title>
<polygon fill="none" stroke="purple" points="981,-108 632,-108 632,-72 981,-72 981,-108"/>
<text text-anchor="middle" x="806.5" y="-86.3" font-family="Times,serif" font-size="14.00">(&#39;terminal&#39;, &#39;trans_con_pose_7_kinova_vs_goal&#39;)</text>
</g>
<!-- trans_con_pose_7_kinova_vs_goal&#45;&gt;(&#39;terminal&#39;, &#39;trans_con_pose_7_kinova_vs_goal&#39;) -->
<g id="edge22" class="edge">
<title>trans_con_pose_7_kinova_vs_goal&#45;&gt;(&#39;terminal&#39;, &#39;trans_con_pose_7_kinova_vs_goal&#39;)</title>
<path fill="none" stroke="black" d="M806.5,-143.7C806.5,-135.98 806.5,-126.71 806.5,-118.11"/>
<polygon fill="black" stroke="black" points="810,-118.1 806.5,-108.1 803,-118.1 810,-118.1"/>
</g>
<!-- ax_ang_error_pose_7_kinova_vs_goal -->
<g id="node24" class="node">
<title>ax_ang_error_pose_7_kinova_vs_goal</title>
<ellipse fill="none" stroke="green" cx="417.5" cy="-162" rx="180.87" ry="18"/>
<text text-anchor="middle" x="417.5" y="-158.3" font-family="Times,serif" font-size="14.00">ax_ang_error_pose_7_kinova_vs_goal</text>
</g>
<!-- rotmat_error_pose_7_kinova_vs_goal&#45;&gt;ax_ang_error_pose_7_kinova_vs_goal -->
<g id="edge23" class="edge">
<title>rotmat_error_pose_7_kinova_vs_goal&#45;&gt;ax_ang_error_pose_7_kinova_vs_goal</title>
<path fill="none" stroke="black" d="M417.5,-215.7C417.5,-207.98 417.5,-198.71 417.5,-190.11"/>
<polygon fill="black" stroke="black" points="421,-190.1 417.5,-180.1 414,-190.1 421,-190.1"/>
</g>
<!-- rot_con_pose_7_kinova_vs_goal -->
<g id="node25" class="node">
<title>rot_con_pose_7_kinova_vs_goal</title>
<polygon fill="none" stroke="magenta" points="595.23,-90 506.37,-108 328.63,-108 239.77,-90 328.63,-72 506.37,-72 595.23,-90"/>
<text text-anchor="middle" x="417.5" y="-86.3" font-family="Times,serif" font-size="14.00">rot_con_pose_7_kinova_vs_goal</text>
</g>
<!-- ax_ang_error_pose_7_kinova_vs_goal&#45;&gt;rot_con_pose_7_kinova_vs_goal -->
<g id="edge24" class="edge">
<title>ax_ang_error_pose_7_kinova_vs_goal&#45;&gt;rot_con_pose_7_kinova_vs_goal</title>
<path fill="none" stroke="black" d="M417.5,-143.7C417.5,-135.98 417.5,-126.71 417.5,-118.11"/>
<polygon fill="black" stroke="black" points="421,-118.1 417.5,-108.1 414,-118.1 421,-118.1"/>
</g>
<!-- (&#39;terminal&#39;, &#39;rot_con_pose_7_kinova_vs_goal&#39;) -->
<g id="node26" class="node">
<title>(&#39;terminal&#39;, &#39;rot_con_pose_7_kinova_vs_goal&#39;)</title>
<polygon fill="none" stroke="purple" points="583.5,-36 251.5,-36 251.5,0 583.5,0 583.5,-36"/>
<text text-anchor="middle" x="417.5" y="-14.3" font-family="Times,serif" font-size="14.00">(&#39;terminal&#39;, &#39;rot_con_pose_7_kinova_vs_goal&#39;)</text>
</g>
<!-- rot_con_pose_7_kinova_vs_goal&#45;&gt;(&#39;terminal&#39;, &#39;rot_con_pose_7_kinova_vs_goal&#39;) -->
<g id="edge25" class="edge">
<title>rot_con_pose_7_kinova_vs_goal&#45;&gt;(&#39;terminal&#39;, &#39;rot_con_pose_7_kinova_vs_goal&#39;)</title>
<path fill="none" stroke="black" d="M417.5,-71.7C417.5,-63.98 417.5,-54.71 417.5,-46.11"/>
<polygon fill="black" stroke="black" points="421,-46.1 417.5,-36.1 414,-46.1 421,-46.1"/>
</g>
</g>
</svg>
