<?xml version="1.0" encoding="UTF-8" standalone="no"?>
<!DOCTYPE svg PUBLIC "-//W3C//DTD SVG 1.1//EN"
 "http://www.w3.org/Graphics/SVG/1.1/DTD/svg11.dtd">
<!-- Generated by graphviz version 2.43.0 (0)
 -->
<!-- Title: %3 Pages: 1 -->
<svg width="1801pt" height="428pt"
 viewBox="0.00 0.00 1801.48 428.00" xmlns="http://www.w3.org/2000/svg" xmlns:xlink="http://www.w3.org/1999/xlink">
<g id="graph0" class="graph" transform="scale(1 1) rotate(0) translate(4 424)">
<title>%3</title>
<polygon fill="white" stroke="transparent" points="-4,4 -4,-424 1797.48,-424 1797.48,4 -4,4"/>
<!-- q_kinova -->
<g id="node1" class="node">
<title>q_kinova</title>
<polygon fill="none" stroke="green" points="614.13,-230.54 614.13,-245.46 581.53,-256 535.43,-256 502.84,-245.46 502.84,-230.54 535.43,-220 581.53,-220 614.13,-230.54"/>
<polygon fill="none" stroke="green" points="618.14,-227.64 618.14,-248.36 582.17,-260 534.8,-260 498.83,-248.36 498.83,-227.64 534.8,-216 582.17,-216 618.14,-227.64"/>
<text text-anchor="middle" x="558.48" y="-234.3" font-family="Times,serif" font-size="14.00">q_kinova</text>
</g>
<!-- error_q_kinova_jointpos_init_kinova -->
<g id="node5" class="node">
<title>error_q_kinova_jointpos_init_kinova</title>
<ellipse fill="none" stroke="green" cx="175.48" cy="-162" rx="175.47" ry="18"/>
<text text-anchor="middle" x="175.48" y="-158.3" font-family="Times,serif" font-size="14.00">error_q_kinova_jointpos_init_kinova</text>
</g>
<!-- q_kinova&#45;&gt;error_q_kinova_jointpos_init_kinova -->
<g id="edge1" class="edge">
<title>q_kinova&#45;&gt;error_q_kinova_jointpos_init_kinova</title>
<path fill="none" stroke="black" d="M502.79,-226.24C440.18,-214.14 337.65,-194.33 264.03,-180.11"/>
<polygon fill="black" stroke="black" points="264.32,-176.6 253.83,-178.14 262.99,-183.47 264.32,-176.6"/>
</g>
<!-- limits_q_kinova -->
<g id="node10" class="node">
<title>limits_q_kinova</title>
<polygon fill="none" stroke="magenta" points="558.11,-162 510.8,-180 416.17,-180 368.86,-162 416.17,-144 510.8,-144 558.11,-162"/>
<text text-anchor="middle" x="463.48" y="-158.3" font-family="Times,serif" font-size="14.00">limits_q_kinova</text>
</g>
<!-- q_kinova&#45;&gt;limits_q_kinova -->
<g id="edge2" class="edge">
<title>q_kinova&#45;&gt;limits_q_kinova</title>
<path fill="none" stroke="black" d="M532.27,-216.58C520.2,-207.18 505.81,-195.97 493.32,-186.24"/>
<polygon fill="black" stroke="black" points="495.47,-183.48 485.43,-180.1 491.17,-189 495.47,-183.48"/>
</g>
<!-- pose_7_kinova -->
<g id="node18" class="node">
<title>pose_7_kinova</title>
<ellipse fill="none" stroke="green" cx="653.48" cy="-162" rx="77.19" ry="18"/>
<text text-anchor="middle" x="653.48" y="-158.3" font-family="Times,serif" font-size="14.00">pose_7_kinova</text>
</g>
<!-- q_kinova&#45;&gt;pose_7_kinova -->
<g id="edge3" class="edge">
<title>q_kinova&#45;&gt;pose_7_kinova</title>
<path fill="none" stroke="black" d="M584.7,-216.58C597.04,-206.97 611.8,-195.47 624.48,-185.59"/>
<polygon fill="black" stroke="black" points="626.73,-188.28 632.47,-179.37 622.43,-182.76 626.73,-188.28"/>
</g>
<!-- qd_kinova -->
<g id="node2" class="node">
<title>qd_kinova</title>
<polygon fill="none" stroke="green" points="1190.3,-310.54 1190.3,-325.46 1154.09,-336 1102.88,-336 1066.66,-325.46 1066.66,-310.54 1102.88,-300 1154.09,-300 1190.3,-310.54"/>
<polygon fill="none" stroke="green" points="1194.3,-307.54 1194.3,-328.46 1154.66,-340 1102.31,-340 1062.67,-328.46 1062.67,-307.54 1102.31,-296 1154.66,-296 1194.3,-307.54"/>
<text text-anchor="middle" x="1128.48" y="-314.3" font-family="Times,serif" font-size="14.00">qd_kinova</text>
</g>
<!-- qd_kinova&#45;&gt;q_kinova -->
<g id="edge17" class="edge">
<title>qd_kinova&#45;&gt;q_kinova</title>
<path fill="none" stroke="black" stroke-dasharray="5,2" d="M1062.54,-307.98C954.13,-293.14 739.22,-263.73 628.32,-248.56"/>
<polygon fill="black" stroke="black" points="628.62,-245.07 618.24,-247.18 627.67,-252 628.62,-245.07"/>
</g>
<!-- stationary_qd_kinova -->
<g id="node8" class="node">
<title>stationary_qd_kinova</title>
<polygon fill="none" stroke="magenta" points="1130.65,-238 1068.07,-256 942.9,-256 880.32,-238 942.9,-220 1068.07,-220 1130.65,-238"/>
<text text-anchor="middle" x="1005.48" y="-234.3" font-family="Times,serif" font-size="14.00">stationary_qd_kinova</text>
</g>
<!-- qd_kinova&#45;&gt;stationary_qd_kinova -->
<g id="edge4" class="edge">
<title>qd_kinova&#45;&gt;stationary_qd_kinova</title>
<path fill="none" stroke="black" d="M1097.45,-297.32C1080.2,-286.38 1058.68,-272.73 1040.79,-261.39"/>
<polygon fill="black" stroke="black" points="1042.65,-258.43 1032.33,-256.03 1038.91,-264.34 1042.65,-258.43"/>
</g>
<!-- limits_qd_kinova -->
<g id="node12" class="node">
<title>limits_qd_kinova</title>
<polygon fill="none" stroke="magenta" points="1351.62,-238 1301.05,-256 1199.92,-256 1149.35,-238 1199.92,-220 1301.05,-220 1351.62,-238"/>
<text text-anchor="middle" x="1250.48" y="-234.3" font-family="Times,serif" font-size="14.00">limits_qd_kinova</text>
</g>
<!-- qd_kinova&#45;&gt;limits_qd_kinova -->
<g id="edge5" class="edge">
<title>qd_kinova&#45;&gt;limits_qd_kinova</title>
<path fill="none" stroke="black" d="M1159.27,-297.32C1176.22,-286.48 1197.34,-272.98 1214.98,-261.7"/>
<polygon fill="black" stroke="black" points="1217.31,-264.36 1223.85,-256.03 1213.54,-258.46 1217.31,-264.36"/>
</g>
<!-- qdd_kinova -->
<g id="node3" class="node">
<title>qdd_kinova</title>
<polygon fill="none" stroke="cyan" points="1542.95,-390.54 1542.95,-405.46 1502.84,-416 1446.13,-416 1406.02,-405.46 1406.02,-390.54 1446.13,-380 1502.84,-380 1542.95,-390.54"/>
<polygon fill="none" stroke="cyan" points="1546.96,-387.46 1546.96,-408.54 1503.36,-420 1445.6,-420 1402.01,-408.54 1402.01,-387.46 1445.6,-376 1503.36,-376 1546.96,-387.46"/>
<text text-anchor="middle" x="1474.48" y="-394.3" font-family="Times,serif" font-size="14.00">qdd_kinova</text>
</g>
<!-- qdd_kinova&#45;&gt;qd_kinova -->
<g id="edge18" class="edge">
<title>qdd_kinova&#45;&gt;qd_kinova</title>
<path fill="none" stroke="black" stroke-dasharray="5,2" d="M1415.79,-383.77C1354.3,-369.91 1257.93,-348.18 1194,-333.77"/>
<polygon fill="black" stroke="black" points="1194.55,-330.31 1184.03,-331.52 1193.01,-337.13 1194.55,-330.31"/>
</g>
<!-- limits_qdd_kinova -->
<g id="node14" class="node">
<title>limits_qdd_kinova</title>
<polygon fill="none" stroke="magenta" points="1582.63,-318 1528.55,-336 1420.41,-336 1366.34,-318 1420.41,-300 1528.55,-300 1582.63,-318"/>
<text text-anchor="middle" x="1474.48" y="-314.3" font-family="Times,serif" font-size="14.00">limits_qdd_kinova</text>
</g>
<!-- qdd_kinova&#45;&gt;limits_qdd_kinova -->
<g id="edge6" class="edge">
<title>qdd_kinova&#45;&gt;limits_qdd_kinova</title>
<path fill="none" stroke="black" d="M1474.48,-375.69C1474.48,-366.64 1474.48,-355.99 1474.48,-346.37"/>
<polygon fill="black" stroke="black" points="1477.98,-346.09 1474.48,-336.09 1470.98,-346.09 1477.98,-346.09"/>
</g>
<!-- reg_qdd_kinova -->
<g id="node16" class="node">
<title>reg_qdd_kinova</title>
<polygon fill="none" stroke="magenta" points="1792.61,-318 1744.55,-336 1648.42,-336 1600.36,-318 1648.42,-300 1744.55,-300 1792.61,-318"/>
<text text-anchor="middle" x="1696.48" y="-314.3" font-family="Times,serif" font-size="14.00">reg_qdd_kinova</text>
</g>
<!-- qdd_kinova&#45;&gt;reg_qdd_kinova -->
<g id="edge7" class="edge">
<title>qdd_kinova&#45;&gt;reg_qdd_kinova</title>
<path fill="none" stroke="black" d="M1521.29,-380.55C1555.51,-368.53 1602.12,-352.15 1638.67,-339.31"/>
<polygon fill="black" stroke="black" points="1639.93,-342.58 1648.21,-335.96 1637.61,-335.98 1639.93,-342.58"/>
</g>
<!-- jointpos_init_kinova -->
<g id="node4" class="node">
<title>jointpos_init_kinova</title>
<polygon fill="none" stroke="red" points="286.78,-230.54 286.78,-245.46 221.59,-256 129.38,-256 64.19,-245.46 64.19,-230.54 129.38,-220 221.59,-220 286.78,-230.54"/>
<polygon fill="none" stroke="red" points="290.79,-227.14 290.79,-248.86 221.91,-260 129.06,-260 60.18,-248.86 60.18,-227.14 129.06,-216 221.91,-216 290.79,-227.14"/>
<text text-anchor="middle" x="175.48" y="-234.3" font-family="Times,serif" font-size="14.00">jointpos_init_kinova</text>
</g>
<!-- jointpos_init_kinova&#45;&gt;error_q_kinova_jointpos_init_kinova -->
<g id="edge8" class="edge">
<title>jointpos_init_kinova&#45;&gt;error_q_kinova_jointpos_init_kinova</title>
<path fill="none" stroke="black" d="M175.48,-215.99C175.48,-208.06 175.48,-198.91 175.48,-190.48"/>
<polygon fill="black" stroke="black" points="178.98,-190.31 175.48,-180.31 171.98,-190.31 178.98,-190.31"/>
</g>
<!-- equality_q_kinova -->
<g id="node6" class="node">
<title>equality_q_kinova</title>
<polygon fill="none" stroke="magenta" points="282.62,-90 229.05,-108 121.91,-108 68.34,-90 121.91,-72 229.05,-72 282.62,-90"/>
<text text-anchor="middle" x="175.48" y="-86.3" font-family="Times,serif" font-size="14.00">equality_q_kinova</text>
</g>
<!-- error_q_kinova_jointpos_init_kinova&#45;&gt;equality_q_kinova -->
<g id="edge9" class="edge">
<title>error_q_kinova_jointpos_init_kinova&#45;&gt;equality_q_kinova</title>
<path fill="none" stroke="black" d="M175.48,-143.7C175.48,-135.98 175.48,-126.71 175.48,-118.11"/>
<polygon fill="black" stroke="black" points="178.98,-118.1 175.48,-108.1 171.98,-118.1 178.98,-118.1"/>
</g>
<!-- (&#39;initial&#39;, &#39;equality_q_kinova&#39;) -->
<g id="node7" class="node">
<title>(&#39;initial&#39;, &#39;equality_q_kinova&#39;)</title>
<polygon fill="none" stroke="purple" points="284.98,-36 65.98,-36 65.98,0 284.98,0 284.98,-36"/>
<text text-anchor="middle" x="175.48" y="-14.3" font-family="Times,serif" font-size="14.00">(&#39;initial&#39;, &#39;equality_q_kinova&#39;)</text>
</g>
<!-- equality_q_kinova&#45;&gt;(&#39;initial&#39;, &#39;equality_q_kinova&#39;) -->
<g id="edge10" class="edge">
<title>equality_q_kinova&#45;&gt;(&#39;initial&#39;, &#39;equality_q_kinova&#39;)</title>
<path fill="none" stroke="black" d="M175.48,-71.7C175.48,-63.98 175.48,-54.71 175.48,-46.11"/>
<polygon fill="black" stroke="black" points="178.98,-46.1 175.48,-36.1 171.98,-46.1 178.98,-46.1"/>
</g>
<!-- (&#39;initial&#39;, &#39;stationary_qd_kinova&#39;) -->
<g id="node9" class="node">
<title>(&#39;initial&#39;, &#39;stationary_qd_kinova&#39;)</title>
<polygon fill="none" stroke="purple" points="991.98,-180 748.98,-180 748.98,-144 991.98,-144 991.98,-180"/>
<text text-anchor="middle" x="870.48" y="-158.3" font-family="Times,serif" font-size="14.00">(&#39;initial&#39;, &#39;stationary_qd_kinova&#39;)</text>
</g>
<!-- stationary_qd_kinova&#45;&gt;(&#39;initial&#39;, &#39;stationary_qd_kinova&#39;) -->
<g id="edge11" class="edge">
<title>stationary_qd_kinova&#45;&gt;(&#39;initial&#39;, &#39;stationary_qd_kinova&#39;)</title>
<path fill="none" stroke="black" d="M974.17,-219.84C955.26,-209.47 930.97,-196.15 910.65,-185.02"/>
<polygon fill="black" stroke="black" points="912.08,-181.81 901.63,-180.07 908.71,-187.95 912.08,-181.81"/>
</g>
<!-- (&#39;terminal&#39;, &#39;stationary_qd_kinova&#39;) -->
<g id="node19" class="node">
<title>(&#39;terminal&#39;, &#39;stationary_qd_kinova&#39;)</title>
<polygon fill="none" stroke="purple" points="1272.98,-180 1009.98,-180 1009.98,-144 1272.98,-144 1272.98,-180"/>
<text text-anchor="middle" x="1141.48" y="-158.3" font-family="Times,serif" font-size="14.00">(&#39;terminal&#39;, &#39;stationary_qd_kinova&#39;)</text>
</g>
<!-- stationary_qd_kinova&#45;&gt;(&#39;terminal&#39;, &#39;stationary_qd_kinova&#39;) -->
<g id="edge12" class="edge">
<title>stationary_qd_kinova&#45;&gt;(&#39;terminal&#39;, &#39;stationary_qd_kinova&#39;)</title>
<path fill="none" stroke="black" d="M1037.03,-219.84C1056.17,-209.42 1080.78,-196.03 1101.3,-184.87"/>
<polygon fill="black" stroke="black" points="1103,-187.92 1110.11,-180.07 1099.66,-181.78 1103,-187.92"/>
</g>
<!-- (&#39;path&#39;, &#39;limits_q_kinova&#39;) -->
<g id="node11" class="node">
<title>(&#39;path&#39;, &#39;limits_q_kinova&#39;)</title>
<polygon fill="none" stroke="purple" points="559.98,-108 366.98,-108 366.98,-72 559.98,-72 559.98,-108"/>
<text text-anchor="middle" x="463.48" y="-86.3" font-family="Times,serif" font-size="14.00">(&#39;path&#39;, &#39;limits_q_kinova&#39;)</text>
</g>
<!-- limits_q_kinova&#45;&gt;(&#39;path&#39;, &#39;limits_q_kinova&#39;) -->
<g id="edge13" class="edge">
<title>limits_q_kinova&#45;&gt;(&#39;path&#39;, &#39;limits_q_kinova&#39;)</title>
<path fill="none" stroke="black" d="M463.48,-143.7C463.48,-135.98 463.48,-126.71 463.48,-118.11"/>
<polygon fill="black" stroke="black" points="466.98,-118.1 463.48,-108.1 459.98,-118.1 466.98,-118.1"/>
</g>
<!-- (&#39;path&#39;, &#39;limits_qd_kinova&#39;) -->
<g id="node13" class="node">
<title>(&#39;path&#39;, &#39;limits_qd_kinova&#39;)</title>
<polygon fill="none" stroke="purple" points="1493.48,-180 1291.48,-180 1291.48,-144 1493.48,-144 1493.48,-180"/>
<text text-anchor="middle" x="1392.48" y="-158.3" font-family="Times,serif" font-size="14.00">(&#39;path&#39;, &#39;limits_qd_kinova&#39;)</text>
</g>
<!-- limits_qd_kinova&#45;&gt;(&#39;path&#39;, &#39;limits_qd_kinova&#39;) -->
<g id="edge14" class="edge">
<title>limits_qd_kinova&#45;&gt;(&#39;path&#39;, &#39;limits_qd_kinova&#39;)</title>
<path fill="none" stroke="black" d="M1283.42,-219.84C1303.49,-209.38 1329.33,-195.91 1350.82,-184.71"/>
<polygon fill="black" stroke="black" points="1352.48,-187.8 1359.73,-180.07 1349.24,-181.59 1352.48,-187.8"/>
</g>
<!-- (&#39;path&#39;, &#39;limits_qdd_kinova&#39;) -->
<g id="node15" class="node">
<title>(&#39;path&#39;, &#39;limits_qdd_kinova&#39;)</title>
<polygon fill="none" stroke="purple" points="1580.98,-256 1369.98,-256 1369.98,-220 1580.98,-220 1580.98,-256"/>
<text text-anchor="middle" x="1475.48" y="-234.3" font-family="Times,serif" font-size="14.00">(&#39;path&#39;, &#39;limits_qdd_kinova&#39;)</text>
</g>
<!-- limits_qdd_kinova&#45;&gt;(&#39;path&#39;, &#39;limits_qdd_kinova&#39;) -->
<g id="edge15" class="edge">
<title>limits_qdd_kinova&#45;&gt;(&#39;path&#39;, &#39;limits_qdd_kinova&#39;)</title>
<path fill="none" stroke="black" d="M1474.71,-299.69C1474.83,-289.89 1474.99,-277.42 1475.13,-266.33"/>
<polygon fill="black" stroke="black" points="1478.63,-266.31 1475.26,-256.26 1471.64,-266.22 1478.63,-266.31"/>
</g>
<!-- (&#39;path&#39;, &#39;reg_qdd_kinova&#39;) -->
<g id="node17" class="node">
<title>(&#39;path&#39;, &#39;reg_qdd_kinova&#39;)</title>
<polygon fill="none" stroke="purple" points="1793.48,-256 1599.48,-256 1599.48,-220 1793.48,-220 1793.48,-256"/>
<text text-anchor="middle" x="1696.48" y="-234.3" font-family="Times,serif" font-size="14.00">(&#39;path&#39;, &#39;reg_qdd_kinova&#39;)</text>
</g>
<!-- reg_qdd_kinova&#45;&gt;(&#39;path&#39;, &#39;reg_qdd_kinova&#39;) -->
<g id="edge16" class="edge">
<title>reg_qdd_kinova&#45;&gt;(&#39;path&#39;, &#39;reg_qdd_kinova&#39;)</title>
<path fill="none" stroke="black" d="M1696.48,-299.69C1696.48,-289.89 1696.48,-277.42 1696.48,-266.33"/>
<polygon fill="black" stroke="black" points="1699.98,-266.26 1696.48,-256.26 1692.98,-266.26 1699.98,-266.26"/>
</g>
</g>
</svg>
