<?xml version="1.0" encoding="UTF-8" standalone="no"?>
<!DOCTYPE svg PUBLIC "-//W3C//DTD SVG 1.1//EN"
 "http://www.w3.org/Graphics/SVG/1.1/DTD/svg11.dtd">
<!-- Generated by graphviz version 2.43.0 (0)
 -->
<!-- Title: %3 Pages: 1 -->
<svg width="2752pt" height="580pt"
 viewBox="0.00 0.00 2752.27 580.00" xmlns="http://www.w3.org/2000/svg" xmlns:xlink="http://www.w3.org/1999/xlink">
<g id="graph0" class="graph" transform="scale(1 1) rotate(0) translate(4 576)">
<title>%3</title>
<polygon fill="white" stroke="transparent" points="-4,4 -4,-576 2748.27,-576 2748.27,4 -4,4"/>
<!-- q_mmo_500_ppr -->
<g id="node1" class="node">
<title>q_mmo_500_ppr</title>
<polygon fill="none" stroke="green" points="1202.3,-382.54 1202.3,-397.46 1147.46,-408 1069.9,-408 1015.05,-397.46 1015.05,-382.54 1069.9,-372 1147.46,-372 1202.3,-382.54"/>
<polygon fill="none" stroke="green" points="1206.31,-379.24 1206.31,-400.76 1147.84,-412 1069.52,-412 1011.05,-400.76 1011.05,-379.24 1069.52,-368 1147.84,-368 1206.31,-379.24"/>
<text text-anchor="middle" x="1108.68" y="-386.3" font-family="Times,serif" font-size="14.00">q_mmo_500_ppr</text>
</g>
<!-- error_q_mmo_500_ppr_jointpos_init_mmo_500_ppr -->
<g id="node5" class="node">
<title>error_q_mmo_500_ppr_jointpos_init_mmo_500_ppr</title>
<ellipse fill="none" stroke="green" cx="245.68" cy="-310" rx="245.86" ry="18"/>
<text text-anchor="middle" x="245.68" y="-306.3" font-family="Times,serif" font-size="14.00">error_q_mmo_500_ppr_jointpos_init_mmo_500_ppr</text>
</g>
<!-- q_mmo_500_ppr&#45;&gt;error_q_mmo_500_ppr_jointpos_init_mmo_500_ppr -->
<g id="edge1" class="edge">
<title>q_mmo_500_ppr&#45;&gt;error_q_mmo_500_ppr_jointpos_init_mmo_500_ppr</title>
<path fill="none" stroke="black" d="M1010.94,-380.17C863.22,-366.81 581.53,-341.36 404.21,-325.33"/>
<polygon fill="black" stroke="black" points="404.27,-321.82 394,-324.41 403.64,-328.79 404.27,-321.82"/>
</g>
<!-- limits_q_mmo_500_ppr -->
<g id="node10" class="node">
<title>limits_q_mmo_500_ppr</title>
<polygon fill="none" stroke="magenta" points="1376.85,-310 1309.27,-328 1174.09,-328 1106.5,-310 1174.09,-292 1309.27,-292 1376.85,-310"/>
<text text-anchor="middle" x="1241.68" y="-306.3" font-family="Times,serif" font-size="14.00">limits_q_mmo_500_ppr</text>
</g>
<!-- q_mmo_500_ppr&#45;&gt;limits_q_mmo_500_ppr -->
<g id="edge2" class="edge">
<title>q_mmo_500_ppr&#45;&gt;limits_q_mmo_500_ppr</title>
<path fill="none" stroke="black" d="M1144.67,-367.89C1162.92,-357.19 1185.08,-344.2 1203.61,-333.33"/>
<polygon fill="black" stroke="black" points="1205.52,-336.26 1212.38,-328.18 1201.98,-330.22 1205.52,-336.26"/>
</g>
<!-- pose_9_mmo_500_ppr -->
<g id="node18" class="node">
<title>pose_9_mmo_500_ppr</title>
<ellipse fill="none" stroke="green" cx="975.68" cy="-310" rx="112.38" ry="18"/>
<text text-anchor="middle" x="975.68" y="-306.3" font-family="Times,serif" font-size="14.00">pose_9_mmo_500_ppr</text>
</g>
<!-- q_mmo_500_ppr&#45;&gt;pose_9_mmo_500_ppr -->
<g id="edge3" class="edge">
<title>q_mmo_500_ppr&#45;&gt;pose_9_mmo_500_ppr</title>
<path fill="none" stroke="black" d="M1072.69,-367.89C1054.18,-357.04 1031.64,-343.82 1012.95,-332.86"/>
<polygon fill="black" stroke="black" points="1014.51,-329.72 1004.11,-327.68 1010.97,-335.75 1014.51,-329.72"/>
</g>
<!-- qd_mmo_500_ppr -->
<g id="node2" class="node">
<title>qd_mmo_500_ppr</title>
<polygon fill="none" stroke="green" points="1974.47,-462.54 1974.47,-477.46 1916.02,-488 1833.34,-488 1774.88,-477.46 1774.88,-462.54 1833.34,-452 1916.02,-452 1974.47,-462.54"/>
<polygon fill="none" stroke="green" points="1978.47,-459.2 1978.47,-480.8 1916.37,-492 1832.98,-492 1770.89,-480.8 1770.89,-459.2 1832.98,-448 1916.37,-448 1978.47,-459.2"/>
<text text-anchor="middle" x="1874.68" y="-466.3" font-family="Times,serif" font-size="14.00">qd_mmo_500_ppr</text>
</g>
<!-- qd_mmo_500_ppr&#45;&gt;q_mmo_500_ppr -->
<g id="edge26" class="edge">
<title>qd_mmo_500_ppr&#45;&gt;q_mmo_500_ppr</title>
<path fill="none" stroke="black" stroke-dasharray="5,2" d="M1773.35,-458.68C1628.57,-443.94 1363.7,-416.97 1215.79,-401.91"/>
<polygon fill="black" stroke="black" points="1216.09,-398.42 1205.78,-400.89 1215.38,-405.38 1216.09,-398.42"/>
</g>
<!-- stationary_qd_mmo_500_ppr -->
<g id="node8" class="node">
<title>stationary_qd_mmo_500_ppr</title>
<polygon fill="none" stroke="magenta" points="1866.39,-390 1783.54,-408 1617.82,-408 1534.96,-390 1617.82,-372 1783.54,-372 1866.39,-390"/>
<text text-anchor="middle" x="1700.68" y="-386.3" font-family="Times,serif" font-size="14.00">stationary_qd_mmo_500_ppr</text>
</g>
<!-- qd_mmo_500_ppr&#45;&gt;stationary_qd_mmo_500_ppr -->
<g id="edge4" class="edge">
<title>qd_mmo_500_ppr&#45;&gt;stationary_qd_mmo_500_ppr</title>
<path fill="none" stroke="black" d="M1828.96,-448.51C1804.05,-437.34 1773.26,-423.54 1748.09,-412.26"/>
<polygon fill="black" stroke="black" points="1749.3,-408.96 1738.75,-408.06 1746.44,-415.35 1749.3,-408.96"/>
</g>
<!-- limits_qd_mmo_500_ppr -->
<g id="node12" class="node">
<title>limits_qd_mmo_500_ppr</title>
<polygon fill="none" stroke="magenta" points="2168.36,-390 2097.52,-408 1955.84,-408 1884.99,-390 1955.84,-372 2097.52,-372 2168.36,-390"/>
<text text-anchor="middle" x="2026.68" y="-386.3" font-family="Times,serif" font-size="14.00">limits_qd_mmo_500_ppr</text>
</g>
<!-- qd_mmo_500_ppr&#45;&gt;limits_qd_mmo_500_ppr -->
<g id="edge5" class="edge">
<title>qd_mmo_500_ppr&#45;&gt;limits_qd_mmo_500_ppr</title>
<path fill="none" stroke="black" d="M1915.81,-447.89C1936.95,-437.04 1962.68,-423.84 1984.03,-412.88"/>
<polygon fill="black" stroke="black" points="1985.9,-415.86 1993.19,-408.18 1982.7,-409.63 1985.9,-415.86"/>
</g>
<!-- qdd_mmo_500_ppr -->
<g id="node3" class="node">
<title>qdd_mmo_500_ppr</title>
<polygon fill="none" stroke="cyan" points="2411.13,-542.54 2411.13,-557.46 2348.77,-568 2260.59,-568 2198.23,-557.46 2198.23,-542.54 2260.59,-532 2348.77,-532 2411.13,-542.54"/>
<polygon fill="none" stroke="cyan" points="2415.13,-539.16 2415.13,-560.84 2349.11,-572 2260.25,-572 2194.22,-560.84 2194.22,-539.16 2260.25,-528 2349.11,-528 2415.13,-539.16"/>
<text text-anchor="middle" x="2304.68" y="-546.3" font-family="Times,serif" font-size="14.00">qdd_mmo_500_ppr</text>
</g>
<!-- qdd_mmo_500_ppr&#45;&gt;qd_mmo_500_ppr -->
<g id="edge27" class="edge">
<title>qdd_mmo_500_ppr&#45;&gt;qd_mmo_500_ppr</title>
<path fill="none" stroke="black" stroke-dasharray="5,2" d="M2223.29,-534.24C2149.19,-520.8 2040.01,-500.99 1963.64,-487.14"/>
<polygon fill="black" stroke="black" points="1964.02,-483.65 1953.55,-485.31 1962.77,-490.54 1964.02,-483.65"/>
</g>
<!-- limits_qdd_mmo_500_ppr -->
<g id="node14" class="node">
<title>limits_qdd_mmo_500_ppr</title>
<polygon fill="none" stroke="magenta" points="2453.37,-470 2379.03,-488 2230.33,-488 2155.98,-470 2230.33,-452 2379.03,-452 2453.37,-470"/>
<text text-anchor="middle" x="2304.68" y="-466.3" font-family="Times,serif" font-size="14.00">limits_qdd_mmo_500_ppr</text>
</g>
<!-- qdd_mmo_500_ppr&#45;&gt;limits_qdd_mmo_500_ppr -->
<g id="edge6" class="edge">
<title>qdd_mmo_500_ppr&#45;&gt;limits_qdd_mmo_500_ppr</title>
<path fill="none" stroke="black" d="M2304.68,-527.69C2304.68,-518.64 2304.68,-507.99 2304.68,-498.37"/>
<polygon fill="black" stroke="black" points="2308.18,-498.09 2304.68,-488.09 2301.18,-498.09 2308.18,-498.09"/>
</g>
<!-- reg_qdd_mmo_500_ppr -->
<g id="node16" class="node">
<title>reg_qdd_mmo_500_ppr</title>
<polygon fill="none" stroke="magenta" points="2744.36,-470 2676.02,-488 2539.34,-488 2471,-470 2539.34,-452 2676.02,-452 2744.36,-470"/>
<text text-anchor="middle" x="2607.68" y="-466.3" font-family="Times,serif" font-size="14.00">reg_qdd_mmo_500_ppr</text>
</g>
<!-- qdd_mmo_500_ppr&#45;&gt;reg_qdd_mmo_500_ppr -->
<g id="edge7" class="edge">
<title>qdd_mmo_500_ppr&#45;&gt;reg_qdd_mmo_500_ppr</title>
<path fill="none" stroke="black" d="M2371.55,-531.79C2418.83,-519.61 2482.31,-503.27 2531.54,-490.6"/>
<polygon fill="black" stroke="black" points="2532.69,-493.92 2541.5,-488.04 2530.94,-487.14 2532.69,-493.92"/>
</g>
<!-- jointpos_init_mmo_500_ppr -->
<g id="node4" class="node">
<title>jointpos_init_mmo_500_ppr</title>
<polygon fill="none" stroke="red" points="394.96,-382.54 394.96,-397.46 307.51,-408 183.85,-408 96.4,-397.46 96.4,-382.54 183.85,-372 307.51,-372 394.96,-382.54"/>
<polygon fill="none" stroke="red" points="398.96,-379 398.96,-401 307.75,-412 183.6,-412 92.4,-401 92.4,-379 183.6,-368 307.75,-368 398.96,-379"/>
<text text-anchor="middle" x="245.68" y="-386.3" font-family="Times,serif" font-size="14.00">jointpos_init_mmo_500_ppr</text>
</g>
<!-- jointpos_init_mmo_500_ppr&#45;&gt;error_q_mmo_500_ppr_jointpos_init_mmo_500_ppr -->
<g id="edge8" class="edge">
<title>jointpos_init_mmo_500_ppr&#45;&gt;error_q_mmo_500_ppr_jointpos_init_mmo_500_ppr</title>
<path fill="none" stroke="black" d="M245.68,-367.69C245.68,-358.64 245.68,-347.99 245.68,-338.37"/>
<polygon fill="black" stroke="black" points="249.18,-338.09 245.68,-328.09 242.18,-338.09 249.18,-338.09"/>
</g>
<!-- equality_q_mmo_500_ppr -->
<g id="node6" class="node">
<title>equality_q_mmo_500_ppr</title>
<polygon fill="none" stroke="magenta" points="320.37,-234 246.52,-252 98.83,-252 24.99,-234 98.83,-216 246.52,-216 320.37,-234"/>
<text text-anchor="middle" x="172.68" y="-230.3" font-family="Times,serif" font-size="14.00">equality_q_mmo_500_ppr</text>
</g>
<!-- error_q_mmo_500_ppr_jointpos_init_mmo_500_ppr&#45;&gt;equality_q_mmo_500_ppr -->
<g id="edge9" class="edge">
<title>error_q_mmo_500_ppr_jointpos_init_mmo_500_ppr&#45;&gt;equality_q_mmo_500_ppr</title>
<path fill="none" stroke="black" d="M228.75,-291.84C219.26,-282.22 207.26,-270.06 196.8,-259.46"/>
<polygon fill="black" stroke="black" points="199.03,-256.73 189.52,-252.07 194.05,-261.65 199.03,-256.73"/>
</g>
<!-- (&#39;initial&#39;, &#39;equality_q_mmo_500_ppr&#39;) -->
<g id="node7" class="node">
<title>(&#39;initial&#39;, &#39;equality_q_mmo_500_ppr&#39;)</title>
<polygon fill="none" stroke="purple" points="309.18,-180 36.18,-180 36.18,-144 309.18,-144 309.18,-180"/>
<text text-anchor="middle" x="172.68" y="-158.3" font-family="Times,serif" font-size="14.00">(&#39;initial&#39;, &#39;equality_q_mmo_500_ppr&#39;)</text>
</g>
<!-- equality_q_mmo_500_ppr&#45;&gt;(&#39;initial&#39;, &#39;equality_q_mmo_500_ppr&#39;) -->
<g id="edge10" class="edge">
<title>equality_q_mmo_500_ppr&#45;&gt;(&#39;initial&#39;, &#39;equality_q_mmo_500_ppr&#39;)</title>
<path fill="none" stroke="black" d="M172.68,-215.7C172.68,-207.98 172.68,-198.71 172.68,-190.11"/>
<polygon fill="black" stroke="black" points="176.18,-190.1 172.68,-180.1 169.18,-190.1 176.18,-190.1"/>
</g>
<!-- (&#39;initial&#39;, &#39;stationary_qd_mmo_500_ppr&#39;) -->
<g id="node9" class="node">
<title>(&#39;initial&#39;, &#39;stationary_qd_mmo_500_ppr&#39;)</title>
<polygon fill="none" stroke="purple" points="2027.18,-328 1730.18,-328 1730.18,-292 2027.18,-292 2027.18,-328"/>
<text text-anchor="middle" x="1878.68" y="-306.3" font-family="Times,serif" font-size="14.00">(&#39;initial&#39;, &#39;stationary_qd_mmo_500_ppr&#39;)</text>
</g>
<!-- stationary_qd_mmo_500_ppr&#45;&gt;(&#39;initial&#39;, &#39;stationary_qd_mmo_500_ppr&#39;) -->
<g id="edge11" class="edge">
<title>stationary_qd_mmo_500_ppr&#45;&gt;(&#39;initial&#39;, &#39;stationary_qd_mmo_500_ppr&#39;)</title>
<path fill="none" stroke="black" d="M1739.74,-371.88C1766.4,-360.2 1801.91,-344.64 1830.35,-332.18"/>
<polygon fill="black" stroke="black" points="1831.95,-335.3 1839.71,-328.08 1829.14,-328.89 1831.95,-335.3"/>
</g>
<!-- (&#39;terminal&#39;, &#39;stationary_qd_mmo_500_ppr&#39;) -->
<g id="node27" class="node">
<title>(&#39;terminal&#39;, &#39;stationary_qd_mmo_500_ppr&#39;)</title>
<polygon fill="none" stroke="purple" points="1712.18,-328 1395.18,-328 1395.18,-292 1712.18,-292 1712.18,-328"/>
<text text-anchor="middle" x="1553.68" y="-306.3" font-family="Times,serif" font-size="14.00">(&#39;terminal&#39;, &#39;stationary_qd_mmo_500_ppr&#39;)</text>
</g>
<!-- stationary_qd_mmo_500_ppr&#45;&gt;(&#39;terminal&#39;, &#39;stationary_qd_mmo_500_ppr&#39;) -->
<g id="edge12" class="edge">
<title>stationary_qd_mmo_500_ppr&#45;&gt;(&#39;terminal&#39;, &#39;stationary_qd_mmo_500_ppr&#39;)</title>
<path fill="none" stroke="black" d="M1668.42,-371.88C1646.78,-360.4 1618.09,-345.18 1594.82,-332.83"/>
<polygon fill="black" stroke="black" points="1596.34,-329.67 1585.86,-328.08 1593.06,-335.86 1596.34,-329.67"/>
</g>
<!-- (&#39;path&#39;, &#39;limits_q_mmo_500_ppr&#39;) -->
<g id="node11" class="node">
<title>(&#39;path&#39;, &#39;limits_q_mmo_500_ppr&#39;)</title>
<polygon fill="none" stroke="purple" points="1467.18,-252 1220.18,-252 1220.18,-216 1467.18,-216 1467.18,-252"/>
<text text-anchor="middle" x="1343.68" y="-230.3" font-family="Times,serif" font-size="14.00">(&#39;path&#39;, &#39;limits_q_mmo_500_ppr&#39;)</text>
</g>
<!-- limits_q_mmo_500_ppr&#45;&gt;(&#39;path&#39;, &#39;limits_q_mmo_500_ppr&#39;) -->
<g id="edge13" class="edge">
<title>limits_q_mmo_500_ppr&#45;&gt;(&#39;path&#39;, &#39;limits_q_mmo_500_ppr&#39;)</title>
<path fill="none" stroke="black" d="M1265.34,-291.84C1279.11,-281.84 1296.66,-269.11 1311.66,-258.23"/>
<polygon fill="black" stroke="black" points="1314.11,-260.78 1320.15,-252.07 1310,-255.11 1314.11,-260.78"/>
</g>
<!-- (&#39;path&#39;, &#39;limits_qd_mmo_500_ppr&#39;) -->
<g id="node13" class="node">
<title>(&#39;path&#39;, &#39;limits_qd_mmo_500_ppr&#39;)</title>
<polygon fill="none" stroke="purple" points="2301.68,-328 2045.68,-328 2045.68,-292 2301.68,-292 2301.68,-328"/>
<text text-anchor="middle" x="2173.68" y="-306.3" font-family="Times,serif" font-size="14.00">(&#39;path&#39;, &#39;limits_qd_mmo_500_ppr&#39;)</text>
</g>
<!-- limits_qd_mmo_500_ppr&#45;&gt;(&#39;path&#39;, &#39;limits_qd_mmo_500_ppr&#39;) -->
<g id="edge14" class="edge">
<title>limits_qd_mmo_500_ppr&#45;&gt;(&#39;path&#39;, &#39;limits_qd_mmo_500_ppr&#39;)</title>
<path fill="none" stroke="black" d="M2058.94,-371.88C2080.58,-360.4 2109.26,-345.18 2132.54,-332.83"/>
<polygon fill="black" stroke="black" points="2134.3,-335.86 2141.49,-328.08 2131.02,-329.67 2134.3,-335.86"/>
</g>
<!-- (&#39;path&#39;, &#39;limits_qdd_mmo_500_ppr&#39;) -->
<g id="node15" class="node">
<title>(&#39;path&#39;, &#39;limits_qdd_mmo_500_ppr&#39;)</title>
<polygon fill="none" stroke="purple" points="2451.18,-408 2186.18,-408 2186.18,-372 2451.18,-372 2451.18,-408"/>
<text text-anchor="middle" x="2318.68" y="-386.3" font-family="Times,serif" font-size="14.00">(&#39;path&#39;, &#39;limits_qdd_mmo_500_ppr&#39;)</text>
</g>
<!-- limits_qdd_mmo_500_ppr&#45;&gt;(&#39;path&#39;, &#39;limits_qdd_mmo_500_ppr&#39;) -->
<g id="edge15" class="edge">
<title>limits_qdd_mmo_500_ppr&#45;&gt;(&#39;path&#39;, &#39;limits_qdd_mmo_500_ppr&#39;)</title>
<path fill="none" stroke="black" d="M2307.79,-451.69C2309.54,-441.89 2311.78,-429.42 2313.77,-418.33"/>
<polygon fill="black" stroke="black" points="2317.26,-418.72 2315.58,-408.26 2310.37,-417.49 2317.26,-418.72"/>
</g>
<!-- (&#39;path&#39;, &#39;reg_qdd_mmo_500_ppr&#39;) -->
<g id="node17" class="node">
<title>(&#39;path&#39;, &#39;reg_qdd_mmo_500_ppr&#39;)</title>
<polygon fill="none" stroke="purple" points="2731.68,-408 2483.68,-408 2483.68,-372 2731.68,-372 2731.68,-408"/>
<text text-anchor="middle" x="2607.68" y="-386.3" font-family="Times,serif" font-size="14.00">(&#39;path&#39;, &#39;reg_qdd_mmo_500_ppr&#39;)</text>
</g>
<!-- reg_qdd_mmo_500_ppr&#45;&gt;(&#39;path&#39;, &#39;reg_qdd_mmo_500_ppr&#39;) -->
<g id="edge16" class="edge">
<title>reg_qdd_mmo_500_ppr&#45;&gt;(&#39;path&#39;, &#39;reg_qdd_mmo_500_ppr&#39;)</title>
<path fill="none" stroke="black" d="M2607.68,-451.69C2607.68,-441.89 2607.68,-429.42 2607.68,-418.33"/>
<polygon fill="black" stroke="black" points="2611.18,-418.26 2607.68,-408.26 2604.18,-418.26 2611.18,-418.26"/>
</g>
<!-- trans_error_pose_9_mmo_500_ppr_vs_goal -->
<g id="node20" class="node">
<title>trans_error_pose_9_mmo_500_ppr_vs_goal</title>
<ellipse fill="none" stroke="green" cx="994.68" cy="-234" rx="207.96" ry="18"/>
<text text-anchor="middle" x="994.68" y="-230.3" font-family="Times,serif" font-size="14.00">trans_error_pose_9_mmo_500_ppr_vs_goal</text>
</g>
<!-- pose_9_mmo_500_ppr&#45;&gt;trans_error_pose_9_mmo_500_ppr_vs_goal -->
<g id="edge17" class="edge">
<title>pose_9_mmo_500_ppr&#45;&gt;trans_error_pose_9_mmo_500_ppr_vs_goal</title>
<path fill="none" stroke="black" d="M980.08,-291.84C982.36,-282.96 985.2,-271.93 987.76,-261.95"/>
<polygon fill="black" stroke="black" points="991.2,-262.63 990.3,-252.07 984.42,-260.89 991.2,-262.63"/>
</g>
<!-- rotmat_error_pose_9_mmo_500_ppr_vs_goal -->
<g id="node23" class="node">
<title>rotmat_error_pose_9_mmo_500_ppr_vs_goal</title>
<ellipse fill="none" stroke="green" cx="553.68" cy="-234" rx="215.26" ry="18"/>
<text text-anchor="middle" x="553.68" y="-230.3" font-family="Times,serif" font-size="14.00">rotmat_error_pose_9_mmo_500_ppr_vs_goal</text>
</g>
<!-- pose_9_mmo_500_ppr&#45;&gt;rotmat_error_pose_9_mmo_500_ppr_vs_goal -->
<g id="edge18" class="edge">
<title>pose_9_mmo_500_ppr&#45;&gt;rotmat_error_pose_9_mmo_500_ppr_vs_goal</title>
<path fill="none" stroke="black" d="M902.65,-296.19C833.34,-284.04 728.66,-265.68 652.03,-252.25"/>
<polygon fill="black" stroke="black" points="652.34,-248.75 641.88,-250.47 651.13,-255.64 652.34,-248.75"/>
</g>
<!-- goal_pose_mmo_500_ppr -->
<g id="node19" class="node">
<title>goal_pose_mmo_500_ppr</title>
<polygon fill="none" stroke="red" points="823.13,-302.54 823.13,-317.46 743.2,-328 630.16,-328 550.22,-317.46 550.22,-302.54 630.16,-292 743.2,-292 823.13,-302.54"/>
<polygon fill="none" stroke="red" points="827.13,-299.04 827.13,-320.96 743.46,-332 629.89,-332 546.22,-320.96 546.22,-299.04 629.89,-288 743.46,-288 827.13,-299.04"/>
<text text-anchor="middle" x="686.68" y="-306.3" font-family="Times,serif" font-size="14.00">goal_pose_mmo_500_ppr</text>
</g>
<!-- goal_pose_mmo_500_ppr&#45;&gt;trans_error_pose_9_mmo_500_ppr_vs_goal -->
<g id="edge19" class="edge">
<title>goal_pose_mmo_500_ppr&#45;&gt;trans_error_pose_9_mmo_500_ppr_vs_goal</title>
<path fill="none" stroke="black" d="M763.61,-290.52C810.76,-279.19 870.92,-264.74 918.02,-253.42"/>
<polygon fill="black" stroke="black" points="918.96,-256.79 927.87,-251.05 917.33,-249.98 918.96,-256.79"/>
</g>
<!-- goal_pose_mmo_500_ppr&#45;&gt;rotmat_error_pose_9_mmo_500_ppr_vs_goal -->
<g id="edge20" class="edge">
<title>goal_pose_mmo_500_ppr&#45;&gt;rotmat_error_pose_9_mmo_500_ppr_vs_goal</title>
<path fill="none" stroke="black" d="M648.92,-287.99C631.39,-278.24 610.57,-266.65 592.87,-256.81"/>
<polygon fill="black" stroke="black" points="594.37,-253.64 583.93,-251.83 590.97,-259.75 594.37,-253.64"/>
</g>
<!-- trans_con_pose_9_mmo_500_ppr_vs_goal -->
<g id="node21" class="node">
<title>trans_con_pose_9_mmo_500_ppr_vs_goal</title>
<polygon fill="none" stroke="magenta" points="1243.98,-162 1128.33,-180 897.03,-180 781.38,-162 897.03,-144 1128.33,-144 1243.98,-162"/>
<text text-anchor="middle" x="1012.68" y="-158.3" font-family="Times,serif" font-size="14.00">trans_con_pose_9_mmo_500_ppr_vs_goal</text>
</g>
<!-- trans_error_pose_9_mmo_500_ppr_vs_goal&#45;&gt;trans_con_pose_9_mmo_500_ppr_vs_goal -->
<g id="edge21" class="edge">
<title>trans_error_pose_9_mmo_500_ppr_vs_goal&#45;&gt;trans_con_pose_9_mmo_500_ppr_vs_goal</title>
<path fill="none" stroke="black" d="M999.13,-215.7C1001.13,-207.9 1003.55,-198.51 1005.78,-189.83"/>
<polygon fill="black" stroke="black" points="1009.18,-190.66 1008.28,-180.1 1002.4,-188.92 1009.18,-190.66"/>
</g>
<!-- (&#39;terminal&#39;, &#39;trans_con_pose_9_mmo_500_ppr_vs_goal&#39;) -->
<g id="node22" class="node">
<title>(&#39;terminal&#39;, &#39;trans_con_pose_9_mmo_500_ppr_vs_goal&#39;)</title>
<polygon fill="none" stroke="purple" points="1214.18,-108 811.18,-108 811.18,-72 1214.18,-72 1214.18,-108"/>
<text text-anchor="middle" x="1012.68" y="-86.3" font-family="Times,serif" font-size="14.00">(&#39;terminal&#39;, &#39;trans_con_pose_9_mmo_500_ppr_vs_goal&#39;)</text>
</g>
<!-- trans_con_pose_9_mmo_500_ppr_vs_goal&#45;&gt;(&#39;terminal&#39;, &#39;trans_con_pose_9_mmo_500_ppr_vs_goal&#39;) -->
<g id="edge22" class="edge">
<title>trans_con_pose_9_mmo_500_ppr_vs_goal&#45;&gt;(&#39;terminal&#39;, &#39;trans_con_pose_9_mmo_500_ppr_vs_goal&#39;)</title>
<path fill="none" stroke="black" d="M1012.68,-143.7C1012.68,-135.98 1012.68,-126.71 1012.68,-118.11"/>
<polygon fill="black" stroke="black" points="1016.18,-118.1 1012.68,-108.1 1009.18,-118.1 1016.18,-118.1"/>
</g>
<!-- ax_ang_error_pose_9_mmo_500_ppr_vs_goal -->
<g id="node24" class="node">
<title>ax_ang_error_pose_9_mmo_500_ppr_vs_goal</title>
<ellipse fill="none" stroke="green" cx="547.68" cy="-162" rx="215.56" ry="18"/>
<text text-anchor="middle" x="547.68" y="-158.3" font-family="Times,serif" font-size="14.00">ax_ang_error_pose_9_mmo_500_ppr_vs_goal</text>
</g>
<!-- rotmat_error_pose_9_mmo_500_ppr_vs_goal&#45;&gt;ax_ang_error_pose_9_mmo_500_ppr_vs_goal -->
<g id="edge23" class="edge">
<title>rotmat_error_pose_9_mmo_500_ppr_vs_goal&#45;&gt;ax_ang_error_pose_9_mmo_500_ppr_vs_goal</title>
<path fill="none" stroke="black" d="M552.2,-215.7C551.53,-207.98 550.74,-198.71 550,-190.11"/>
<polygon fill="black" stroke="black" points="553.49,-189.77 549.14,-180.1 546.51,-190.37 553.49,-189.77"/>
</g>
<!-- rot_con_pose_9_mmo_500_ppr_vs_goal -->
<g id="node25" class="node">
<title>rot_con_pose_9_mmo_500_ppr_vs_goal</title>
<polygon fill="none" stroke="magenta" points="765.96,-90 656.82,-108 438.54,-108 329.39,-90 438.54,-72 656.82,-72 765.96,-90"/>
<text text-anchor="middle" x="547.68" y="-86.3" font-family="Times,serif" font-size="14.00">rot_con_pose_9_mmo_500_ppr_vs_goal</text>
</g>
<!-- ax_ang_error_pose_9_mmo_500_ppr_vs_goal&#45;&gt;rot_con_pose_9_mmo_500_ppr_vs_goal -->
<g id="edge24" class="edge">
<title>ax_ang_error_pose_9_mmo_500_ppr_vs_goal&#45;&gt;rot_con_pose_9_mmo_500_ppr_vs_goal</title>
<path fill="none" stroke="black" d="M547.68,-143.7C547.68,-135.98 547.68,-126.71 547.68,-118.11"/>
<polygon fill="black" stroke="black" points="551.18,-118.1 547.68,-108.1 544.18,-118.1 551.18,-118.1"/>
</g>
<!-- (&#39;terminal&#39;, &#39;rot_con_pose_9_mmo_500_ppr_vs_goal&#39;) -->
<g id="node26" class="node">
<title>(&#39;terminal&#39;, &#39;rot_con_pose_9_mmo_500_ppr_vs_goal&#39;)</title>
<polygon fill="none" stroke="purple" points="740.68,-36 354.68,-36 354.68,0 740.68,0 740.68,-36"/>
<text text-anchor="middle" x="547.68" y="-14.3" font-family="Times,serif" font-size="14.00">(&#39;terminal&#39;, &#39;rot_con_pose_9_mmo_500_ppr_vs_goal&#39;)</text>
</g>
<!-- rot_con_pose_9_mmo_500_ppr_vs_goal&#45;&gt;(&#39;terminal&#39;, &#39;rot_con_pose_9_mmo_500_ppr_vs_goal&#39;) -->
<g id="edge25" class="edge">
<title>rot_con_pose_9_mmo_500_ppr_vs_goal&#45;&gt;(&#39;terminal&#39;, &#39;rot_con_pose_9_mmo_500_ppr_vs_goal&#39;)</title>
<path fill="none" stroke="black" d="M547.68,-71.7C547.68,-63.98 547.68,-54.71 547.68,-46.11"/>
<polygon fill="black" stroke="black" points="551.18,-46.1 547.68,-36.1 544.18,-46.1 551.18,-46.1"/>
</g>
</g>
</svg>
