<?xml version="1.0" encoding="UTF-8" standalone="no"?>
<!DOCTYPE svg PUBLIC "-//W3C//DTD SVG 1.1//EN"
 "http://www.w3.org/Graphics/SVG/1.1/DTD/svg11.dtd">
<!-- Generated by graphviz version 2.43.0 (0)
 -->
<!-- Title: %3 Pages: 1 -->
<svg width="2724pt" height="580pt"
 viewBox="0.00 0.00 2724.07 580.00" xmlns="http://www.w3.org/2000/svg" xmlns:xlink="http://www.w3.org/1999/xlink">
<g id="graph0" class="graph" transform="scale(1 1) rotate(0) translate(4 576)">
<title>%3</title>
<polygon fill="white" stroke="transparent" points="-4,4 -4,-576 2720.07,-576 2720.07,4 -4,4"/>
<!-- q_mmo_500_ppr -->
<g id="node1" class="node">
<title>q_mmo_500_ppr</title>
<polygon fill="none" stroke="green" points="1174.11,-382.54 1174.11,-397.46 1119.26,-408 1041.7,-408 986.85,-397.46 986.85,-382.54 1041.7,-372 1119.26,-372 1174.11,-382.54"/>
<polygon fill="none" stroke="green" points="1178.11,-379.24 1178.11,-400.76 1119.64,-412 1041.32,-412 982.85,-400.76 982.85,-379.24 1041.32,-368 1119.64,-368 1178.11,-379.24"/>
<text text-anchor="middle" x="1080.48" y="-386.3" font-family="Times,serif" font-size="14.00">q_mmo_500_ppr</text>
</g>
<!-- error_q_mmo_500_ppr_q_init_mmo_500_ppr -->
<g id="node5" class="node">
<title>error_q_mmo_500_ppr_q_init_mmo_500_ppr</title>
<ellipse fill="none" stroke="green" cx="214.48" cy="-310" rx="214.46" ry="18"/>
<text text-anchor="middle" x="214.48" y="-306.3" font-family="Times,serif" font-size="14.00">error_q_mmo_500_ppr_q_init_mmo_500_ppr</text>
</g>
<!-- q_mmo_500_ppr&#45;&gt;error_q_mmo_500_ppr_q_init_mmo_500_ppr -->
<g id="edge1" class="edge">
<title>q_mmo_500_ppr&#45;&gt;error_q_mmo_500_ppr_q_init_mmo_500_ppr</title>
<path fill="none" stroke="black" d="M982.65,-380.34C857.43,-369.24 633.8,-349.36 442.48,-332 416.77,-329.67 389.42,-327.17 362.94,-324.73"/>
<polygon fill="black" stroke="black" points="363.11,-321.23 352.83,-323.8 362.47,-328.2 363.11,-321.23"/>
</g>
<!-- limits_q_mmo_500_ppr -->
<g id="node10" class="node">
<title>limits_q_mmo_500_ppr</title>
<polygon fill="none" stroke="magenta" points="1348.66,-310 1281.07,-328 1145.89,-328 1078.3,-310 1145.89,-292 1281.07,-292 1348.66,-310"/>
<text text-anchor="middle" x="1213.48" y="-306.3" font-family="Times,serif" font-size="14.00">limits_q_mmo_500_ppr</text>
</g>
<!-- q_mmo_500_ppr&#45;&gt;limits_q_mmo_500_ppr -->
<g id="edge2" class="edge">
<title>q_mmo_500_ppr&#45;&gt;limits_q_mmo_500_ppr</title>
<path fill="none" stroke="black" d="M1116.47,-367.89C1134.72,-357.19 1156.88,-344.2 1175.41,-333.33"/>
<polygon fill="black" stroke="black" points="1177.33,-336.26 1184.18,-328.18 1173.79,-330.22 1177.33,-336.26"/>
</g>
<!-- pose_9_mmo_500_ppr -->
<g id="node18" class="node">
<title>pose_9_mmo_500_ppr</title>
<ellipse fill="none" stroke="green" cx="947.48" cy="-310" rx="112.38" ry="18"/>
<text text-anchor="middle" x="947.48" y="-306.3" font-family="Times,serif" font-size="14.00">pose_9_mmo_500_ppr</text>
</g>
<!-- q_mmo_500_ppr&#45;&gt;pose_9_mmo_500_ppr -->
<g id="edge3" class="edge">
<title>q_mmo_500_ppr&#45;&gt;pose_9_mmo_500_ppr</title>
<path fill="none" stroke="black" d="M1044.49,-367.89C1025.98,-357.04 1003.44,-343.82 984.75,-332.86"/>
<polygon fill="black" stroke="black" points="986.31,-329.72 975.92,-327.68 982.77,-335.75 986.31,-329.72"/>
</g>
<!-- qd_mmo_500_ppr -->
<g id="node2" class="node">
<title>qd_mmo_500_ppr</title>
<polygon fill="none" stroke="green" points="1946.28,-462.54 1946.28,-477.46 1887.82,-488 1805.14,-488 1746.68,-477.46 1746.68,-462.54 1805.14,-452 1887.82,-452 1946.28,-462.54"/>
<polygon fill="none" stroke="green" points="1950.27,-459.2 1950.27,-480.8 1888.17,-492 1804.79,-492 1742.69,-480.8 1742.69,-459.2 1804.79,-448 1888.17,-448 1950.27,-459.2"/>
<text text-anchor="middle" x="1846.48" y="-466.3" font-family="Times,serif" font-size="14.00">qd_mmo_500_ppr</text>
</g>
<!-- qd_mmo_500_ppr&#45;&gt;q_mmo_500_ppr -->
<g id="edge26" class="edge">
<title>qd_mmo_500_ppr&#45;&gt;q_mmo_500_ppr</title>
<path fill="none" stroke="black" stroke-dasharray="5,2" d="M1745.16,-458.68C1600.38,-443.94 1335.5,-416.97 1187.59,-401.91"/>
<polygon fill="black" stroke="black" points="1187.89,-398.42 1177.59,-400.89 1187.18,-405.38 1187.89,-398.42"/>
</g>
<!-- stationary_qd_mmo_500_ppr -->
<g id="node8" class="node">
<title>stationary_qd_mmo_500_ppr</title>
<polygon fill="none" stroke="magenta" points="1838.2,-390 1755.34,-408 1589.62,-408 1506.76,-390 1589.62,-372 1755.34,-372 1838.2,-390"/>
<text text-anchor="middle" x="1672.48" y="-386.3" font-family="Times,serif" font-size="14.00">stationary_qd_mmo_500_ppr</text>
</g>
<!-- qd_mmo_500_ppr&#45;&gt;stationary_qd_mmo_500_ppr -->
<g id="edge4" class="edge">
<title>qd_mmo_500_ppr&#45;&gt;stationary_qd_mmo_500_ppr</title>
<path fill="none" stroke="black" d="M1800.76,-448.51C1775.85,-437.34 1745.07,-423.54 1719.9,-412.26"/>
<polygon fill="black" stroke="black" points="1721.11,-408.96 1710.55,-408.06 1718.24,-415.35 1721.11,-408.96"/>
</g>
<!-- limits_qd_mmo_500_ppr -->
<g id="node12" class="node">
<title>limits_qd_mmo_500_ppr</title>
<polygon fill="none" stroke="magenta" points="2140.17,-390 2069.32,-408 1927.64,-408 1856.8,-390 1927.64,-372 2069.32,-372 2140.17,-390"/>
<text text-anchor="middle" x="1998.48" y="-386.3" font-family="Times,serif" font-size="14.00">limits_qd_mmo_500_ppr</text>
</g>
<!-- qd_mmo_500_ppr&#45;&gt;limits_qd_mmo_500_ppr -->
<g id="edge5" class="edge">
<title>qd_mmo_500_ppr&#45;&gt;limits_qd_mmo_500_ppr</title>
<path fill="none" stroke="black" d="M1887.61,-447.89C1908.75,-437.04 1934.48,-423.84 1955.84,-412.88"/>
<polygon fill="black" stroke="black" points="1957.7,-415.86 1965,-408.18 1954.5,-409.63 1957.7,-415.86"/>
</g>
<!-- qdd_mmo_500_ppr -->
<g id="node3" class="node">
<title>qdd_mmo_500_ppr</title>
<polygon fill="none" stroke="cyan" points="2382.93,-542.54 2382.93,-557.46 2320.57,-568 2232.39,-568 2170.03,-557.46 2170.03,-542.54 2232.39,-532 2320.57,-532 2382.93,-542.54"/>
<polygon fill="none" stroke="cyan" points="2386.94,-539.16 2386.94,-560.84 2320.91,-572 2232.05,-572 2166.03,-560.84 2166.03,-539.16 2232.05,-528 2320.91,-528 2386.94,-539.16"/>
<text text-anchor="middle" x="2276.48" y="-546.3" font-family="Times,serif" font-size="14.00">qdd_mmo_500_ppr</text>
</g>
<!-- qdd_mmo_500_ppr&#45;&gt;qd_mmo_500_ppr -->
<g id="edge27" class="edge">
<title>qdd_mmo_500_ppr&#45;&gt;qd_mmo_500_ppr</title>
<path fill="none" stroke="black" stroke-dasharray="5,2" d="M2195.1,-534.24C2121,-520.8 2011.81,-500.99 1935.44,-487.14"/>
<polygon fill="black" stroke="black" points="1935.82,-483.65 1925.36,-485.31 1934.57,-490.54 1935.82,-483.65"/>
</g>
<!-- limits_qdd_mmo_500_ppr -->
<g id="node14" class="node">
<title>limits_qdd_mmo_500_ppr</title>
<polygon fill="none" stroke="magenta" points="2425.17,-470 2350.83,-488 2202.13,-488 2127.79,-470 2202.13,-452 2350.83,-452 2425.17,-470"/>
<text text-anchor="middle" x="2276.48" y="-466.3" font-family="Times,serif" font-size="14.00">limits_qdd_mmo_500_ppr</text>
</g>
<!-- qdd_mmo_500_ppr&#45;&gt;limits_qdd_mmo_500_ppr -->
<g id="edge6" class="edge">
<title>qdd_mmo_500_ppr&#45;&gt;limits_qdd_mmo_500_ppr</title>
<path fill="none" stroke="black" d="M2276.48,-527.69C2276.48,-518.64 2276.48,-507.99 2276.48,-498.37"/>
<polygon fill="black" stroke="black" points="2279.98,-498.09 2276.48,-488.09 2272.98,-498.09 2279.98,-498.09"/>
</g>
<!-- reg_qdd_mmo_500_ppr -->
<g id="node16" class="node">
<title>reg_qdd_mmo_500_ppr</title>
<polygon fill="none" stroke="magenta" points="2716.16,-470 2647.82,-488 2511.14,-488 2442.8,-470 2511.14,-452 2647.82,-452 2716.16,-470"/>
<text text-anchor="middle" x="2579.48" y="-466.3" font-family="Times,serif" font-size="14.00">reg_qdd_mmo_500_ppr</text>
</g>
<!-- qdd_mmo_500_ppr&#45;&gt;reg_qdd_mmo_500_ppr -->
<g id="edge7" class="edge">
<title>qdd_mmo_500_ppr&#45;&gt;reg_qdd_mmo_500_ppr</title>
<path fill="none" stroke="black" d="M2343.35,-531.79C2390.63,-519.61 2454.11,-503.27 2503.34,-490.6"/>
<polygon fill="black" stroke="black" points="2504.49,-493.92 2513.3,-488.04 2502.75,-487.14 2504.49,-493.92"/>
</g>
<!-- q_init_mmo_500_ppr -->
<g id="node4" class="node">
<title>q_init_mmo_500_ppr</title>
<polygon fill="none" stroke="blue" points="329.73,-382.54 329.73,-397.46 262.22,-408 166.74,-408 99.23,-397.46 99.23,-382.54 166.74,-372 262.22,-372 329.73,-382.54"/>
<polygon fill="none" stroke="blue" points="333.73,-379.12 333.73,-400.88 262.53,-412 166.43,-412 95.24,-400.88 95.24,-379.12 166.43,-368 262.53,-368 333.73,-379.12"/>
<text text-anchor="middle" x="214.48" y="-386.3" font-family="Times,serif" font-size="14.00">q_init_mmo_500_ppr</text>
</g>
<!-- q_init_mmo_500_ppr&#45;&gt;error_q_mmo_500_ppr_q_init_mmo_500_ppr -->
<g id="edge8" class="edge">
<title>q_init_mmo_500_ppr&#45;&gt;error_q_mmo_500_ppr_q_init_mmo_500_ppr</title>
<path fill="none" stroke="black" d="M214.48,-367.69C214.48,-358.64 214.48,-347.99 214.48,-338.37"/>
<polygon fill="black" stroke="black" points="217.98,-338.09 214.48,-328.09 210.98,-338.09 217.98,-338.09"/>
</g>
<!-- equality_q_mmo_500_ppr -->
<g id="node6" class="node">
<title>equality_q_mmo_500_ppr</title>
<polygon fill="none" stroke="magenta" points="316.17,-234 242.33,-252 94.63,-252 20.79,-234 94.63,-216 242.33,-216 316.17,-234"/>
<text text-anchor="middle" x="168.48" y="-230.3" font-family="Times,serif" font-size="14.00">equality_q_mmo_500_ppr</text>
</g>
<!-- error_q_mmo_500_ppr_q_init_mmo_500_ppr&#45;&gt;equality_q_mmo_500_ppr -->
<g id="edge9" class="edge">
<title>error_q_mmo_500_ppr_q_init_mmo_500_ppr&#45;&gt;equality_q_mmo_500_ppr</title>
<path fill="none" stroke="black" d="M203.81,-291.84C198.06,-282.59 190.86,-271 184.46,-260.7"/>
<polygon fill="black" stroke="black" points="187.34,-258.72 179.09,-252.07 181.4,-262.41 187.34,-258.72"/>
</g>
<!-- (&#39;initial&#39;, &#39;equality_q_mmo_500_ppr&#39;) -->
<g id="node7" class="node">
<title>(&#39;initial&#39;, &#39;equality_q_mmo_500_ppr&#39;)</title>
<polygon fill="none" stroke="purple" points="304.98,-180 31.98,-180 31.98,-144 304.98,-144 304.98,-180"/>
<text text-anchor="middle" x="168.48" y="-158.3" font-family="Times,serif" font-size="14.00">(&#39;initial&#39;, &#39;equality_q_mmo_500_ppr&#39;)</text>
</g>
<!-- equality_q_mmo_500_ppr&#45;&gt;(&#39;initial&#39;, &#39;equality_q_mmo_500_ppr&#39;) -->
<g id="edge10" class="edge">
<title>equality_q_mmo_500_ppr&#45;&gt;(&#39;initial&#39;, &#39;equality_q_mmo_500_ppr&#39;)</title>
<path fill="none" stroke="black" d="M168.48,-215.7C168.48,-207.98 168.48,-198.71 168.48,-190.11"/>
<polygon fill="black" stroke="black" points="171.98,-190.1 168.48,-180.1 164.98,-190.1 171.98,-190.1"/>
</g>
<!-- (&#39;initial&#39;, &#39;stationary_qd_mmo_500_ppr&#39;) -->
<g id="node9" class="node">
<title>(&#39;initial&#39;, &#39;stationary_qd_mmo_500_ppr&#39;)</title>
<polygon fill="none" stroke="purple" points="1998.98,-328 1701.98,-328 1701.98,-292 1998.98,-292 1998.98,-328"/>
<text text-anchor="middle" x="1850.48" y="-306.3" font-family="Times,serif" font-size="14.00">(&#39;initial&#39;, &#39;stationary_qd_mmo_500_ppr&#39;)</text>
</g>
<!-- stationary_qd_mmo_500_ppr&#45;&gt;(&#39;initial&#39;, &#39;stationary_qd_mmo_500_ppr&#39;) -->
<g id="edge11" class="edge">
<title>stationary_qd_mmo_500_ppr&#45;&gt;(&#39;initial&#39;, &#39;stationary_qd_mmo_500_ppr&#39;)</title>
<path fill="none" stroke="black" d="M1711.54,-371.88C1738.21,-360.2 1773.71,-344.64 1802.16,-332.18"/>
<polygon fill="black" stroke="black" points="1803.75,-335.3 1811.51,-328.08 1800.95,-328.89 1803.75,-335.3"/>
</g>
<!-- (&#39;terminal&#39;, &#39;stationary_qd_mmo_500_ppr&#39;) -->
<g id="node27" class="node">
<title>(&#39;terminal&#39;, &#39;stationary_qd_mmo_500_ppr&#39;)</title>
<polygon fill="none" stroke="purple" points="1683.98,-328 1366.98,-328 1366.98,-292 1683.98,-292 1683.98,-328"/>
<text text-anchor="middle" x="1525.48" y="-306.3" font-family="Times,serif" font-size="14.00">(&#39;terminal&#39;, &#39;stationary_qd_mmo_500_ppr&#39;)</text>
</g>
<!-- stationary_qd_mmo_500_ppr&#45;&gt;(&#39;terminal&#39;, &#39;stationary_qd_mmo_500_ppr&#39;) -->
<g id="edge12" class="edge">
<title>stationary_qd_mmo_500_ppr&#45;&gt;(&#39;terminal&#39;, &#39;stationary_qd_mmo_500_ppr&#39;)</title>
<path fill="none" stroke="black" d="M1640.22,-371.88C1618.58,-360.4 1589.9,-345.18 1566.62,-332.83"/>
<polygon fill="black" stroke="black" points="1568.14,-329.67 1557.67,-328.08 1564.86,-335.86 1568.14,-329.67"/>
</g>
<!-- (&#39;path&#39;, &#39;limits_q_mmo_500_ppr&#39;) -->
<g id="node11" class="node">
<title>(&#39;path&#39;, &#39;limits_q_mmo_500_ppr&#39;)</title>
<polygon fill="none" stroke="purple" points="1462.98,-252 1215.98,-252 1215.98,-216 1462.98,-216 1462.98,-252"/>
<text text-anchor="middle" x="1339.48" y="-230.3" font-family="Times,serif" font-size="14.00">(&#39;path&#39;, &#39;limits_q_mmo_500_ppr&#39;)</text>
</g>
<!-- limits_q_mmo_500_ppr&#45;&gt;(&#39;path&#39;, &#39;limits_q_mmo_500_ppr&#39;) -->
<g id="edge13" class="edge">
<title>limits_q_mmo_500_ppr&#45;&gt;(&#39;path&#39;, &#39;limits_q_mmo_500_ppr&#39;)</title>
<path fill="none" stroke="black" d="M1242.7,-291.84C1260.28,-281.52 1282.83,-268.27 1301.74,-257.17"/>
<polygon fill="black" stroke="black" points="1303.57,-260.15 1310.42,-252.07 1300.02,-254.12 1303.57,-260.15"/>
</g>
<!-- (&#39;path&#39;, &#39;limits_qd_mmo_500_ppr&#39;) -->
<g id="node13" class="node">
<title>(&#39;path&#39;, &#39;limits_qd_mmo_500_ppr&#39;)</title>
<polygon fill="none" stroke="purple" points="2273.48,-328 2017.48,-328 2017.48,-292 2273.48,-292 2273.48,-328"/>
<text text-anchor="middle" x="2145.48" y="-306.3" font-family="Times,serif" font-size="14.00">(&#39;path&#39;, &#39;limits_qd_mmo_500_ppr&#39;)</text>
</g>
<!-- limits_qd_mmo_500_ppr&#45;&gt;(&#39;path&#39;, &#39;limits_qd_mmo_500_ppr&#39;) -->
<g id="edge14" class="edge">
<title>limits_qd_mmo_500_ppr&#45;&gt;(&#39;path&#39;, &#39;limits_qd_mmo_500_ppr&#39;)</title>
<path fill="none" stroke="black" d="M2030.74,-371.88C2052.38,-360.4 2081.07,-345.18 2104.34,-332.83"/>
<polygon fill="black" stroke="black" points="2106.1,-335.86 2113.3,-328.08 2102.82,-329.67 2106.1,-335.86"/>
</g>
<!-- (&#39;path&#39;, &#39;limits_qdd_mmo_500_ppr&#39;) -->
<g id="node15" class="node">
<title>(&#39;path&#39;, &#39;limits_qdd_mmo_500_ppr&#39;)</title>
<polygon fill="none" stroke="purple" points="2422.98,-408 2157.98,-408 2157.98,-372 2422.98,-372 2422.98,-408"/>
<text text-anchor="middle" x="2290.48" y="-386.3" font-family="Times,serif" font-size="14.00">(&#39;path&#39;, &#39;limits_qdd_mmo_500_ppr&#39;)</text>
</g>
<!-- limits_qdd_mmo_500_ppr&#45;&gt;(&#39;path&#39;, &#39;limits_qdd_mmo_500_ppr&#39;) -->
<g id="edge15" class="edge">
<title>limits_qdd_mmo_500_ppr&#45;&gt;(&#39;path&#39;, &#39;limits_qdd_mmo_500_ppr&#39;)</title>
<path fill="none" stroke="black" d="M2279.59,-451.69C2281.35,-441.89 2283.58,-429.42 2285.57,-418.33"/>
<polygon fill="black" stroke="black" points="2289.06,-418.72 2287.38,-408.26 2282.17,-417.49 2289.06,-418.72"/>
</g>
<!-- (&#39;path&#39;, &#39;reg_qdd_mmo_500_ppr&#39;) -->
<g id="node17" class="node">
<title>(&#39;path&#39;, &#39;reg_qdd_mmo_500_ppr&#39;)</title>
<polygon fill="none" stroke="purple" points="2703.48,-408 2455.48,-408 2455.48,-372 2703.48,-372 2703.48,-408"/>
<text text-anchor="middle" x="2579.48" y="-386.3" font-family="Times,serif" font-size="14.00">(&#39;path&#39;, &#39;reg_qdd_mmo_500_ppr&#39;)</text>
</g>
<!-- reg_qdd_mmo_500_ppr&#45;&gt;(&#39;path&#39;, &#39;reg_qdd_mmo_500_ppr&#39;) -->
<g id="edge16" class="edge">
<title>reg_qdd_mmo_500_ppr&#45;&gt;(&#39;path&#39;, &#39;reg_qdd_mmo_500_ppr&#39;)</title>
<path fill="none" stroke="black" d="M2579.48,-451.69C2579.48,-441.89 2579.48,-429.42 2579.48,-418.33"/>
<polygon fill="black" stroke="black" points="2582.98,-418.26 2579.48,-408.26 2575.98,-418.26 2582.98,-418.26"/>
</g>
<!-- trans_error_pose_9_mmo_500_ppr_vs_goal -->
<g id="node20" class="node">
<title>trans_error_pose_9_mmo_500_ppr_vs_goal</title>
<ellipse fill="none" stroke="green" cx="990.48" cy="-234" rx="207.96" ry="18"/>
<text text-anchor="middle" x="990.48" y="-230.3" font-family="Times,serif" font-size="14.00">trans_error_pose_9_mmo_500_ppr_vs_goal</text>
</g>
<!-- pose_9_mmo_500_ppr&#45;&gt;trans_error_pose_9_mmo_500_ppr_vs_goal -->
<g id="edge17" class="edge">
<title>pose_9_mmo_500_ppr&#45;&gt;trans_error_pose_9_mmo_500_ppr_vs_goal</title>
<path fill="none" stroke="black" d="M957.45,-291.84C962.77,-282.68 969.43,-271.23 975.37,-261.01"/>
<polygon fill="black" stroke="black" points="978.56,-262.47 980.56,-252.07 972.51,-258.96 978.56,-262.47"/>
</g>
<!-- rotmat_error_pose_9_mmo_500_ppr_vs_goal -->
<g id="node23" class="node">
<title>rotmat_error_pose_9_mmo_500_ppr_vs_goal</title>
<ellipse fill="none" stroke="green" cx="549.48" cy="-234" rx="215.26" ry="18"/>
<text text-anchor="middle" x="549.48" y="-230.3" font-family="Times,serif" font-size="14.00">rotmat_error_pose_9_mmo_500_ppr_vs_goal</text>
</g>
<!-- pose_9_mmo_500_ppr&#45;&gt;rotmat_error_pose_9_mmo_500_ppr_vs_goal -->
<g id="edge18" class="edge">
<title>pose_9_mmo_500_ppr&#45;&gt;rotmat_error_pose_9_mmo_500_ppr_vs_goal</title>
<path fill="none" stroke="black" d="M877.24,-295.94C812.24,-283.85 715.1,-265.79 643.44,-252.47"/>
<polygon fill="black" stroke="black" points="643.98,-249.01 633.51,-250.62 642.7,-255.89 643.98,-249.01"/>
</g>
<!-- goal_pose_mmo_500_ppr -->
<g id="node19" class="node">
<title>goal_pose_mmo_500_ppr</title>
<polygon fill="none" stroke="blue" points="727.94,-302.54 727.94,-317.46 648,-328 534.96,-328 455.03,-317.46 455.03,-302.54 534.96,-292 648,-292 727.94,-302.54"/>
<polygon fill="none" stroke="blue" points="731.94,-299.04 731.94,-320.96 648.27,-332 534.7,-332 451.03,-320.96 451.03,-299.04 534.7,-288 648.27,-288 731.94,-299.04"/>
<text text-anchor="middle" x="591.48" y="-306.3" font-family="Times,serif" font-size="14.00">goal_pose_mmo_500_ppr</text>
</g>
<!-- goal_pose_mmo_500_ppr&#45;&gt;trans_error_pose_9_mmo_500_ppr_vs_goal -->
<g id="edge19" class="edge">
<title>goal_pose_mmo_500_ppr&#45;&gt;trans_error_pose_9_mmo_500_ppr_vs_goal</title>
<path fill="none" stroke="black" d="M681.52,-292.3C745.8,-280.38 832.03,-264.39 897.06,-252.33"/>
<polygon fill="black" stroke="black" points="897.7,-255.77 906.9,-250.5 896.43,-248.88 897.7,-255.77"/>
</g>
<!-- goal_pose_mmo_500_ppr&#45;&gt;rotmat_error_pose_9_mmo_500_ppr_vs_goal -->
<g id="edge20" class="edge">
<title>goal_pose_mmo_500_ppr&#45;&gt;rotmat_error_pose_9_mmo_500_ppr_vs_goal</title>
<path fill="none" stroke="black" d="M579.56,-287.99C574.81,-279.62 569.29,-269.89 564.28,-261.08"/>
<polygon fill="black" stroke="black" points="567.29,-259.28 559.31,-252.31 561.2,-262.74 567.29,-259.28"/>
</g>
<!-- trans_con_pose_9_mmo_500_ppr_vs_goal -->
<g id="node21" class="node">
<title>trans_con_pose_9_mmo_500_ppr_vs_goal</title>
<polygon fill="none" stroke="magenta" points="1239.78,-162 1124.13,-180 892.83,-180 777.18,-162 892.83,-144 1124.13,-144 1239.78,-162"/>
<text text-anchor="middle" x="1008.48" y="-158.3" font-family="Times,serif" font-size="14.00">trans_con_pose_9_mmo_500_ppr_vs_goal</text>
</g>
<!-- trans_error_pose_9_mmo_500_ppr_vs_goal&#45;&gt;trans_con_pose_9_mmo_500_ppr_vs_goal -->
<g id="edge21" class="edge">
<title>trans_error_pose_9_mmo_500_ppr_vs_goal&#45;&gt;trans_con_pose_9_mmo_500_ppr_vs_goal</title>
<path fill="none" stroke="black" d="M994.93,-215.7C996.94,-207.9 999.35,-198.51 1001.58,-189.83"/>
<polygon fill="black" stroke="black" points="1004.98,-190.66 1004.08,-180.1 998.2,-188.92 1004.98,-190.66"/>
</g>
<!-- (&#39;terminal&#39;, &#39;trans_con_pose_9_mmo_500_ppr_vs_goal&#39;) -->
<g id="node22" class="node">
<title>(&#39;terminal&#39;, &#39;trans_con_pose_9_mmo_500_ppr_vs_goal&#39;)</title>
<polygon fill="none" stroke="purple" points="1209.98,-108 806.98,-108 806.98,-72 1209.98,-72 1209.98,-108"/>
<text text-anchor="middle" x="1008.48" y="-86.3" font-family="Times,serif" font-size="14.00">(&#39;terminal&#39;, &#39;trans_con_pose_9_mmo_500_ppr_vs_goal&#39;)</text>
</g>
<!-- trans_con_pose_9_mmo_500_ppr_vs_goal&#45;&gt;(&#39;terminal&#39;, &#39;trans_con_pose_9_mmo_500_ppr_vs_goal&#39;) -->
<g id="edge22" class="edge">
<title>trans_con_pose_9_mmo_500_ppr_vs_goal&#45;&gt;(&#39;terminal&#39;, &#39;trans_con_pose_9_mmo_500_ppr_vs_goal&#39;)</title>
<path fill="none" stroke="black" d="M1008.48,-143.7C1008.48,-135.98 1008.48,-126.71 1008.48,-118.11"/>
<polygon fill="black" stroke="black" points="1011.98,-118.1 1008.48,-108.1 1004.98,-118.1 1011.98,-118.1"/>
</g>
<!-- ax_ang_error_pose_9_mmo_500_ppr_vs_goal -->
<g id="node24" class="node">
<title>ax_ang_error_pose_9_mmo_500_ppr_vs_goal</title>
<ellipse fill="none" stroke="green" cx="543.48" cy="-162" rx="215.56" ry="18"/>
<text text-anchor="middle" x="543.48" y="-158.3" font-family="Times,serif" font-size="14.00">ax_ang_error_pose_9_mmo_500_ppr_vs_goal</text>
</g>
<!-- rotmat_error_pose_9_mmo_500_ppr_vs_goal&#45;&gt;ax_ang_error_pose_9_mmo_500_ppr_vs_goal -->
<g id="edge23" class="edge">
<title>rotmat_error_pose_9_mmo_500_ppr_vs_goal&#45;&gt;ax_ang_error_pose_9_mmo_500_ppr_vs_goal</title>
<path fill="none" stroke="black" d="M548,-215.7C547.34,-207.98 546.54,-198.71 545.8,-190.11"/>
<polygon fill="black" stroke="black" points="549.29,-189.77 544.95,-180.1 542.31,-190.37 549.29,-189.77"/>
</g>
<!-- rot_con_pose_9_mmo_500_ppr_vs_goal -->
<g id="node25" class="node">
<title>rot_con_pose_9_mmo_500_ppr_vs_goal</title>
<polygon fill="none" stroke="magenta" points="761.77,-90 652.62,-108 434.34,-108 325.2,-90 434.34,-72 652.62,-72 761.77,-90"/>
<text text-anchor="middle" x="543.48" y="-86.3" font-family="Times,serif" font-size="14.00">rot_con_pose_9_mmo_500_ppr_vs_goal</text>
</g>
<!-- ax_ang_error_pose_9_mmo_500_ppr_vs_goal&#45;&gt;rot_con_pose_9_mmo_500_ppr_vs_goal -->
<g id="edge24" class="edge">
<title>ax_ang_error_pose_9_mmo_500_ppr_vs_goal&#45;&gt;rot_con_pose_9_mmo_500_ppr_vs_goal</title>
<path fill="none" stroke="black" d="M543.48,-143.7C543.48,-135.98 543.48,-126.71 543.48,-118.11"/>
<polygon fill="black" stroke="black" points="546.98,-118.1 543.48,-108.1 539.98,-118.1 546.98,-118.1"/>
</g>
<!-- (&#39;terminal&#39;, &#39;rot_con_pose_9_mmo_500_ppr_vs_goal&#39;) -->
<g id="node26" class="node">
<title>(&#39;terminal&#39;, &#39;rot_con_pose_9_mmo_500_ppr_vs_goal&#39;)</title>
<polygon fill="none" stroke="purple" points="736.48,-36 350.48,-36 350.48,0 736.48,0 736.48,-36"/>
<text text-anchor="middle" x="543.48" y="-14.3" font-family="Times,serif" font-size="14.00">(&#39;terminal&#39;, &#39;rot_con_pose_9_mmo_500_ppr_vs_goal&#39;)</text>
</g>
<!-- rot_con_pose_9_mmo_500_ppr_vs_goal&#45;&gt;(&#39;terminal&#39;, &#39;rot_con_pose_9_mmo_500_ppr_vs_goal&#39;) -->
<g id="edge25" class="edge">
<title>rot_con_pose_9_mmo_500_ppr_vs_goal&#45;&gt;(&#39;terminal&#39;, &#39;rot_con_pose_9_mmo_500_ppr_vs_goal&#39;)</title>
<path fill="none" stroke="black" d="M543.48,-71.7C543.48,-63.98 543.48,-54.71 543.48,-46.11"/>
<polygon fill="black" stroke="black" points="546.98,-46.1 543.48,-36.1 539.98,-46.1 546.98,-46.1"/>
</g>
</g>
</svg>
