<?xml version="1.0" encoding="UTF-8" standalone="no"?>
<!DOCTYPE svg PUBLIC "-//W3C//DTD SVG 1.1//EN"
 "http://www.w3.org/Graphics/SVG/1.1/DTD/svg11.dtd">
<!-- Generated by graphviz version 2.43.0 (0)
 -->
<!-- Title: %3 Pages: 1 -->
<svg width="2037pt" height="580pt"
 viewBox="0.00 0.00 2037.00 580.00" xmlns="http://www.w3.org/2000/svg" xmlns:xlink="http://www.w3.org/1999/xlink">
<g id="graph0" class="graph" transform="scale(1 1) rotate(0) translate(4 576)">
<title>%3</title>
<polygon fill="white" stroke="transparent" points="-4,4 -4,-576 2033,-576 2033,4 -4,4"/>
<!-- q_indy7 -->
<g id="node1" class="node">
<title>q_indy7</title>
<polygon fill="none" stroke="green" points="864.79,-382.54 864.79,-397.46 835.04,-408 792.96,-408 763.21,-397.46 763.21,-382.54 792.96,-372 835.04,-372 864.79,-382.54"/>
<polygon fill="none" stroke="green" points="868.8,-379.72 868.8,-400.28 835.73,-412 792.27,-412 759.2,-400.28 759.2,-379.72 792.27,-368 835.73,-368 868.8,-379.72"/>
<text text-anchor="middle" x="814" y="-386.3" font-family="Times,serif" font-size="14.00">q_indy7</text>
</g>
<!-- error_q_indy7_q_init_indy7 -->
<g id="node5" class="node">
<title>error_q_indy7_q_init_indy7</title>
<ellipse fill="none" stroke="green" cx="175" cy="-310" rx="135.68" ry="18"/>
<text text-anchor="middle" x="175" y="-306.3" font-family="Times,serif" font-size="14.00">error_q_indy7_q_init_indy7</text>
</g>
<!-- q_indy7&#45;&gt;error_q_indy7_q_init_indy7 -->
<g id="edge1" class="edge">
<title>q_indy7&#45;&gt;error_q_indy7_q_init_indy7</title>
<path fill="none" stroke="black" d="M759.12,-382.46C671.11,-371.95 492.94,-350.6 342,-332 321.81,-329.51 300.26,-326.82 279.57,-324.23"/>
<polygon fill="black" stroke="black" points="279.85,-320.74 269.49,-322.96 278.98,-327.68 279.85,-320.74"/>
</g>
<!-- limits_q_indy7 -->
<g id="node10" class="node">
<title>limits_q_indy7</title>
<polygon fill="none" stroke="magenta" points="993.12,-310 948.56,-328 859.44,-328 814.88,-310 859.44,-292 948.56,-292 993.12,-310"/>
<text text-anchor="middle" x="904" y="-306.3" font-family="Times,serif" font-size="14.00">limits_q_indy7</text>
</g>
<!-- q_indy7&#45;&gt;limits_q_indy7 -->
<g id="edge2" class="edge">
<title>q_indy7&#45;&gt;limits_q_indy7</title>
<path fill="none" stroke="black" d="M837.65,-368.51C849.52,-358.21 863.98,-345.68 876.37,-334.95"/>
<polygon fill="black" stroke="black" points="878.9,-337.39 884.16,-328.19 874.31,-332.1 878.9,-337.39"/>
</g>
<!-- pose_6_indy7 -->
<g id="node18" class="node">
<title>pose_6_indy7</title>
<ellipse fill="none" stroke="green" cx="724" cy="-310" rx="72.59" ry="18"/>
<text text-anchor="middle" x="724" y="-306.3" font-family="Times,serif" font-size="14.00">pose_6_indy7</text>
</g>
<!-- q_indy7&#45;&gt;pose_6_indy7 -->
<g id="edge3" class="edge">
<title>q_indy7&#45;&gt;pose_6_indy7</title>
<path fill="none" stroke="black" d="M790.35,-368.51C778.22,-357.99 763.39,-345.14 750.83,-334.25"/>
<polygon fill="black" stroke="black" points="752.81,-331.33 742.96,-327.43 748.22,-336.62 752.81,-331.33"/>
</g>
<!-- qd_indy7 -->
<g id="node2" class="node">
<title>qd_indy7</title>
<polygon fill="none" stroke="green" points="1444.97,-462.54 1444.97,-477.46 1411.6,-488 1364.4,-488 1331.03,-477.46 1331.03,-462.54 1364.4,-452 1411.6,-452 1444.97,-462.54"/>
<polygon fill="none" stroke="green" points="1448.97,-459.61 1448.97,-480.39 1412.21,-492 1363.79,-492 1327.03,-480.39 1327.03,-459.61 1363.79,-448 1412.21,-448 1448.97,-459.61"/>
<text text-anchor="middle" x="1388" y="-466.3" font-family="Times,serif" font-size="14.00">qd_indy7</text>
</g>
<!-- qd_indy7&#45;&gt;q_indy7 -->
<g id="edge26" class="edge">
<title>qd_indy7&#45;&gt;q_indy7</title>
<path fill="none" stroke="black" stroke-dasharray="5,2" d="M1326.84,-460.69C1217.74,-445.86 990.51,-414.99 878.82,-399.81"/>
<polygon fill="black" stroke="black" points="879.08,-396.31 868.7,-398.43 878.14,-403.25 879.08,-396.31"/>
</g>
<!-- stationary_qd_indy7 -->
<g id="node8" class="node">
<title>stationary_qd_indy7</title>
<polygon fill="none" stroke="magenta" points="1390.66,-390 1330.33,-408 1209.67,-408 1149.34,-390 1209.67,-372 1330.33,-372 1390.66,-390"/>
<text text-anchor="middle" x="1270" y="-386.3" font-family="Times,serif" font-size="14.00">stationary_qd_indy7</text>
</g>
<!-- qd_indy7&#45;&gt;stationary_qd_indy7 -->
<g id="edge4" class="edge">
<title>qd_indy7&#45;&gt;stationary_qd_indy7</title>
<path fill="none" stroke="black" d="M1358.53,-449.52C1342.14,-438.68 1321.64,-425.14 1304.51,-413.81"/>
<polygon fill="black" stroke="black" points="1306.16,-410.71 1295.89,-408.11 1302.3,-416.55 1306.16,-410.71"/>
</g>
<!-- limits_qd_indy7 -->
<g id="node12" class="node">
<title>limits_qd_indy7</title>
<polygon fill="none" stroke="magenta" points="1601.13,-390 1553.06,-408 1456.94,-408 1408.87,-390 1456.94,-372 1553.06,-372 1601.13,-390"/>
<text text-anchor="middle" x="1505" y="-386.3" font-family="Times,serif" font-size="14.00">limits_qd_indy7</text>
</g>
<!-- qd_indy7&#45;&gt;limits_qd_indy7 -->
<g id="edge5" class="edge">
<title>qd_indy7&#45;&gt;limits_qd_indy7</title>
<path fill="none" stroke="black" d="M1417.22,-449.52C1433.48,-438.68 1453.79,-425.14 1470.79,-413.81"/>
<polygon fill="black" stroke="black" points="1472.95,-416.57 1479.33,-408.11 1469.07,-410.75 1472.95,-416.57"/>
</g>
<!-- qdd_indy7 -->
<g id="node3" class="node">
<title>qdd_indy7</title>
<polygon fill="none" stroke="cyan" points="1784.14,-542.54 1784.14,-557.46 1747.15,-568 1694.85,-568 1657.86,-557.46 1657.86,-542.54 1694.85,-532 1747.15,-532 1784.14,-542.54"/>
<polygon fill="none" stroke="cyan" points="1788.13,-539.52 1788.13,-560.48 1747.71,-572 1694.29,-572 1653.87,-560.48 1653.87,-539.52 1694.29,-528 1747.71,-528 1788.13,-539.52"/>
<text text-anchor="middle" x="1721" y="-546.3" font-family="Times,serif" font-size="14.00">qdd_indy7</text>
</g>
<!-- qdd_indy7&#45;&gt;qd_indy7 -->
<g id="edge27" class="edge">
<title>qdd_indy7&#45;&gt;qd_indy7</title>
<path fill="none" stroke="black" stroke-dasharray="5,2" d="M1665.64,-536.03C1606.25,-522.12 1512.14,-500.08 1450.23,-485.58"/>
<polygon fill="black" stroke="black" points="1450.73,-482.1 1440.2,-483.23 1449.14,-488.92 1450.73,-482.1"/>
</g>
<!-- limits_qdd_indy7 -->
<g id="node14" class="node">
<title>limits_qdd_indy7</title>
<polygon fill="none" stroke="magenta" points="1823.63,-470 1772.32,-488 1669.68,-488 1618.37,-470 1669.68,-452 1772.32,-452 1823.63,-470"/>
<text text-anchor="middle" x="1721" y="-466.3" font-family="Times,serif" font-size="14.00">limits_qdd_indy7</text>
</g>
<!-- qdd_indy7&#45;&gt;limits_qdd_indy7 -->
<g id="edge6" class="edge">
<title>qdd_indy7&#45;&gt;limits_qdd_indy7</title>
<path fill="none" stroke="black" d="M1721,-527.69C1721,-518.64 1721,-507.99 1721,-498.37"/>
<polygon fill="black" stroke="black" points="1724.5,-498.09 1721,-488.09 1717.5,-498.09 1724.5,-498.09"/>
</g>
<!-- reg_qdd_indy7 -->
<g id="node16" class="node">
<title>reg_qdd_indy7</title>
<polygon fill="none" stroke="magenta" points="2024.62,-470 1979.31,-488 1888.69,-488 1843.38,-470 1888.69,-452 1979.31,-452 2024.62,-470"/>
<text text-anchor="middle" x="1934" y="-466.3" font-family="Times,serif" font-size="14.00">reg_qdd_indy7</text>
</g>
<!-- qdd_indy7&#45;&gt;reg_qdd_indy7 -->
<g id="edge7" class="edge">
<title>qdd_indy7&#45;&gt;reg_qdd_indy7</title>
<path fill="none" stroke="black" d="M1765.13,-532.84C1797.99,-520.81 1843.08,-504.3 1878.4,-491.36"/>
<polygon fill="black" stroke="black" points="1879.9,-494.54 1888.08,-487.81 1877.49,-487.97 1879.9,-494.54"/>
</g>
<!-- q_init_indy7 -->
<g id="node4" class="node">
<title>q_init_indy7</title>
<polygon fill="none" stroke="blue" points="247.42,-382.54 247.42,-397.46 205,-408 145,-408 102.58,-397.46 102.58,-382.54 145,-372 205,-372 247.42,-382.54"/>
<polygon fill="none" stroke="blue" points="251.42,-379.42 251.42,-400.58 205.49,-412 144.51,-412 98.58,-400.58 98.58,-379.42 144.51,-368 205.49,-368 251.42,-379.42"/>
<text text-anchor="middle" x="175" y="-386.3" font-family="Times,serif" font-size="14.00">q_init_indy7</text>
</g>
<!-- q_init_indy7&#45;&gt;error_q_indy7_q_init_indy7 -->
<g id="edge8" class="edge">
<title>q_init_indy7&#45;&gt;error_q_indy7_q_init_indy7</title>
<path fill="none" stroke="black" d="M175,-367.69C175,-358.64 175,-347.99 175,-338.37"/>
<polygon fill="black" stroke="black" points="178.5,-338.09 175,-328.09 171.5,-338.09 178.5,-338.09"/>
</g>
<!-- equality_q_indy7 -->
<g id="node6" class="node">
<title>equality_q_indy7</title>
<polygon fill="none" stroke="magenta" points="210.63,-234 159.32,-252 56.68,-252 5.37,-234 56.68,-216 159.32,-216 210.63,-234"/>
<text text-anchor="middle" x="108" y="-230.3" font-family="Times,serif" font-size="14.00">equality_q_indy7</text>
</g>
<!-- error_q_indy7_q_init_indy7&#45;&gt;equality_q_indy7 -->
<g id="edge9" class="edge">
<title>error_q_indy7_q_init_indy7&#45;&gt;equality_q_indy7</title>
<path fill="none" stroke="black" d="M159.46,-291.84C150.84,-282.31 139.95,-270.29 130.42,-259.76"/>
<polygon fill="black" stroke="black" points="132.76,-257.13 123.46,-252.07 127.57,-261.83 132.76,-257.13"/>
</g>
<!-- (&#39;initial&#39;, &#39;equality_q_indy7&#39;) -->
<g id="node7" class="node">
<title>(&#39;initial&#39;, &#39;equality_q_indy7&#39;)</title>
<polygon fill="none" stroke="purple" points="212,-180 0,-180 0,-144 212,-144 212,-180"/>
<text text-anchor="middle" x="106" y="-158.3" font-family="Times,serif" font-size="14.00">(&#39;initial&#39;, &#39;equality_q_indy7&#39;)</text>
</g>
<!-- equality_q_indy7&#45;&gt;(&#39;initial&#39;, &#39;equality_q_indy7&#39;) -->
<g id="edge10" class="edge">
<title>equality_q_indy7&#45;&gt;(&#39;initial&#39;, &#39;equality_q_indy7&#39;)</title>
<path fill="none" stroke="black" d="M107.51,-215.7C107.29,-207.98 107.02,-198.71 106.77,-190.11"/>
<polygon fill="black" stroke="black" points="110.27,-190 106.49,-180.1 103.28,-190.2 110.27,-190"/>
</g>
<!-- (&#39;initial&#39;, &#39;stationary_qd_indy7&#39;) -->
<g id="node9" class="node">
<title>(&#39;initial&#39;, &#39;stationary_qd_indy7&#39;)</title>
<polygon fill="none" stroke="purple" points="1521,-328 1285,-328 1285,-292 1521,-292 1521,-328"/>
<text text-anchor="middle" x="1403" y="-306.3" font-family="Times,serif" font-size="14.00">(&#39;initial&#39;, &#39;stationary_qd_indy7&#39;)</text>
</g>
<!-- stationary_qd_indy7&#45;&gt;(&#39;initial&#39;, &#39;stationary_qd_indy7&#39;) -->
<g id="edge11" class="edge">
<title>stationary_qd_indy7&#45;&gt;(&#39;initial&#39;, &#39;stationary_qd_indy7&#39;)</title>
<path fill="none" stroke="black" d="M1299.19,-371.88C1318.59,-360.5 1344.26,-345.45 1365.22,-333.16"/>
<polygon fill="black" stroke="black" points="1367.03,-336.16 1373.88,-328.08 1363.48,-330.12 1367.03,-336.16"/>
</g>
<!-- (&#39;terminal&#39;, &#39;stationary_qd_indy7&#39;) -->
<g id="node27" class="node">
<title>(&#39;terminal&#39;, &#39;stationary_qd_indy7&#39;)</title>
<polygon fill="none" stroke="purple" points="1267,-328 1011,-328 1011,-292 1267,-292 1267,-328"/>
<text text-anchor="middle" x="1139" y="-306.3" font-family="Times,serif" font-size="14.00">(&#39;terminal&#39;, &#39;stationary_qd_indy7&#39;)</text>
</g>
<!-- stationary_qd_indy7&#45;&gt;(&#39;terminal&#39;, &#39;stationary_qd_indy7&#39;) -->
<g id="edge12" class="edge">
<title>stationary_qd_indy7&#45;&gt;(&#39;terminal&#39;, &#39;stationary_qd_indy7&#39;)</title>
<path fill="none" stroke="black" d="M1241.25,-371.88C1222.23,-360.55 1197.08,-345.58 1176.49,-333.32"/>
<polygon fill="black" stroke="black" points="1178.06,-330.19 1167.68,-328.08 1174.48,-336.2 1178.06,-330.19"/>
</g>
<!-- (&#39;path&#39;, &#39;limits_q_indy7&#39;) -->
<g id="node11" class="node">
<title>(&#39;path&#39;, &#39;limits_q_indy7&#39;)</title>
<polygon fill="none" stroke="purple" points="1140,-252 954,-252 954,-216 1140,-216 1140,-252"/>
<text text-anchor="middle" x="1047" y="-230.3" font-family="Times,serif" font-size="14.00">(&#39;path&#39;, &#39;limits_q_indy7&#39;)</text>
</g>
<!-- limits_q_indy7&#45;&gt;(&#39;path&#39;, &#39;limits_q_indy7&#39;) -->
<g id="edge13" class="edge">
<title>limits_q_indy7&#45;&gt;(&#39;path&#39;, &#39;limits_q_indy7&#39;)</title>
<path fill="none" stroke="black" d="M937.17,-291.84C957.38,-281.38 983.4,-267.91 1005.04,-256.71"/>
<polygon fill="black" stroke="black" points="1006.74,-259.77 1014.01,-252.07 1003.52,-253.56 1006.74,-259.77"/>
</g>
<!-- (&#39;path&#39;, &#39;limits_qd_indy7&#39;) -->
<g id="node13" class="node">
<title>(&#39;path&#39;, &#39;limits_qd_indy7&#39;)</title>
<polygon fill="none" stroke="purple" points="1734.5,-328 1539.5,-328 1539.5,-292 1734.5,-292 1734.5,-328"/>
<text text-anchor="middle" x="1637" y="-306.3" font-family="Times,serif" font-size="14.00">(&#39;path&#39;, &#39;limits_qd_indy7&#39;)</text>
</g>
<!-- limits_qd_indy7&#45;&gt;(&#39;path&#39;, &#39;limits_qd_indy7&#39;) -->
<g id="edge14" class="edge">
<title>limits_qd_indy7&#45;&gt;(&#39;path&#39;, &#39;limits_qd_indy7&#39;)</title>
<path fill="none" stroke="black" d="M1533.97,-371.88C1553.14,-360.55 1578.47,-345.58 1599.22,-333.32"/>
<polygon fill="black" stroke="black" points="1601.27,-336.18 1608.1,-328.08 1597.71,-330.15 1601.27,-336.18"/>
</g>
<!-- (&#39;path&#39;, &#39;limits_qdd_indy7&#39;) -->
<g id="node15" class="node">
<title>(&#39;path&#39;, &#39;limits_qdd_indy7&#39;)</title>
<polygon fill="none" stroke="purple" points="1823,-408 1619,-408 1619,-372 1823,-372 1823,-408"/>
<text text-anchor="middle" x="1721" y="-386.3" font-family="Times,serif" font-size="14.00">(&#39;path&#39;, &#39;limits_qdd_indy7&#39;)</text>
</g>
<!-- limits_qdd_indy7&#45;&gt;(&#39;path&#39;, &#39;limits_qdd_indy7&#39;) -->
<g id="edge15" class="edge">
<title>limits_qdd_indy7&#45;&gt;(&#39;path&#39;, &#39;limits_qdd_indy7&#39;)</title>
<path fill="none" stroke="black" d="M1721,-451.69C1721,-441.89 1721,-429.42 1721,-418.33"/>
<polygon fill="black" stroke="black" points="1724.5,-418.26 1721,-408.26 1717.5,-418.26 1724.5,-418.26"/>
</g>
<!-- (&#39;path&#39;, &#39;reg_qdd_indy7&#39;) -->
<g id="node17" class="node">
<title>(&#39;path&#39;, &#39;reg_qdd_indy7&#39;)</title>
<polygon fill="none" stroke="purple" points="2029,-408 1841,-408 1841,-372 2029,-372 2029,-408"/>
<text text-anchor="middle" x="1935" y="-386.3" font-family="Times,serif" font-size="14.00">(&#39;path&#39;, &#39;reg_qdd_indy7&#39;)</text>
</g>
<!-- reg_qdd_indy7&#45;&gt;(&#39;path&#39;, &#39;reg_qdd_indy7&#39;) -->
<g id="edge16" class="edge">
<title>reg_qdd_indy7&#45;&gt;(&#39;path&#39;, &#39;reg_qdd_indy7&#39;)</title>
<path fill="none" stroke="black" d="M1934.22,-451.69C1934.35,-441.89 1934.51,-429.42 1934.65,-418.33"/>
<polygon fill="black" stroke="black" points="1938.15,-418.31 1934.78,-408.26 1931.15,-418.22 1938.15,-418.31"/>
</g>
<!-- trans_error_pose_6_indy7_vs_goal -->
<g id="node20" class="node">
<title>trans_error_pose_6_indy7_vs_goal</title>
<ellipse fill="none" stroke="green" cx="768" cy="-234" rx="168.17" ry="18"/>
<text text-anchor="middle" x="768" y="-230.3" font-family="Times,serif" font-size="14.00">trans_error_pose_6_indy7_vs_goal</text>
</g>
<!-- pose_6_indy7&#45;&gt;trans_error_pose_6_indy7_vs_goal -->
<g id="edge17" class="edge">
<title>pose_6_indy7&#45;&gt;trans_error_pose_6_indy7_vs_goal</title>
<path fill="none" stroke="black" d="M734.21,-291.84C739.7,-282.59 746.6,-271 752.72,-260.7"/>
<polygon fill="black" stroke="black" points="755.75,-262.45 757.85,-252.07 749.73,-258.88 755.75,-262.45"/>
</g>
<!-- rotmat_error_pose_6_indy7_vs_goal -->
<g id="node23" class="node">
<title>rotmat_error_pose_6_indy7_vs_goal</title>
<ellipse fill="none" stroke="green" cx="406" cy="-234" rx="175.47" ry="18"/>
<text text-anchor="middle" x="406" y="-230.3" font-family="Times,serif" font-size="14.00">rotmat_error_pose_6_indy7_vs_goal</text>
</g>
<!-- pose_6_indy7&#45;&gt;rotmat_error_pose_6_indy7_vs_goal -->
<g id="edge18" class="edge">
<title>pose_6_indy7&#45;&gt;rotmat_error_pose_6_indy7_vs_goal</title>
<path fill="none" stroke="black" d="M672.91,-297.11C621.71,-285.2 542.24,-266.7 483.32,-252.99"/>
<polygon fill="black" stroke="black" points="483.84,-249.52 473.31,-250.66 482.25,-256.34 483.84,-249.52"/>
</g>
<!-- goal_pose_indy7 -->
<g id="node19" class="node">
<title>goal_pose_indy7</title>
<polygon fill="none" stroke="blue" points="542.63,-302.54 542.63,-317.46 487.78,-328 410.22,-328 355.37,-317.46 355.37,-302.54 410.22,-292 487.78,-292 542.63,-302.54"/>
<polygon fill="none" stroke="blue" points="546.63,-299.24 546.63,-320.76 488.16,-332 409.84,-332 351.37,-320.76 351.37,-299.24 409.84,-288 488.16,-288 546.63,-299.24"/>
<text text-anchor="middle" x="449" y="-306.3" font-family="Times,serif" font-size="14.00">goal_pose_indy7</text>
</g>
<!-- goal_pose_indy7&#45;&gt;trans_error_pose_6_indy7_vs_goal -->
<g id="edge19" class="edge">
<title>goal_pose_indy7&#45;&gt;trans_error_pose_6_indy7_vs_goal</title>
<path fill="none" stroke="black" d="M516.26,-293.4C567.46,-281.52 637.97,-265.16 691.35,-252.78"/>
<polygon fill="black" stroke="black" points="692.15,-256.19 701.1,-250.52 690.57,-249.37 692.15,-256.19"/>
</g>
<!-- goal_pose_indy7&#45;&gt;rotmat_error_pose_6_indy7_vs_goal -->
<g id="edge20" class="edge">
<title>goal_pose_indy7&#45;&gt;rotmat_error_pose_6_indy7_vs_goal</title>
<path fill="none" stroke="black" d="M436.79,-287.99C431.93,-279.62 426.28,-269.89 421.15,-261.08"/>
<polygon fill="black" stroke="black" points="424.11,-259.2 416.06,-252.31 418.06,-262.72 424.11,-259.2"/>
</g>
<!-- trans_con_pose_6_indy7_vs_goal -->
<g id="node21" class="node">
<title>trans_con_pose_6_indy7_vs_goal</title>
<polygon fill="none" stroke="magenta" points="971.24,-162 878.62,-180 693.38,-180 600.76,-162 693.38,-144 878.62,-144 971.24,-162"/>
<text text-anchor="middle" x="786" y="-158.3" font-family="Times,serif" font-size="14.00">trans_con_pose_6_indy7_vs_goal</text>
</g>
<!-- trans_error_pose_6_indy7_vs_goal&#45;&gt;trans_con_pose_6_indy7_vs_goal -->
<g id="edge21" class="edge">
<title>trans_error_pose_6_indy7_vs_goal&#45;&gt;trans_con_pose_6_indy7_vs_goal</title>
<path fill="none" stroke="black" d="M772.45,-215.7C774.45,-207.9 776.87,-198.51 779.1,-189.83"/>
<polygon fill="black" stroke="black" points="782.5,-190.66 781.6,-180.1 775.72,-188.92 782.5,-190.66"/>
</g>
<!-- (&#39;terminal&#39;, &#39;trans_con_pose_6_indy7_vs_goal&#39;) -->
<g id="node22" class="node">
<title>(&#39;terminal&#39;, &#39;trans_con_pose_6_indy7_vs_goal&#39;)</title>
<polygon fill="none" stroke="purple" points="957,-108 615,-108 615,-72 957,-72 957,-108"/>
<text text-anchor="middle" x="786" y="-86.3" font-family="Times,serif" font-size="14.00">(&#39;terminal&#39;, &#39;trans_con_pose_6_indy7_vs_goal&#39;)</text>
</g>
<!-- trans_con_pose_6_indy7_vs_goal&#45;&gt;(&#39;terminal&#39;, &#39;trans_con_pose_6_indy7_vs_goal&#39;) -->
<g id="edge22" class="edge">
<title>trans_con_pose_6_indy7_vs_goal&#45;&gt;(&#39;terminal&#39;, &#39;trans_con_pose_6_indy7_vs_goal&#39;)</title>
<path fill="none" stroke="black" d="M786,-143.7C786,-135.98 786,-126.71 786,-118.11"/>
<polygon fill="black" stroke="black" points="789.5,-118.1 786,-108.1 782.5,-118.1 789.5,-118.1"/>
</g>
<!-- ax_ang_error_pose_6_indy7_vs_goal -->
<g id="node24" class="node">
<title>ax_ang_error_pose_6_indy7_vs_goal</title>
<ellipse fill="none" stroke="green" cx="406" cy="-162" rx="176.27" ry="18"/>
<text text-anchor="middle" x="406" y="-158.3" font-family="Times,serif" font-size="14.00">ax_ang_error_pose_6_indy7_vs_goal</text>
</g>
<!-- rotmat_error_pose_6_indy7_vs_goal&#45;&gt;ax_ang_error_pose_6_indy7_vs_goal -->
<g id="edge23" class="edge">
<title>rotmat_error_pose_6_indy7_vs_goal&#45;&gt;ax_ang_error_pose_6_indy7_vs_goal</title>
<path fill="none" stroke="black" d="M406,-215.7C406,-207.98 406,-198.71 406,-190.11"/>
<polygon fill="black" stroke="black" points="409.5,-190.1 406,-180.1 402.5,-190.1 409.5,-190.1"/>
</g>
<!-- rot_con_pose_6_indy7_vs_goal -->
<g id="node25" class="node">
<title>rot_con_pose_6_indy7_vs_goal</title>
<polygon fill="none" stroke="magenta" points="578.72,-90 492.36,-108 319.64,-108 233.28,-90 319.64,-72 492.36,-72 578.72,-90"/>
<text text-anchor="middle" x="406" y="-86.3" font-family="Times,serif" font-size="14.00">rot_con_pose_6_indy7_vs_goal</text>
</g>
<!-- ax_ang_error_pose_6_indy7_vs_goal&#45;&gt;rot_con_pose_6_indy7_vs_goal -->
<g id="edge24" class="edge">
<title>ax_ang_error_pose_6_indy7_vs_goal&#45;&gt;rot_con_pose_6_indy7_vs_goal</title>
<path fill="none" stroke="black" d="M406,-143.7C406,-135.98 406,-126.71 406,-118.11"/>
<polygon fill="black" stroke="black" points="409.5,-118.1 406,-108.1 402.5,-118.1 409.5,-118.1"/>
</g>
<!-- (&#39;terminal&#39;, &#39;rot_con_pose_6_indy7_vs_goal&#39;) -->
<g id="node26" class="node">
<title>(&#39;terminal&#39;, &#39;rot_con_pose_6_indy7_vs_goal&#39;)</title>
<polygon fill="none" stroke="purple" points="569,-36 243,-36 243,0 569,0 569,-36"/>
<text text-anchor="middle" x="406" y="-14.3" font-family="Times,serif" font-size="14.00">(&#39;terminal&#39;, &#39;rot_con_pose_6_indy7_vs_goal&#39;)</text>
</g>
<!-- rot_con_pose_6_indy7_vs_goal&#45;&gt;(&#39;terminal&#39;, &#39;rot_con_pose_6_indy7_vs_goal&#39;) -->
<g id="edge25" class="edge">
<title>rot_con_pose_6_indy7_vs_goal&#45;&gt;(&#39;terminal&#39;, &#39;rot_con_pose_6_indy7_vs_goal&#39;)</title>
<path fill="none" stroke="black" d="M406,-71.7C406,-63.98 406,-54.71 406,-46.11"/>
<polygon fill="black" stroke="black" points="409.5,-46.1 406,-36.1 402.5,-46.1 409.5,-46.1"/>
</g>
</g>
</svg>
