<?xml version="1.0" encoding="UTF-8" standalone="no"?>
<!DOCTYPE svg PUBLIC "-//W3C//DTD SVG 1.1//EN"
 "http://www.w3.org/Graphics/SVG/1.1/DTD/svg11.dtd">
<!-- Generated by graphviz version 2.43.0 (0)
 -->
<!-- Title: %3 Pages: 1 -->
<svg width="2123pt" height="580pt"
 viewBox="0.00 0.00 2123.48 580.00" xmlns="http://www.w3.org/2000/svg" xmlns:xlink="http://www.w3.org/1999/xlink">
<g id="graph0" class="graph" transform="scale(1 1) rotate(0) translate(4 576)">
<title>%3</title>
<polygon fill="white" stroke="transparent" points="-4,4 -4,-576 2119.48,-576 2119.48,4 -4,4"/>
<!-- q_kinova -->
<g id="node1" class="node">
<title>q_kinova</title>
<polygon fill="none" stroke="green" points="911.13,-382.54 911.13,-397.46 878.53,-408 832.43,-408 799.84,-397.46 799.84,-382.54 832.43,-372 878.53,-372 911.13,-382.54"/>
<polygon fill="none" stroke="green" points="915.14,-379.64 915.14,-400.36 879.17,-412 831.8,-412 795.83,-400.36 795.83,-379.64 831.8,-368 879.17,-368 915.14,-379.64"/>
<text text-anchor="middle" x="855.48" y="-386.3" font-family="Times,serif" font-size="14.00">q_kinova</text>
</g>
<!-- error_q_kinova_jointpos_init_kinova -->
<g id="node5" class="node">
<title>error_q_kinova_jointpos_init_kinova</title>
<ellipse fill="none" stroke="green" cx="175.48" cy="-310" rx="175.47" ry="18"/>
<text text-anchor="middle" x="175.48" y="-306.3" font-family="Times,serif" font-size="14.00">error_q_kinova_jointpos_init_kinova</text>
</g>
<!-- q_kinova&#45;&gt;error_q_kinova_jointpos_init_kinova -->
<g id="edge1" class="edge">
<title>q_kinova&#45;&gt;error_q_kinova_jointpos_init_kinova</title>
<path fill="none" stroke="black" d="M795.73,-382.15C684.69,-369.41 444.51,-341.86 297.75,-325.02"/>
<polygon fill="black" stroke="black" points="298.12,-321.54 287.78,-323.88 297.32,-328.5 298.12,-321.54"/>
</g>
<!-- limits_q_kinova -->
<g id="node10" class="node">
<title>limits_q_kinova</title>
<polygon fill="none" stroke="magenta" points="1045.11,-310 997.8,-328 903.17,-328 855.86,-310 903.17,-292 997.8,-292 1045.11,-310"/>
<text text-anchor="middle" x="950.48" y="-306.3" font-family="Times,serif" font-size="14.00">limits_q_kinova</text>
</g>
<!-- q_kinova&#45;&gt;limits_q_kinova -->
<g id="edge2" class="edge">
<title>q_kinova&#45;&gt;limits_q_kinova</title>
<path fill="none" stroke="black" d="M880.94,-368.1C893.6,-357.71 908.93,-345.12 921.98,-334.41"/>
<polygon fill="black" stroke="black" points="924.25,-337.07 929.76,-328.02 919.81,-331.66 924.25,-337.07"/>
</g>
<!-- pose_7_kinova -->
<g id="node18" class="node">
<title>pose_7_kinova</title>
<ellipse fill="none" stroke="green" cx="760.48" cy="-310" rx="77.19" ry="18"/>
<text text-anchor="middle" x="760.48" y="-306.3" font-family="Times,serif" font-size="14.00">pose_7_kinova</text>
</g>
<!-- q_kinova&#45;&gt;pose_7_kinova -->
<g id="edge3" class="edge">
<title>q_kinova&#45;&gt;pose_7_kinova</title>
<path fill="none" stroke="black" d="M830.03,-368.1C817.19,-357.56 801.6,-344.76 788.43,-333.95"/>
<polygon fill="black" stroke="black" points="790.54,-331.15 780.59,-327.51 786.1,-336.56 790.54,-331.15"/>
</g>
<!-- qd_kinova -->
<g id="node2" class="node">
<title>qd_kinova</title>
<polygon fill="none" stroke="green" points="1512.3,-462.54 1512.3,-477.46 1476.09,-488 1424.88,-488 1388.66,-477.46 1388.66,-462.54 1424.88,-452 1476.09,-452 1512.3,-462.54"/>
<polygon fill="none" stroke="green" points="1516.3,-459.54 1516.3,-480.46 1476.66,-492 1424.31,-492 1384.67,-480.46 1384.67,-459.54 1424.31,-448 1476.66,-448 1516.3,-459.54"/>
<text text-anchor="middle" x="1450.48" y="-466.3" font-family="Times,serif" font-size="14.00">qd_kinova</text>
</g>
<!-- qd_kinova&#45;&gt;q_kinova -->
<g id="edge26" class="edge">
<title>qd_kinova&#45;&gt;q_kinova</title>
<path fill="none" stroke="black" stroke-dasharray="5,2" d="M1384.54,-460.35C1271.46,-445.53 1041.58,-415.4 925.67,-400.2"/>
<polygon fill="black" stroke="black" points="925.86,-396.7 915.49,-398.87 924.95,-403.64 925.86,-396.7"/>
</g>
<!-- stationary_qd_kinova -->
<g id="node8" class="node">
<title>stationary_qd_kinova</title>
<polygon fill="none" stroke="magenta" points="1452.65,-390 1390.07,-408 1264.9,-408 1202.32,-390 1264.9,-372 1390.07,-372 1452.65,-390"/>
<text text-anchor="middle" x="1327.48" y="-386.3" font-family="Times,serif" font-size="14.00">stationary_qd_kinova</text>
</g>
<!-- qd_kinova&#45;&gt;stationary_qd_kinova -->
<g id="edge4" class="edge">
<title>qd_kinova&#45;&gt;stationary_qd_kinova</title>
<path fill="none" stroke="black" d="M1419.45,-449.32C1402.2,-438.38 1380.68,-424.73 1362.79,-413.39"/>
<polygon fill="black" stroke="black" points="1364.65,-410.43 1354.33,-408.03 1360.91,-416.34 1364.65,-410.43"/>
</g>
<!-- limits_qd_kinova -->
<g id="node12" class="node">
<title>limits_qd_kinova</title>
<polygon fill="none" stroke="magenta" points="1673.62,-390 1623.05,-408 1521.92,-408 1471.35,-390 1521.92,-372 1623.05,-372 1673.62,-390"/>
<text text-anchor="middle" x="1572.48" y="-386.3" font-family="Times,serif" font-size="14.00">limits_qd_kinova</text>
</g>
<!-- qd_kinova&#45;&gt;limits_qd_kinova -->
<g id="edge5" class="edge">
<title>qd_kinova&#45;&gt;limits_qd_kinova</title>
<path fill="none" stroke="black" d="M1481.27,-449.32C1498.22,-438.48 1519.34,-424.98 1536.98,-413.7"/>
<polygon fill="black" stroke="black" points="1539.31,-416.36 1545.85,-408.03 1535.54,-410.46 1539.31,-416.36"/>
</g>
<!-- qdd_kinova -->
<g id="node3" class="node">
<title>qdd_kinova</title>
<polygon fill="none" stroke="cyan" points="1864.95,-542.54 1864.95,-557.46 1824.84,-568 1768.13,-568 1728.02,-557.46 1728.02,-542.54 1768.13,-532 1824.84,-532 1864.95,-542.54"/>
<polygon fill="none" stroke="cyan" points="1868.96,-539.46 1868.96,-560.54 1825.36,-572 1767.6,-572 1724.01,-560.54 1724.01,-539.46 1767.6,-528 1825.36,-528 1868.96,-539.46"/>
<text text-anchor="middle" x="1796.48" y="-546.3" font-family="Times,serif" font-size="14.00">qdd_kinova</text>
</g>
<!-- qdd_kinova&#45;&gt;qd_kinova -->
<g id="edge27" class="edge">
<title>qdd_kinova&#45;&gt;qd_kinova</title>
<path fill="none" stroke="black" stroke-dasharray="5,2" d="M1737.79,-535.77C1676.3,-521.91 1579.93,-500.18 1516,-485.77"/>
<polygon fill="black" stroke="black" points="1516.55,-482.31 1506.03,-483.52 1515.01,-489.13 1516.55,-482.31"/>
</g>
<!-- limits_qdd_kinova -->
<g id="node14" class="node">
<title>limits_qdd_kinova</title>
<polygon fill="none" stroke="magenta" points="1904.63,-470 1850.55,-488 1742.41,-488 1688.34,-470 1742.41,-452 1850.55,-452 1904.63,-470"/>
<text text-anchor="middle" x="1796.48" y="-466.3" font-family="Times,serif" font-size="14.00">limits_qdd_kinova</text>
</g>
<!-- qdd_kinova&#45;&gt;limits_qdd_kinova -->
<g id="edge6" class="edge">
<title>qdd_kinova&#45;&gt;limits_qdd_kinova</title>
<path fill="none" stroke="black" d="M1796.48,-527.69C1796.48,-518.64 1796.48,-507.99 1796.48,-498.37"/>
<polygon fill="black" stroke="black" points="1799.98,-498.09 1796.48,-488.09 1792.98,-498.09 1799.98,-498.09"/>
</g>
<!-- reg_qdd_kinova -->
<g id="node16" class="node">
<title>reg_qdd_kinova</title>
<polygon fill="none" stroke="magenta" points="2114.61,-470 2066.55,-488 1970.42,-488 1922.36,-470 1970.42,-452 2066.55,-452 2114.61,-470"/>
<text text-anchor="middle" x="2018.48" y="-466.3" font-family="Times,serif" font-size="14.00">reg_qdd_kinova</text>
</g>
<!-- qdd_kinova&#45;&gt;reg_qdd_kinova -->
<g id="edge7" class="edge">
<title>qdd_kinova&#45;&gt;reg_qdd_kinova</title>
<path fill="none" stroke="black" d="M1843.29,-532.55C1877.51,-520.53 1924.12,-504.15 1960.67,-491.31"/>
<polygon fill="black" stroke="black" points="1961.93,-494.58 1970.21,-487.96 1959.61,-487.98 1961.93,-494.58"/>
</g>
<!-- jointpos_init_kinova -->
<g id="node4" class="node">
<title>jointpos_init_kinova</title>
<polygon fill="none" stroke="red" points="286.78,-382.54 286.78,-397.46 221.59,-408 129.38,-408 64.19,-397.46 64.19,-382.54 129.38,-372 221.59,-372 286.78,-382.54"/>
<polygon fill="none" stroke="red" points="290.79,-379.14 290.79,-400.86 221.91,-412 129.06,-412 60.18,-400.86 60.18,-379.14 129.06,-368 221.91,-368 290.79,-379.14"/>
<text text-anchor="middle" x="175.48" y="-386.3" font-family="Times,serif" font-size="14.00">jointpos_init_kinova</text>
</g>
<!-- jointpos_init_kinova&#45;&gt;error_q_kinova_jointpos_init_kinova -->
<g id="edge8" class="edge">
<title>jointpos_init_kinova&#45;&gt;error_q_kinova_jointpos_init_kinova</title>
<path fill="none" stroke="black" d="M175.48,-367.69C175.48,-358.64 175.48,-347.99 175.48,-338.37"/>
<polygon fill="black" stroke="black" points="178.98,-338.09 175.48,-328.09 171.98,-338.09 178.98,-338.09"/>
</g>
<!-- equality_q_kinova -->
<g id="node6" class="node">
<title>equality_q_kinova</title>
<polygon fill="none" stroke="magenta" points="234.62,-234 181.05,-252 73.91,-252 20.34,-234 73.91,-216 181.05,-216 234.62,-234"/>
<text text-anchor="middle" x="127.48" y="-230.3" font-family="Times,serif" font-size="14.00">equality_q_kinova</text>
</g>
<!-- error_q_kinova_jointpos_init_kinova&#45;&gt;equality_q_kinova -->
<g id="edge9" class="edge">
<title>error_q_kinova_jointpos_init_kinova&#45;&gt;equality_q_kinova</title>
<path fill="none" stroke="black" d="M164.35,-291.84C158.35,-282.59 150.83,-271 144.15,-260.7"/>
<polygon fill="black" stroke="black" points="146.94,-258.55 138.56,-252.07 141.06,-262.36 146.94,-258.55"/>
</g>
<!-- (&#39;initial&#39;, &#39;equality_q_kinova&#39;) -->
<g id="node7" class="node">
<title>(&#39;initial&#39;, &#39;equality_q_kinova&#39;)</title>
<polygon fill="none" stroke="purple" points="234.98,-180 15.98,-180 15.98,-144 234.98,-144 234.98,-180"/>
<text text-anchor="middle" x="125.48" y="-158.3" font-family="Times,serif" font-size="14.00">(&#39;initial&#39;, &#39;equality_q_kinova&#39;)</text>
</g>
<!-- equality_q_kinova&#45;&gt;(&#39;initial&#39;, &#39;equality_q_kinova&#39;) -->
<g id="edge10" class="edge">
<title>equality_q_kinova&#45;&gt;(&#39;initial&#39;, &#39;equality_q_kinova&#39;)</title>
<path fill="none" stroke="black" d="M126.99,-215.7C126.77,-207.98 126.5,-198.71 126.26,-190.11"/>
<polygon fill="black" stroke="black" points="129.76,-190 125.97,-180.1 122.76,-190.2 129.76,-190"/>
</g>
<!-- (&#39;initial&#39;, &#39;stationary_qd_kinova&#39;) -->
<g id="node9" class="node">
<title>(&#39;initial&#39;, &#39;stationary_qd_kinova&#39;)</title>
<polygon fill="none" stroke="purple" points="1586.98,-328 1343.98,-328 1343.98,-292 1586.98,-292 1586.98,-328"/>
<text text-anchor="middle" x="1465.48" y="-306.3" font-family="Times,serif" font-size="14.00">(&#39;initial&#39;, &#39;stationary_qd_kinova&#39;)</text>
</g>
<!-- stationary_qd_kinova&#45;&gt;(&#39;initial&#39;, &#39;stationary_qd_kinova&#39;) -->
<g id="edge11" class="edge">
<title>stationary_qd_kinova&#45;&gt;(&#39;initial&#39;, &#39;stationary_qd_kinova&#39;)</title>
<path fill="none" stroke="black" d="M1357.77,-371.88C1377.9,-360.5 1404.54,-345.45 1426.28,-333.16"/>
<polygon fill="black" stroke="black" points="1428.29,-336.05 1435.27,-328.08 1424.84,-329.95 1428.29,-336.05"/>
</g>
<!-- (&#39;terminal&#39;, &#39;stationary_qd_kinova&#39;) -->
<g id="node27" class="node">
<title>(&#39;terminal&#39;, &#39;stationary_qd_kinova&#39;)</title>
<polygon fill="none" stroke="purple" points="1325.98,-328 1062.98,-328 1062.98,-292 1325.98,-292 1325.98,-328"/>
<text text-anchor="middle" x="1194.48" y="-306.3" font-family="Times,serif" font-size="14.00">(&#39;terminal&#39;, &#39;stationary_qd_kinova&#39;)</text>
</g>
<!-- stationary_qd_kinova&#45;&gt;(&#39;terminal&#39;, &#39;stationary_qd_kinova&#39;) -->
<g id="edge12" class="edge">
<title>stationary_qd_kinova&#45;&gt;(&#39;terminal&#39;, &#39;stationary_qd_kinova&#39;)</title>
<path fill="none" stroke="black" d="M1298.3,-371.88C1278.89,-360.5 1253.22,-345.45 1232.27,-333.16"/>
<polygon fill="black" stroke="black" points="1234,-330.12 1223.6,-328.08 1230.46,-336.16 1234,-330.12"/>
</g>
<!-- (&#39;path&#39;, &#39;limits_q_kinova&#39;) -->
<g id="node11" class="node">
<title>(&#39;path&#39;, &#39;limits_q_kinova&#39;)</title>
<polygon fill="none" stroke="purple" points="1187.98,-252 994.98,-252 994.98,-216 1187.98,-216 1187.98,-252"/>
<text text-anchor="middle" x="1091.48" y="-230.3" font-family="Times,serif" font-size="14.00">(&#39;path&#39;, &#39;limits_q_kinova&#39;)</text>
</g>
<!-- limits_q_kinova&#45;&gt;(&#39;path&#39;, &#39;limits_q_kinova&#39;) -->
<g id="edge13" class="edge">
<title>limits_q_kinova&#45;&gt;(&#39;path&#39;, &#39;limits_q_kinova&#39;)</title>
<path fill="none" stroke="black" d="M983.19,-291.84C1003.03,-281.42 1028.54,-268.03 1049.82,-256.87"/>
<polygon fill="black" stroke="black" points="1051.73,-259.82 1058.96,-252.07 1048.48,-253.62 1051.73,-259.82"/>
</g>
<!-- (&#39;path&#39;, &#39;limits_qd_kinova&#39;) -->
<g id="node13" class="node">
<title>(&#39;path&#39;, &#39;limits_qd_kinova&#39;)</title>
<polygon fill="none" stroke="purple" points="1807.48,-328 1605.48,-328 1605.48,-292 1807.48,-292 1807.48,-328"/>
<text text-anchor="middle" x="1706.48" y="-306.3" font-family="Times,serif" font-size="14.00">(&#39;path&#39;, &#39;limits_qd_kinova&#39;)</text>
</g>
<!-- limits_qd_kinova&#45;&gt;(&#39;path&#39;, &#39;limits_qd_kinova&#39;) -->
<g id="edge14" class="edge">
<title>limits_qd_kinova&#45;&gt;(&#39;path&#39;, &#39;limits_qd_kinova&#39;)</title>
<path fill="none" stroke="black" d="M1601.89,-371.88C1621.44,-360.5 1647.3,-345.45 1668.42,-333.16"/>
<polygon fill="black" stroke="black" points="1670.26,-336.13 1677.15,-328.08 1666.74,-330.08 1670.26,-336.13"/>
</g>
<!-- (&#39;path&#39;, &#39;limits_qdd_kinova&#39;) -->
<g id="node15" class="node">
<title>(&#39;path&#39;, &#39;limits_qdd_kinova&#39;)</title>
<polygon fill="none" stroke="purple" points="1902.98,-408 1691.98,-408 1691.98,-372 1902.98,-372 1902.98,-408"/>
<text text-anchor="middle" x="1797.48" y="-386.3" font-family="Times,serif" font-size="14.00">(&#39;path&#39;, &#39;limits_qdd_kinova&#39;)</text>
</g>
<!-- limits_qdd_kinova&#45;&gt;(&#39;path&#39;, &#39;limits_qdd_kinova&#39;) -->
<g id="edge15" class="edge">
<title>limits_qdd_kinova&#45;&gt;(&#39;path&#39;, &#39;limits_qdd_kinova&#39;)</title>
<path fill="none" stroke="black" d="M1796.71,-451.69C1796.83,-441.89 1796.99,-429.42 1797.13,-418.33"/>
<polygon fill="black" stroke="black" points="1800.63,-418.31 1797.26,-408.26 1793.64,-418.22 1800.63,-418.31"/>
</g>
<!-- (&#39;path&#39;, &#39;reg_qdd_kinova&#39;) -->
<g id="node17" class="node">
<title>(&#39;path&#39;, &#39;reg_qdd_kinova&#39;)</title>
<polygon fill="none" stroke="purple" points="2115.48,-408 1921.48,-408 1921.48,-372 2115.48,-372 2115.48,-408"/>
<text text-anchor="middle" x="2018.48" y="-386.3" font-family="Times,serif" font-size="14.00">(&#39;path&#39;, &#39;reg_qdd_kinova&#39;)</text>
</g>
<!-- reg_qdd_kinova&#45;&gt;(&#39;path&#39;, &#39;reg_qdd_kinova&#39;) -->
<g id="edge16" class="edge">
<title>reg_qdd_kinova&#45;&gt;(&#39;path&#39;, &#39;reg_qdd_kinova&#39;)</title>
<path fill="none" stroke="black" d="M2018.48,-451.69C2018.48,-441.89 2018.48,-429.42 2018.48,-418.33"/>
<polygon fill="black" stroke="black" points="2021.98,-418.26 2018.48,-408.26 2014.98,-418.26 2021.98,-418.26"/>
</g>
<!-- trans_error_pose_7_kinova_vs_goal -->
<g id="node20" class="node">
<title>trans_error_pose_7_kinova_vs_goal</title>
<ellipse fill="none" stroke="green" cx="804.48" cy="-234" rx="172.77" ry="18"/>
<text text-anchor="middle" x="804.48" y="-230.3" font-family="Times,serif" font-size="14.00">trans_error_pose_7_kinova_vs_goal</text>
</g>
<!-- pose_7_kinova&#45;&gt;trans_error_pose_7_kinova_vs_goal -->
<g id="edge17" class="edge">
<title>pose_7_kinova&#45;&gt;trans_error_pose_7_kinova_vs_goal</title>
<path fill="none" stroke="black" d="M770.69,-291.84C776.19,-282.59 783.08,-271 789.2,-260.7"/>
<polygon fill="black" stroke="black" points="792.23,-262.45 794.33,-252.07 786.22,-258.88 792.23,-262.45"/>
</g>
<!-- rotmat_error_pose_7_kinova_vs_goal -->
<g id="node23" class="node">
<title>rotmat_error_pose_7_kinova_vs_goal</title>
<ellipse fill="none" stroke="green" cx="433.48" cy="-234" rx="180.07" ry="18"/>
<text text-anchor="middle" x="433.48" y="-230.3" font-family="Times,serif" font-size="14.00">rotmat_error_pose_7_kinova_vs_goal</text>
</g>
<!-- pose_7_kinova&#45;&gt;rotmat_error_pose_7_kinova_vs_goal -->
<g id="edge18" class="edge">
<title>pose_7_kinova&#45;&gt;rotmat_error_pose_7_kinova_vs_goal</title>
<path fill="none" stroke="black" d="M707.22,-296.95C654.42,-285 572.91,-266.55 512.55,-252.89"/>
<polygon fill="black" stroke="black" points="513.2,-249.45 502.68,-250.66 511.66,-256.28 513.2,-249.45"/>
</g>
<!-- goal_pose_kinova -->
<g id="node19" class="node">
<title>goal_pose_kinova</title>
<polygon fill="none" stroke="red" points="574.96,-302.54 574.96,-317.46 517.28,-328 435.69,-328 378.01,-317.46 378.01,-302.54 435.69,-292 517.28,-292 574.96,-302.54"/>
<polygon fill="none" stroke="red" points="578.96,-299.21 578.96,-320.79 517.64,-332 435.33,-332 374.01,-320.79 374.01,-299.21 435.33,-288 517.64,-288 578.96,-299.21"/>
<text text-anchor="middle" x="476.48" y="-306.3" font-family="Times,serif" font-size="14.00">goal_pose_kinova</text>
</g>
<!-- goal_pose_kinova&#45;&gt;trans_error_pose_7_kinova_vs_goal -->
<g id="edge19" class="edge">
<title>goal_pose_kinova&#45;&gt;trans_error_pose_7_kinova_vs_goal</title>
<path fill="none" stroke="black" d="M546.45,-293.22C598.96,-281.37 670.91,-265.14 725.49,-252.82"/>
<polygon fill="black" stroke="black" points="726.49,-256.18 735.47,-250.57 724.95,-249.36 726.49,-256.18"/>
</g>
<!-- goal_pose_kinova&#45;&gt;rotmat_error_pose_7_kinova_vs_goal -->
<g id="edge20" class="edge">
<title>goal_pose_kinova&#45;&gt;rotmat_error_pose_7_kinova_vs_goal</title>
<path fill="none" stroke="black" d="M464.28,-287.99C459.41,-279.62 453.76,-269.89 448.64,-261.08"/>
<polygon fill="black" stroke="black" points="451.6,-259.2 443.55,-252.31 445.54,-262.72 451.6,-259.2"/>
</g>
<!-- trans_con_pose_7_kinova_vs_goal -->
<g id="node21" class="node">
<title>trans_con_pose_7_kinova_vs_goal</title>
<polygon fill="none" stroke="magenta" points="1013.23,-162 917.86,-180 727.11,-180 631.74,-162 727.11,-144 917.86,-144 1013.23,-162"/>
<text text-anchor="middle" x="822.48" y="-158.3" font-family="Times,serif" font-size="14.00">trans_con_pose_7_kinova_vs_goal</text>
</g>
<!-- trans_error_pose_7_kinova_vs_goal&#45;&gt;trans_con_pose_7_kinova_vs_goal -->
<g id="edge21" class="edge">
<title>trans_error_pose_7_kinova_vs_goal&#45;&gt;trans_con_pose_7_kinova_vs_goal</title>
<path fill="none" stroke="black" d="M808.93,-215.7C810.94,-207.9 813.35,-198.51 815.59,-189.83"/>
<polygon fill="black" stroke="black" points="818.99,-190.66 818.09,-180.1 812.21,-188.92 818.99,-190.66"/>
</g>
<!-- (&#39;terminal&#39;, &#39;trans_con_pose_7_kinova_vs_goal&#39;) -->
<g id="node22" class="node">
<title>(&#39;terminal&#39;, &#39;trans_con_pose_7_kinova_vs_goal&#39;)</title>
<polygon fill="none" stroke="purple" points="996.98,-108 647.98,-108 647.98,-72 996.98,-72 996.98,-108"/>
<text text-anchor="middle" x="822.48" y="-86.3" font-family="Times,serif" font-size="14.00">(&#39;terminal&#39;, &#39;trans_con_pose_7_kinova_vs_goal&#39;)</text>
</g>
<!-- trans_con_pose_7_kinova_vs_goal&#45;&gt;(&#39;terminal&#39;, &#39;trans_con_pose_7_kinova_vs_goal&#39;) -->
<g id="edge22" class="edge">
<title>trans_con_pose_7_kinova_vs_goal&#45;&gt;(&#39;terminal&#39;, &#39;trans_con_pose_7_kinova_vs_goal&#39;)</title>
<path fill="none" stroke="black" d="M822.48,-143.7C822.48,-135.98 822.48,-126.71 822.48,-118.11"/>
<polygon fill="black" stroke="black" points="825.98,-118.1 822.48,-108.1 818.98,-118.1 825.98,-118.1"/>
</g>
<!-- ax_ang_error_pose_7_kinova_vs_goal -->
<g id="node24" class="node">
<title>ax_ang_error_pose_7_kinova_vs_goal</title>
<ellipse fill="none" stroke="green" cx="433.48" cy="-162" rx="180.87" ry="18"/>
<text text-anchor="middle" x="433.48" y="-158.3" font-family="Times,serif" font-size="14.00">ax_ang_error_pose_7_kinova_vs_goal</text>
</g>
<!-- rotmat_error_pose_7_kinova_vs_goal&#45;&gt;ax_ang_error_pose_7_kinova_vs_goal -->
<g id="edge23" class="edge">
<title>rotmat_error_pose_7_kinova_vs_goal&#45;&gt;ax_ang_error_pose_7_kinova_vs_goal</title>
<path fill="none" stroke="black" d="M433.48,-215.7C433.48,-207.98 433.48,-198.71 433.48,-190.11"/>
<polygon fill="black" stroke="black" points="436.98,-190.1 433.48,-180.1 429.98,-190.1 436.98,-190.1"/>
</g>
<!-- rot_con_pose_7_kinova_vs_goal -->
<g id="node25" class="node">
<title>rot_con_pose_7_kinova_vs_goal</title>
<polygon fill="none" stroke="magenta" points="611.22,-90 522.35,-108 344.62,-108 255.75,-90 344.62,-72 522.35,-72 611.22,-90"/>
<text text-anchor="middle" x="433.48" y="-86.3" font-family="Times,serif" font-size="14.00">rot_con_pose_7_kinova_vs_goal</text>
</g>
<!-- ax_ang_error_pose_7_kinova_vs_goal&#45;&gt;rot_con_pose_7_kinova_vs_goal -->
<g id="edge24" class="edge">
<title>ax_ang_error_pose_7_kinova_vs_goal&#45;&gt;rot_con_pose_7_kinova_vs_goal</title>
<path fill="none" stroke="black" d="M433.48,-143.7C433.48,-135.98 433.48,-126.71 433.48,-118.11"/>
<polygon fill="black" stroke="black" points="436.98,-118.1 433.48,-108.1 429.98,-118.1 436.98,-118.1"/>
</g>
<!-- (&#39;terminal&#39;, &#39;rot_con_pose_7_kinova_vs_goal&#39;) -->
<g id="node26" class="node">
<title>(&#39;terminal&#39;, &#39;rot_con_pose_7_kinova_vs_goal&#39;)</title>
<polygon fill="none" stroke="purple" points="599.48,-36 267.48,-36 267.48,0 599.48,0 599.48,-36"/>
<text text-anchor="middle" x="433.48" y="-14.3" font-family="Times,serif" font-size="14.00">(&#39;terminal&#39;, &#39;rot_con_pose_7_kinova_vs_goal&#39;)</text>
</g>
<!-- rot_con_pose_7_kinova_vs_goal&#45;&gt;(&#39;terminal&#39;, &#39;rot_con_pose_7_kinova_vs_goal&#39;) -->
<g id="edge25" class="edge">
<title>rot_con_pose_7_kinova_vs_goal&#45;&gt;(&#39;terminal&#39;, &#39;rot_con_pose_7_kinova_vs_goal&#39;)</title>
<path fill="none" stroke="black" d="M433.48,-71.7C433.48,-63.98 433.48,-54.71 433.48,-46.11"/>
<polygon fill="black" stroke="black" points="436.98,-46.1 433.48,-36.1 429.98,-46.1 436.98,-46.1"/>
</g>
</g>
</svg>
