<?xml version="1.0" encoding="UTF-8" standalone="no"?>
<!DOCTYPE svg PUBLIC "-//W3C//DTD SVG 1.1//EN"
 "http://www.w3.org/Graphics/SVG/1.1/DTD/svg11.dtd">
<!-- Generated by graphviz version 2.43.0 (0)
 -->
<!-- Title: %3 Pages: 1 -->
<svg width="5907pt" height="572pt"
 viewBox="0.00 0.00 5906.96 572.00" xmlns="http://www.w3.org/2000/svg" xmlns:xlink="http://www.w3.org/1999/xlink">
<g id="graph0" class="graph" transform="scale(1 1) rotate(0) translate(4 568)">
<title>%3</title>
<polygon fill="white" stroke="transparent" points="-4,4 -4,-568 5902.96,-568 5902.96,4 -4,4"/>
<!-- prog_var_contouring -->
<g id="node1" class="node">
<title>prog_var_contouring</title>
<polygon fill="none" stroke="green" points="2854.73,-374.54 2854.73,-389.46 2787.22,-400 2691.75,-400 2624.23,-389.46 2624.23,-374.54 2691.75,-364 2787.22,-364 2854.73,-374.54"/>
<polygon fill="none" stroke="green" points="2858.73,-371.12 2858.73,-392.88 2787.53,-404 2691.44,-404 2620.24,-392.88 2620.24,-371.12 2691.44,-360 2787.53,-360 2858.73,-371.12"/>
<text text-anchor="middle" x="2739.48" y="-378.3" font-family="Times,serif" font-size="14.00">prog_var_contouring</text>
</g>
<!-- SE3_path_contouring -->
<g id="node9" class="node">
<title>SE3_path_contouring</title>
<ellipse fill="none" stroke="green" cx="1963.48" cy="-306" rx="109.68" ry="18"/>
<text text-anchor="middle" x="1963.48" y="-302.3" font-family="Times,serif" font-size="14.00">SE3_path_contouring</text>
</g>
<!-- prog_var_contouring&#45;&gt;SE3_path_contouring -->
<g id="edge1" class="edge">
<title>prog_var_contouring&#45;&gt;SE3_path_contouring</title>
<path fill="none" stroke="black" d="M2632.39,-369.17C2602.64,-366.03 2570.32,-362.75 2540.48,-360 2337.16,-341.28 2285.43,-346.45 2082.48,-324 2072.27,-322.87 2061.58,-321.55 2050.97,-320.14"/>
<polygon fill="black" stroke="black" points="2051.23,-316.65 2040.85,-318.78 2050.29,-323.58 2051.23,-316.65"/>
</g>
<!-- init_prog_var_contouring -->
<g id="node15" class="node">
<title>init_prog_var_contouring</title>
<polygon fill="none" stroke="magenta" points="3391.17,-306 3318.33,-324 3172.64,-324 3099.79,-306 3172.64,-288 3318.33,-288 3391.17,-306"/>
<text text-anchor="middle" x="3245.48" y="-302.3" font-family="Times,serif" font-size="14.00">init_prog_var_contouring</text>
</g>
<!-- prog_var_contouring&#45;&gt;init_prog_var_contouring -->
<g id="edge2" class="edge">
<title>prog_var_contouring&#45;&gt;init_prog_var_contouring</title>
<path fill="none" stroke="black" d="M2833.77,-367.21C2922.79,-354.19 3055.78,-334.74 3146.35,-321.5"/>
<polygon fill="black" stroke="black" points="3146.96,-324.95 3156.35,-320.04 3145.95,-318.02 3146.96,-324.95"/>
</g>
<!-- limits_prog_var_contouring -->
<g id="node17" class="node">
<title>limits_prog_var_contouring</title>
<polygon fill="none" stroke="magenta" points="2407.69,-306 2328.59,-324 2170.38,-324 2091.28,-306 2170.38,-288 2328.59,-288 2407.69,-306"/>
<text text-anchor="middle" x="2249.48" y="-302.3" font-family="Times,serif" font-size="14.00">limits_prog_var_contouring</text>
</g>
<!-- prog_var_contouring&#45;&gt;limits_prog_var_contouring -->
<g id="edge3" class="edge">
<title>prog_var_contouring&#45;&gt;limits_prog_var_contouring</title>
<path fill="none" stroke="black" d="M2646.45,-366.95C2562.49,-354.27 2439.15,-335.64 2352.29,-322.53"/>
<polygon fill="black" stroke="black" points="2352.56,-319.03 2342.15,-320.99 2351.52,-325.95 2352.56,-319.03"/>
</g>
<!-- reg_prog_var_contouring -->
<g id="node26" class="node">
<title>reg_prog_var_contouring</title>
<polygon fill="none" stroke="magenta" points="2717.17,-306 2644.33,-324 2498.64,-324 2425.79,-306 2498.64,-288 2644.33,-288 2717.17,-306"/>
<text text-anchor="middle" x="2571.48" y="-302.3" font-family="Times,serif" font-size="14.00">reg_prog_var_contouring</text>
</g>
<!-- prog_var_contouring&#45;&gt;reg_prog_var_contouring -->
<g id="edge4" class="edge">
<title>prog_var_contouring&#45;&gt;reg_prog_var_contouring</title>
<path fill="none" stroke="black" d="M2691.79,-359.99C2669.21,-350.05 2642.3,-338.19 2619.66,-328.22"/>
<polygon fill="black" stroke="black" points="2620.81,-324.9 2610.24,-324.07 2617.99,-331.31 2620.81,-324.9"/>
</g>
<!-- terminal_prog_var_contouring -->
<g id="node27" class="node">
<title>terminal_prog_var_contouring</title>
<polygon fill="none" stroke="magenta" points="3081.71,-306 2995.1,-324 2821.87,-324 2735.26,-306 2821.87,-288 2995.1,-288 3081.71,-306"/>
<text text-anchor="middle" x="2908.48" y="-302.3" font-family="Times,serif" font-size="14.00">terminal_prog_var_contouring</text>
</g>
<!-- prog_var_contouring&#45;&gt;terminal_prog_var_contouring -->
<g id="edge5" class="edge">
<title>prog_var_contouring&#45;&gt;terminal_prog_var_contouring</title>
<path fill="none" stroke="black" d="M2787.46,-359.99C2810.28,-350 2837.49,-338.09 2860.33,-328.09"/>
<polygon fill="black" stroke="black" points="2861.74,-331.29 2869.49,-324.07 2858.93,-324.88 2861.74,-331.29"/>
</g>
<!-- prog_vel_contouring -->
<g id="node2" class="node">
<title>prog_vel_contouring</title>
<polygon fill="none" stroke="green" points="3769.52,-454.54 3769.52,-469.46 3703.3,-480 3609.66,-480 3543.45,-469.46 3543.45,-454.54 3609.66,-444 3703.3,-444 3769.52,-454.54"/>
<polygon fill="none" stroke="green" points="3773.51,-451.13 3773.51,-472.87 3703.62,-484 3609.35,-484 3539.46,-472.87 3539.46,-451.13 3609.35,-440 3703.62,-440 3773.51,-451.13"/>
<text text-anchor="middle" x="3656.48" y="-458.3" font-family="Times,serif" font-size="14.00">prog_vel_contouring</text>
</g>
<!-- prog_vel_contouring&#45;&gt;prog_var_contouring -->
<g id="edge52" class="edge">
<title>prog_vel_contouring&#45;&gt;prog_var_contouring</title>
<path fill="none" stroke="black" stroke-dasharray="5,2" d="M3539.41,-451.04C3367.04,-436.38 3046.14,-409.08 2867.64,-393.9"/>
<polygon fill="black" stroke="black" points="2867.93,-390.41 2857.67,-393.05 2867.34,-397.39 2867.93,-390.41"/>
</g>
<!-- init_prog_vel_contouring -->
<g id="node16" class="node">
<title>init_prog_vel_contouring</title>
<polygon fill="none" stroke="magenta" points="3641.67,-382 3569.58,-400 3425.39,-400 3353.3,-382 3425.39,-364 3569.58,-364 3641.67,-382"/>
<text text-anchor="middle" x="3497.48" y="-378.3" font-family="Times,serif" font-size="14.00">init_prog_vel_contouring</text>
</g>
<!-- prog_vel_contouring&#45;&gt;init_prog_vel_contouring -->
<g id="edge6" class="edge">
<title>prog_vel_contouring&#45;&gt;init_prog_vel_contouring</title>
<path fill="none" stroke="black" d="M3613.46,-439.89C3591.07,-428.91 3563.75,-415.51 3541.25,-404.47"/>
<polygon fill="black" stroke="black" points="3542.77,-401.32 3532.25,-400.06 3539.69,-407.6 3542.77,-401.32"/>
</g>
<!-- limits_prog_vel_contouring -->
<g id="node18" class="node">
<title>limits_prog_vel_contouring</title>
<polygon fill="none" stroke="magenta" points="3973.19,-382 3894.84,-400 3738.13,-400 3659.78,-382 3738.13,-364 3894.84,-364 3973.19,-382"/>
<text text-anchor="middle" x="3816.48" y="-378.3" font-family="Times,serif" font-size="14.00">limits_prog_vel_contouring</text>
</g>
<!-- prog_vel_contouring&#45;&gt;limits_prog_vel_contouring -->
<g id="edge7" class="edge">
<title>prog_vel_contouring&#45;&gt;limits_prog_vel_contouring</title>
<path fill="none" stroke="black" d="M3699.78,-439.89C3722.31,-428.91 3749.8,-415.51 3772.44,-404.47"/>
<polygon fill="black" stroke="black" points="3774.04,-407.58 3781.5,-400.06 3770.98,-401.29 3774.04,-407.58"/>
</g>
<!-- reg_prog_vel_contouring -->
<g id="node25" class="node">
<title>reg_prog_vel_contouring</title>
<polygon fill="none" stroke="magenta" points="4279.67,-382 4207.58,-400 4063.39,-400 3991.3,-382 4063.39,-364 4207.58,-364 4279.67,-382"/>
<text text-anchor="middle" x="4135.48" y="-378.3" font-family="Times,serif" font-size="14.00">reg_prog_vel_contouring</text>
</g>
<!-- prog_vel_contouring&#45;&gt;reg_prog_vel_contouring -->
<g id="edge8" class="edge">
<title>prog_vel_contouring&#45;&gt;reg_prog_vel_contouring</title>
<path fill="none" stroke="black" d="M3745.18,-446.56C3829.07,-432.9 3954.59,-412.46 4040.49,-398.47"/>
<polygon fill="black" stroke="black" points="4041.2,-401.9 4050.5,-396.84 4040.07,-394.99 4041.2,-401.9"/>
</g>
<!-- terminal_prog_vel_contouring -->
<g id="node28" class="node">
<title>terminal_prog_vel_contouring</title>
<polygon fill="none" stroke="magenta" points="2531.21,-382 2445.35,-400 2273.62,-400 2187.76,-382 2273.62,-364 2445.35,-364 2531.21,-382"/>
<text text-anchor="middle" x="2359.48" y="-378.3" font-family="Times,serif" font-size="14.00">terminal_prog_vel_contouring</text>
</g>
<!-- prog_vel_contouring&#45;&gt;terminal_prog_vel_contouring -->
<g id="edge9" class="edge">
<title>prog_vel_contouring&#45;&gt;terminal_prog_vel_contouring</title>
<path fill="none" stroke="black" d="M3539.27,-455.7C3345.9,-446.72 2947.95,-427.19 2611.48,-404 2570.91,-401.2 2526.69,-397.68 2486.79,-394.32"/>
<polygon fill="black" stroke="black" points="2487,-390.83 2476.74,-393.47 2486.41,-397.8 2487,-390.83"/>
</g>
<!-- prog_acc_contouring -->
<g id="node3" class="node">
<title>prog_acc_contouring</title>
<polygon fill="none" stroke="cyan" points="4534.73,-534.54 4534.73,-549.46 4467.22,-560 4371.75,-560 4304.23,-549.46 4304.23,-534.54 4371.75,-524 4467.22,-524 4534.73,-534.54"/>
<polygon fill="none" stroke="cyan" points="4538.73,-531.12 4538.73,-552.88 4467.53,-564 4371.44,-564 4300.24,-552.88 4300.24,-531.12 4371.44,-520 4467.53,-520 4538.73,-531.12"/>
<text text-anchor="middle" x="4419.48" y="-538.3" font-family="Times,serif" font-size="14.00">prog_acc_contouring</text>
</g>
<!-- prog_acc_contouring&#45;&gt;prog_vel_contouring -->
<g id="edge53" class="edge">
<title>prog_acc_contouring&#45;&gt;prog_vel_contouring</title>
<path fill="none" stroke="black" stroke-dasharray="5,2" d="M4308.95,-529.7C4167.08,-515.2 3921.88,-490.13 3775.87,-475.2"/>
<polygon fill="black" stroke="black" points="3775.83,-471.68 3765.53,-474.15 3775.12,-478.65 3775.83,-471.68"/>
</g>
<!-- limits_prog_acc_contouring -->
<g id="node19" class="node">
<title>limits_prog_acc_contouring</title>
<polygon fill="none" stroke="magenta" points="4577.69,-462 4498.59,-480 4340.38,-480 4261.28,-462 4340.38,-444 4498.59,-444 4577.69,-462"/>
<text text-anchor="middle" x="4419.48" y="-458.3" font-family="Times,serif" font-size="14.00">limits_prog_acc_contouring</text>
</g>
<!-- prog_acc_contouring&#45;&gt;limits_prog_acc_contouring -->
<g id="edge10" class="edge">
<title>prog_acc_contouring&#45;&gt;limits_prog_acc_contouring</title>
<path fill="none" stroke="black" d="M4419.48,-519.69C4419.48,-510.64 4419.48,-499.99 4419.48,-490.37"/>
<polygon fill="black" stroke="black" points="4422.98,-490.09 4419.48,-480.09 4415.98,-490.09 4422.98,-490.09"/>
</g>
<!-- reg_prog_acc_contouring -->
<g id="node24" class="node">
<title>reg_prog_acc_contouring</title>
<polygon fill="none" stroke="magenta" points="4887.17,-462 4814.33,-480 4668.64,-480 4595.79,-462 4668.64,-444 4814.33,-444 4887.17,-462"/>
<text text-anchor="middle" x="4741.48" y="-458.3" font-family="Times,serif" font-size="14.00">reg_prog_acc_contouring</text>
</g>
<!-- prog_acc_contouring&#45;&gt;reg_prog_acc_contouring -->
<g id="edge11" class="edge">
<title>prog_acc_contouring&#45;&gt;reg_prog_acc_contouring</title>
<path fill="none" stroke="black" d="M4491.35,-523.59C4541.76,-511.38 4609.19,-495.05 4661.34,-482.41"/>
<polygon fill="black" stroke="black" points="4662.33,-485.78 4671.23,-480.02 4660.68,-478.97 4662.33,-485.78"/>
</g>
<!-- rot_tunnel_L1penalty_contouring -->
<g id="node4" class="node">
<title>rot_tunnel_L1penalty_contouring</title>
<polygon fill="none" stroke="red" points="4915.55,-534.54 4915.55,-549.46 4811.83,-560 4665.14,-560 4561.42,-549.46 4561.42,-534.54 4665.14,-524 4811.83,-524 4915.55,-534.54"/>
<polygon fill="none" stroke="red" points="4919.54,-530.93 4919.54,-553.07 4812.03,-564 4664.94,-564 4557.42,-553.07 4557.42,-530.93 4664.94,-520 4812.03,-520 4919.54,-530.93"/>
<text text-anchor="middle" x="4738.48" y="-538.3" font-family="Times,serif" font-size="14.00">rot_tunnel_L1penalty_contouring</text>
</g>
<!-- trans_tunnel_L1penalty_contouring -->
<g id="node5" class="node">
<title>trans_tunnel_L1penalty_contouring</title>
<polygon fill="none" stroke="red" points="5320.96,-534.54 5320.96,-549.46 5209.97,-560 5053,-560 4942.01,-549.46 4942.01,-534.54 5053,-524 5209.97,-524 5320.96,-534.54"/>
<polygon fill="none" stroke="red" points="5324.96,-530.91 5324.96,-553.09 5210.16,-564 5052.81,-564 4938.01,-553.09 4938.01,-530.91 5052.81,-520 5210.16,-520 5324.96,-530.91"/>
<text text-anchor="middle" x="5131.48" y="-538.3" font-family="Times,serif" font-size="14.00">trans_tunnel_L1penalty_contouring</text>
</g>
<!-- rot_weight_contouring -->
<g id="node6" class="node">
<title>rot_weight_contouring</title>
<polygon fill="none" stroke="red" points="5596.02,-534.54 5596.02,-549.46 5523.07,-560 5419.9,-560 5346.95,-549.46 5346.95,-534.54 5419.9,-524 5523.07,-524 5596.02,-534.54"/>
<polygon fill="none" stroke="red" points="5600.02,-531.08 5600.02,-552.92 5523.36,-564 5419.61,-564 5342.95,-552.92 5342.95,-531.08 5419.61,-520 5523.36,-520 5600.02,-531.08"/>
<text text-anchor="middle" x="5471.48" y="-538.3" font-family="Times,serif" font-size="14.00">rot_weight_contouring</text>
</g>
<!-- trans_weight_contouring -->
<g id="node7" class="node">
<title>trans_weight_contouring</title>
<polygon fill="none" stroke="red" points="5894.94,-534.54 5894.94,-549.46 5815.01,-560 5701.96,-560 5622.03,-549.46 5622.03,-534.54 5701.96,-524 5815.01,-524 5894.94,-534.54"/>
<polygon fill="none" stroke="red" points="5898.94,-531.04 5898.94,-552.96 5815.27,-564 5701.7,-564 5618.03,-552.96 5618.03,-531.04 5701.7,-520 5815.27,-520 5898.94,-531.04"/>
<text text-anchor="middle" x="5758.48" y="-538.3" font-family="Times,serif" font-size="14.00">trans_weight_contouring</text>
</g>
<!-- q_kinova -->
<g id="node8" class="node">
<title>q_kinova</title>
<polygon fill="none" stroke="green" points="614.13,-374.54 614.13,-389.46 581.53,-400 535.43,-400 502.84,-389.46 502.84,-374.54 535.43,-364 581.53,-364 614.13,-374.54"/>
<polygon fill="none" stroke="green" points="618.14,-371.64 618.14,-392.36 582.17,-404 534.8,-404 498.83,-392.36 498.83,-371.64 534.8,-360 582.17,-360 618.14,-371.64"/>
<text text-anchor="middle" x="558.48" y="-378.3" font-family="Times,serif" font-size="14.00">q_kinova</text>
</g>
<!-- pose_7_kinova -->
<g id="node11" class="node">
<title>pose_7_kinova</title>
<ellipse fill="none" stroke="green" cx="653.48" cy="-306" rx="77.19" ry="18"/>
<text text-anchor="middle" x="653.48" y="-302.3" font-family="Times,serif" font-size="14.00">pose_7_kinova</text>
</g>
<!-- q_kinova&#45;&gt;pose_7_kinova -->
<g id="edge12" class="edge">
<title>q_kinova&#45;&gt;pose_7_kinova</title>
<path fill="none" stroke="black" d="M584.7,-360.58C597.04,-350.97 611.8,-339.47 624.48,-329.59"/>
<polygon fill="black" stroke="black" points="626.73,-332.28 632.47,-323.37 622.43,-326.76 626.73,-332.28"/>
</g>
<!-- error_q_kinova_jointpos_init_kinova -->
<g id="node46" class="node">
<title>error_q_kinova_jointpos_init_kinova</title>
<ellipse fill="none" stroke="green" cx="175.48" cy="-306" rx="175.47" ry="18"/>
<text text-anchor="middle" x="175.48" y="-302.3" font-family="Times,serif" font-size="14.00">error_q_kinova_jointpos_init_kinova</text>
</g>
<!-- q_kinova&#45;&gt;error_q_kinova_jointpos_init_kinova -->
<g id="edge13" class="edge">
<title>q_kinova&#45;&gt;error_q_kinova_jointpos_init_kinova</title>
<path fill="none" stroke="black" d="M502.79,-370.24C440.18,-358.14 337.65,-338.33 264.03,-324.11"/>
<polygon fill="black" stroke="black" points="264.32,-320.6 253.83,-322.14 262.99,-327.47 264.32,-320.6"/>
</g>
<!-- limits_q_kinova -->
<g id="node49" class="node">
<title>limits_q_kinova</title>
<polygon fill="none" stroke="magenta" points="558.11,-306 510.8,-324 416.17,-324 368.86,-306 416.17,-288 510.8,-288 558.11,-306"/>
<text text-anchor="middle" x="463.48" y="-302.3" font-family="Times,serif" font-size="14.00">limits_q_kinova</text>
</g>
<!-- q_kinova&#45;&gt;limits_q_kinova -->
<g id="edge14" class="edge">
<title>q_kinova&#45;&gt;limits_q_kinova</title>
<path fill="none" stroke="black" d="M532.27,-360.58C520.2,-351.18 505.81,-339.97 493.32,-330.24"/>
<polygon fill="black" stroke="black" points="495.47,-327.48 485.43,-324.1 491.17,-333 495.47,-327.48"/>
</g>
<!-- trans_error_SE3_traj_contouring_vs_goal -->
<g id="node10" class="node">
<title>trans_error_SE3_traj_contouring_vs_goal</title>
<ellipse fill="none" stroke="green" cx="830.48" cy="-234" rx="200.66" ry="18"/>
<text text-anchor="middle" x="830.48" y="-230.3" font-family="Times,serif" font-size="14.00">trans_error_SE3_traj_contouring_vs_goal</text>
</g>
<!-- SE3_path_contouring&#45;&gt;trans_error_SE3_traj_contouring_vs_goal -->
<g id="edge15" class="edge">
<title>SE3_path_contouring&#45;&gt;trans_error_SE3_traj_contouring_vs_goal</title>
<path fill="none" stroke="black" d="M1887.11,-293.06C1872.96,-291.14 1858.3,-289.34 1844.48,-288 1562.81,-260.58 1235.65,-246.7 1030.82,-240.17"/>
<polygon fill="black" stroke="black" points="1030.66,-236.67 1020.55,-239.85 1030.44,-243.66 1030.66,-236.67"/>
</g>
<!-- rotmat_error_SE3_traj_contouring_vs_goal -->
<g id="node13" class="node">
<title>rotmat_error_SE3_traj_contouring_vs_goal</title>
<ellipse fill="none" stroke="green" cx="1775.48" cy="-234" rx="207.96" ry="18"/>
<text text-anchor="middle" x="1775.48" y="-230.3" font-family="Times,serif" font-size="14.00">rotmat_error_SE3_traj_contouring_vs_goal</text>
</g>
<!-- SE3_path_contouring&#45;&gt;rotmat_error_SE3_traj_contouring_vs_goal -->
<g id="edge16" class="edge">
<title>SE3_path_contouring&#45;&gt;rotmat_error_SE3_traj_contouring_vs_goal</title>
<path fill="none" stroke="black" d="M1921.29,-289.29C1894.25,-279.22 1858.9,-266.06 1829.77,-255.21"/>
<polygon fill="black" stroke="black" points="1830.75,-251.84 1820.16,-251.63 1828.31,-258.4 1830.75,-251.84"/>
</g>
<!-- sqrt_trans_error_SE3_traj_contouring_vs_goal -->
<g id="node12" class="node">
<title>sqrt_trans_error_SE3_traj_contouring_vs_goal</title>
<ellipse fill="none" stroke="green" cx="565.48" cy="-162" rx="224.46" ry="18"/>
<text text-anchor="middle" x="565.48" y="-158.3" font-family="Times,serif" font-size="14.00">sqrt_trans_error_SE3_traj_contouring_vs_goal</text>
</g>
<!-- trans_error_SE3_traj_contouring_vs_goal&#45;&gt;sqrt_trans_error_SE3_traj_contouring_vs_goal -->
<g id="edge17" class="edge">
<title>trans_error_SE3_traj_contouring_vs_goal&#45;&gt;sqrt_trans_error_SE3_traj_contouring_vs_goal</title>
<path fill="none" stroke="black" d="M769.36,-216.85C729.87,-206.42 678.34,-192.81 636.97,-181.88"/>
<polygon fill="black" stroke="black" points="637.79,-178.48 627.22,-179.31 636,-185.25 637.79,-178.48"/>
</g>
<!-- reg_trans_error_SE3_traj_contouring_vs_goal -->
<g id="node23" class="node">
<title>reg_trans_error_SE3_traj_contouring_vs_goal</title>
<polygon fill="none" stroke="magenta" points="1337.82,-162 1210.15,-180 954.82,-180 827.15,-162 954.82,-144 1210.15,-144 1337.82,-162"/>
<text text-anchor="middle" x="1082.48" y="-158.3" font-family="Times,serif" font-size="14.00">reg_trans_error_SE3_traj_contouring_vs_goal</text>
</g>
<!-- trans_error_SE3_traj_contouring_vs_goal&#45;&gt;reg_trans_error_SE3_traj_contouring_vs_goal -->
<g id="edge18" class="edge">
<title>trans_error_SE3_traj_contouring_vs_goal&#45;&gt;reg_trans_error_SE3_traj_contouring_vs_goal</title>
<path fill="none" stroke="black" d="M888.93,-216.76C925.52,-206.6 972.91,-193.44 1011.63,-182.68"/>
<polygon fill="black" stroke="black" points="1012.58,-186.05 1021.28,-180 1010.71,-179.31 1012.58,-186.05"/>
</g>
<!-- pose_7_kinova&#45;&gt;trans_error_SE3_traj_contouring_vs_goal -->
<g id="edge19" class="edge">
<title>pose_7_kinova&#45;&gt;trans_error_SE3_traj_contouring_vs_goal</title>
<path fill="none" stroke="black" d="M691.02,-290.15C716.53,-280.07 750.61,-266.59 778.69,-255.48"/>
<polygon fill="black" stroke="black" points="780.34,-258.6 788.35,-251.66 777.76,-252.09 780.34,-258.6"/>
</g>
<!-- pose_7_kinova&#45;&gt;rotmat_error_SE3_traj_contouring_vs_goal -->
<g id="edge20" class="edge">
<title>pose_7_kinova&#45;&gt;rotmat_error_SE3_traj_contouring_vs_goal</title>
<path fill="none" stroke="black" d="M707.89,-293.02C718.33,-291.07 729.21,-289.27 739.48,-288 1021.51,-253.1 1349.46,-241.08 1559.58,-237.01"/>
<polygon fill="black" stroke="black" points="1559.87,-240.5 1569.8,-236.81 1559.74,-233.5 1559.87,-240.5"/>
</g>
<!-- trans_tunnel_con_SE3_path_contouring_vs_SE3_traj_contouring -->
<g id="node20" class="node">
<title>trans_tunnel_con_SE3_path_contouring_vs_SE3_traj_contouring</title>
<polygon fill="none" stroke="magenta" points="899.95,-90 722.72,-108 368.25,-108 191.02,-90 368.25,-72 722.72,-72 899.95,-90"/>
<text text-anchor="middle" x="545.48" y="-86.3" font-family="Times,serif" font-size="14.00">trans_tunnel_con_SE3_path_contouring_vs_SE3_traj_contouring</text>
</g>
<!-- sqrt_trans_error_SE3_traj_contouring_vs_goal&#45;&gt;trans_tunnel_con_SE3_path_contouring_vs_SE3_traj_contouring -->
<g id="edge21" class="edge">
<title>sqrt_trans_error_SE3_traj_contouring_vs_goal&#45;&gt;trans_tunnel_con_SE3_path_contouring_vs_SE3_traj_contouring</title>
<path fill="none" stroke="black" d="M560.54,-143.7C558.31,-135.9 555.63,-126.51 553.15,-117.83"/>
<polygon fill="black" stroke="black" points="556.48,-116.76 550.37,-108.1 549.75,-118.68 556.48,-116.76"/>
</g>
<!-- ax_ang_error_SE3_traj_contouring_vs_goal -->
<g id="node14" class="node">
<title>ax_ang_error_SE3_traj_contouring_vs_goal</title>
<ellipse fill="none" stroke="green" cx="1775.48" cy="-162" rx="208.76" ry="18"/>
<text text-anchor="middle" x="1775.48" y="-158.3" font-family="Times,serif" font-size="14.00">ax_ang_error_SE3_traj_contouring_vs_goal</text>
</g>
<!-- rotmat_error_SE3_traj_contouring_vs_goal&#45;&gt;ax_ang_error_SE3_traj_contouring_vs_goal -->
<g id="edge22" class="edge">
<title>rotmat_error_SE3_traj_contouring_vs_goal&#45;&gt;ax_ang_error_SE3_traj_contouring_vs_goal</title>
<path fill="none" stroke="black" d="M1775.48,-215.7C1775.48,-207.98 1775.48,-198.71 1775.48,-190.11"/>
<polygon fill="black" stroke="black" points="1778.98,-190.1 1775.48,-180.1 1771.98,-190.1 1778.98,-190.1"/>
</g>
<!-- rot_tunnel_con_SE3_path_contouring_vs_SE3_traj_contouring -->
<g id="node21" class="node">
<title>rot_tunnel_con_SE3_path_contouring_vs_SE3_traj_contouring</title>
<polygon fill="none" stroke="magenta" points="2079.93,-90 1909.21,-108 1567.76,-108 1397.04,-90 1567.76,-72 1909.21,-72 2079.93,-90"/>
<text text-anchor="middle" x="1738.48" y="-86.3" font-family="Times,serif" font-size="14.00">rot_tunnel_con_SE3_path_contouring_vs_SE3_traj_contouring</text>
</g>
<!-- ax_ang_error_SE3_traj_contouring_vs_goal&#45;&gt;rot_tunnel_con_SE3_path_contouring_vs_SE3_traj_contouring -->
<g id="edge23" class="edge">
<title>ax_ang_error_SE3_traj_contouring_vs_goal&#45;&gt;rot_tunnel_con_SE3_path_contouring_vs_SE3_traj_contouring</title>
<path fill="none" stroke="black" d="M1766.34,-143.7C1762.08,-135.64 1756.93,-125.89 1752.22,-116.98"/>
<polygon fill="black" stroke="black" points="1755.29,-115.31 1747.53,-108.1 1749.1,-118.58 1755.29,-115.31"/>
</g>
<!-- reg_ax_ang_error_SE3_traj_contouring_vs_goal -->
<g id="node22" class="node">
<title>reg_ax_ang_error_SE3_traj_contouring_vs_goal</title>
<polygon fill="none" stroke="magenta" points="2626.83,-90 2494.66,-108 2230.31,-108 2098.14,-90 2230.31,-72 2494.66,-72 2626.83,-90"/>
<text text-anchor="middle" x="2362.48" y="-86.3" font-family="Times,serif" font-size="14.00">reg_ax_ang_error_SE3_traj_contouring_vs_goal</text>
</g>
<!-- ax_ang_error_SE3_traj_contouring_vs_goal&#45;&gt;reg_ax_ang_error_SE3_traj_contouring_vs_goal -->
<g id="edge24" class="edge">
<title>ax_ang_error_SE3_traj_contouring_vs_goal&#45;&gt;reg_ax_ang_error_SE3_traj_contouring_vs_goal</title>
<path fill="none" stroke="black" d="M1892.51,-147.04C1985.23,-135.99 2115.33,-120.47 2215.15,-108.57"/>
<polygon fill="black" stroke="black" points="2215.81,-112.02 2225.32,-107.36 2214.98,-105.07 2215.81,-112.02"/>
</g>
<!-- (&#39;initial&#39;, &#39;init_prog_var_contouring&#39;) -->
<g id="node29" class="node">
<title>(&#39;initial&#39;, &#39;init_prog_var_contouring&#39;)</title>
<polygon fill="none" stroke="purple" points="3380.48,-252 3110.48,-252 3110.48,-216 3380.48,-216 3380.48,-252"/>
<text text-anchor="middle" x="3245.48" y="-230.3" font-family="Times,serif" font-size="14.00">(&#39;initial&#39;, &#39;init_prog_var_contouring&#39;)</text>
</g>
<!-- init_prog_var_contouring&#45;&gt;(&#39;initial&#39;, &#39;init_prog_var_contouring&#39;) -->
<g id="edge25" class="edge">
<title>init_prog_var_contouring&#45;&gt;(&#39;initial&#39;, &#39;init_prog_var_contouring&#39;)</title>
<path fill="none" stroke="black" d="M3245.48,-287.7C3245.48,-279.98 3245.48,-270.71 3245.48,-262.11"/>
<polygon fill="black" stroke="black" points="3248.98,-262.1 3245.48,-252.1 3241.98,-262.1 3248.98,-262.1"/>
</g>
<!-- (&#39;initial&#39;, &#39;init_prog_vel_contouring&#39;) -->
<g id="node30" class="node">
<title>(&#39;initial&#39;, &#39;init_prog_vel_contouring&#39;)</title>
<polygon fill="none" stroke="purple" points="3677.48,-324 3409.48,-324 3409.48,-288 3677.48,-288 3677.48,-324"/>
<text text-anchor="middle" x="3543.48" y="-302.3" font-family="Times,serif" font-size="14.00">(&#39;initial&#39;, &#39;init_prog_vel_contouring&#39;)</text>
</g>
<!-- init_prog_vel_contouring&#45;&gt;(&#39;initial&#39;, &#39;init_prog_vel_contouring&#39;) -->
<g id="edge26" class="edge">
<title>init_prog_vel_contouring&#45;&gt;(&#39;initial&#39;, &#39;init_prog_vel_contouring&#39;)</title>
<path fill="none" stroke="black" d="M3508.15,-363.84C3513.9,-354.59 3521.11,-343 3527.51,-332.7"/>
<polygon fill="black" stroke="black" points="3530.57,-334.41 3532.87,-324.07 3524.62,-330.72 3530.57,-334.41"/>
</g>
<!-- (&#39;path&#39;, &#39;limits_prog_var_contouring&#39;) -->
<g id="node31" class="node">
<title>(&#39;path&#39;, &#39;limits_prog_var_contouring&#39;)</title>
<polygon fill="none" stroke="purple" points="2388.48,-252 2110.48,-252 2110.48,-216 2388.48,-216 2388.48,-252"/>
<text text-anchor="middle" x="2249.48" y="-230.3" font-family="Times,serif" font-size="14.00">(&#39;path&#39;, &#39;limits_prog_var_contouring&#39;)</text>
</g>
<!-- limits_prog_var_contouring&#45;&gt;(&#39;path&#39;, &#39;limits_prog_var_contouring&#39;) -->
<g id="edge27" class="edge">
<title>limits_prog_var_contouring&#45;&gt;(&#39;path&#39;, &#39;limits_prog_var_contouring&#39;)</title>
<path fill="none" stroke="black" d="M2249.48,-287.7C2249.48,-279.98 2249.48,-270.71 2249.48,-262.11"/>
<polygon fill="black" stroke="black" points="2252.98,-262.1 2249.48,-252.1 2245.98,-262.1 2252.98,-262.1"/>
</g>
<!-- (&#39;path&#39;, &#39;limits_prog_vel_contouring&#39;) -->
<g id="node32" class="node">
<title>(&#39;path&#39;, &#39;limits_prog_vel_contouring&#39;)</title>
<polygon fill="none" stroke="purple" points="3970.98,-324 3695.98,-324 3695.98,-288 3970.98,-288 3970.98,-324"/>
<text text-anchor="middle" x="3833.48" y="-302.3" font-family="Times,serif" font-size="14.00">(&#39;path&#39;, &#39;limits_prog_vel_contouring&#39;)</text>
</g>
<!-- limits_prog_vel_contouring&#45;&gt;(&#39;path&#39;, &#39;limits_prog_vel_contouring&#39;) -->
<g id="edge28" class="edge">
<title>limits_prog_vel_contouring&#45;&gt;(&#39;path&#39;, &#39;limits_prog_vel_contouring&#39;)</title>
<path fill="none" stroke="black" d="M3820.43,-363.84C3822.47,-354.96 3825,-343.93 3827.29,-333.95"/>
<polygon fill="black" stroke="black" points="3830.74,-334.6 3829.56,-324.07 3823.91,-333.03 3830.74,-334.6"/>
</g>
<!-- (&#39;path&#39;, &#39;limits_prog_acc_contouring&#39;) -->
<g id="node33" class="node">
<title>(&#39;path&#39;, &#39;limits_prog_acc_contouring&#39;)</title>
<polygon fill="none" stroke="purple" points="4575.48,-400 4297.48,-400 4297.48,-364 4575.48,-364 4575.48,-400"/>
<text text-anchor="middle" x="4436.48" y="-378.3" font-family="Times,serif" font-size="14.00">(&#39;path&#39;, &#39;limits_prog_acc_contouring&#39;)</text>
</g>
<!-- limits_prog_acc_contouring&#45;&gt;(&#39;path&#39;, &#39;limits_prog_acc_contouring&#39;) -->
<g id="edge29" class="edge">
<title>limits_prog_acc_contouring&#45;&gt;(&#39;path&#39;, &#39;limits_prog_acc_contouring&#39;)</title>
<path fill="none" stroke="black" d="M4423.26,-443.69C4425.39,-433.89 4428.11,-421.42 4430.53,-410.33"/>
<polygon fill="black" stroke="black" points="4434.01,-410.78 4432.72,-400.26 4427.17,-409.29 4434.01,-410.78"/>
</g>
<!-- (&#39;path&#39;, &#39;trans_tunnel_con_SE3_path_contouring_vs_SE3_traj_contouring&#39;) -->
<g id="node34" class="node">
<title>(&#39;path&#39;, &#39;trans_tunnel_con_SE3_path_contouring_vs_SE3_traj_contouring&#39;)</title>
<polygon fill="none" stroke="purple" points="814.98,-36 275.98,-36 275.98,0 814.98,0 814.98,-36"/>
<text text-anchor="middle" x="545.48" y="-14.3" font-family="Times,serif" font-size="14.00">(&#39;path&#39;, &#39;trans_tunnel_con_SE3_path_contouring_vs_SE3_traj_contouring&#39;)</text>
</g>
<!-- trans_tunnel_con_SE3_path_contouring_vs_SE3_traj_contouring&#45;&gt;(&#39;path&#39;, &#39;trans_tunnel_con_SE3_path_contouring_vs_SE3_traj_contouring&#39;) -->
<g id="edge30" class="edge">
<title>trans_tunnel_con_SE3_path_contouring_vs_SE3_traj_contouring&#45;&gt;(&#39;path&#39;, &#39;trans_tunnel_con_SE3_path_contouring_vs_SE3_traj_contouring&#39;)</title>
<path fill="none" stroke="black" d="M545.48,-71.7C545.48,-63.98 545.48,-54.71 545.48,-46.11"/>
<polygon fill="black" stroke="black" points="548.98,-46.1 545.48,-36.1 541.98,-46.1 548.98,-46.1"/>
</g>
<!-- (&#39;path&#39;, &#39;rot_tunnel_con_SE3_path_contouring_vs_SE3_traj_contouring&#39;) -->
<g id="node35" class="node">
<title>(&#39;path&#39;, &#39;rot_tunnel_con_SE3_path_contouring_vs_SE3_traj_contouring&#39;)</title>
<polygon fill="none" stroke="purple" points="1999.48,-36 1477.48,-36 1477.48,0 1999.48,0 1999.48,-36"/>
<text text-anchor="middle" x="1738.48" y="-14.3" font-family="Times,serif" font-size="14.00">(&#39;path&#39;, &#39;rot_tunnel_con_SE3_path_contouring_vs_SE3_traj_contouring&#39;)</text>
</g>
<!-- rot_tunnel_con_SE3_path_contouring_vs_SE3_traj_contouring&#45;&gt;(&#39;path&#39;, &#39;rot_tunnel_con_SE3_path_contouring_vs_SE3_traj_contouring&#39;) -->
<g id="edge31" class="edge">
<title>rot_tunnel_con_SE3_path_contouring_vs_SE3_traj_contouring&#45;&gt;(&#39;path&#39;, &#39;rot_tunnel_con_SE3_path_contouring_vs_SE3_traj_contouring&#39;)</title>
<path fill="none" stroke="black" d="M1738.48,-71.7C1738.48,-63.98 1738.48,-54.71 1738.48,-46.11"/>
<polygon fill="black" stroke="black" points="1741.98,-46.1 1738.48,-36.1 1734.98,-46.1 1741.98,-46.1"/>
</g>
<!-- (&#39;path&#39;, &#39;reg_ax_ang_error_SE3_traj_contouring_vs_goal&#39;) -->
<g id="node36" class="node">
<title>(&#39;path&#39;, &#39;reg_ax_ang_error_SE3_traj_contouring_vs_goal&#39;)</title>
<polygon fill="none" stroke="purple" points="2571.98,-36 2152.98,-36 2152.98,0 2571.98,0 2571.98,-36"/>
<text text-anchor="middle" x="2362.48" y="-14.3" font-family="Times,serif" font-size="14.00">(&#39;path&#39;, &#39;reg_ax_ang_error_SE3_traj_contouring_vs_goal&#39;)</text>
</g>
<!-- reg_ax_ang_error_SE3_traj_contouring_vs_goal&#45;&gt;(&#39;path&#39;, &#39;reg_ax_ang_error_SE3_traj_contouring_vs_goal&#39;) -->
<g id="edge32" class="edge">
<title>reg_ax_ang_error_SE3_traj_contouring_vs_goal&#45;&gt;(&#39;path&#39;, &#39;reg_ax_ang_error_SE3_traj_contouring_vs_goal&#39;)</title>
<path fill="none" stroke="black" d="M2362.48,-71.7C2362.48,-63.98 2362.48,-54.71 2362.48,-46.11"/>
<polygon fill="black" stroke="black" points="2365.98,-46.1 2362.48,-36.1 2358.98,-46.1 2365.98,-46.1"/>
</g>
<!-- (&#39;path&#39;, &#39;reg_trans_error_SE3_traj_contouring_vs_goal&#39;) -->
<g id="node37" class="node">
<title>(&#39;path&#39;, &#39;reg_trans_error_SE3_traj_contouring_vs_goal&#39;)</title>
<polygon fill="none" stroke="purple" points="1324.98,-108 917.98,-108 917.98,-72 1324.98,-72 1324.98,-108"/>
<text text-anchor="middle" x="1121.48" y="-86.3" font-family="Times,serif" font-size="14.00">(&#39;path&#39;, &#39;reg_trans_error_SE3_traj_contouring_vs_goal&#39;)</text>
</g>
<!-- reg_trans_error_SE3_traj_contouring_vs_goal&#45;&gt;(&#39;path&#39;, &#39;reg_trans_error_SE3_traj_contouring_vs_goal&#39;) -->
<g id="edge33" class="edge">
<title>reg_trans_error_SE3_traj_contouring_vs_goal&#45;&gt;(&#39;path&#39;, &#39;reg_trans_error_SE3_traj_contouring_vs_goal&#39;)</title>
<path fill="none" stroke="black" d="M1092.12,-143.7C1096.61,-135.64 1102.04,-125.89 1107.01,-116.98"/>
<polygon fill="black" stroke="black" points="1110.15,-118.54 1111.95,-108.1 1104.03,-115.14 1110.15,-118.54"/>
</g>
<!-- (&#39;path&#39;, &#39;reg_prog_acc_contouring&#39;) -->
<g id="node38" class="node">
<title>(&#39;path&#39;, &#39;reg_prog_acc_contouring&#39;)</title>
<polygon fill="none" stroke="purple" points="4871.98,-400 4610.98,-400 4610.98,-364 4871.98,-364 4871.98,-400"/>
<text text-anchor="middle" x="4741.48" y="-378.3" font-family="Times,serif" font-size="14.00">(&#39;path&#39;, &#39;reg_prog_acc_contouring&#39;)</text>
</g>
<!-- reg_prog_acc_contouring&#45;&gt;(&#39;path&#39;, &#39;reg_prog_acc_contouring&#39;) -->
<g id="edge34" class="edge">
<title>reg_prog_acc_contouring&#45;&gt;(&#39;path&#39;, &#39;reg_prog_acc_contouring&#39;)</title>
<path fill="none" stroke="black" d="M4741.48,-443.69C4741.48,-433.89 4741.48,-421.42 4741.48,-410.33"/>
<polygon fill="black" stroke="black" points="4744.98,-410.26 4741.48,-400.26 4737.98,-410.26 4744.98,-410.26"/>
</g>
<!-- (&#39;path&#39;, &#39;reg_prog_vel_contouring&#39;) -->
<g id="node39" class="node">
<title>(&#39;path&#39;, &#39;reg_prog_vel_contouring&#39;)</title>
<polygon fill="none" stroke="purple" points="4264.98,-324 4005.98,-324 4005.98,-288 4264.98,-288 4264.98,-324"/>
<text text-anchor="middle" x="4135.48" y="-302.3" font-family="Times,serif" font-size="14.00">(&#39;path&#39;, &#39;reg_prog_vel_contouring&#39;)</text>
</g>
<!-- reg_prog_vel_contouring&#45;&gt;(&#39;path&#39;, &#39;reg_prog_vel_contouring&#39;) -->
<g id="edge35" class="edge">
<title>reg_prog_vel_contouring&#45;&gt;(&#39;path&#39;, &#39;reg_prog_vel_contouring&#39;)</title>
<path fill="none" stroke="black" d="M4135.48,-363.84C4135.48,-355.06 4135.48,-344.16 4135.48,-334.27"/>
<polygon fill="black" stroke="black" points="4138.98,-334.07 4135.48,-324.07 4131.98,-334.07 4138.98,-334.07"/>
</g>
<!-- (&#39;path&#39;, &#39;reg_prog_var_contouring&#39;) -->
<g id="node40" class="node">
<title>(&#39;path&#39;, &#39;reg_prog_var_contouring&#39;)</title>
<polygon fill="none" stroke="purple" points="2701.98,-252 2440.98,-252 2440.98,-216 2701.98,-216 2701.98,-252"/>
<text text-anchor="middle" x="2571.48" y="-230.3" font-family="Times,serif" font-size="14.00">(&#39;path&#39;, &#39;reg_prog_var_contouring&#39;)</text>
</g>
<!-- reg_prog_var_contouring&#45;&gt;(&#39;path&#39;, &#39;reg_prog_var_contouring&#39;) -->
<g id="edge36" class="edge">
<title>reg_prog_var_contouring&#45;&gt;(&#39;path&#39;, &#39;reg_prog_var_contouring&#39;)</title>
<path fill="none" stroke="black" d="M2571.48,-287.7C2571.48,-279.98 2571.48,-270.71 2571.48,-262.11"/>
<polygon fill="black" stroke="black" points="2574.98,-262.1 2571.48,-252.1 2567.98,-262.1 2574.98,-262.1"/>
</g>
<!-- (&#39;terminal&#39;, &#39;terminal_prog_var_contouring&#39;) -->
<g id="node41" class="node">
<title>(&#39;terminal&#39;, &#39;terminal_prog_var_contouring&#39;)</title>
<polygon fill="none" stroke="purple" points="3071.48,-252 2745.48,-252 2745.48,-216 3071.48,-216 3071.48,-252"/>
<text text-anchor="middle" x="2908.48" y="-230.3" font-family="Times,serif" font-size="14.00">(&#39;terminal&#39;, &#39;terminal_prog_var_contouring&#39;)</text>
</g>
<!-- terminal_prog_var_contouring&#45;&gt;(&#39;terminal&#39;, &#39;terminal_prog_var_contouring&#39;) -->
<g id="edge37" class="edge">
<title>terminal_prog_var_contouring&#45;&gt;(&#39;terminal&#39;, &#39;terminal_prog_var_contouring&#39;)</title>
<path fill="none" stroke="black" d="M2908.48,-287.7C2908.48,-279.98 2908.48,-270.71 2908.48,-262.11"/>
<polygon fill="black" stroke="black" points="2911.98,-262.1 2908.48,-252.1 2904.98,-262.1 2911.98,-262.1"/>
</g>
<!-- (&#39;terminal&#39;, &#39;terminal_prog_vel_contouring&#39;) -->
<g id="node42" class="node">
<title>(&#39;terminal&#39;, &#39;terminal_prog_vel_contouring&#39;)</title>
<polygon fill="none" stroke="purple" points="1835.48,-324 1511.48,-324 1511.48,-288 1835.48,-288 1835.48,-324"/>
<text text-anchor="middle" x="1673.48" y="-302.3" font-family="Times,serif" font-size="14.00">(&#39;terminal&#39;, &#39;terminal_prog_vel_contouring&#39;)</text>
</g>
<!-- terminal_prog_vel_contouring&#45;&gt;(&#39;terminal&#39;, &#39;terminal_prog_vel_contouring&#39;) -->
<g id="edge38" class="edge">
<title>terminal_prog_vel_contouring&#45;&gt;(&#39;terminal&#39;, &#39;terminal_prog_vel_contouring&#39;)</title>
<path fill="none" stroke="black" d="M2248.89,-369.07C2138.74,-357.19 1968.24,-338.8 1841.4,-325.11"/>
<polygon fill="black" stroke="black" points="1841.51,-321.6 1831.19,-324.01 1840.76,-328.56 1841.51,-321.6"/>
</g>
<!-- qd_kinova -->
<g id="node43" class="node">
<title>qd_kinova</title>
<polygon fill="none" stroke="green" points="1191.3,-454.54 1191.3,-469.46 1155.09,-480 1103.88,-480 1067.66,-469.46 1067.66,-454.54 1103.88,-444 1155.09,-444 1191.3,-454.54"/>
<polygon fill="none" stroke="green" points="1195.3,-451.54 1195.3,-472.46 1155.66,-484 1103.31,-484 1063.67,-472.46 1063.67,-451.54 1103.31,-440 1155.66,-440 1195.3,-451.54"/>
<text text-anchor="middle" x="1129.48" y="-458.3" font-family="Times,serif" font-size="14.00">qd_kinova</text>
</g>
<!-- qd_kinova&#45;&gt;q_kinova -->
<g id="edge54" class="edge">
<title>qd_kinova&#45;&gt;q_kinova</title>
<path fill="none" stroke="black" stroke-dasharray="5,2" d="M1063.43,-451.98C954.82,-437.14 739.54,-407.73 628.44,-392.56"/>
<polygon fill="black" stroke="black" points="628.73,-389.06 618.35,-391.18 627.78,-396 628.73,-389.06"/>
</g>
<!-- stationary_qd_kinova -->
<g id="node48" class="node">
<title>stationary_qd_kinova</title>
<polygon fill="none" stroke="magenta" points="1131.65,-382 1069.07,-400 943.9,-400 881.32,-382 943.9,-364 1069.07,-364 1131.65,-382"/>
<text text-anchor="middle" x="1006.48" y="-378.3" font-family="Times,serif" font-size="14.00">stationary_qd_kinova</text>
</g>
<!-- qd_kinova&#45;&gt;stationary_qd_kinova -->
<g id="edge39" class="edge">
<title>qd_kinova&#45;&gt;stationary_qd_kinova</title>
<path fill="none" stroke="black" d="M1098.45,-441.32C1081.2,-430.38 1059.68,-416.73 1041.79,-405.39"/>
<polygon fill="black" stroke="black" points="1043.65,-402.43 1033.33,-400.03 1039.91,-408.34 1043.65,-402.43"/>
</g>
<!-- limits_qd_kinova -->
<g id="node50" class="node">
<title>limits_qd_kinova</title>
<polygon fill="none" stroke="magenta" points="1352.62,-382 1302.05,-400 1200.92,-400 1150.35,-382 1200.92,-364 1302.05,-364 1352.62,-382"/>
<text text-anchor="middle" x="1251.48" y="-378.3" font-family="Times,serif" font-size="14.00">limits_qd_kinova</text>
</g>
<!-- qd_kinova&#45;&gt;limits_qd_kinova -->
<g id="edge40" class="edge">
<title>qd_kinova&#45;&gt;limits_qd_kinova</title>
<path fill="none" stroke="black" d="M1160.27,-441.32C1177.22,-430.48 1198.34,-416.98 1215.98,-405.7"/>
<polygon fill="black" stroke="black" points="1218.31,-408.36 1224.85,-400.03 1214.54,-402.46 1218.31,-408.36"/>
</g>
<!-- qdd_kinova -->
<g id="node44" class="node">
<title>qdd_kinova</title>
<polygon fill="none" stroke="cyan" points="1543.95,-534.54 1543.95,-549.46 1503.84,-560 1447.13,-560 1407.02,-549.46 1407.02,-534.54 1447.13,-524 1503.84,-524 1543.95,-534.54"/>
<polygon fill="none" stroke="cyan" points="1547.96,-531.46 1547.96,-552.54 1504.36,-564 1446.6,-564 1403.01,-552.54 1403.01,-531.46 1446.6,-520 1504.36,-520 1547.96,-531.46"/>
<text text-anchor="middle" x="1475.48" y="-538.3" font-family="Times,serif" font-size="14.00">qdd_kinova</text>
</g>
<!-- qdd_kinova&#45;&gt;qd_kinova -->
<g id="edge55" class="edge">
<title>qdd_kinova&#45;&gt;qd_kinova</title>
<path fill="none" stroke="black" stroke-dasharray="5,2" d="M1416.79,-527.77C1355.3,-513.91 1258.93,-492.18 1195,-477.77"/>
<polygon fill="black" stroke="black" points="1195.55,-474.31 1185.03,-475.52 1194.01,-481.13 1195.55,-474.31"/>
</g>
<!-- limits_qdd_kinova -->
<g id="node51" class="node">
<title>limits_qdd_kinova</title>
<polygon fill="none" stroke="magenta" points="1583.63,-462 1529.55,-480 1421.41,-480 1367.34,-462 1421.41,-444 1529.55,-444 1583.63,-462"/>
<text text-anchor="middle" x="1475.48" y="-458.3" font-family="Times,serif" font-size="14.00">limits_qdd_kinova</text>
</g>
<!-- qdd_kinova&#45;&gt;limits_qdd_kinova -->
<g id="edge41" class="edge">
<title>qdd_kinova&#45;&gt;limits_qdd_kinova</title>
<path fill="none" stroke="black" d="M1475.48,-519.69C1475.48,-510.64 1475.48,-499.99 1475.48,-490.37"/>
<polygon fill="black" stroke="black" points="1478.98,-490.09 1475.48,-480.09 1471.98,-490.09 1478.98,-490.09"/>
</g>
<!-- reg_qdd_kinova -->
<g id="node52" class="node">
<title>reg_qdd_kinova</title>
<polygon fill="none" stroke="magenta" points="1793.61,-462 1745.55,-480 1649.42,-480 1601.36,-462 1649.42,-444 1745.55,-444 1793.61,-462"/>
<text text-anchor="middle" x="1697.48" y="-458.3" font-family="Times,serif" font-size="14.00">reg_qdd_kinova</text>
</g>
<!-- qdd_kinova&#45;&gt;reg_qdd_kinova -->
<g id="edge42" class="edge">
<title>qdd_kinova&#45;&gt;reg_qdd_kinova</title>
<path fill="none" stroke="black" d="M1522.29,-524.55C1556.51,-512.53 1603.12,-496.15 1639.67,-483.31"/>
<polygon fill="black" stroke="black" points="1640.93,-486.58 1649.21,-479.96 1638.61,-479.98 1640.93,-486.58"/>
</g>
<!-- jointpos_init_kinova -->
<g id="node45" class="node">
<title>jointpos_init_kinova</title>
<polygon fill="none" stroke="red" points="286.78,-374.54 286.78,-389.46 221.59,-400 129.38,-400 64.19,-389.46 64.19,-374.54 129.38,-364 221.59,-364 286.78,-374.54"/>
<polygon fill="none" stroke="red" points="290.79,-371.14 290.79,-392.86 221.91,-404 129.06,-404 60.18,-392.86 60.18,-371.14 129.06,-360 221.91,-360 290.79,-371.14"/>
<text text-anchor="middle" x="175.48" y="-378.3" font-family="Times,serif" font-size="14.00">jointpos_init_kinova</text>
</g>
<!-- jointpos_init_kinova&#45;&gt;error_q_kinova_jointpos_init_kinova -->
<g id="edge43" class="edge">
<title>jointpos_init_kinova&#45;&gt;error_q_kinova_jointpos_init_kinova</title>
<path fill="none" stroke="black" d="M175.48,-359.99C175.48,-352.06 175.48,-342.91 175.48,-334.48"/>
<polygon fill="black" stroke="black" points="178.98,-334.31 175.48,-324.31 171.98,-334.31 178.98,-334.31"/>
</g>
<!-- equality_q_kinova -->
<g id="node47" class="node">
<title>equality_q_kinova</title>
<polygon fill="none" stroke="magenta" points="282.62,-234 229.05,-252 121.91,-252 68.34,-234 121.91,-216 229.05,-216 282.62,-234"/>
<text text-anchor="middle" x="175.48" y="-230.3" font-family="Times,serif" font-size="14.00">equality_q_kinova</text>
</g>
<!-- error_q_kinova_jointpos_init_kinova&#45;&gt;equality_q_kinova -->
<g id="edge44" class="edge">
<title>error_q_kinova_jointpos_init_kinova&#45;&gt;equality_q_kinova</title>
<path fill="none" stroke="black" d="M175.48,-287.7C175.48,-279.98 175.48,-270.71 175.48,-262.11"/>
<polygon fill="black" stroke="black" points="178.98,-262.1 175.48,-252.1 171.98,-262.1 178.98,-262.1"/>
</g>
<!-- (&#39;initial&#39;, &#39;equality_q_kinova&#39;) -->
<g id="node53" class="node">
<title>(&#39;initial&#39;, &#39;equality_q_kinova&#39;)</title>
<polygon fill="none" stroke="purple" points="284.98,-180 65.98,-180 65.98,-144 284.98,-144 284.98,-180"/>
<text text-anchor="middle" x="175.48" y="-158.3" font-family="Times,serif" font-size="14.00">(&#39;initial&#39;, &#39;equality_q_kinova&#39;)</text>
</g>
<!-- equality_q_kinova&#45;&gt;(&#39;initial&#39;, &#39;equality_q_kinova&#39;) -->
<g id="edge45" class="edge">
<title>equality_q_kinova&#45;&gt;(&#39;initial&#39;, &#39;equality_q_kinova&#39;)</title>
<path fill="none" stroke="black" d="M175.48,-215.7C175.48,-207.98 175.48,-198.71 175.48,-190.11"/>
<polygon fill="black" stroke="black" points="178.98,-190.1 175.48,-180.1 171.98,-190.1 178.98,-190.1"/>
</g>
<!-- (&#39;initial&#39;, &#39;stationary_qd_kinova&#39;) -->
<g id="node54" class="node">
<title>(&#39;initial&#39;, &#39;stationary_qd_kinova&#39;)</title>
<polygon fill="none" stroke="purple" points="991.98,-324 748.98,-324 748.98,-288 991.98,-288 991.98,-324"/>
<text text-anchor="middle" x="870.48" y="-302.3" font-family="Times,serif" font-size="14.00">(&#39;initial&#39;, &#39;stationary_qd_kinova&#39;)</text>
</g>
<!-- stationary_qd_kinova&#45;&gt;(&#39;initial&#39;, &#39;stationary_qd_kinova&#39;) -->
<g id="edge46" class="edge">
<title>stationary_qd_kinova&#45;&gt;(&#39;initial&#39;, &#39;stationary_qd_kinova&#39;)</title>
<path fill="none" stroke="black" d="M974.94,-363.84C955.8,-353.42 931.19,-340.03 910.67,-328.87"/>
<polygon fill="black" stroke="black" points="912.31,-325.78 901.86,-324.07 908.97,-331.92 912.31,-325.78"/>
</g>
<!-- (&#39;terminal&#39;, &#39;stationary_qd_kinova&#39;) -->
<g id="node59" class="node">
<title>(&#39;terminal&#39;, &#39;stationary_qd_kinova&#39;)</title>
<polygon fill="none" stroke="purple" points="1272.98,-324 1009.98,-324 1009.98,-288 1272.98,-288 1272.98,-324"/>
<text text-anchor="middle" x="1141.48" y="-302.3" font-family="Times,serif" font-size="14.00">(&#39;terminal&#39;, &#39;stationary_qd_kinova&#39;)</text>
</g>
<!-- stationary_qd_kinova&#45;&gt;(&#39;terminal&#39;, &#39;stationary_qd_kinova&#39;) -->
<g id="edge47" class="edge">
<title>stationary_qd_kinova&#45;&gt;(&#39;terminal&#39;, &#39;stationary_qd_kinova&#39;)</title>
<path fill="none" stroke="black" d="M1037.8,-363.84C1056.71,-353.47 1081,-340.15 1101.32,-329.02"/>
<polygon fill="black" stroke="black" points="1103.26,-331.95 1110.34,-324.07 1099.89,-325.81 1103.26,-331.95"/>
</g>
<!-- (&#39;path&#39;, &#39;limits_q_kinova&#39;) -->
<g id="node55" class="node">
<title>(&#39;path&#39;, &#39;limits_q_kinova&#39;)</title>
<polygon fill="none" stroke="purple" points="559.98,-252 366.98,-252 366.98,-216 559.98,-216 559.98,-252"/>
<text text-anchor="middle" x="463.48" y="-230.3" font-family="Times,serif" font-size="14.00">(&#39;path&#39;, &#39;limits_q_kinova&#39;)</text>
</g>
<!-- limits_q_kinova&#45;&gt;(&#39;path&#39;, &#39;limits_q_kinova&#39;) -->
<g id="edge48" class="edge">
<title>limits_q_kinova&#45;&gt;(&#39;path&#39;, &#39;limits_q_kinova&#39;)</title>
<path fill="none" stroke="black" d="M463.48,-287.7C463.48,-279.98 463.48,-270.71 463.48,-262.11"/>
<polygon fill="black" stroke="black" points="466.98,-262.1 463.48,-252.1 459.98,-262.1 466.98,-262.1"/>
</g>
<!-- (&#39;path&#39;, &#39;limits_qd_kinova&#39;) -->
<g id="node56" class="node">
<title>(&#39;path&#39;, &#39;limits_qd_kinova&#39;)</title>
<polygon fill="none" stroke="purple" points="1493.48,-324 1291.48,-324 1291.48,-288 1493.48,-288 1493.48,-324"/>
<text text-anchor="middle" x="1392.48" y="-302.3" font-family="Times,serif" font-size="14.00">(&#39;path&#39;, &#39;limits_qd_kinova&#39;)</text>
</g>
<!-- limits_qd_kinova&#45;&gt;(&#39;path&#39;, &#39;limits_qd_kinova&#39;) -->
<g id="edge49" class="edge">
<title>limits_qd_kinova&#45;&gt;(&#39;path&#39;, &#39;limits_qd_kinova&#39;)</title>
<path fill="none" stroke="black" d="M1284.19,-363.84C1304.03,-353.42 1329.54,-340.03 1350.82,-328.87"/>
<polygon fill="black" stroke="black" points="1352.73,-331.82 1359.96,-324.07 1349.48,-325.62 1352.73,-331.82"/>
</g>
<!-- (&#39;path&#39;, &#39;limits_qdd_kinova&#39;) -->
<g id="node57" class="node">
<title>(&#39;path&#39;, &#39;limits_qdd_kinova&#39;)</title>
<polygon fill="none" stroke="purple" points="1581.98,-400 1370.98,-400 1370.98,-364 1581.98,-364 1581.98,-400"/>
<text text-anchor="middle" x="1476.48" y="-378.3" font-family="Times,serif" font-size="14.00">(&#39;path&#39;, &#39;limits_qdd_kinova&#39;)</text>
</g>
<!-- limits_qdd_kinova&#45;&gt;(&#39;path&#39;, &#39;limits_qdd_kinova&#39;) -->
<g id="edge50" class="edge">
<title>limits_qdd_kinova&#45;&gt;(&#39;path&#39;, &#39;limits_qdd_kinova&#39;)</title>
<path fill="none" stroke="black" d="M1475.71,-443.69C1475.83,-433.89 1475.99,-421.42 1476.13,-410.33"/>
<polygon fill="black" stroke="black" points="1479.63,-410.31 1476.26,-400.26 1472.64,-410.22 1479.63,-410.31"/>
</g>
<!-- (&#39;path&#39;, &#39;reg_qdd_kinova&#39;) -->
<g id="node58" class="node">
<title>(&#39;path&#39;, &#39;reg_qdd_kinova&#39;)</title>
<polygon fill="none" stroke="purple" points="1794.48,-400 1600.48,-400 1600.48,-364 1794.48,-364 1794.48,-400"/>
<text text-anchor="middle" x="1697.48" y="-378.3" font-family="Times,serif" font-size="14.00">(&#39;path&#39;, &#39;reg_qdd_kinova&#39;)</text>
</g>
<!-- reg_qdd_kinova&#45;&gt;(&#39;path&#39;, &#39;reg_qdd_kinova&#39;) -->
<g id="edge51" class="edge">
<title>reg_qdd_kinova&#45;&gt;(&#39;path&#39;, &#39;reg_qdd_kinova&#39;)</title>
<path fill="none" stroke="black" d="M1697.48,-443.69C1697.48,-433.89 1697.48,-421.42 1697.48,-410.33"/>
<polygon fill="black" stroke="black" points="1700.98,-410.26 1697.48,-400.26 1693.98,-410.26 1700.98,-410.26"/>
</g>
</g>
</svg>
