<?xml version="1.0" encoding="UTF-8" standalone="no"?>
<!DOCTYPE svg PUBLIC "-//W3C//DTD SVG 1.1//EN"
 "http://www.w3.org/Graphics/SVG/1.1/DTD/svg11.dtd">
<!-- Generated by graphviz version 2.43.0 (0)
 -->
<!-- Title: %3 Pages: 1 -->
<svg width="3485pt" height="580pt"
 viewBox="0.00 0.00 3484.57 580.00" xmlns="http://www.w3.org/2000/svg" xmlns:xlink="http://www.w3.org/1999/xlink">
<g id="graph0" class="graph" transform="scale(1 1) rotate(0) translate(4 576)">
<title>%3</title>
<polygon fill="white" stroke="transparent" points="-4,4 -4,-576 3480.57,-576 3480.57,4 -4,4"/>
<!-- prog_var_contouring -->
<g id="node1" class="node">
<title>prog_var_contouring</title>
<polygon fill="none" stroke="green" points="1853.34,-382.54 1853.34,-397.46 1785.83,-408 1690.36,-408 1622.84,-397.46 1622.84,-382.54 1690.36,-372 1785.83,-372 1853.34,-382.54"/>
<polygon fill="none" stroke="green" points="1857.34,-379.12 1857.34,-400.88 1786.14,-412 1690.05,-412 1618.85,-400.88 1618.85,-379.12 1690.05,-368 1786.14,-368 1857.34,-379.12"/>
<text text-anchor="middle" x="1738.09" y="-386.3" font-family="Times,serif" font-size="14.00">prog_var_contouring</text>
</g>
<!-- init_prog_var_contouring -->
<g id="node9" class="node">
<title>init_prog_var_contouring</title>
<polygon fill="none" stroke="magenta" points="2816.78,-310 2743.94,-328 2598.25,-328 2525.4,-310 2598.25,-292 2743.94,-292 2816.78,-310"/>
<text text-anchor="middle" x="2671.09" y="-306.3" font-family="Times,serif" font-size="14.00">init_prog_var_contouring</text>
</g>
<!-- prog_var_contouring&#45;&gt;init_prog_var_contouring -->
<g id="edge1" class="edge">
<title>prog_var_contouring&#45;&gt;init_prog_var_contouring</title>
<path fill="none" stroke="black" d="M1823.65,-373.79C1837.8,-371.61 1852.33,-369.58 1866.09,-368 2107.7,-340.28 2169.55,-349.83 2412.09,-332 2458.94,-328.56 2510.53,-324.44 2555.25,-320.77"/>
<polygon fill="black" stroke="black" points="2555.59,-324.25 2565.27,-319.94 2555.02,-317.27 2555.59,-324.25"/>
</g>
<!-- limits_prog_var_contouring -->
<g id="node13" class="node">
<title>limits_prog_var_contouring</title>
<polygon fill="none" stroke="magenta" points="3180.3,-310 3101.2,-328 2942.99,-328 2863.89,-310 2942.99,-292 3101.2,-292 3180.3,-310"/>
<text text-anchor="middle" x="3022.09" y="-306.3" font-family="Times,serif" font-size="14.00">limits_prog_var_contouring</text>
</g>
<!-- prog_var_contouring&#45;&gt;limits_prog_var_contouring -->
<g id="edge2" class="edge">
<title>prog_var_contouring&#45;&gt;limits_prog_var_contouring</title>
<path fill="none" stroke="black" d="M1822.58,-373.61C1837.06,-371.41 1851.98,-369.42 1866.09,-368 2290.93,-325.35 2400.24,-362.76 2826.09,-332 2853.76,-330 2883.55,-327.16 2911.35,-324.22"/>
<polygon fill="black" stroke="black" points="2911.93,-327.68 2921.5,-323.13 2911.18,-320.72 2911.93,-327.68"/>
</g>
<!-- SE3_path_contouring -->
<g id="node19" class="node">
<title>SE3_path_contouring</title>
<ellipse fill="none" stroke="green" cx="2293.09" cy="-310" rx="109.68" ry="18"/>
<text text-anchor="middle" x="2293.09" y="-306.3" font-family="Times,serif" font-size="14.00">SE3_path_contouring</text>
</g>
<!-- prog_var_contouring&#45;&gt;SE3_path_contouring -->
<g id="edge3" class="edge">
<title>prog_var_contouring&#45;&gt;SE3_path_contouring</title>
<path fill="none" stroke="black" d="M1825.46,-374.11C1839.05,-371.96 1852.94,-369.85 1866.09,-368 2002.58,-348.84 2037.73,-351.98 2174.09,-332 2186.91,-330.12 2200.47,-327.93 2213.67,-325.68"/>
<polygon fill="black" stroke="black" points="2214.41,-329.1 2223.67,-323.95 2213.22,-322.2 2214.41,-329.1"/>
</g>
<!-- reg_prog_var_contouring -->
<g id="node36" class="node">
<title>reg_prog_var_contouring</title>
<polygon fill="none" stroke="magenta" points="1546.78,-310 1473.94,-328 1328.25,-328 1255.4,-310 1328.25,-292 1473.94,-292 1546.78,-310"/>
<text text-anchor="middle" x="1401.09" y="-306.3" font-family="Times,serif" font-size="14.00">reg_prog_var_contouring</text>
</g>
<!-- prog_var_contouring&#45;&gt;reg_prog_var_contouring -->
<g id="edge4" class="edge">
<title>prog_var_contouring&#45;&gt;reg_prog_var_contouring</title>
<path fill="none" stroke="black" d="M1664.55,-371.98C1611.39,-359.67 1539.5,-343.03 1484.24,-330.24"/>
<polygon fill="black" stroke="black" points="1485.01,-326.83 1474.48,-327.98 1483.43,-333.65 1485.01,-326.83"/>
</g>
<!-- terminal_prog_var_contouring -->
<g id="node38" class="node">
<title>terminal_prog_var_contouring</title>
<polygon fill="none" stroke="magenta" points="1911.32,-310 1824.71,-328 1651.48,-328 1564.87,-310 1651.48,-292 1824.71,-292 1911.32,-310"/>
<text text-anchor="middle" x="1738.09" y="-306.3" font-family="Times,serif" font-size="14.00">terminal_prog_var_contouring</text>
</g>
<!-- prog_var_contouring&#45;&gt;terminal_prog_var_contouring -->
<g id="edge5" class="edge">
<title>prog_var_contouring&#45;&gt;terminal_prog_var_contouring</title>
<path fill="none" stroke="black" d="M1738.09,-367.69C1738.09,-358.64 1738.09,-347.99 1738.09,-338.37"/>
<polygon fill="black" stroke="black" points="1741.59,-338.09 1738.09,-328.09 1734.59,-338.09 1741.59,-338.09"/>
</g>
<!-- prog_vel_contouring -->
<g id="node2" class="node">
<title>prog_vel_contouring</title>
<polygon fill="none" stroke="green" points="1062.13,-462.54 1062.13,-477.46 995.91,-488 902.27,-488 836.06,-477.46 836.06,-462.54 902.27,-452 995.91,-452 1062.13,-462.54"/>
<polygon fill="none" stroke="green" points="1066.12,-459.13 1066.12,-480.87 996.23,-492 901.96,-492 832.07,-480.87 832.07,-459.13 901.96,-448 996.23,-448 1066.12,-459.13"/>
<text text-anchor="middle" x="949.09" y="-466.3" font-family="Times,serif" font-size="14.00">prog_vel_contouring</text>
</g>
<!-- prog_vel_contouring&#45;&gt;prog_var_contouring -->
<g id="edge36" class="edge">
<title>prog_vel_contouring&#45;&gt;prog_var_contouring</title>
<path fill="none" stroke="black" stroke-dasharray="5,2" d="M1059.63,-458.07C1206.08,-443.59 1463.6,-418.14 1615.76,-403.09"/>
<polygon fill="black" stroke="black" points="1616.47,-406.54 1626.07,-402.07 1615.78,-399.57 1616.47,-406.54"/>
</g>
<!-- init_prog_vel_contouring -->
<g id="node11" class="node">
<title>init_prog_vel_contouring</title>
<polygon fill="none" stroke="magenta" points="288.28,-390 216.19,-408 72,-408 -0.09,-390 72,-372 216.19,-372 288.28,-390"/>
<text text-anchor="middle" x="144.09" y="-386.3" font-family="Times,serif" font-size="14.00">init_prog_vel_contouring</text>
</g>
<!-- prog_vel_contouring&#45;&gt;init_prog_vel_contouring -->
<g id="edge6" class="edge">
<title>prog_vel_contouring&#45;&gt;init_prog_vel_contouring</title>
<path fill="none" stroke="black" d="M832.02,-460.51C701.39,-450.63 483.83,-432.96 297.09,-412 279.56,-410.03 260.93,-407.69 242.92,-405.29"/>
<polygon fill="black" stroke="black" points="243.37,-401.82 233,-403.96 242.44,-408.76 243.37,-401.82"/>
</g>
<!-- limits_prog_vel_contouring -->
<g id="node15" class="node">
<title>limits_prog_vel_contouring</title>
<polygon fill="none" stroke="magenta" points="619.8,-390 541.45,-408 384.74,-408 306.39,-390 384.74,-372 541.45,-372 619.8,-390"/>
<text text-anchor="middle" x="463.09" y="-386.3" font-family="Times,serif" font-size="14.00">limits_prog_vel_contouring</text>
</g>
<!-- prog_vel_contouring&#45;&gt;limits_prog_vel_contouring -->
<g id="edge7" class="edge">
<title>prog_vel_contouring&#45;&gt;limits_prog_vel_contouring</title>
<path fill="none" stroke="black" d="M859.67,-454.65C775.59,-441.15 649.95,-420.99 562.71,-406.99"/>
<polygon fill="black" stroke="black" points="563.22,-403.53 552.79,-405.4 562.11,-410.44 563.22,-403.53"/>
</g>
<!-- reg_prog_vel_contouring -->
<g id="node34" class="node">
<title>reg_prog_vel_contouring</title>
<polygon fill="none" stroke="magenta" points="926.28,-390 854.19,-408 710,-408 637.91,-390 710,-372 854.19,-372 926.28,-390"/>
<text text-anchor="middle" x="782.09" y="-386.3" font-family="Times,serif" font-size="14.00">reg_prog_vel_contouring</text>
</g>
<!-- prog_vel_contouring&#45;&gt;reg_prog_vel_contouring -->
<g id="edge8" class="edge">
<title>prog_vel_contouring&#45;&gt;reg_prog_vel_contouring</title>
<path fill="none" stroke="black" d="M903.9,-447.89C880.28,-436.86 851.44,-423.39 827.75,-412.32"/>
<polygon fill="black" stroke="black" points="829.15,-409.12 818.61,-408.06 826.19,-415.46 829.15,-409.12"/>
</g>
<!-- terminal_prog_vel_contouring -->
<g id="node40" class="node">
<title>terminal_prog_vel_contouring</title>
<polygon fill="none" stroke="magenta" points="1287.82,-390 1201.96,-408 1030.23,-408 944.37,-390 1030.23,-372 1201.96,-372 1287.82,-390"/>
<text text-anchor="middle" x="1116.09" y="-386.3" font-family="Times,serif" font-size="14.00">terminal_prog_vel_contouring</text>
</g>
<!-- prog_vel_contouring&#45;&gt;terminal_prog_vel_contouring -->
<g id="edge9" class="edge">
<title>prog_vel_contouring&#45;&gt;terminal_prog_vel_contouring</title>
<path fill="none" stroke="black" d="M994.29,-447.89C1017.91,-436.86 1046.75,-423.39 1070.44,-412.32"/>
<polygon fill="black" stroke="black" points="1072,-415.46 1079.58,-408.06 1069.04,-409.12 1072,-415.46"/>
</g>
<!-- prog_acc_contouring -->
<g id="node3" class="node">
<title>prog_acc_contouring</title>
<polygon fill="none" stroke="cyan" points="2112.34,-542.54 2112.34,-557.46 2044.83,-568 1949.36,-568 1881.84,-557.46 1881.84,-542.54 1949.36,-532 2044.83,-532 2112.34,-542.54"/>
<polygon fill="none" stroke="cyan" points="2116.34,-539.12 2116.34,-560.88 2045.14,-572 1949.05,-572 1877.85,-560.88 1877.85,-539.12 1949.05,-528 2045.14,-528 2116.34,-539.12"/>
<text text-anchor="middle" x="1997.09" y="-546.3" font-family="Times,serif" font-size="14.00">prog_acc_contouring</text>
</g>
<!-- prog_acc_contouring&#45;&gt;prog_vel_contouring -->
<g id="edge37" class="edge">
<title>prog_acc_contouring&#45;&gt;prog_vel_contouring</title>
<path fill="none" stroke="black" stroke-dasharray="5,2" d="M1877.64,-540.11C1678.64,-525.3 1280.97,-495.7 1076.69,-480.5"/>
<polygon fill="black" stroke="black" points="1076.74,-476.99 1066.51,-479.74 1076.22,-483.97 1076.74,-476.99"/>
</g>
<!-- limits_prog_acc_contouring -->
<g id="node17" class="node">
<title>limits_prog_acc_contouring</title>
<polygon fill="none" stroke="magenta" points="2155.3,-470 2076.2,-488 1917.99,-488 1838.89,-470 1917.99,-452 2076.2,-452 2155.3,-470"/>
<text text-anchor="middle" x="1997.09" y="-466.3" font-family="Times,serif" font-size="14.00">limits_prog_acc_contouring</text>
</g>
<!-- prog_acc_contouring&#45;&gt;limits_prog_acc_contouring -->
<g id="edge10" class="edge">
<title>prog_acc_contouring&#45;&gt;limits_prog_acc_contouring</title>
<path fill="none" stroke="black" d="M1997.09,-527.69C1997.09,-518.64 1997.09,-507.99 1997.09,-498.37"/>
<polygon fill="black" stroke="black" points="2000.59,-498.09 1997.09,-488.09 1993.59,-498.09 2000.59,-498.09"/>
</g>
<!-- reg_prog_acc_contouring -->
<g id="node32" class="node">
<title>reg_prog_acc_contouring</title>
<polygon fill="none" stroke="magenta" points="2464.78,-470 2391.94,-488 2246.25,-488 2173.4,-470 2246.25,-452 2391.94,-452 2464.78,-470"/>
<text text-anchor="middle" x="2319.09" y="-466.3" font-family="Times,serif" font-size="14.00">reg_prog_acc_contouring</text>
</g>
<!-- prog_acc_contouring&#45;&gt;reg_prog_acc_contouring -->
<g id="edge11" class="edge">
<title>prog_acc_contouring&#45;&gt;reg_prog_acc_contouring</title>
<path fill="none" stroke="black" d="M2068.96,-531.59C2119.37,-519.38 2186.8,-503.05 2238.95,-490.41"/>
<polygon fill="black" stroke="black" points="2239.94,-493.78 2248.84,-488.02 2238.29,-486.97 2239.94,-493.78"/>
</g>
<!-- rot_tunnel_L1penalty_contouring -->
<g id="node4" class="node">
<title>rot_tunnel_L1penalty_contouring</title>
<polygon fill="none" stroke="red" points="2493.16,-542.54 2493.16,-557.46 2389.44,-568 2242.75,-568 2139.03,-557.46 2139.03,-542.54 2242.75,-532 2389.44,-532 2493.16,-542.54"/>
<polygon fill="none" stroke="red" points="2497.15,-538.93 2497.15,-561.07 2389.64,-572 2242.55,-572 2135.03,-561.07 2135.03,-538.93 2242.55,-528 2389.64,-528 2497.15,-538.93"/>
<text text-anchor="middle" x="2316.09" y="-546.3" font-family="Times,serif" font-size="14.00">rot_tunnel_L1penalty_contouring</text>
</g>
<!-- trans_tunnel_L1penalty_contouring -->
<g id="node5" class="node">
<title>trans_tunnel_L1penalty_contouring</title>
<polygon fill="none" stroke="red" points="2898.57,-542.54 2898.57,-557.46 2787.58,-568 2630.61,-568 2519.62,-557.46 2519.62,-542.54 2630.61,-532 2787.58,-532 2898.57,-542.54"/>
<polygon fill="none" stroke="red" points="2902.57,-538.91 2902.57,-561.09 2787.77,-572 2630.42,-572 2515.61,-561.09 2515.61,-538.91 2630.42,-528 2787.77,-528 2902.57,-538.91"/>
<text text-anchor="middle" x="2709.09" y="-546.3" font-family="Times,serif" font-size="14.00">trans_tunnel_L1penalty_contouring</text>
</g>
<!-- rot_weight_contouring -->
<g id="node6" class="node">
<title>rot_weight_contouring</title>
<polygon fill="none" stroke="red" points="3173.63,-542.54 3173.63,-557.46 3100.68,-568 2997.51,-568 2924.56,-557.46 2924.56,-542.54 2997.51,-532 3100.68,-532 3173.63,-542.54"/>
<polygon fill="none" stroke="red" points="3177.63,-539.08 3177.63,-560.92 3100.97,-572 2997.22,-572 2920.56,-560.92 2920.56,-539.08 2997.22,-528 3100.97,-528 3177.63,-539.08"/>
<text text-anchor="middle" x="3049.09" y="-546.3" font-family="Times,serif" font-size="14.00">rot_weight_contouring</text>
</g>
<!-- trans_weight_contouring -->
<g id="node7" class="node">
<title>trans_weight_contouring</title>
<polygon fill="none" stroke="red" points="3472.55,-542.54 3472.55,-557.46 3392.62,-568 3279.57,-568 3199.64,-557.46 3199.64,-542.54 3279.57,-532 3392.62,-532 3472.55,-542.54"/>
<polygon fill="none" stroke="red" points="3476.55,-539.04 3476.55,-560.96 3392.88,-572 3279.31,-572 3195.64,-560.96 3195.64,-539.04 3279.31,-528 3392.88,-528 3476.55,-539.04"/>
<text text-anchor="middle" x="3336.09" y="-546.3" font-family="Times,serif" font-size="14.00">trans_weight_contouring</text>
</g>
<!-- SE3_traj_contouring -->
<g id="node8" class="node">
<title>SE3_traj_contouring</title>
<polygon fill="none" stroke="cyan" points="2161.03,-302.54 2161.03,-317.46 2094.29,-328 1999.9,-328 1933.16,-317.46 1933.16,-302.54 1999.9,-292 2094.29,-292 2161.03,-302.54"/>
<polygon fill="none" stroke="cyan" points="2165.03,-299.13 2165.03,-320.87 2094.6,-332 1999.59,-332 1929.16,-320.87 1929.16,-299.13 1999.59,-288 2094.6,-288 2165.03,-299.13"/>
<text text-anchor="middle" x="2047.09" y="-306.3" font-family="Times,serif" font-size="14.00">SE3_traj_contouring</text>
</g>
<!-- trans_error_SE3_traj_contouring_vs_goal -->
<g id="node20" class="node">
<title>trans_error_SE3_traj_contouring_vs_goal</title>
<ellipse fill="none" stroke="green" cx="1956.09" cy="-234" rx="200.66" ry="18"/>
<text text-anchor="middle" x="1956.09" y="-230.3" font-family="Times,serif" font-size="14.00">trans_error_SE3_traj_contouring_vs_goal</text>
</g>
<!-- SE3_traj_contouring&#45;&gt;trans_error_SE3_traj_contouring_vs_goal -->
<g id="edge12" class="edge">
<title>SE3_traj_contouring&#45;&gt;trans_error_SE3_traj_contouring_vs_goal</title>
<path fill="none" stroke="black" d="M2021.26,-287.99C2009.9,-278.76 1996.52,-267.88 1984.85,-258.38"/>
<polygon fill="black" stroke="black" points="1987.06,-255.67 1977.09,-252.07 1982.64,-261.1 1987.06,-255.67"/>
</g>
<!-- rotmat_error_SE3_traj_contouring_vs_goal -->
<g id="node24" class="node">
<title>rotmat_error_SE3_traj_contouring_vs_goal</title>
<ellipse fill="none" stroke="green" cx="2383.09" cy="-234" rx="207.96" ry="18"/>
<text text-anchor="middle" x="2383.09" y="-230.3" font-family="Times,serif" font-size="14.00">rotmat_error_SE3_traj_contouring_vs_goal</text>
</g>
<!-- SE3_traj_contouring&#45;&gt;rotmat_error_SE3_traj_contouring_vs_goal -->
<g id="edge13" class="edge">
<title>SE3_traj_contouring&#45;&gt;rotmat_error_SE3_traj_contouring_vs_goal</title>
<path fill="none" stroke="black" d="M2122.5,-292.39C2175.5,-280.72 2246.39,-265.11 2300.85,-253.11"/>
<polygon fill="black" stroke="black" points="2301.81,-256.49 2310.82,-250.92 2300.3,-249.65 2301.81,-256.49"/>
</g>
<!-- (&#39;initial&#39;, &#39;init_prog_var_contouring&#39;) -->
<g id="node10" class="node">
<title>(&#39;initial&#39;, &#39;init_prog_var_contouring&#39;)</title>
<polygon fill="none" stroke="purple" points="2879.09,-252 2609.09,-252 2609.09,-216 2879.09,-216 2879.09,-252"/>
<text text-anchor="middle" x="2744.09" y="-230.3" font-family="Times,serif" font-size="14.00">(&#39;initial&#39;, &#39;init_prog_var_contouring&#39;)</text>
</g>
<!-- init_prog_var_contouring&#45;&gt;(&#39;initial&#39;, &#39;init_prog_var_contouring&#39;) -->
<g id="edge14" class="edge">
<title>init_prog_var_contouring&#45;&gt;(&#39;initial&#39;, &#39;init_prog_var_contouring&#39;)</title>
<path fill="none" stroke="black" d="M2688.02,-291.84C2697.51,-282.22 2709.51,-270.06 2719.97,-259.46"/>
<polygon fill="black" stroke="black" points="2722.72,-261.65 2727.25,-252.07 2717.74,-256.73 2722.72,-261.65"/>
</g>
<!-- (&#39;initial&#39;, &#39;init_prog_vel_contouring&#39;) -->
<g id="node12" class="node">
<title>(&#39;initial&#39;, &#39;init_prog_vel_contouring&#39;)</title>
<polygon fill="none" stroke="purple" points="278.09,-328 10.09,-328 10.09,-292 278.09,-292 278.09,-328"/>
<text text-anchor="middle" x="144.09" y="-306.3" font-family="Times,serif" font-size="14.00">(&#39;initial&#39;, &#39;init_prog_vel_contouring&#39;)</text>
</g>
<!-- init_prog_vel_contouring&#45;&gt;(&#39;initial&#39;, &#39;init_prog_vel_contouring&#39;) -->
<g id="edge15" class="edge">
<title>init_prog_vel_contouring&#45;&gt;(&#39;initial&#39;, &#39;init_prog_vel_contouring&#39;)</title>
<path fill="none" stroke="black" d="M144.09,-371.69C144.09,-361.89 144.09,-349.42 144.09,-338.33"/>
<polygon fill="black" stroke="black" points="147.59,-338.26 144.09,-328.26 140.59,-338.26 147.59,-338.26"/>
</g>
<!-- (&#39;path&#39;, &#39;limits_prog_var_contouring&#39;) -->
<g id="node14" class="node">
<title>(&#39;path&#39;, &#39;limits_prog_var_contouring&#39;)</title>
<polygon fill="none" stroke="purple" points="3175.09,-252 2897.09,-252 2897.09,-216 3175.09,-216 3175.09,-252"/>
<text text-anchor="middle" x="3036.09" y="-230.3" font-family="Times,serif" font-size="14.00">(&#39;path&#39;, &#39;limits_prog_var_contouring&#39;)</text>
</g>
<!-- limits_prog_var_contouring&#45;&gt;(&#39;path&#39;, &#39;limits_prog_var_contouring&#39;) -->
<g id="edge16" class="edge">
<title>limits_prog_var_contouring&#45;&gt;(&#39;path&#39;, &#39;limits_prog_var_contouring&#39;)</title>
<path fill="none" stroke="black" d="M3025.34,-291.84C3027.02,-282.96 3029.11,-271.93 3030.99,-261.95"/>
<polygon fill="black" stroke="black" points="3034.44,-262.55 3032.86,-252.07 3027.57,-261.25 3034.44,-262.55"/>
</g>
<!-- (&#39;path&#39;, &#39;limits_prog_vel_contouring&#39;) -->
<g id="node16" class="node">
<title>(&#39;path&#39;, &#39;limits_prog_vel_contouring&#39;)</title>
<polygon fill="none" stroke="purple" points="600.59,-328 325.59,-328 325.59,-292 600.59,-292 600.59,-328"/>
<text text-anchor="middle" x="463.09" y="-306.3" font-family="Times,serif" font-size="14.00">(&#39;path&#39;, &#39;limits_prog_vel_contouring&#39;)</text>
</g>
<!-- limits_prog_vel_contouring&#45;&gt;(&#39;path&#39;, &#39;limits_prog_vel_contouring&#39;) -->
<g id="edge17" class="edge">
<title>limits_prog_vel_contouring&#45;&gt;(&#39;path&#39;, &#39;limits_prog_vel_contouring&#39;)</title>
<path fill="none" stroke="black" d="M463.09,-371.69C463.09,-361.89 463.09,-349.42 463.09,-338.33"/>
<polygon fill="black" stroke="black" points="466.59,-338.26 463.09,-328.26 459.59,-338.26 466.59,-338.26"/>
</g>
<!-- (&#39;path&#39;, &#39;limits_prog_acc_contouring&#39;) -->
<g id="node18" class="node">
<title>(&#39;path&#39;, &#39;limits_prog_acc_contouring&#39;)</title>
<polygon fill="none" stroke="purple" points="2153.09,-408 1875.09,-408 1875.09,-372 2153.09,-372 2153.09,-408"/>
<text text-anchor="middle" x="2014.09" y="-386.3" font-family="Times,serif" font-size="14.00">(&#39;path&#39;, &#39;limits_prog_acc_contouring&#39;)</text>
</g>
<!-- limits_prog_acc_contouring&#45;&gt;(&#39;path&#39;, &#39;limits_prog_acc_contouring&#39;) -->
<g id="edge18" class="edge">
<title>limits_prog_acc_contouring&#45;&gt;(&#39;path&#39;, &#39;limits_prog_acc_contouring&#39;)</title>
<path fill="none" stroke="black" d="M2000.87,-451.69C2003,-441.89 2005.72,-429.42 2008.14,-418.33"/>
<polygon fill="black" stroke="black" points="2011.62,-418.78 2010.33,-408.26 2004.78,-417.29 2011.62,-418.78"/>
</g>
<!-- SE3_path_contouring&#45;&gt;trans_error_SE3_traj_contouring_vs_goal -->
<g id="edge19" class="edge">
<title>SE3_path_contouring&#45;&gt;trans_error_SE3_traj_contouring_vs_goal</title>
<path fill="none" stroke="black" d="M2230.1,-295.17C2175.9,-283.26 2097.31,-266.01 2038.19,-253.03"/>
<polygon fill="black" stroke="black" points="2038.65,-249.54 2028.13,-250.82 2037.15,-256.38 2038.65,-249.54"/>
</g>
<!-- SE3_path_contouring&#45;&gt;rotmat_error_SE3_traj_contouring_vs_goal -->
<g id="edge20" class="edge">
<title>SE3_path_contouring&#45;&gt;rotmat_error_SE3_traj_contouring_vs_goal</title>
<path fill="none" stroke="black" d="M2313.52,-292.21C2325.63,-282.25 2341.17,-269.47 2354.48,-258.52"/>
<polygon fill="black" stroke="black" points="2356.94,-261.04 2362.44,-251.98 2352.49,-255.63 2356.94,-261.04"/>
</g>
<!-- sqrt_trans_error_SE3_traj_contouring_vs_goal -->
<g id="node21" class="node">
<title>sqrt_trans_error_SE3_traj_contouring_vs_goal</title>
<ellipse fill="none" stroke="green" cx="1420.09" cy="-162" rx="224.46" ry="18"/>
<text text-anchor="middle" x="1420.09" y="-158.3" font-family="Times,serif" font-size="14.00">sqrt_trans_error_SE3_traj_contouring_vs_goal</text>
</g>
<!-- trans_error_SE3_traj_contouring_vs_goal&#45;&gt;sqrt_trans_error_SE3_traj_contouring_vs_goal -->
<g id="edge21" class="edge">
<title>trans_error_SE3_traj_contouring_vs_goal&#45;&gt;sqrt_trans_error_SE3_traj_contouring_vs_goal</title>
<path fill="none" stroke="black" d="M1847.63,-218.83C1759.08,-207.27 1634.01,-190.94 1542.01,-178.92"/>
<polygon fill="black" stroke="black" points="1542.46,-175.45 1532.09,-177.63 1541.55,-182.39 1542.46,-175.45"/>
</g>
<!-- reg_trans_error_SE3_traj_contouring_vs_goal -->
<g id="node30" class="node">
<title>reg_trans_error_SE3_traj_contouring_vs_goal</title>
<polygon fill="none" stroke="magenta" points="2211.43,-162 2083.76,-180 1828.43,-180 1700.76,-162 1828.43,-144 2083.76,-144 2211.43,-162"/>
<text text-anchor="middle" x="1956.09" y="-158.3" font-family="Times,serif" font-size="14.00">reg_trans_error_SE3_traj_contouring_vs_goal</text>
</g>
<!-- trans_error_SE3_traj_contouring_vs_goal&#45;&gt;reg_trans_error_SE3_traj_contouring_vs_goal -->
<g id="edge22" class="edge">
<title>trans_error_SE3_traj_contouring_vs_goal&#45;&gt;reg_trans_error_SE3_traj_contouring_vs_goal</title>
<path fill="none" stroke="black" d="M1956.09,-215.7C1956.09,-207.98 1956.09,-198.71 1956.09,-190.11"/>
<polygon fill="black" stroke="black" points="1959.59,-190.1 1956.09,-180.1 1952.59,-190.1 1959.59,-190.1"/>
</g>
<!-- trans_tunnel_con_SE3_path_contouring_vs_SE3_traj_contouring -->
<g id="node22" class="node">
<title>trans_tunnel_con_SE3_path_contouring_vs_SE3_traj_contouring</title>
<polygon fill="none" stroke="magenta" points="1734.56,-90 1557.32,-108 1202.86,-108 1025.63,-90 1202.86,-72 1557.32,-72 1734.56,-90"/>
<text text-anchor="middle" x="1380.09" y="-86.3" font-family="Times,serif" font-size="14.00">trans_tunnel_con_SE3_path_contouring_vs_SE3_traj_contouring</text>
</g>
<!-- sqrt_trans_error_SE3_traj_contouring_vs_goal&#45;&gt;trans_tunnel_con_SE3_path_contouring_vs_SE3_traj_contouring -->
<g id="edge23" class="edge">
<title>sqrt_trans_error_SE3_traj_contouring_vs_goal&#45;&gt;trans_tunnel_con_SE3_path_contouring_vs_SE3_traj_contouring</title>
<path fill="none" stroke="black" d="M1410.21,-143.7C1405.6,-135.64 1400.03,-125.89 1394.94,-116.98"/>
<polygon fill="black" stroke="black" points="1397.87,-115.05 1389.87,-108.1 1391.79,-118.52 1397.87,-115.05"/>
</g>
<!-- (&#39;path&#39;, &#39;trans_tunnel_con_SE3_path_contouring_vs_SE3_traj_contouring&#39;) -->
<g id="node23" class="node">
<title>(&#39;path&#39;, &#39;trans_tunnel_con_SE3_path_contouring_vs_SE3_traj_contouring&#39;)</title>
<polygon fill="none" stroke="purple" points="1649.59,-36 1110.59,-36 1110.59,0 1649.59,0 1649.59,-36"/>
<text text-anchor="middle" x="1380.09" y="-14.3" font-family="Times,serif" font-size="14.00">(&#39;path&#39;, &#39;trans_tunnel_con_SE3_path_contouring_vs_SE3_traj_contouring&#39;)</text>
</g>
<!-- trans_tunnel_con_SE3_path_contouring_vs_SE3_traj_contouring&#45;&gt;(&#39;path&#39;, &#39;trans_tunnel_con_SE3_path_contouring_vs_SE3_traj_contouring&#39;) -->
<g id="edge24" class="edge">
<title>trans_tunnel_con_SE3_path_contouring_vs_SE3_traj_contouring&#45;&gt;(&#39;path&#39;, &#39;trans_tunnel_con_SE3_path_contouring_vs_SE3_traj_contouring&#39;)</title>
<path fill="none" stroke="black" d="M1380.09,-71.7C1380.09,-63.98 1380.09,-54.71 1380.09,-46.11"/>
<polygon fill="black" stroke="black" points="1383.59,-46.1 1380.09,-36.1 1376.59,-46.1 1383.59,-46.1"/>
</g>
<!-- ax_ang_error_SE3_traj_contouring_vs_goal -->
<g id="node25" class="node">
<title>ax_ang_error_SE3_traj_contouring_vs_goal</title>
<ellipse fill="none" stroke="green" cx="2519.09" cy="-162" rx="208.76" ry="18"/>
<text text-anchor="middle" x="2519.09" y="-158.3" font-family="Times,serif" font-size="14.00">ax_ang_error_SE3_traj_contouring_vs_goal</text>
</g>
<!-- rotmat_error_SE3_traj_contouring_vs_goal&#45;&gt;ax_ang_error_SE3_traj_contouring_vs_goal -->
<g id="edge25" class="edge">
<title>rotmat_error_SE3_traj_contouring_vs_goal&#45;&gt;ax_ang_error_SE3_traj_contouring_vs_goal</title>
<path fill="none" stroke="black" d="M2416.02,-216.05C2434.47,-206.55 2457.68,-194.61 2477.4,-184.46"/>
<polygon fill="black" stroke="black" points="2479.19,-187.48 2486.48,-179.79 2475.98,-181.25 2479.19,-187.48"/>
</g>
<!-- rot_tunnel_con_SE3_path_contouring_vs_SE3_traj_contouring -->
<g id="node26" class="node">
<title>rot_tunnel_con_SE3_path_contouring_vs_SE3_traj_contouring</title>
<polygon fill="none" stroke="magenta" points="2860.54,-90 2689.82,-108 2348.37,-108 2177.65,-90 2348.37,-72 2689.82,-72 2860.54,-90"/>
<text text-anchor="middle" x="2519.09" y="-86.3" font-family="Times,serif" font-size="14.00">rot_tunnel_con_SE3_path_contouring_vs_SE3_traj_contouring</text>
</g>
<!-- ax_ang_error_SE3_traj_contouring_vs_goal&#45;&gt;rot_tunnel_con_SE3_path_contouring_vs_SE3_traj_contouring -->
<g id="edge26" class="edge">
<title>ax_ang_error_SE3_traj_contouring_vs_goal&#45;&gt;rot_tunnel_con_SE3_path_contouring_vs_SE3_traj_contouring</title>
<path fill="none" stroke="black" d="M2519.09,-143.7C2519.09,-135.98 2519.09,-126.71 2519.09,-118.11"/>
<polygon fill="black" stroke="black" points="2522.59,-118.1 2519.09,-108.1 2515.59,-118.1 2522.59,-118.1"/>
</g>
<!-- reg_ax_ang_error_SE3_traj_contouring_vs_goal -->
<g id="node28" class="node">
<title>reg_ax_ang_error_SE3_traj_contouring_vs_goal</title>
<polygon fill="none" stroke="magenta" points="3407.44,-90 3275.27,-108 3010.92,-108 2878.75,-90 3010.92,-72 3275.27,-72 3407.44,-90"/>
<text text-anchor="middle" x="3143.09" y="-86.3" font-family="Times,serif" font-size="14.00">reg_ax_ang_error_SE3_traj_contouring_vs_goal</text>
</g>
<!-- ax_ang_error_SE3_traj_contouring_vs_goal&#45;&gt;reg_ax_ang_error_SE3_traj_contouring_vs_goal -->
<g id="edge27" class="edge">
<title>ax_ang_error_SE3_traj_contouring_vs_goal&#45;&gt;reg_ax_ang_error_SE3_traj_contouring_vs_goal</title>
<path fill="none" stroke="black" d="M2640.89,-147.34C2741.32,-136.07 2884.27,-120.03 2991.99,-107.95"/>
<polygon fill="black" stroke="black" points="2992.43,-111.42 3001.97,-106.83 2991.65,-104.47 2992.43,-111.42"/>
</g>
<!-- (&#39;path&#39;, &#39;rot_tunnel_con_SE3_path_contouring_vs_SE3_traj_contouring&#39;) -->
<g id="node27" class="node">
<title>(&#39;path&#39;, &#39;rot_tunnel_con_SE3_path_contouring_vs_SE3_traj_contouring&#39;)</title>
<polygon fill="none" stroke="purple" points="2780.09,-36 2258.09,-36 2258.09,0 2780.09,0 2780.09,-36"/>
<text text-anchor="middle" x="2519.09" y="-14.3" font-family="Times,serif" font-size="14.00">(&#39;path&#39;, &#39;rot_tunnel_con_SE3_path_contouring_vs_SE3_traj_contouring&#39;)</text>
</g>
<!-- rot_tunnel_con_SE3_path_contouring_vs_SE3_traj_contouring&#45;&gt;(&#39;path&#39;, &#39;rot_tunnel_con_SE3_path_contouring_vs_SE3_traj_contouring&#39;) -->
<g id="edge28" class="edge">
<title>rot_tunnel_con_SE3_path_contouring_vs_SE3_traj_contouring&#45;&gt;(&#39;path&#39;, &#39;rot_tunnel_con_SE3_path_contouring_vs_SE3_traj_contouring&#39;)</title>
<path fill="none" stroke="black" d="M2519.09,-71.7C2519.09,-63.98 2519.09,-54.71 2519.09,-46.11"/>
<polygon fill="black" stroke="black" points="2522.59,-46.1 2519.09,-36.1 2515.59,-46.1 2522.59,-46.1"/>
</g>
<!-- (&#39;path&#39;, &#39;reg_ax_ang_error_SE3_traj_contouring_vs_goal&#39;) -->
<g id="node29" class="node">
<title>(&#39;path&#39;, &#39;reg_ax_ang_error_SE3_traj_contouring_vs_goal&#39;)</title>
<polygon fill="none" stroke="purple" points="3352.59,-36 2933.59,-36 2933.59,0 3352.59,0 3352.59,-36"/>
<text text-anchor="middle" x="3143.09" y="-14.3" font-family="Times,serif" font-size="14.00">(&#39;path&#39;, &#39;reg_ax_ang_error_SE3_traj_contouring_vs_goal&#39;)</text>
</g>
<!-- reg_ax_ang_error_SE3_traj_contouring_vs_goal&#45;&gt;(&#39;path&#39;, &#39;reg_ax_ang_error_SE3_traj_contouring_vs_goal&#39;) -->
<g id="edge29" class="edge">
<title>reg_ax_ang_error_SE3_traj_contouring_vs_goal&#45;&gt;(&#39;path&#39;, &#39;reg_ax_ang_error_SE3_traj_contouring_vs_goal&#39;)</title>
<path fill="none" stroke="black" d="M3143.09,-71.7C3143.09,-63.98 3143.09,-54.71 3143.09,-46.11"/>
<polygon fill="black" stroke="black" points="3146.59,-46.1 3143.09,-36.1 3139.59,-46.1 3146.59,-46.1"/>
</g>
<!-- (&#39;path&#39;, &#39;reg_trans_error_SE3_traj_contouring_vs_goal&#39;) -->
<g id="node31" class="node">
<title>(&#39;path&#39;, &#39;reg_trans_error_SE3_traj_contouring_vs_goal&#39;)</title>
<polygon fill="none" stroke="purple" points="2159.59,-108 1752.59,-108 1752.59,-72 2159.59,-72 2159.59,-108"/>
<text text-anchor="middle" x="1956.09" y="-86.3" font-family="Times,serif" font-size="14.00">(&#39;path&#39;, &#39;reg_trans_error_SE3_traj_contouring_vs_goal&#39;)</text>
</g>
<!-- reg_trans_error_SE3_traj_contouring_vs_goal&#45;&gt;(&#39;path&#39;, &#39;reg_trans_error_SE3_traj_contouring_vs_goal&#39;) -->
<g id="edge30" class="edge">
<title>reg_trans_error_SE3_traj_contouring_vs_goal&#45;&gt;(&#39;path&#39;, &#39;reg_trans_error_SE3_traj_contouring_vs_goal&#39;)</title>
<path fill="none" stroke="black" d="M1956.09,-143.7C1956.09,-135.98 1956.09,-126.71 1956.09,-118.11"/>
<polygon fill="black" stroke="black" points="1959.59,-118.1 1956.09,-108.1 1952.59,-118.1 1959.59,-118.1"/>
</g>
<!-- (&#39;path&#39;, &#39;reg_prog_acc_contouring&#39;) -->
<g id="node33" class="node">
<title>(&#39;path&#39;, &#39;reg_prog_acc_contouring&#39;)</title>
<polygon fill="none" stroke="purple" points="2449.59,-408 2188.59,-408 2188.59,-372 2449.59,-372 2449.59,-408"/>
<text text-anchor="middle" x="2319.09" y="-386.3" font-family="Times,serif" font-size="14.00">(&#39;path&#39;, &#39;reg_prog_acc_contouring&#39;)</text>
</g>
<!-- reg_prog_acc_contouring&#45;&gt;(&#39;path&#39;, &#39;reg_prog_acc_contouring&#39;) -->
<g id="edge31" class="edge">
<title>reg_prog_acc_contouring&#45;&gt;(&#39;path&#39;, &#39;reg_prog_acc_contouring&#39;)</title>
<path fill="none" stroke="black" d="M2319.09,-451.69C2319.09,-441.89 2319.09,-429.42 2319.09,-418.33"/>
<polygon fill="black" stroke="black" points="2322.59,-418.26 2319.09,-408.26 2315.59,-418.26 2322.59,-418.26"/>
</g>
<!-- (&#39;path&#39;, &#39;reg_prog_vel_contouring&#39;) -->
<g id="node35" class="node">
<title>(&#39;path&#39;, &#39;reg_prog_vel_contouring&#39;)</title>
<polygon fill="none" stroke="purple" points="894.59,-328 635.59,-328 635.59,-292 894.59,-292 894.59,-328"/>
<text text-anchor="middle" x="765.09" y="-306.3" font-family="Times,serif" font-size="14.00">(&#39;path&#39;, &#39;reg_prog_vel_contouring&#39;)</text>
</g>
<!-- reg_prog_vel_contouring&#45;&gt;(&#39;path&#39;, &#39;reg_prog_vel_contouring&#39;) -->
<g id="edge32" class="edge">
<title>reg_prog_vel_contouring&#45;&gt;(&#39;path&#39;, &#39;reg_prog_vel_contouring&#39;)</title>
<path fill="none" stroke="black" d="M778.32,-371.69C776.19,-361.89 773.47,-349.42 771.05,-338.33"/>
<polygon fill="black" stroke="black" points="774.41,-337.29 768.86,-328.26 767.57,-338.78 774.41,-337.29"/>
</g>
<!-- (&#39;path&#39;, &#39;reg_prog_var_contouring&#39;) -->
<g id="node37" class="node">
<title>(&#39;path&#39;, &#39;reg_prog_var_contouring&#39;)</title>
<polygon fill="none" stroke="purple" points="1392.59,-252 1131.59,-252 1131.59,-216 1392.59,-216 1392.59,-252"/>
<text text-anchor="middle" x="1262.09" y="-230.3" font-family="Times,serif" font-size="14.00">(&#39;path&#39;, &#39;reg_prog_var_contouring&#39;)</text>
</g>
<!-- reg_prog_var_contouring&#45;&gt;(&#39;path&#39;, &#39;reg_prog_var_contouring&#39;) -->
<g id="edge33" class="edge">
<title>reg_prog_var_contouring&#45;&gt;(&#39;path&#39;, &#39;reg_prog_var_contouring&#39;)</title>
<path fill="none" stroke="black" d="M1368.86,-291.84C1349.29,-281.42 1324.14,-268.03 1303.16,-256.87"/>
<polygon fill="black" stroke="black" points="1304.63,-253.68 1294.16,-252.07 1301.34,-259.86 1304.63,-253.68"/>
</g>
<!-- (&#39;terminal&#39;, &#39;terminal_prog_var_contouring&#39;) -->
<g id="node39" class="node">
<title>(&#39;terminal&#39;, &#39;terminal_prog_var_contouring&#39;)</title>
<polygon fill="none" stroke="purple" points="1737.09,-252 1411.09,-252 1411.09,-216 1737.09,-216 1737.09,-252"/>
<text text-anchor="middle" x="1574.09" y="-230.3" font-family="Times,serif" font-size="14.00">(&#39;terminal&#39;, &#39;terminal_prog_var_contouring&#39;)</text>
</g>
<!-- terminal_prog_var_contouring&#45;&gt;(&#39;terminal&#39;, &#39;terminal_prog_var_contouring&#39;) -->
<g id="edge34" class="edge">
<title>terminal_prog_var_contouring&#45;&gt;(&#39;terminal&#39;, &#39;terminal_prog_var_contouring&#39;)</title>
<path fill="none" stroke="black" d="M1700.06,-291.84C1676.56,-281.24 1646.23,-267.55 1621.22,-256.27"/>
<polygon fill="black" stroke="black" points="1622.48,-252.99 1611.92,-252.07 1619.6,-259.37 1622.48,-252.99"/>
</g>
<!-- (&#39;terminal&#39;, &#39;terminal_prog_vel_contouring&#39;) -->
<g id="node41" class="node">
<title>(&#39;terminal&#39;, &#39;terminal_prog_vel_contouring&#39;)</title>
<polygon fill="none" stroke="purple" points="1237.09,-328 913.09,-328 913.09,-292 1237.09,-292 1237.09,-328"/>
<text text-anchor="middle" x="1075.09" y="-306.3" font-family="Times,serif" font-size="14.00">(&#39;terminal&#39;, &#39;terminal_prog_vel_contouring&#39;)</text>
</g>
<!-- terminal_prog_vel_contouring&#45;&gt;(&#39;terminal&#39;, &#39;terminal_prog_vel_contouring&#39;) -->
<g id="edge35" class="edge">
<title>terminal_prog_vel_contouring&#45;&gt;(&#39;terminal&#39;, &#39;terminal_prog_vel_contouring&#39;)</title>
<path fill="none" stroke="black" d="M1106.99,-371.69C1101.69,-361.59 1094.88,-348.65 1088.92,-337.31"/>
<polygon fill="black" stroke="black" points="1091.92,-335.49 1084.17,-328.26 1085.72,-338.74 1091.92,-335.49"/>
</g>
</g>
</svg>
