<?xml version="1.0" encoding="UTF-8" standalone="no"?>
<!DOCTYPE svg PUBLIC "-//W3C//DTD SVG 1.1//EN"
 "http://www.w3.org/Graphics/SVG/1.1/DTD/svg11.dtd">
<!-- Generated by graphviz version 2.43.0 (0)
 -->
<!-- Title: %3 Pages: 1 -->
<svg width="4042pt" height="572pt"
 viewBox="0.00 0.00 4041.71 572.00" xmlns="http://www.w3.org/2000/svg" xmlns:xlink="http://www.w3.org/1999/xlink">
<g id="graph0" class="graph" transform="scale(1 1) rotate(0) translate(4 568)">
<title>%3</title>
<polygon fill="white" stroke="transparent" points="-4,4 -4,-568 4037.71,-568 4037.71,4 -4,4"/>
<!-- prog_var_contouring -->
<g id="node1" class="node">
<title>prog_var_contouring</title>
<polygon fill="none" stroke="green" points="2410.48,-374.54 2410.48,-389.46 2342.97,-400 2247.49,-400 2179.98,-389.46 2179.98,-374.54 2247.49,-364 2342.97,-364 2410.48,-374.54"/>
<polygon fill="none" stroke="green" points="2414.48,-371.12 2414.48,-392.88 2343.28,-404 2247.18,-404 2175.99,-392.88 2175.99,-371.12 2247.18,-360 2343.28,-360 2414.48,-371.12"/>
<text text-anchor="middle" x="2295.23" y="-378.3" font-family="Times,serif" font-size="14.00">prog_var_contouring</text>
</g>
<!-- init_prog_var_contouring -->
<g id="node8" class="node">
<title>init_prog_var_contouring</title>
<polygon fill="none" stroke="magenta" points="2440.92,-306 2368.08,-324 2222.39,-324 2149.54,-306 2222.39,-288 2368.08,-288 2440.92,-306"/>
<text text-anchor="middle" x="2295.23" y="-302.3" font-family="Times,serif" font-size="14.00">init_prog_var_contouring</text>
</g>
<!-- prog_var_contouring&#45;&gt;init_prog_var_contouring -->
<g id="edge1" class="edge">
<title>prog_var_contouring&#45;&gt;init_prog_var_contouring</title>
<path fill="none" stroke="black" d="M2295.23,-359.99C2295.23,-352.06 2295.23,-342.91 2295.23,-334.48"/>
<polygon fill="black" stroke="black" points="2298.73,-334.31 2295.23,-324.31 2291.73,-334.31 2298.73,-334.31"/>
</g>
<!-- limits_prog_var_contouring -->
<g id="node12" class="node">
<title>limits_prog_var_contouring</title>
<polygon fill="none" stroke="magenta" points="2775.44,-306 2696.33,-324 2538.13,-324 2459.02,-306 2538.13,-288 2696.33,-288 2775.44,-306"/>
<text text-anchor="middle" x="2617.23" y="-302.3" font-family="Times,serif" font-size="14.00">limits_prog_var_contouring</text>
</g>
<!-- prog_var_contouring&#45;&gt;limits_prog_var_contouring -->
<g id="edge2" class="edge">
<title>prog_var_contouring&#45;&gt;limits_prog_var_contouring</title>
<path fill="none" stroke="black" d="M2369.1,-364.02C2418.02,-352.78 2482.28,-338.01 2533.16,-326.32"/>
<polygon fill="black" stroke="black" points="2534.18,-329.68 2543.14,-324.03 2532.61,-322.85 2534.18,-329.68"/>
</g>
<!-- SE3_path_contouring -->
<g id="node18" class="node">
<title>SE3_path_contouring</title>
<ellipse fill="none" stroke="green" cx="2022.23" cy="-306" rx="109.68" ry="18"/>
<text text-anchor="middle" x="2022.23" y="-302.3" font-family="Times,serif" font-size="14.00">SE3_path_contouring</text>
</g>
<!-- prog_var_contouring&#45;&gt;SE3_path_contouring -->
<g id="edge3" class="edge">
<title>prog_var_contouring&#45;&gt;SE3_path_contouring</title>
<path fill="none" stroke="black" d="M2228.45,-362.9C2185.1,-351.15 2128.93,-335.92 2086.16,-324.33"/>
<polygon fill="black" stroke="black" points="2086.99,-320.93 2076.42,-321.69 2085.16,-327.68 2086.99,-320.93"/>
</g>
<!-- reg_prog_var_contouring -->
<g id="node35" class="node">
<title>reg_prog_var_contouring</title>
<polygon fill="none" stroke="magenta" points="3084.92,-306 3012.08,-324 2866.39,-324 2793.54,-306 2866.39,-288 3012.08,-288 3084.92,-306"/>
<text text-anchor="middle" x="2939.23" y="-302.3" font-family="Times,serif" font-size="14.00">reg_prog_var_contouring</text>
</g>
<!-- prog_var_contouring&#45;&gt;reg_prog_var_contouring -->
<g id="edge4" class="edge">
<title>prog_var_contouring&#45;&gt;reg_prog_var_contouring</title>
<path fill="none" stroke="black" d="M2381.88,-366.02C2395.69,-363.86 2409.83,-361.77 2423.23,-360 2583.09,-338.94 2623.87,-340.79 2784.23,-324 2799.36,-322.42 2815.31,-320.71 2831,-319.01"/>
<polygon fill="black" stroke="black" points="2831.7,-322.45 2841.27,-317.89 2830.95,-315.49 2831.7,-322.45"/>
</g>
<!-- terminal_prog_var_contouring -->
<g id="node37" class="node">
<title>terminal_prog_var_contouring</title>
<polygon fill="none" stroke="magenta" points="3449.46,-306 3362.84,-324 3189.62,-324 3103,-306 3189.62,-288 3362.84,-288 3449.46,-306"/>
<text text-anchor="middle" x="3276.23" y="-302.3" font-family="Times,serif" font-size="14.00">terminal_prog_var_contouring</text>
</g>
<!-- prog_var_contouring&#45;&gt;terminal_prog_var_contouring -->
<g id="edge5" class="edge">
<title>prog_var_contouring&#45;&gt;terminal_prog_var_contouring</title>
<path fill="none" stroke="black" d="M2380.09,-365.75C2394.45,-363.55 2409.24,-361.52 2423.23,-360 2720.14,-327.78 2796.38,-345.89 3094.23,-324 3112.96,-322.62 3132.76,-320.97 3152.13,-319.25"/>
<polygon fill="black" stroke="black" points="3152.57,-322.73 3162.21,-318.35 3151.94,-315.76 3152.57,-322.73"/>
</g>
<!-- prog_vel_contouring -->
<g id="node2" class="node">
<title>prog_vel_contouring</title>
<polygon fill="none" stroke="green" points="1762.26,-454.54 1762.26,-469.46 1696.05,-480 1602.41,-480 1536.2,-469.46 1536.2,-454.54 1602.41,-444 1696.05,-444 1762.26,-454.54"/>
<polygon fill="none" stroke="green" points="1766.26,-451.13 1766.26,-472.87 1696.37,-484 1602.1,-484 1532.21,-472.87 1532.21,-451.13 1602.1,-440 1696.37,-440 1766.26,-451.13"/>
<text text-anchor="middle" x="1649.23" y="-458.3" font-family="Times,serif" font-size="14.00">prog_vel_contouring</text>
</g>
<!-- prog_vel_contouring&#45;&gt;prog_var_contouring -->
<g id="edge37" class="edge">
<title>prog_vel_contouring&#45;&gt;prog_var_contouring</title>
<path fill="none" stroke="black" stroke-dasharray="5,2" d="M1751.23,-448.68C1868.47,-434.53 2060.32,-411.36 2182.06,-396.66"/>
<polygon fill="black" stroke="black" points="2182.65,-400.12 2192.16,-395.44 2181.81,-393.17 2182.65,-400.12"/>
</g>
<!-- init_prog_vel_contouring -->
<g id="node10" class="node">
<title>init_prog_vel_contouring</title>
<polygon fill="none" stroke="magenta" points="988.42,-382 916.32,-400 772.14,-400 700.04,-382 772.14,-364 916.32,-364 988.42,-382"/>
<text text-anchor="middle" x="844.23" y="-378.3" font-family="Times,serif" font-size="14.00">init_prog_vel_contouring</text>
</g>
<!-- prog_vel_contouring&#45;&gt;init_prog_vel_contouring -->
<g id="edge6" class="edge">
<title>prog_vel_contouring&#45;&gt;init_prog_vel_contouring</title>
<path fill="none" stroke="black" d="M1532.16,-452.51C1401.53,-442.63 1183.97,-424.96 997.23,-404 979.7,-402.03 961.06,-399.69 943.06,-397.29"/>
<polygon fill="black" stroke="black" points="943.51,-393.82 933.13,-395.96 942.58,-400.76 943.51,-393.82"/>
</g>
<!-- limits_prog_vel_contouring -->
<g id="node14" class="node">
<title>limits_prog_vel_contouring</title>
<polygon fill="none" stroke="magenta" points="1319.94,-382 1241.58,-400 1084.88,-400 1006.53,-382 1084.88,-364 1241.58,-364 1319.94,-382"/>
<text text-anchor="middle" x="1163.23" y="-378.3" font-family="Times,serif" font-size="14.00">limits_prog_vel_contouring</text>
</g>
<!-- prog_vel_contouring&#45;&gt;limits_prog_vel_contouring -->
<g id="edge7" class="edge">
<title>prog_vel_contouring&#45;&gt;limits_prog_vel_contouring</title>
<path fill="none" stroke="black" d="M1559.81,-446.65C1475.73,-433.15 1350.09,-412.99 1262.84,-398.99"/>
<polygon fill="black" stroke="black" points="1263.36,-395.53 1252.93,-397.4 1262.25,-402.44 1263.36,-395.53"/>
</g>
<!-- reg_prog_vel_contouring -->
<g id="node33" class="node">
<title>reg_prog_vel_contouring</title>
<polygon fill="none" stroke="magenta" points="1626.42,-382 1554.32,-400 1410.14,-400 1338.04,-382 1410.14,-364 1554.32,-364 1626.42,-382"/>
<text text-anchor="middle" x="1482.23" y="-378.3" font-family="Times,serif" font-size="14.00">reg_prog_vel_contouring</text>
</g>
<!-- prog_vel_contouring&#45;&gt;reg_prog_vel_contouring -->
<g id="edge8" class="edge">
<title>prog_vel_contouring&#45;&gt;reg_prog_vel_contouring</title>
<path fill="none" stroke="black" d="M1604.04,-439.89C1580.42,-428.86 1551.57,-415.39 1527.88,-404.32"/>
<polygon fill="black" stroke="black" points="1529.29,-401.12 1518.75,-400.06 1526.33,-407.46 1529.29,-401.12"/>
</g>
<!-- terminal_prog_vel_contouring -->
<g id="node39" class="node">
<title>terminal_prog_vel_contouring</title>
<polygon fill="none" stroke="magenta" points="1987.95,-382 1902.09,-400 1730.37,-400 1644.51,-382 1730.37,-364 1902.09,-364 1987.95,-382"/>
<text text-anchor="middle" x="1816.23" y="-378.3" font-family="Times,serif" font-size="14.00">terminal_prog_vel_contouring</text>
</g>
<!-- prog_vel_contouring&#45;&gt;terminal_prog_vel_contouring -->
<g id="edge9" class="edge">
<title>prog_vel_contouring&#45;&gt;terminal_prog_vel_contouring</title>
<path fill="none" stroke="black" d="M1694.42,-439.89C1718.05,-428.86 1746.89,-415.39 1770.58,-404.32"/>
<polygon fill="black" stroke="black" points="1772.14,-407.46 1779.71,-400.06 1769.17,-401.12 1772.14,-407.46"/>
</g>
<!-- prog_acc_contouring -->
<g id="node3" class="node">
<title>prog_acc_contouring</title>
<polygon fill="none" stroke="cyan" points="2669.48,-534.54 2669.48,-549.46 2601.97,-560 2506.49,-560 2438.98,-549.46 2438.98,-534.54 2506.49,-524 2601.97,-524 2669.48,-534.54"/>
<polygon fill="none" stroke="cyan" points="2673.48,-531.12 2673.48,-552.88 2602.28,-564 2506.18,-564 2434.99,-552.88 2434.99,-531.12 2506.18,-520 2602.28,-520 2673.48,-531.12"/>
<text text-anchor="middle" x="2554.23" y="-538.3" font-family="Times,serif" font-size="14.00">prog_acc_contouring</text>
</g>
<!-- prog_acc_contouring&#45;&gt;prog_vel_contouring -->
<g id="edge38" class="edge">
<title>prog_acc_contouring&#45;&gt;prog_vel_contouring</title>
<path fill="none" stroke="black" stroke-dasharray="5,2" d="M2436.38,-530.84C2265.69,-516.13 1950.96,-489.01 1775.61,-473.89"/>
<polygon fill="black" stroke="black" points="1775.82,-470.4 1765.56,-473.03 1775.22,-477.37 1775.82,-470.4"/>
</g>
<!-- limits_prog_acc_contouring -->
<g id="node16" class="node">
<title>limits_prog_acc_contouring</title>
<polygon fill="none" stroke="magenta" points="2712.44,-462 2633.33,-480 2475.13,-480 2396.02,-462 2475.13,-444 2633.33,-444 2712.44,-462"/>
<text text-anchor="middle" x="2554.23" y="-458.3" font-family="Times,serif" font-size="14.00">limits_prog_acc_contouring</text>
</g>
<!-- prog_acc_contouring&#45;&gt;limits_prog_acc_contouring -->
<g id="edge10" class="edge">
<title>prog_acc_contouring&#45;&gt;limits_prog_acc_contouring</title>
<path fill="none" stroke="black" d="M2554.23,-519.69C2554.23,-510.64 2554.23,-499.99 2554.23,-490.37"/>
<polygon fill="black" stroke="black" points="2557.73,-490.09 2554.23,-480.09 2550.73,-490.09 2557.73,-490.09"/>
</g>
<!-- reg_prog_acc_contouring -->
<g id="node31" class="node">
<title>reg_prog_acc_contouring</title>
<polygon fill="none" stroke="magenta" points="3021.92,-462 2949.08,-480 2803.39,-480 2730.54,-462 2803.39,-444 2949.08,-444 3021.92,-462"/>
<text text-anchor="middle" x="2876.23" y="-458.3" font-family="Times,serif" font-size="14.00">reg_prog_acc_contouring</text>
</g>
<!-- prog_acc_contouring&#45;&gt;reg_prog_acc_contouring -->
<g id="edge11" class="edge">
<title>prog_acc_contouring&#45;&gt;reg_prog_acc_contouring</title>
<path fill="none" stroke="black" d="M2626.09,-523.59C2676.5,-511.38 2743.94,-495.05 2796.09,-482.41"/>
<polygon fill="black" stroke="black" points="2797.08,-485.78 2805.97,-480.02 2795.43,-478.97 2797.08,-485.78"/>
</g>
<!-- rot_tunnel_L1penalty_contouring -->
<g id="node4" class="node">
<title>rot_tunnel_L1penalty_contouring</title>
<polygon fill="none" stroke="red" points="3050.3,-534.54 3050.3,-549.46 2946.57,-560 2799.89,-560 2696.17,-549.46 2696.17,-534.54 2799.89,-524 2946.57,-524 3050.3,-534.54"/>
<polygon fill="none" stroke="red" points="3054.29,-530.93 3054.29,-553.07 2946.78,-564 2799.69,-564 2692.17,-553.07 2692.17,-530.93 2799.69,-520 2946.78,-520 3054.29,-530.93"/>
<text text-anchor="middle" x="2873.23" y="-538.3" font-family="Times,serif" font-size="14.00">rot_tunnel_L1penalty_contouring</text>
</g>
<!-- trans_tunnel_L1penalty_contouring -->
<g id="node5" class="node">
<title>trans_tunnel_L1penalty_contouring</title>
<polygon fill="none" stroke="red" points="3455.7,-534.54 3455.7,-549.46 3344.71,-560 3187.75,-560 3076.76,-549.46 3076.76,-534.54 3187.75,-524 3344.71,-524 3455.7,-534.54"/>
<polygon fill="none" stroke="red" points="3459.71,-530.91 3459.71,-553.09 3344.9,-564 3187.56,-564 3072.75,-553.09 3072.75,-530.91 3187.56,-520 3344.9,-520 3459.71,-530.91"/>
<text text-anchor="middle" x="3266.23" y="-538.3" font-family="Times,serif" font-size="14.00">trans_tunnel_L1penalty_contouring</text>
</g>
<!-- rot_weight_contouring -->
<g id="node6" class="node">
<title>rot_weight_contouring</title>
<polygon fill="none" stroke="red" points="3730.77,-534.54 3730.77,-549.46 3657.82,-560 3554.65,-560 3481.69,-549.46 3481.69,-534.54 3554.65,-524 3657.82,-524 3730.77,-534.54"/>
<polygon fill="none" stroke="red" points="3734.77,-531.08 3734.77,-552.92 3658.1,-564 3554.36,-564 3477.69,-552.92 3477.69,-531.08 3554.36,-520 3658.1,-520 3734.77,-531.08"/>
<text text-anchor="middle" x="3606.23" y="-538.3" font-family="Times,serif" font-size="14.00">rot_weight_contouring</text>
</g>
<!-- trans_weight_contouring -->
<g id="node7" class="node">
<title>trans_weight_contouring</title>
<polygon fill="none" stroke="red" points="4029.69,-534.54 4029.69,-549.46 3949.75,-560 3836.71,-560 3756.77,-549.46 3756.77,-534.54 3836.71,-524 3949.75,-524 4029.69,-534.54"/>
<polygon fill="none" stroke="red" points="4033.69,-531.04 4033.69,-552.96 3950.02,-564 3836.45,-564 3752.78,-552.96 3752.78,-531.04 3836.45,-520 3950.02,-520 4033.69,-531.04"/>
<text text-anchor="middle" x="3893.23" y="-538.3" font-family="Times,serif" font-size="14.00">trans_weight_contouring</text>
</g>
<!-- (&#39;initial&#39;, &#39;init_prog_var_contouring&#39;) -->
<g id="node9" class="node">
<title>(&#39;initial&#39;, &#39;init_prog_var_contouring&#39;)</title>
<polygon fill="none" stroke="purple" points="2430.23,-252 2160.23,-252 2160.23,-216 2430.23,-216 2430.23,-252"/>
<text text-anchor="middle" x="2295.23" y="-230.3" font-family="Times,serif" font-size="14.00">(&#39;initial&#39;, &#39;init_prog_var_contouring&#39;)</text>
</g>
<!-- init_prog_var_contouring&#45;&gt;(&#39;initial&#39;, &#39;init_prog_var_contouring&#39;) -->
<g id="edge12" class="edge">
<title>init_prog_var_contouring&#45;&gt;(&#39;initial&#39;, &#39;init_prog_var_contouring&#39;)</title>
<path fill="none" stroke="black" d="M2295.23,-287.7C2295.23,-279.98 2295.23,-270.71 2295.23,-262.11"/>
<polygon fill="black" stroke="black" points="2298.73,-262.1 2295.23,-252.1 2291.73,-262.1 2298.73,-262.1"/>
</g>
<!-- (&#39;initial&#39;, &#39;init_prog_vel_contouring&#39;) -->
<g id="node11" class="node">
<title>(&#39;initial&#39;, &#39;init_prog_vel_contouring&#39;)</title>
<polygon fill="none" stroke="purple" points="981.23,-324 713.23,-324 713.23,-288 981.23,-288 981.23,-324"/>
<text text-anchor="middle" x="847.23" y="-302.3" font-family="Times,serif" font-size="14.00">(&#39;initial&#39;, &#39;init_prog_vel_contouring&#39;)</text>
</g>
<!-- init_prog_vel_contouring&#45;&gt;(&#39;initial&#39;, &#39;init_prog_vel_contouring&#39;) -->
<g id="edge13" class="edge">
<title>init_prog_vel_contouring&#45;&gt;(&#39;initial&#39;, &#39;init_prog_vel_contouring&#39;)</title>
<path fill="none" stroke="black" d="M844.93,-363.84C845.28,-355.06 845.72,-344.16 846.13,-334.27"/>
<polygon fill="black" stroke="black" points="849.63,-334.2 846.54,-324.07 842.64,-333.92 849.63,-334.2"/>
</g>
<!-- (&#39;path&#39;, &#39;limits_prog_var_contouring&#39;) -->
<g id="node13" class="node">
<title>(&#39;path&#39;, &#39;limits_prog_var_contouring&#39;)</title>
<polygon fill="none" stroke="purple" points="2756.23,-252 2478.23,-252 2478.23,-216 2756.23,-216 2756.23,-252"/>
<text text-anchor="middle" x="2617.23" y="-230.3" font-family="Times,serif" font-size="14.00">(&#39;path&#39;, &#39;limits_prog_var_contouring&#39;)</text>
</g>
<!-- limits_prog_var_contouring&#45;&gt;(&#39;path&#39;, &#39;limits_prog_var_contouring&#39;) -->
<g id="edge14" class="edge">
<title>limits_prog_var_contouring&#45;&gt;(&#39;path&#39;, &#39;limits_prog_var_contouring&#39;)</title>
<path fill="none" stroke="black" d="M2617.23,-287.7C2617.23,-279.98 2617.23,-270.71 2617.23,-262.11"/>
<polygon fill="black" stroke="black" points="2620.73,-262.1 2617.23,-252.1 2613.73,-262.1 2620.73,-262.1"/>
</g>
<!-- (&#39;path&#39;, &#39;limits_prog_vel_contouring&#39;) -->
<g id="node15" class="node">
<title>(&#39;path&#39;, &#39;limits_prog_vel_contouring&#39;)</title>
<polygon fill="none" stroke="purple" points="1274.73,-324 999.73,-324 999.73,-288 1274.73,-288 1274.73,-324"/>
<text text-anchor="middle" x="1137.23" y="-302.3" font-family="Times,serif" font-size="14.00">(&#39;path&#39;, &#39;limits_prog_vel_contouring&#39;)</text>
</g>
<!-- limits_prog_vel_contouring&#45;&gt;(&#39;path&#39;, &#39;limits_prog_vel_contouring&#39;) -->
<g id="edge15" class="edge">
<title>limits_prog_vel_contouring&#45;&gt;(&#39;path&#39;, &#39;limits_prog_vel_contouring&#39;)</title>
<path fill="none" stroke="black" d="M1157.2,-363.84C1154.05,-354.87 1150.12,-343.7 1146.59,-333.64"/>
<polygon fill="black" stroke="black" points="1149.85,-332.34 1143.23,-324.07 1143.24,-334.66 1149.85,-332.34"/>
</g>
<!-- (&#39;path&#39;, &#39;limits_prog_acc_contouring&#39;) -->
<g id="node17" class="node">
<title>(&#39;path&#39;, &#39;limits_prog_acc_contouring&#39;)</title>
<polygon fill="none" stroke="purple" points="2710.23,-400 2432.23,-400 2432.23,-364 2710.23,-364 2710.23,-400"/>
<text text-anchor="middle" x="2571.23" y="-378.3" font-family="Times,serif" font-size="14.00">(&#39;path&#39;, &#39;limits_prog_acc_contouring&#39;)</text>
</g>
<!-- limits_prog_acc_contouring&#45;&gt;(&#39;path&#39;, &#39;limits_prog_acc_contouring&#39;) -->
<g id="edge16" class="edge">
<title>limits_prog_acc_contouring&#45;&gt;(&#39;path&#39;, &#39;limits_prog_acc_contouring&#39;)</title>
<path fill="none" stroke="black" d="M2558,-443.69C2560.14,-433.89 2562.86,-421.42 2565.27,-410.33"/>
<polygon fill="black" stroke="black" points="2568.76,-410.78 2567.47,-400.26 2561.92,-409.29 2568.76,-410.78"/>
</g>
<!-- trans_error_SE3_traj_contouring_vs_goal -->
<g id="node19" class="node">
<title>trans_error_SE3_traj_contouring_vs_goal</title>
<ellipse fill="none" stroke="green" cx="681.23" cy="-234" rx="200.66" ry="18"/>
<text text-anchor="middle" x="681.23" y="-230.3" font-family="Times,serif" font-size="14.00">trans_error_SE3_traj_contouring_vs_goal</text>
</g>
<!-- SE3_path_contouring&#45;&gt;trans_error_SE3_traj_contouring_vs_goal -->
<g id="edge17" class="edge">
<title>SE3_path_contouring&#45;&gt;trans_error_SE3_traj_contouring_vs_goal</title>
<path fill="none" stroke="black" d="M1946.18,-293C1931.94,-291.07 1917.15,-289.29 1903.23,-288 1547.52,-254.96 1131.6,-242.46 888.22,-237.77"/>
<polygon fill="black" stroke="black" points="888.27,-234.27 878.2,-237.58 888.13,-241.27 888.27,-234.27"/>
</g>
<!-- rotmat_error_SE3_traj_contouring_vs_goal -->
<g id="node23" class="node">
<title>rotmat_error_SE3_traj_contouring_vs_goal</title>
<ellipse fill="none" stroke="green" cx="1808.23" cy="-234" rx="207.96" ry="18"/>
<text text-anchor="middle" x="1808.23" y="-230.3" font-family="Times,serif" font-size="14.00">rotmat_error_SE3_traj_contouring_vs_goal</text>
</g>
<!-- SE3_path_contouring&#45;&gt;rotmat_error_SE3_traj_contouring_vs_goal -->
<g id="edge18" class="edge">
<title>SE3_path_contouring&#45;&gt;rotmat_error_SE3_traj_contouring_vs_goal</title>
<path fill="none" stroke="black" d="M1975.27,-289.64C1943.91,-279.38 1902.39,-265.8 1868.59,-254.74"/>
<polygon fill="black" stroke="black" points="1869.41,-251.33 1858.82,-251.55 1867.23,-257.98 1869.41,-251.33"/>
</g>
<!-- sqrt_trans_error_SE3_traj_contouring_vs_goal -->
<g id="node20" class="node">
<title>sqrt_trans_error_SE3_traj_contouring_vs_goal</title>
<ellipse fill="none" stroke="green" cx="393.23" cy="-162" rx="224.46" ry="18"/>
<text text-anchor="middle" x="393.23" y="-158.3" font-family="Times,serif" font-size="14.00">sqrt_trans_error_SE3_traj_contouring_vs_goal</text>
</g>
<!-- trans_error_SE3_traj_contouring_vs_goal&#45;&gt;sqrt_trans_error_SE3_traj_contouring_vs_goal -->
<g id="edge19" class="edge">
<title>trans_error_SE3_traj_contouring_vs_goal&#45;&gt;sqrt_trans_error_SE3_traj_contouring_vs_goal</title>
<path fill="none" stroke="black" d="M615.16,-216.94C571.84,-206.41 515.05,-192.61 469.77,-181.6"/>
<polygon fill="black" stroke="black" points="470.54,-178.19 459.99,-179.23 468.88,-184.99 470.54,-178.19"/>
</g>
<!-- reg_trans_error_SE3_traj_contouring_vs_goal -->
<g id="node29" class="node">
<title>reg_trans_error_SE3_traj_contouring_vs_goal</title>
<polygon fill="none" stroke="magenta" points="1165.56,-162 1037.9,-180 782.56,-180 654.9,-162 782.56,-144 1037.9,-144 1165.56,-162"/>
<text text-anchor="middle" x="910.23" y="-158.3" font-family="Times,serif" font-size="14.00">reg_trans_error_SE3_traj_contouring_vs_goal</text>
</g>
<!-- trans_error_SE3_traj_contouring_vs_goal&#45;&gt;reg_trans_error_SE3_traj_contouring_vs_goal -->
<g id="edge20" class="edge">
<title>trans_error_SE3_traj_contouring_vs_goal&#45;&gt;reg_trans_error_SE3_traj_contouring_vs_goal</title>
<path fill="none" stroke="black" d="M734.92,-216.59C767.79,-206.54 810.07,-193.62 844.88,-182.98"/>
<polygon fill="black" stroke="black" points="845.95,-186.31 854.49,-180.04 843.9,-179.62 845.95,-186.31"/>
</g>
<!-- trans_tunnel_con_SE3_path_contouring_vs_SE3_traj_contouring -->
<g id="node21" class="node">
<title>trans_tunnel_con_SE3_path_contouring_vs_SE3_traj_contouring</title>
<polygon fill="none" stroke="magenta" points="708.69,-90 531.46,-108 177,-108 -0.23,-90 177,-72 531.46,-72 708.69,-90"/>
<text text-anchor="middle" x="354.23" y="-86.3" font-family="Times,serif" font-size="14.00">trans_tunnel_con_SE3_path_contouring_vs_SE3_traj_contouring</text>
</g>
<!-- sqrt_trans_error_SE3_traj_contouring_vs_goal&#45;&gt;trans_tunnel_con_SE3_path_contouring_vs_SE3_traj_contouring -->
<g id="edge21" class="edge">
<title>sqrt_trans_error_SE3_traj_contouring_vs_goal&#45;&gt;trans_tunnel_con_SE3_path_contouring_vs_SE3_traj_contouring</title>
<path fill="none" stroke="black" d="M383.59,-143.7C379.1,-135.64 373.67,-125.89 368.71,-116.98"/>
<polygon fill="black" stroke="black" points="371.68,-115.14 363.76,-108.1 365.57,-118.54 371.68,-115.14"/>
</g>
<!-- (&#39;path&#39;, &#39;trans_tunnel_con_SE3_path_contouring_vs_SE3_traj_contouring&#39;) -->
<g id="node22" class="node">
<title>(&#39;path&#39;, &#39;trans_tunnel_con_SE3_path_contouring_vs_SE3_traj_contouring&#39;)</title>
<polygon fill="none" stroke="purple" points="623.73,-36 84.73,-36 84.73,0 623.73,0 623.73,-36"/>
<text text-anchor="middle" x="354.23" y="-14.3" font-family="Times,serif" font-size="14.00">(&#39;path&#39;, &#39;trans_tunnel_con_SE3_path_contouring_vs_SE3_traj_contouring&#39;)</text>
</g>
<!-- trans_tunnel_con_SE3_path_contouring_vs_SE3_traj_contouring&#45;&gt;(&#39;path&#39;, &#39;trans_tunnel_con_SE3_path_contouring_vs_SE3_traj_contouring&#39;) -->
<g id="edge22" class="edge">
<title>trans_tunnel_con_SE3_path_contouring_vs_SE3_traj_contouring&#45;&gt;(&#39;path&#39;, &#39;trans_tunnel_con_SE3_path_contouring_vs_SE3_traj_contouring&#39;)</title>
<path fill="none" stroke="black" d="M354.23,-71.7C354.23,-63.98 354.23,-54.71 354.23,-46.11"/>
<polygon fill="black" stroke="black" points="357.73,-46.1 354.23,-36.1 350.73,-46.1 357.73,-46.1"/>
</g>
<!-- ax_ang_error_SE3_traj_contouring_vs_goal -->
<g id="node24" class="node">
<title>ax_ang_error_SE3_traj_contouring_vs_goal</title>
<ellipse fill="none" stroke="green" cx="1808.23" cy="-162" rx="208.76" ry="18"/>
<text text-anchor="middle" x="1808.23" y="-158.3" font-family="Times,serif" font-size="14.00">ax_ang_error_SE3_traj_contouring_vs_goal</text>
</g>
<!-- rotmat_error_SE3_traj_contouring_vs_goal&#45;&gt;ax_ang_error_SE3_traj_contouring_vs_goal -->
<g id="edge23" class="edge">
<title>rotmat_error_SE3_traj_contouring_vs_goal&#45;&gt;ax_ang_error_SE3_traj_contouring_vs_goal</title>
<path fill="none" stroke="black" d="M1808.23,-215.7C1808.23,-207.98 1808.23,-198.71 1808.23,-190.11"/>
<polygon fill="black" stroke="black" points="1811.73,-190.1 1808.23,-180.1 1804.73,-190.1 1811.73,-190.1"/>
</g>
<!-- rot_tunnel_con_SE3_path_contouring_vs_SE3_traj_contouring -->
<g id="node25" class="node">
<title>rot_tunnel_con_SE3_path_contouring_vs_SE3_traj_contouring</title>
<polygon fill="none" stroke="magenta" points="2086.68,-90 1915.95,-108 1574.51,-108 1403.79,-90 1574.51,-72 1915.95,-72 2086.68,-90"/>
<text text-anchor="middle" x="1745.23" y="-86.3" font-family="Times,serif" font-size="14.00">rot_tunnel_con_SE3_path_contouring_vs_SE3_traj_contouring</text>
</g>
<!-- ax_ang_error_SE3_traj_contouring_vs_goal&#45;&gt;rot_tunnel_con_SE3_path_contouring_vs_SE3_traj_contouring -->
<g id="edge24" class="edge">
<title>ax_ang_error_SE3_traj_contouring_vs_goal&#45;&gt;rot_tunnel_con_SE3_path_contouring_vs_SE3_traj_contouring</title>
<path fill="none" stroke="black" d="M1792.66,-143.7C1785.03,-135.22 1775.71,-124.86 1767.36,-115.58"/>
<polygon fill="black" stroke="black" points="1769.92,-113.2 1760.62,-108.1 1764.71,-117.88 1769.92,-113.2"/>
</g>
<!-- reg_ax_ang_error_SE3_traj_contouring_vs_goal -->
<g id="node27" class="node">
<title>reg_ax_ang_error_SE3_traj_contouring_vs_goal</title>
<polygon fill="none" stroke="magenta" points="2633.57,-90 2501.4,-108 2237.06,-108 2104.89,-90 2237.06,-72 2501.4,-72 2633.57,-90"/>
<text text-anchor="middle" x="2369.23" y="-86.3" font-family="Times,serif" font-size="14.00">reg_ax_ang_error_SE3_traj_contouring_vs_goal</text>
</g>
<!-- ax_ang_error_SE3_traj_contouring_vs_goal&#45;&gt;reg_ax_ang_error_SE3_traj_contouring_vs_goal -->
<g id="edge25" class="edge">
<title>ax_ang_error_SE3_traj_contouring_vs_goal&#45;&gt;reg_ax_ang_error_SE3_traj_contouring_vs_goal</title>
<path fill="none" stroke="black" d="M1921.42,-146.88C2008.81,-135.97 2130.36,-120.81 2224.77,-109.03"/>
<polygon fill="black" stroke="black" points="2225.49,-112.46 2234.98,-107.75 2224.62,-105.52 2225.49,-112.46"/>
</g>
<!-- (&#39;path&#39;, &#39;rot_tunnel_con_SE3_path_contouring_vs_SE3_traj_contouring&#39;) -->
<g id="node26" class="node">
<title>(&#39;path&#39;, &#39;rot_tunnel_con_SE3_path_contouring_vs_SE3_traj_contouring&#39;)</title>
<polygon fill="none" stroke="purple" points="2006.23,-36 1484.23,-36 1484.23,0 2006.23,0 2006.23,-36"/>
<text text-anchor="middle" x="1745.23" y="-14.3" font-family="Times,serif" font-size="14.00">(&#39;path&#39;, &#39;rot_tunnel_con_SE3_path_contouring_vs_SE3_traj_contouring&#39;)</text>
</g>
<!-- rot_tunnel_con_SE3_path_contouring_vs_SE3_traj_contouring&#45;&gt;(&#39;path&#39;, &#39;rot_tunnel_con_SE3_path_contouring_vs_SE3_traj_contouring&#39;) -->
<g id="edge26" class="edge">
<title>rot_tunnel_con_SE3_path_contouring_vs_SE3_traj_contouring&#45;&gt;(&#39;path&#39;, &#39;rot_tunnel_con_SE3_path_contouring_vs_SE3_traj_contouring&#39;)</title>
<path fill="none" stroke="black" d="M1745.23,-71.7C1745.23,-63.98 1745.23,-54.71 1745.23,-46.11"/>
<polygon fill="black" stroke="black" points="1748.73,-46.1 1745.23,-36.1 1741.73,-46.1 1748.73,-46.1"/>
</g>
<!-- (&#39;path&#39;, &#39;reg_ax_ang_error_SE3_traj_contouring_vs_goal&#39;) -->
<g id="node28" class="node">
<title>(&#39;path&#39;, &#39;reg_ax_ang_error_SE3_traj_contouring_vs_goal&#39;)</title>
<polygon fill="none" stroke="purple" points="2578.73,-36 2159.73,-36 2159.73,0 2578.73,0 2578.73,-36"/>
<text text-anchor="middle" x="2369.23" y="-14.3" font-family="Times,serif" font-size="14.00">(&#39;path&#39;, &#39;reg_ax_ang_error_SE3_traj_contouring_vs_goal&#39;)</text>
</g>
<!-- reg_ax_ang_error_SE3_traj_contouring_vs_goal&#45;&gt;(&#39;path&#39;, &#39;reg_ax_ang_error_SE3_traj_contouring_vs_goal&#39;) -->
<g id="edge27" class="edge">
<title>reg_ax_ang_error_SE3_traj_contouring_vs_goal&#45;&gt;(&#39;path&#39;, &#39;reg_ax_ang_error_SE3_traj_contouring_vs_goal&#39;)</title>
<path fill="none" stroke="black" d="M2369.23,-71.7C2369.23,-63.98 2369.23,-54.71 2369.23,-46.11"/>
<polygon fill="black" stroke="black" points="2372.73,-46.1 2369.23,-36.1 2365.73,-46.1 2372.73,-46.1"/>
</g>
<!-- (&#39;path&#39;, &#39;reg_trans_error_SE3_traj_contouring_vs_goal&#39;) -->
<g id="node30" class="node">
<title>(&#39;path&#39;, &#39;reg_trans_error_SE3_traj_contouring_vs_goal&#39;)</title>
<polygon fill="none" stroke="purple" points="1133.73,-108 726.73,-108 726.73,-72 1133.73,-72 1133.73,-108"/>
<text text-anchor="middle" x="930.23" y="-86.3" font-family="Times,serif" font-size="14.00">(&#39;path&#39;, &#39;reg_trans_error_SE3_traj_contouring_vs_goal&#39;)</text>
</g>
<!-- reg_trans_error_SE3_traj_contouring_vs_goal&#45;&gt;(&#39;path&#39;, &#39;reg_trans_error_SE3_traj_contouring_vs_goal&#39;) -->
<g id="edge28" class="edge">
<title>reg_trans_error_SE3_traj_contouring_vs_goal&#45;&gt;(&#39;path&#39;, &#39;reg_trans_error_SE3_traj_contouring_vs_goal&#39;)</title>
<path fill="none" stroke="black" d="M915.17,-143.7C917.4,-135.9 920.09,-126.51 922.57,-117.83"/>
<polygon fill="black" stroke="black" points="925.96,-118.68 925.34,-108.1 919.23,-116.76 925.96,-118.68"/>
</g>
<!-- (&#39;path&#39;, &#39;reg_prog_acc_contouring&#39;) -->
<g id="node32" class="node">
<title>(&#39;path&#39;, &#39;reg_prog_acc_contouring&#39;)</title>
<polygon fill="none" stroke="purple" points="3006.73,-400 2745.73,-400 2745.73,-364 3006.73,-364 3006.73,-400"/>
<text text-anchor="middle" x="2876.23" y="-378.3" font-family="Times,serif" font-size="14.00">(&#39;path&#39;, &#39;reg_prog_acc_contouring&#39;)</text>
</g>
<!-- reg_prog_acc_contouring&#45;&gt;(&#39;path&#39;, &#39;reg_prog_acc_contouring&#39;) -->
<g id="edge29" class="edge">
<title>reg_prog_acc_contouring&#45;&gt;(&#39;path&#39;, &#39;reg_prog_acc_contouring&#39;)</title>
<path fill="none" stroke="black" d="M2876.23,-443.69C2876.23,-433.89 2876.23,-421.42 2876.23,-410.33"/>
<polygon fill="black" stroke="black" points="2879.73,-410.26 2876.23,-400.26 2872.73,-410.26 2879.73,-410.26"/>
</g>
<!-- (&#39;path&#39;, &#39;reg_prog_vel_contouring&#39;) -->
<g id="node34" class="node">
<title>(&#39;path&#39;, &#39;reg_prog_vel_contouring&#39;)</title>
<polygon fill="none" stroke="purple" points="1551.73,-324 1292.73,-324 1292.73,-288 1551.73,-288 1551.73,-324"/>
<text text-anchor="middle" x="1422.23" y="-302.3" font-family="Times,serif" font-size="14.00">(&#39;path&#39;, &#39;reg_prog_vel_contouring&#39;)</text>
</g>
<!-- reg_prog_vel_contouring&#45;&gt;(&#39;path&#39;, &#39;reg_prog_vel_contouring&#39;) -->
<g id="edge30" class="edge">
<title>reg_prog_vel_contouring&#45;&gt;(&#39;path&#39;, &#39;reg_prog_vel_contouring&#39;)</title>
<path fill="none" stroke="black" d="M1468.31,-363.84C1460.67,-354.4 1451.04,-342.53 1442.56,-332.07"/>
<polygon fill="black" stroke="black" points="1445.09,-329.63 1436.07,-324.07 1439.65,-334.04 1445.09,-329.63"/>
</g>
<!-- (&#39;path&#39;, &#39;reg_prog_var_contouring&#39;) -->
<g id="node36" class="node">
<title>(&#39;path&#39;, &#39;reg_prog_var_contouring&#39;)</title>
<polygon fill="none" stroke="purple" points="3069.73,-252 2808.73,-252 2808.73,-216 3069.73,-216 3069.73,-252"/>
<text text-anchor="middle" x="2939.23" y="-230.3" font-family="Times,serif" font-size="14.00">(&#39;path&#39;, &#39;reg_prog_var_contouring&#39;)</text>
</g>
<!-- reg_prog_var_contouring&#45;&gt;(&#39;path&#39;, &#39;reg_prog_var_contouring&#39;) -->
<g id="edge31" class="edge">
<title>reg_prog_var_contouring&#45;&gt;(&#39;path&#39;, &#39;reg_prog_var_contouring&#39;)</title>
<path fill="none" stroke="black" d="M2939.23,-287.7C2939.23,-279.98 2939.23,-270.71 2939.23,-262.11"/>
<polygon fill="black" stroke="black" points="2942.73,-262.1 2939.23,-252.1 2935.73,-262.1 2942.73,-262.1"/>
</g>
<!-- (&#39;terminal&#39;, &#39;terminal_prog_var_contouring&#39;) -->
<g id="node38" class="node">
<title>(&#39;terminal&#39;, &#39;terminal_prog_var_contouring&#39;)</title>
<polygon fill="none" stroke="purple" points="3439.23,-252 3113.23,-252 3113.23,-216 3439.23,-216 3439.23,-252"/>
<text text-anchor="middle" x="3276.23" y="-230.3" font-family="Times,serif" font-size="14.00">(&#39;terminal&#39;, &#39;terminal_prog_var_contouring&#39;)</text>
</g>
<!-- terminal_prog_var_contouring&#45;&gt;(&#39;terminal&#39;, &#39;terminal_prog_var_contouring&#39;) -->
<g id="edge32" class="edge">
<title>terminal_prog_var_contouring&#45;&gt;(&#39;terminal&#39;, &#39;terminal_prog_var_contouring&#39;)</title>
<path fill="none" stroke="black" d="M3276.23,-287.7C3276.23,-279.98 3276.23,-270.71 3276.23,-262.11"/>
<polygon fill="black" stroke="black" points="3279.73,-262.1 3276.23,-252.1 3272.73,-262.1 3279.73,-262.1"/>
</g>
<!-- (&#39;terminal&#39;, &#39;terminal_prog_vel_contouring&#39;) -->
<g id="node40" class="node">
<title>(&#39;terminal&#39;, &#39;terminal_prog_vel_contouring&#39;)</title>
<polygon fill="none" stroke="purple" points="1894.23,-324 1570.23,-324 1570.23,-288 1894.23,-288 1894.23,-324"/>
<text text-anchor="middle" x="1732.23" y="-302.3" font-family="Times,serif" font-size="14.00">(&#39;terminal&#39;, &#39;terminal_prog_vel_contouring&#39;)</text>
</g>
<!-- terminal_prog_vel_contouring&#45;&gt;(&#39;terminal&#39;, &#39;terminal_prog_vel_contouring&#39;) -->
<g id="edge33" class="edge">
<title>terminal_prog_vel_contouring&#45;&gt;(&#39;terminal&#39;, &#39;terminal_prog_vel_contouring&#39;)</title>
<path fill="none" stroke="black" d="M1796.75,-363.84C1785.62,-354.03 1771.49,-341.58 1759.29,-330.84"/>
<polygon fill="black" stroke="black" points="1761.42,-328.05 1751.61,-324.07 1756.8,-333.31 1761.42,-328.05"/>
</g>
<!-- pose_7_kinova -->
<g id="node41" class="node">
<title>pose_7_kinova</title>
<ellipse fill="none" stroke="green" cx="618.23" cy="-306" rx="77.19" ry="18"/>
<text text-anchor="middle" x="618.23" y="-302.3" font-family="Times,serif" font-size="14.00">pose_7_kinova</text>
</g>
<!-- pose_7_kinova&#45;&gt;trans_error_SE3_traj_contouring_vs_goal -->
<g id="edge34" class="edge">
<title>pose_7_kinova&#45;&gt;trans_error_SE3_traj_contouring_vs_goal</title>
<path fill="none" stroke="black" d="M633.48,-288.05C641.11,-279.58 650.48,-269.17 658.9,-259.82"/>
<polygon fill="black" stroke="black" points="661.59,-262.05 665.68,-252.28 656.39,-257.37 661.59,-262.05"/>
</g>
<!-- pose_7_kinova&#45;&gt;rotmat_error_SE3_traj_contouring_vs_goal -->
<g id="edge35" class="edge">
<title>pose_7_kinova&#45;&gt;rotmat_error_SE3_traj_contouring_vs_goal</title>
<path fill="none" stroke="black" d="M672.17,-293.08C682.75,-291.1 693.81,-289.27 704.23,-288 1010.59,-250.57 1367.78,-239.25 1591,-236.01"/>
<polygon fill="black" stroke="black" points="1591.24,-239.51 1601.19,-235.87 1591.14,-232.51 1591.24,-239.51"/>
</g>
<!-- q_kinova -->
<g id="node42" class="node">
<title>q_kinova</title>
<polygon fill="none" stroke="green" points="673.88,-374.54 673.88,-389.46 641.28,-400 595.18,-400 562.58,-389.46 562.58,-374.54 595.18,-364 641.28,-364 673.88,-374.54"/>
<polygon fill="none" stroke="green" points="677.88,-371.64 677.88,-392.36 641.91,-404 594.55,-404 558.58,-392.36 558.58,-371.64 594.55,-360 641.91,-360 677.88,-371.64"/>
<text text-anchor="middle" x="618.23" y="-378.3" font-family="Times,serif" font-size="14.00">q_kinova</text>
</g>
<!-- q_kinova&#45;&gt;pose_7_kinova -->
<g id="edge36" class="edge">
<title>q_kinova&#45;&gt;pose_7_kinova</title>
<path fill="none" stroke="black" d="M618.23,-359.99C618.23,-352.06 618.23,-342.91 618.23,-334.48"/>
<polygon fill="black" stroke="black" points="621.73,-334.31 618.23,-324.31 614.73,-334.31 621.73,-334.31"/>
</g>
</g>
</svg>
