<?xml version="1.0" encoding="UTF-8" standalone="no"?>
<svg
   xmlns:dc="http://purl.org/dc/elements/1.1/"
   xmlns:cc="http://creativecommons.org/ns#"
   xmlns:rdf="http://www.w3.org/1999/02/22-rdf-syntax-ns#"
   xmlns:svg="http://www.w3.org/2000/svg"
   xmlns="http://www.w3.org/2000/svg"
   xmlns:sodipodi="http://sodipodi.sourceforge.net/DTD/sodipodi-0.dtd"
   xmlns:inkscape="http://www.inkscape.org/namespaces/inkscape"
   version="1.1"
   id="svg4686"
   viewBox="0 0 257.0103 120.4595"
   height="33.996346mm"
   width="72.534019mm"
   sodipodi:docname="tasho_full_white.svg"
   inkscape:version="0.92.4 (unknown)">
  <sodipodi:namedview
     pagecolor="#ffffff"
     bordercolor="#666666"
     borderopacity="1"
     objecttolerance="10"
     gridtolerance="10"
     guidetolerance="10"
     inkscape:pageopacity="0"
     inkscape:pageshadow="2"
     inkscape:window-width="1873"
     inkscape:window-height="1056"
     id="namedview63"
     showgrid="false"
     fit-margin-top="0"
     fit-margin-left="0"
     fit-margin-right="0"
     fit-margin-bottom="0"
     inkscape:zoom="1.8311524"
     inkscape:cx="-76.1152"
     inkscape:cy="6.2072908"
     inkscape:window-x="47"
     inkscape:window-y="24"
     inkscape:window-maximized="1"
     inkscape:current-layer="svg4686" />
  <defs
     id="defs4688" />
  <metadata
     id="metadata4691">
    <rdf:RDF>
      <cc:Work
         rdf:about="">
        <dc:format>image/svg+xml</dc:format>
        <dc:type
           rdf:resource="http://purl.org/dc/dcmitype/StillImage" />
        <dc:title />
      </cc:Work>
    </rdf:RDF>
  </metadata>
  <g
     transform="translate(310.1954,778.54197)"
     id="layer1">
    <g
       transform="matrix(0.40696495,0,0,0.40696495,-242.10972,-1086.357)"
       id="g5067-6-7-7-3-6-9-6"
       style="display:inline;fill:#ffffff;fill-opacity:1">
      <g
         transform="scale(0.99602407,1.0039918)"
         style="font-style:normal;font-variant:normal;font-weight:normal;font-stretch:normal;font-size:8.51317024px;line-height:100%;font-family:arial;-inkscape-font-specification:arial;letter-spacing:-4.53114939px;word-spacing:0px;display:inline;opacity:1;fill:#ffffff;fill-opacity:1;stroke:none;stroke-width:1px;stroke-linecap:butt;stroke-linejoin:miter;stroke-opacity:1"
         id="text4889-6-1-0-9-3-2-3-7-0-6-3-2">
        <path
           d="m 65.58839,1009.6495 v -53.24103 l -20.73001,39.64756 h -8.495905 l -20.73001,-39.64756 v 53.24103 H -7.3242188e-7 V 929.22157 H 16.765253 l 23.788535,45.76461 24.015093,-45.76461 h 16.651975 v 80.42793 z"
           style="font-style:normal;font-variant:normal;font-weight:bold;font-stretch:normal;font-size:113.27873993px;line-height:100%;font-family:Raleway;-inkscape-font-specification:'Raleway Bold';letter-spacing:-4.53114939px;fill:#ffffff;fill-opacity:1"
           id="path4458-6-6-9-4-6-4"
           inkscape:connector-curvature="0" />
        <path
           d="m 149.32792,995.94275 v 13.70675 H 93.481506 v -80.42793 h 54.826914 v 13.70673 h -39.19445 v 19.37066 h 33.87034 v 12.68722 h -33.87034 v 20.95657 z"
           style="font-style:normal;font-variant:normal;font-weight:bold;font-stretch:normal;font-size:113.27873993px;line-height:100%;font-family:Raleway;-inkscape-font-specification:'Raleway Bold';letter-spacing:-4.53114939px;fill:#ffffff;fill-opacity:1"
           id="path4460-1-7-2-0-0-7"
           inkscape:connector-curvature="0" />
        <path
           d="m 150.45363,968.86913 q 0,-7.36312 2.60541,-14.49968 2.71869,-7.24984 7.81623,-12.91378 5.09755,-5.66393 12.46066,-9.17557 7.36312,-3.51165 16.76526,-3.51165 11.10131,0 19.1441,4.87099 8.15607,4.87099 12.12083,12.68722 l -12.00755,8.26935 q -1.5859,-3.39836 -3.85147,-5.66394 -2.26558,-2.37885 -4.87099,-3.7382 -2.60541,-1.35934 -5.43738,-1.92574 -2.83197,-0.67967 -5.55066,-0.67967 -5.89049,0 -10.30836,2.37885 -4.30459,2.37886 -7.24984,6.23034 -2.83197,3.73819 -4.30459,8.60918 -1.47263,4.75771 -1.47263,9.51541 0,5.3241 1.69918,10.30837 1.69918,4.87098 4.75771,8.60918 3.17181,3.7382 7.4764,6.00378 4.41787,2.26557 9.62869,2.26557 2.71869,0 5.66394,-0.67967 2.94524,-0.67967 5.55066,-2.1523 2.71869,-1.47262 4.98426,-3.7382 2.26558,-2.37885 3.62492,-5.66393 l 12.8005,7.36312 q -1.92574,4.53115 -5.55066,8.04279 -3.51164,3.39835 -8.04279,5.77725 -4.41787,2.3788 -9.51542,3.6249 -5.09754,1.246 -9.96852,1.246 -8.60919,0 -15.74575,-3.6249 -7.13656,-3.6249 -12.34738,-9.40211 -5.09755,-5.89049 -8.04279,-13.25361 -2.83197,-7.4764 -2.83197,-15.17935 z"
           style="font-style:normal;font-variant:normal;font-weight:bold;font-stretch:normal;font-size:113.27873993px;line-height:100%;font-family:Raleway;-inkscape-font-specification:'Raleway Bold';letter-spacing:-4.53114939px;fill:#ffffff;fill-opacity:1"
           id="path4462-2-3-5-0-5-9"
           inkscape:connector-curvature="0" />
        <path
           d="m 261.88982,1010.2159 q -8.83574,0 -16.08558,-3.3984 -7.13656,-3.5116 -12.34739,-9.17557 -5.09754,-5.77722 -7.92951,-13.14034 -2.83197,-7.36311 -2.83197,-15.06607 0,-8.04279 2.94525,-15.40591 3.05853,-7.36311 8.26935,-13.02705 5.3241,-5.66394 12.57394,-8.94902 7.24984,-3.39836 15.74574,-3.39836 8.72247,0 15.85903,3.62492 7.24984,3.51164 12.34738,9.28885 5.09754,5.77722 7.92951,13.14034 2.83197,7.36311 2.83197,14.95279 0,8.04279 -2.94525,15.40591 -2.94524,7.24984 -8.15607,12.91377 -5.21082,5.55064 -12.46066,8.94904 -7.24984,3.2851 -15.74574,3.2851 z M 238.5544,969.43552 q 0,5.21082 1.5859,10.08181 1.5859,4.87099 4.53115,8.60918 3.05853,3.7382 7.36312,6.00378 4.41787,2.26557 9.96853,2.26557 5.66393,0 9.96853,-2.26557 4.41787,-2.37886 7.36311,-6.23033 3.05853,-3.85148 4.53115,-8.60919 1.58591,-4.87098 1.58591,-9.85525 0,-5.21082 -1.69919,-10.08181 -1.5859,-4.87098 -4.64442,-8.60918 -2.94525,-3.7382 -7.36312,-5.89049 -4.30459,-2.26558 -9.74197,-2.26558 -5.66394,0 -10.08181,2.37885 -4.41787,2.26558 -7.36312,6.11706 -2.94525,3.73819 -4.53115,8.60918 -1.47262,4.75771 -1.47262,9.74197 z"
           style="font-style:normal;font-variant:normal;font-weight:bold;font-stretch:normal;font-size:113.27873993px;line-height:100%;font-family:Raleway;-inkscape-font-specification:'Raleway Bold';letter-spacing:-4.53114939px;fill:#ffffff;fill-opacity:1"
           id="path4464-9-6-4-4-0-3"
           inkscape:connector-curvature="0" />
      </g>
      <g
         transform="scale(0.99771822,1.002287)"
         style="font-style:normal;font-weight:normal;font-size:8.62981415px;line-height:100%;font-family:sans-serif;letter-spacing:0px;word-spacing:0px;display:inline;opacity:1;fill:#ffffff;fill-opacity:1;stroke:none;stroke-width:1px;stroke-linecap:butt;stroke-linejoin:miter;stroke-opacity:1"
         id="text4893-2-1-6-0-56-1-3-5-0-6-2-9">
        <path
           d="m 0.01604431,1036.2886 v -20.6039 H 8.8379743 q 1.3639167,0 2.4956777,0.5804 1.16078,0.5514 1.973326,1.509 0.841566,0.9287 1.305878,2.1185 0.464312,1.1607 0.464312,2.3796 0,1.0737 -0.319214,2.0894 -0.290195,0.9866 -0.870586,1.7992 -0.55137,0.8125 -1.363916,1.3929 -0.783527,0.5804 -1.77019,0.8416 l 4.991355,7.8933 h -2.95999 l -4.7011599,-7.4 H 2.6277999 v 7.4 z m 2.61175559,-9.7216 h 6.2391939 q 0.8125462,0 1.4509752,-0.3482 0.667449,-0.3482 1.131761,-0.9286 0.464312,-0.6094 0.725488,-1.393 0.261175,-0.7835 0.261175,-1.625 0,-0.8706 -0.319214,-1.6251 -0.290196,-0.7836 -0.812547,-1.364 -0.493331,-0.6094 -1.189799,-0.9286 -0.6674491,-0.3482 -1.4219563,-0.3482 H 2.6277999 Z"
           style="font-style:normal;font-variant:normal;font-weight:500;font-stretch:normal;font-size:29.01950645px;line-height:100%;font-family:Raleway;-inkscape-font-specification:'Raleway Medium';letter-spacing:5.57174587px;fill:#ffffff;fill-opacity:1"
           id="path4433-1-6-5-2-9-2"
           inkscape:connector-curvature="0" />
        <path
           d="m 38.619242,1033.967 v 2.3216 H 24.631839 v -20.6039 h 13.726227 v 2.3216 H 27.243595 v 6.6745 h 9.663496 v 2.1764 h -9.663496 v 7.1098 z"
           style="font-style:normal;font-variant:normal;font-weight:500;font-stretch:normal;font-size:29.01950645px;line-height:100%;font-family:Raleway;-inkscape-font-specification:'Raleway Medium';letter-spacing:5.57174587px;fill:#ffffff;fill-opacity:1"
           id="path4435-9-3-9-6-4-8"
           inkscape:connector-curvature="0" />
        <path
           d="m 59.875125,1020.0086 q -0.348235,-0.4062 -0.928625,-0.7835 -0.58039,-0.3772 -1.305877,-0.6674 -0.725488,-0.3193 -1.596073,-0.4934 -0.841566,-0.2031 -1.77019,-0.2031 -2.408619,0 -3.54038,0.8996 -1.102741,0.8996 -1.102741,2.4667 0,0.8415 0.319214,1.3929 0.319215,0.5514 0.986664,0.9576 0.696468,0.3773 1.71215,0.6675 1.015683,0.2902 2.408619,0.6094 1.596073,0.3482 2.872932,0.8125 1.305877,0.4353 2.205482,1.1028 0.928624,0.6674 1.392936,1.6251 0.493332,0.9576 0.493332,2.3505 0,1.48 -0.58039,2.5828 -0.58039,1.0737 -1.596073,1.7992 -0.986663,0.6965 -2.35058,1.0447 -1.363917,0.3192 -2.95999,0.3192 -2.379599,0 -4.527043,-0.7255 -2.118424,-0.7545 -3.859594,-2.1764 l 1.247839,-2.2055 q 0.464312,0.4933 1.1898,0.9866 0.754507,0.4934 1.683131,0.8996 0.957644,0.3773 2.031365,0.6385 1.102742,0.2321 2.292541,0.2321 2.205483,0 3.424302,-0.7835 1.218819,-0.7835 1.218819,-2.3506 0,-0.8706 -0.406273,-1.451 -0.377253,-0.6094 -1.13176,-1.0447 -0.754508,-0.4352 -1.886268,-0.7545 -1.102742,-0.3482 -2.524697,-0.6964 -1.567054,-0.3773 -2.756854,-0.8126 -1.189799,-0.4353 -2.002346,-1.0447 -0.783526,-0.6094 -1.189799,-1.48 -0.406273,-0.8706 -0.406273,-2.0894 0,-1.48 0.55137,-2.6117 0.551371,-1.1318 1.538034,-1.9153 0.986663,-0.7835 2.35058,-1.1608 1.363917,-0.4063 2.95999,-0.4063 2.089404,0 3.772536,0.6385 1.683131,0.6384 2.989009,1.7121 z"
           style="font-style:normal;font-variant:normal;font-weight:500;font-stretch:normal;font-size:29.01950645px;line-height:100%;font-family:Raleway;-inkscape-font-specification:'Raleway Medium';letter-spacing:5.57174587px;fill:#ffffff;fill-opacity:1"
           id="path4437-4-9-4-7-3-3"
           inkscape:connector-curvature="0" />
        <path
           d="m 85.016897,1033.967 v 2.3216 H 71.029495 v -20.6039 h 13.726226 v 2.3216 h -11.11447 v 6.6745 h 9.663495 v 2.1764 h -9.663495 v 7.1098 z"
           style="font-style:normal;font-variant:normal;font-weight:500;font-stretch:normal;font-size:29.01950645px;line-height:100%;font-family:Raleway;-inkscape-font-specification:'Raleway Medium';letter-spacing:5.57174587px;fill:#ffffff;fill-opacity:1"
           id="path4439-7-4-6-5-5-0"
           inkscape:connector-curvature="0" />
        <path
           d="m 100.43986,1015.6847 h 2.20548 l 8.41566,20.6039 h -2.78587 l -2.43764,-6.0361 h -8.647816 l -2.408619,6.0361 h -2.785872 z m 4.81724,12.5365 -3.7145,-9.5184 -3.830574,9.5184 z"
           style="font-style:normal;font-variant:normal;font-weight:500;font-stretch:normal;font-size:29.01950645px;line-height:100%;font-family:Raleway;-inkscape-font-specification:'Raleway Medium';letter-spacing:5.57174587px;fill:#ffffff;fill-opacity:1"
           id="path4441-8-8-9-6-1-1"
           inkscape:connector-curvature="0" />
        <path
           d="m 119.41091,1036.2886 v -20.6039 h 8.82193 q 1.36392,0 2.49568,0.5804 1.16078,0.5514 1.97333,1.509 0.84156,0.9287 1.30587,2.1185 0.46432,1.1607 0.46432,2.3796 0,1.0737 -0.31922,2.0894 -0.29019,0.9866 -0.87058,1.7992 -0.55138,0.8125 -1.36392,1.3929 -0.78353,0.5804 -1.77019,0.8416 l 4.99135,7.8933 h -2.95999 l -4.70116,-7.4 h -5.45566 v 7.4 z m 2.61176,-9.7216 h 6.23919 q 0.81255,0 1.45098,-0.3482 0.66744,-0.3482 1.13176,-0.9286 0.46431,-0.6094 0.72548,-1.393 0.26118,-0.7835 0.26118,-1.625 0,-0.8706 -0.31921,-1.6251 -0.2902,-0.7836 -0.81255,-1.364 -0.49333,-0.6094 -1.1898,-0.9286 -0.66745,-0.3482 -1.42196,-0.3482 h -6.06507 z"
           style="font-style:normal;font-variant:normal;font-weight:500;font-stretch:normal;font-size:29.01950645px;line-height:100%;font-family:Raleway;-inkscape-font-specification:'Raleway Medium';letter-spacing:5.57174587px;fill:#ffffff;fill-opacity:1"
           id="path4443-4-1-2-9-7-7"
           inkscape:connector-curvature="0" />
        <path
           d="m 142.69181,1025.8416 q 0,-1.8573 0.63843,-3.6855 0.66745,-1.8573 1.91529,-3.3082 1.27686,-1.48 3.10509,-2.3796 1.82823,-0.8997 4.14979,-0.8997 2.75685,0 4.73018,1.2479 1.97332,1.2478 2.93097,3.2502 l -2.06039,1.3349 q -0.46431,-0.9867 -1.13176,-1.6541 -0.63843,-0.6675 -1.42196,-1.0738 -0.7545,-0.4062 -1.56705,-0.5804 -0.81255,-0.1741 -1.59607,-0.1741 -1.71215,0 -3.04705,0.7255 -1.30588,0.6965 -2.20548,1.8573 -0.89961,1.1317 -1.36392,2.5827 -0.43529,1.422 -0.43529,2.8729 0,1.6251 0.52235,3.1051 0.55137,1.451 1.50901,2.5828 0.95765,1.1317 2.26352,1.7992 1.30588,0.6674 2.84392,0.6674 0.81254,0 1.65411,-0.2031 0.87058,-0.2032 1.65411,-0.6385 0.78353,-0.4643 1.45098,-1.1317 0.69646,-0.6965 1.13176,-1.6541 l 2.17646,1.1898 q -0.49333,1.1608 -1.39294,2.0604 -0.87058,0.8705 -2.00234,1.48 -1.10274,0.6094 -2.35058,0.9286 -1.24784,0.3192 -2.43764,0.3192 -2.11843,0 -3.88862,-0.9286 -1.77019,-0.9287 -3.07606,-2.4087 -1.27686,-1.509 -2.00235,-3.3952 -0.69647,-1.9153 -0.69647,-3.8886 z"
           style="font-style:normal;font-variant:normal;font-weight:500;font-stretch:normal;font-size:29.01950645px;line-height:100%;font-family:Raleway;-inkscape-font-specification:'Raleway Medium';letter-spacing:5.57174587px;fill:#ffffff;fill-opacity:1"
           id="path4445-5-2-2-8-4-8"
           inkscape:connector-curvature="0" />
        <path
           d="m 185.94946,1015.6847 v 20.6039 h -2.61175 v -9.3733 h -11.34663 v 9.3733 h -2.61175 v -20.6039 h 2.61175 v 8.909 h 11.34663 v -8.909 z"
           style="font-style:normal;font-variant:normal;font-weight:500;font-stretch:normal;font-size:29.01950645px;line-height:100%;font-family:Raleway;-inkscape-font-specification:'Raleway Medium';letter-spacing:5.57174587px;fill:#ffffff;fill-opacity:1"
           id="path4447-0-9-4-7-3-9"
           inkscape:connector-curvature="0" />
        <path
           d="m 223.38009,1018.0063 h -7.10978 v 18.2823 h -2.61176 v -18.2823 h -7.10977 v -2.3216 h 16.83131 z"
           style="font-style:normal;font-variant:normal;font-weight:500;font-stretch:normal;font-size:29.01950645px;line-height:100%;font-family:Raleway;-inkscape-font-specification:'Raleway Medium';letter-spacing:5.57174587px;fill:#ffffff;fill-opacity:1"
           id="path4449-3-3-7-2-1-1"
           inkscape:connector-curvature="0" />
        <path
           d="m 245.87837,1033.967 v 2.3216 h -13.9874 v -20.6039 h 13.72622 v 2.3216 h -11.11447 v 6.6745 h 9.6635 v 2.1764 h -9.6635 v 7.1098 z"
           style="font-style:normal;font-variant:normal;font-weight:500;font-stretch:normal;font-size:29.01950645px;line-height:100%;font-family:Raleway;-inkscape-font-specification:'Raleway Medium';letter-spacing:5.57174587px;fill:#ffffff;fill-opacity:1"
           id="path4451-6-9-7-8-4-5"
           inkscape:connector-curvature="0" />
        <path
           d="m 261.30133,1015.6847 h 2.20548 l 8.41566,20.6039 h -2.78587 l -2.43764,-6.0361 h -8.64781 l -2.40862,6.0361 h -2.78587 z m 4.81724,12.5365 -3.7145,-9.5184 -3.83057,9.5184 z"
           style="font-style:normal;font-variant:normal;font-weight:500;font-stretch:normal;font-size:29.01950645px;line-height:100%;font-family:Raleway;-inkscape-font-specification:'Raleway Medium';letter-spacing:5.57174587px;fill:#ffffff;fill-opacity:1"
           id="path4453-1-0-5-2-6-4"
           inkscape:connector-curvature="0" />
        <path
           d="m 298.09037,1036.2886 v -15.9317 l -6.8486,12.2172 h -1.48 l -6.87762,-12.2172 v 15.9317 h -2.61176 v -20.6039 h 2.75686 l 7.45801,13.378 7.48703,-13.378 h 2.72783 v 20.6039 z"
           style="font-style:normal;font-variant:normal;font-weight:500;font-stretch:normal;font-size:29.01950645px;line-height:100%;font-family:Raleway;-inkscape-font-specification:'Raleway Medium';letter-spacing:5.57174587px;fill:#ffffff;fill-opacity:1"
           id="path4455-0-8-4-9-9-9"
           inkscape:connector-curvature="0" />
      </g>
      <g
         transform="scale(1.0018125,0.99819077)"
         style="font-style:normal;font-weight:normal;font-size:8.57294369px;line-height:100%;font-family:sans-serif;letter-spacing:0px;word-spacing:0px;display:inline;opacity:1;fill:#ffffff;fill-opacity:1;stroke:none;stroke-width:1px;stroke-linecap:butt;stroke-linejoin:miter;stroke-opacity:1"
         id="text4893-2-1-6-0-5-1-7-6-8-8-9-4-2">
        <path
           d="m 7.688911,1053.2552 v -6.8749 l -2.9553469,5.272 H 4.0949086 l -2.9678695,-5.272 v 6.8749 H -2.861023e-8 v -8.891 H 1.1896523 l 3.2183227,5.7729 3.2308454,-5.7729 h 1.1771297 v 8.891 z"
           style="font-style:normal;font-variant:normal;font-weight:500;font-stretch:normal;font-size:12.52265644px;line-height:100%;font-family:Raleway;-inkscape-font-specification:'Raleway Medium';letter-spacing:0.14025375px;fill:#ffffff;fill-opacity:1"
           id="path4358-3-5-1-6-2-5"
           inkscape:connector-curvature="0" />
        <path
           d="m 14.679645,1053.3179 q -0.939199,0 -1.715604,-0.3757 -0.763882,-0.3882 -1.314879,-1.0144 -0.550997,-0.6386 -0.85154,-1.4526 -0.300544,-0.814 -0.300544,-1.6655 0,-0.8891 0.313066,-1.7031 0.325589,-0.8139 0.889109,-1.4401 0.563519,-0.6261 1.327401,-0.9893 0.776405,-0.3757 1.678036,-0.3757 0.9392,0 1.703082,0.4008 0.763882,0.3882 1.314879,1.0268 0.550997,0.6387 0.85154,1.4527 0.300544,0.8014 0.300544,1.6404 0,0.8891 -0.325589,1.7031 -0.313066,0.814 -0.876586,1.4401 -0.550997,0.6136 -1.327402,0.9893 -0.763882,0.3632 -1.665513,0.3632 z m -3.043005,-4.5082 q 0,0.6762 0.212885,1.3149 0.225408,0.6261 0.626133,1.1145 0.400725,0.4884 0.964244,0.7764 0.56352,0.288 1.252266,0.288 0.713791,0 1.277311,-0.3005 0.563519,-0.3131 0.951722,-0.8015 0.400725,-0.5009 0.601087,-1.127 0.212885,-0.6261 0.212885,-1.2648 0,-0.6762 -0.225408,-1.3024 -0.212885,-0.6386 -0.626132,-1.1145 -0.400725,-0.4884 -0.964245,-0.7764 -0.550997,-0.288 -1.22722,-0.288 -0.713792,0 -1.277311,0.3006 -0.56352,0.3005 -0.964245,0.7889 -0.388202,0.4884 -0.601087,1.1145 -0.212885,0.6261 -0.212885,1.2773 z"
           style="font-style:normal;font-variant:normal;font-weight:500;font-stretch:normal;font-size:12.52265644px;line-height:100%;font-family:Raleway;-inkscape-font-specification:'Raleway Medium';letter-spacing:0.14025375px;fill:#ffffff;fill-opacity:1"
           id="path4360-2-0-2-0-2-7"
           inkscape:connector-curvature="0" />
        <path
           d="m 26.723467,1045.366 h -3.068051 v 7.8892 h -1.127039 v -7.8892 h -3.068051 v -1.0018 h 7.263141 z"
           style="font-style:normal;font-variant:normal;font-weight:500;font-stretch:normal;font-size:12.52265644px;line-height:100%;font-family:Raleway;-inkscape-font-specification:'Raleway Medium';letter-spacing:0.14025375px;fill:#ffffff;fill-opacity:1"
           id="path4362-0-9-8-2-6-4"
           inkscape:connector-curvature="0" />
        <path
           d="m 28.13203,1053.2552 v -8.891 h 1.12704 v 8.891 z"
           style="font-style:normal;font-variant:normal;font-weight:500;font-stretch:normal;font-size:12.52265644px;line-height:100%;font-family:Raleway;-inkscape-font-specification:'Raleway Medium';letter-spacing:0.14025375px;fill:#ffffff;fill-opacity:1"
           id="path4364-6-6-9-7-4-9"
           inkscape:connector-curvature="0" />
        <path
           d="m 35.131765,1053.3179 q -0.939199,0 -1.715604,-0.3757 -0.763882,-0.3882 -1.314879,-1.0144 -0.550997,-0.6386 -0.851541,-1.4526 -0.300543,-0.814 -0.300543,-1.6655 0,-0.8891 0.313066,-1.7031 0.325589,-0.8139 0.889109,-1.4401 0.563519,-0.6261 1.327401,-0.9893 0.776405,-0.3757 1.678036,-0.3757 0.9392,0 1.703082,0.4008 0.763882,0.3882 1.314878,1.0268 0.550997,0.6387 0.851541,1.4527 0.300544,0.8014 0.300544,1.6404 0,0.8891 -0.325589,1.7031 -0.313067,0.814 -0.876586,1.4401 -0.550997,0.6136 -1.327402,0.9893 -0.763882,0.3632 -1.665513,0.3632 z m -3.043006,-4.5082 q 0,0.6762 0.212886,1.3149 0.225407,0.6261 0.626132,1.1145 0.400725,0.4884 0.964245,0.7764 0.56352,0.288 1.252266,0.288 0.713791,0 1.277311,-0.3005 0.563519,-0.3131 0.951721,-0.8015 0.400725,-0.5009 0.601088,-1.127 0.212885,-0.6261 0.212885,-1.2648 0,-0.6762 -0.225408,-1.3024 -0.212885,-0.6386 -0.626132,-1.1145 -0.400726,-0.4884 -0.964245,-0.7764 -0.550997,-0.288 -1.22722,-0.288 -0.713792,0 -1.277311,0.3006 -0.56352,0.3005 -0.964245,0.7889 -0.388202,0.4884 -0.601087,1.1145 -0.212886,0.6261 -0.212886,1.2773 z"
           style="font-style:normal;font-variant:normal;font-weight:500;font-stretch:normal;font-size:12.52265644px;line-height:100%;font-family:Raleway;-inkscape-font-specification:'Raleway Medium';letter-spacing:0.14025375px;fill:#ffffff;fill-opacity:1"
           id="path4366-1-3-3-6-1-9"
           inkscape:connector-curvature="0" />
        <path
           d="m 42.160067,1046.468 v 6.7872 h -1.127039 v -8.891 h 0.876586 l 5.509968,6.925 v -6.9125 h 1.127039 v 8.8785 H 47.5949 Z"
           style="font-style:normal;font-variant:normal;font-weight:500;font-stretch:normal;font-size:12.52265644px;line-height:100%;font-family:Raleway;-inkscape-font-specification:'Raleway Medium';letter-spacing:0.14025375px;fill:#ffffff;fill-opacity:1"
           id="path4368-5-8-6-1-2-4"
           inkscape:connector-curvature="0" />
        <path
           d="m 60.165612,1052.2534 v 1.0018 h -6.03592 v -8.891 h 5.923217 v 1.0018 h -4.796178 v 2.8802 h 4.170045 v 0.9392 h -4.170045 v 3.068 z"
           style="font-style:normal;font-variant:normal;font-weight:500;font-stretch:normal;font-size:12.52265644px;line-height:100%;font-family:Raleway;-inkscape-font-specification:'Raleway Medium';letter-spacing:0.14025375px;fill:#ffffff;fill-opacity:1"
           id="path4370-5-5-8-3-8-5"
           inkscape:connector-curvature="0" />
        <path
           d="m 67.073968,1046.23 q -0.150272,-0.1753 -0.400725,-0.3381 -0.250453,-0.1628 -0.56352,-0.288 -0.313066,-0.1377 -0.688746,-0.2129 -0.363157,-0.088 -0.763882,-0.088 -1.03938,0 -1.527764,0.3882 -0.475861,0.3882 -0.475861,1.0644 0,0.3631 0.137749,0.6011 0.13775,0.2379 0.425771,0.4132 0.300544,0.1628 0.738837,0.288 0.438292,0.1253 1.03938,0.263 0.688746,0.1503 1.239743,0.3507 0.56352,0.1878 0.951722,0.4758 0.400725,0.288 0.601087,0.7013 0.212886,0.4132 0.212886,1.0143 0,0.6387 -0.250454,1.1145 -0.250453,0.4634 -0.688746,0.7764 -0.42577,0.3006 -1.014335,0.4509 -0.588565,0.1377 -1.277311,0.1377 -1.026858,0 -1.953534,-0.3131 -0.914154,-0.3255 -1.665514,-0.9392 l 0.538475,-0.9517 q 0.200362,0.2129 0.513429,0.4258 0.325589,0.2129 0.726314,0.3882 0.413247,0.1628 0.876586,0.2755 0.475861,0.1002 0.989289,0.1002 0.951722,0 1.477674,-0.3381 0.525952,-0.3382 0.525952,-1.0144 0,-0.3757 -0.175318,-0.6261 -0.162794,-0.263 -0.488383,-0.4508 -0.325589,-0.1879 -0.813973,-0.3256 -0.475861,-0.1503 -1.089471,-0.3006 -0.676223,-0.1628 -1.189652,-0.3506 -0.513429,-0.1878 -0.864064,-0.4508 -0.338111,-0.263 -0.513429,-0.6387 -0.175317,-0.3756 -0.175317,-0.9016 0,-0.6386 0.237931,-1.127 0.23793,-0.4884 0.6637,-0.8265 0.425771,-0.3381 1.014336,-0.5009 0.588564,-0.1754 1.277311,-0.1754 0.901631,0 1.627945,0.2755 0.726314,0.2755 1.289834,0.7389 l -0.525952,0.9141 z"
           style="font-style:normal;font-variant:normal;font-weight:500;font-stretch:normal;font-size:12.52265644px;line-height:100%;font-family:Raleway;-inkscape-font-specification:'Raleway Medium';letter-spacing:0.14025375px;fill:#ffffff;fill-opacity:1"
           id="path4372-4-6-0-2-8-9"
           inkscape:connector-curvature="0" />
        <path
           d="m 76.034868,1045.366 h -3.068051 v 7.8892 h -1.127039 v -7.8892 h -3.068051 v -1.0018 h 7.263141 z"
           style="font-style:normal;font-variant:normal;font-weight:500;font-stretch:normal;font-size:12.52265644px;line-height:100%;font-family:Raleway;-inkscape-font-specification:'Raleway Medium';letter-spacing:0.14025375px;fill:#ffffff;fill-opacity:1"
           id="path4374-7-1-2-1-9-3"
           inkscape:connector-curvature="0" />
        <path
           d="m 77.443436,1053.2552 v -8.891 h 1.127039 v 8.891 z"
           style="font-style:normal;font-variant:normal;font-weight:500;font-stretch:normal;font-size:12.52265644px;line-height:100%;font-family:Raleway;-inkscape-font-specification:'Raleway Medium';letter-spacing:0.14025375px;fill:#ffffff;fill-opacity:1"
           id="path4376-6-1-1-5-2-5"
           inkscape:connector-curvature="0" />
        <path
           d="m 88.52555,1053.2552 v -6.8749 l -2.955346,5.272 h -0.638656 l -2.96787,-5.272 v 6.8749 h -1.127039 v -8.891 h 1.189653 l 3.218322,5.7729 3.230846,-5.7729 h 1.17713 v 8.891 z"
           style="font-style:normal;font-variant:normal;font-weight:500;font-stretch:normal;font-size:12.52265644px;line-height:100%;font-family:Raleway;-inkscape-font-specification:'Raleway Medium';letter-spacing:0.14025375px;fill:#ffffff;fill-opacity:1"
           id="path4378-5-5-0-9-8-7"
           inkscape:connector-curvature="0" />
        <path
           d="m 94.614653,1044.3642 h 0.951722 l 3.631571,8.891 h -1.202175 l -1.051904,-2.6047 h -3.731751 l -1.039381,2.6047 H 90.97056 Z m 2.078761,5.4098 -1.6029,-4.1075 -1.65299,4.1075 z"
           style="font-style:normal;font-variant:normal;font-weight:500;font-stretch:normal;font-size:12.52265644px;line-height:100%;font-family:Raleway;-inkscape-font-specification:'Raleway Medium';letter-spacing:0.14025375px;fill:#ffffff;fill-opacity:1"
           id="path4380-6-9-5-9-8-0"
           inkscape:connector-curvature="0" />
        <path
           d="m 106.11707,1045.366 h -3.06805 v 7.8892 h -1.12704 v -7.8892 h -3.068053 v -1.0018 h 7.263143 z"
           style="font-style:normal;font-variant:normal;font-weight:500;font-stretch:normal;font-size:12.52265644px;line-height:100%;font-family:Raleway;-inkscape-font-specification:'Raleway Medium';letter-spacing:0.14025375px;fill:#ffffff;fill-opacity:1"
           id="path4382-9-8-1-1-8-8"
           inkscape:connector-curvature="0" />
        <path
           d="m 107.52563,1053.2552 v -8.891 h 1.12704 v 8.891 z"
           style="font-style:normal;font-variant:normal;font-weight:500;font-stretch:normal;font-size:12.52265644px;line-height:100%;font-family:Raleway;-inkscape-font-specification:'Raleway Medium';letter-spacing:0.14025375px;fill:#ffffff;fill-opacity:1"
           id="path4384-3-4-1-4-6-1"
           inkscape:connector-curvature="0" />
        <path
           d="m 114.52536,1053.3179 q -0.9392,0 -1.7156,-0.3757 -0.76388,-0.3882 -1.31488,-1.0144 -0.551,-0.6386 -0.85154,-1.4526 -0.30054,-0.814 -0.30054,-1.6655 0,-0.8891 0.31306,-1.7031 0.32559,-0.8139 0.88911,-1.4401 0.56352,-0.6261 1.3274,-0.9893 0.77641,-0.3757 1.67804,-0.3757 0.9392,0 1.70308,0.4008 0.76388,0.3882 1.31488,1.0268 0.551,0.6387 0.85154,1.4527 0.30054,0.8014 0.30054,1.6404 0,0.8891 -0.32559,1.7031 -0.31306,0.814 -0.87658,1.4401 -0.551,0.6136 -1.3274,0.9893 -0.76389,0.3632 -1.66552,0.3632 z m -3.043,-4.5082 q 0,0.6762 0.21288,1.3149 0.22541,0.6261 0.62614,1.1145 0.40072,0.4884 0.96424,0.7764 0.56352,0.288 1.25227,0.288 0.71379,0 1.27731,-0.3005 0.56352,-0.3131 0.95172,-0.8015 0.40072,-0.5009 0.60109,-1.127 0.21288,-0.6261 0.21288,-1.2648 0,-0.6762 -0.22541,-1.3024 -0.21288,-0.6386 -0.62613,-1.1145 -0.40072,-0.4884 -0.96424,-0.7764 -0.551,-0.288 -1.22722,-0.288 -0.7138,0 -1.27731,0.3006 -0.56352,0.3005 -0.96425,0.7889 -0.3882,0.4884 -0.60109,1.1145 -0.21288,0.6261 -0.21288,1.2773 z"
           style="font-style:normal;font-variant:normal;font-weight:500;font-stretch:normal;font-size:12.52265644px;line-height:100%;font-family:Raleway;-inkscape-font-specification:'Raleway Medium';letter-spacing:0.14025375px;fill:#ffffff;fill-opacity:1"
           id="path4386-7-8-0-9-8-9"
           inkscape:connector-curvature="0" />
        <path
           d="m 121.55367,1046.468 v 6.7872 h -1.12704 v -8.891 h 0.87658 l 5.50997,6.925 v -6.9125 h 1.12704 v 8.8785 h -0.95172 z"
           style="font-style:normal;font-variant:normal;font-weight:500;font-stretch:normal;font-size:12.52265644px;line-height:100%;font-family:Raleway;-inkscape-font-specification:'Raleway Medium';letter-spacing:0.14025375px;fill:#ffffff;fill-opacity:1"
           id="path4388-4-1-8-1-3-9"
           inkscape:connector-curvature="0" />
        <path
           d="m 130.06571,1054.2696 0.25045,-1.1145 h -0.37568 v -1.3024 h 1.03939 v 1.3024 l -0.37568,1.1145 z"
           style="font-style:normal;font-variant:normal;font-weight:500;font-stretch:normal;font-size:12.52265644px;line-height:100%;font-family:Raleway;-inkscape-font-specification:'Raleway Medium';letter-spacing:0.14025375px;fill:#ffffff;fill-opacity:1"
           id="path4390-5-0-5-0-8-7"
           inkscape:connector-curvature="0" />
        <path
           d="m 135.729,1048.7471 q 0,-0.8015 0.27549,-1.5904 0.28803,-0.8014 0.8265,-1.4276 0.551,-0.6386 1.33992,-1.0268 0.78893,-0.3882 1.79074,-0.3882 1.18966,0 2.0412,0.5384 0.85154,0.5385 1.26479,1.4026 l -0.88911,0.576 q -0.20037,-0.4257 -0.48839,-0.7138 -0.2755,-0.288 -0.61361,-0.4633 -0.32559,-0.1753 -0.67622,-0.2505 -0.35063,-0.075 -0.68875,-0.075 -0.73883,0 -1.31488,0.3131 -0.56351,0.3005 -0.95172,0.8014 -0.3882,0.4884 -0.58856,1.1145 -0.18784,0.6137 -0.18784,1.2398 0,0.7013 0.22541,1.3399 0.23793,0.6261 0.65117,1.1145 0.41325,0.4884 0.97677,0.7764 0.56352,0.288 1.22722,0.288 0.35064,0 0.71379,-0.088 0.37568,-0.088 0.71379,-0.2755 0.33812,-0.2004 0.62614,-0.4884 0.30054,-0.3005 0.48838,-0.7138 l 0.9392,0.5134 q -0.21289,0.501 -0.60109,0.8892 -0.37568,0.3756 -0.86406,0.6386 -0.47586,0.263 -1.01434,0.4007 -0.53847,0.1378 -1.0519,0.1378 -0.91415,0 -1.67804,-0.4007 -0.76388,-0.4008 -1.3274,-1.0394 -0.55099,-0.6512 -0.86406,-1.4652 -0.30054,-0.8265 -0.30054,-1.678 z"
           style="font-style:normal;font-variant:normal;font-weight:500;font-stretch:normal;font-size:12.52265644px;line-height:100%;font-family:Raleway;-inkscape-font-specification:'Raleway Medium';letter-spacing:0.14025375px;fill:#ffffff;fill-opacity:1"
           id="path4392-2-3-0-7-3-8"
           inkscape:connector-curvature="0" />
        <path
           d="m 148.48995,1053.3179 q -0.9392,0 -1.71561,-0.3757 -0.76388,-0.3882 -1.31487,-1.0144 -0.551,-0.6386 -0.85155,-1.4526 -0.30054,-0.814 -0.30054,-1.6655 0,-0.8891 0.31307,-1.7031 0.32559,-0.8139 0.88911,-1.4401 0.56352,-0.6261 1.3274,-0.9893 0.7764,-0.3757 1.67803,-0.3757 0.9392,0 1.70308,0.4008 0.76389,0.3882 1.31488,1.0268 0.551,0.6387 0.85154,1.4527 0.30055,0.8014 0.30055,1.6404 0,0.8891 -0.32559,1.7031 -0.31307,0.814 -0.87659,1.4401 -0.55099,0.6136 -1.3274,0.9893 -0.76388,0.3632 -1.66551,0.3632 z m -3.04301,-4.5082 q 0,0.6762 0.21289,1.3149 0.22541,0.6261 0.62613,1.1145 0.40073,0.4884 0.96424,0.7764 0.56352,0.288 1.25227,0.288 0.71379,0 1.27731,-0.3005 0.56352,-0.3131 0.95172,-0.8015 0.40073,-0.5009 0.60109,-1.127 0.21289,-0.6261 0.21289,-1.2648 0,-0.6762 -0.22541,-1.3024 -0.21289,-0.6386 -0.62613,-1.1145 -0.40073,-0.4884 -0.96425,-0.7764 -0.551,-0.288 -1.22722,-0.288 -0.71379,0 -1.27731,0.3006 -0.56352,0.3005 -0.96424,0.7889 -0.38821,0.4884 -0.60109,1.1145 -0.21289,0.6261 -0.21289,1.2773 z"
           style="font-style:normal;font-variant:normal;font-weight:500;font-stretch:normal;font-size:12.52265644px;line-height:100%;font-family:Raleway;-inkscape-font-specification:'Raleway Medium';letter-spacing:0.14025375px;fill:#ffffff;fill-opacity:1"
           id="path4394-5-0-6-5-3-2"
           inkscape:connector-curvature="0" />
        <path
           d="m 155.51824,1046.468 v 6.7872 h -1.12704 v -8.891 h 0.87659 l 5.50997,6.925 v -6.9125 h 1.12704 v 8.8785 h -0.95172 z"
           style="font-style:normal;font-variant:normal;font-weight:500;font-stretch:normal;font-size:12.52265644px;line-height:100%;font-family:Raleway;-inkscape-font-specification:'Raleway Medium';letter-spacing:0.14025375px;fill:#ffffff;fill-opacity:1"
           id="path4396-4-4-4-8-3-5"
           inkscape:connector-curvature="0" />
        <path
           d="m 170.57963,1045.366 h -3.06805 v 7.8892 h -1.12704 v -7.8892 h -3.06805 v -1.0018 h 7.26314 z"
           style="font-style:normal;font-variant:normal;font-weight:500;font-stretch:normal;font-size:12.52265644px;line-height:100%;font-family:Raleway;-inkscape-font-specification:'Raleway Medium';letter-spacing:0.14025375px;fill:#ffffff;fill-opacity:1"
           id="path4398-7-4-6-7-8-3"
           inkscape:connector-curvature="0" />
        <path
           d="m 171.9882,1053.2552 v -8.891 h 3.80689 q 0.58857,0 1.07695,0.2504 0.50091,0.2379 0.85154,0.6512 0.36316,0.4007 0.56352,0.9141 0.20036,0.501 0.20036,1.0269 0,0.4633 -0.13775,0.9016 -0.12522,0.4258 -0.37568,0.7764 -0.23793,0.3507 -0.58856,0.6011 -0.33811,0.2505 -0.76388,0.3632 l 2.15389,3.4061 h -1.27731 l -2.02867,-3.1932 h -2.35426 v 3.1932 z m 1.12704,-4.195 h 2.69238 q 0.35063,0 0.62613,-0.1503 0.28802,-0.1503 0.48838,-0.4007 0.20036,-0.263 0.31307,-0.6011 0.1127,-0.3381 0.1127,-0.7013 0,-0.3757 -0.13775,-0.7013 -0.12522,-0.3381 -0.35063,-0.5885 -0.21289,-0.263 -0.51343,-0.4008 -0.28802,-0.1502 -0.61361,-0.1502 h -2.61724 z"
           style="font-style:normal;font-variant:normal;font-weight:500;font-stretch:normal;font-size:12.52265644px;line-height:100%;font-family:Raleway;-inkscape-font-specification:'Raleway Medium';letter-spacing:0.14025375px;fill:#ffffff;fill-opacity:1"
           id="path4400-4-4-2-0-0-4"
           inkscape:connector-curvature="0" />
        <path
           d="m 183.95298,1053.3179 q -0.9392,0 -1.71561,-0.3757 -0.76388,-0.3882 -1.31488,-1.0144 -0.55099,-0.6386 -0.85154,-1.4526 -0.30054,-0.814 -0.30054,-1.6655 0,-0.8891 0.31306,-1.7031 0.32559,-0.8139 0.88911,-1.4401 0.56352,-0.6261 1.32741,-0.9893 0.7764,-0.3757 1.67803,-0.3757 0.9392,0 1.70308,0.4008 0.76388,0.3882 1.31488,1.0268 0.551,0.6387 0.85154,1.4527 0.30055,0.8014 0.30055,1.6404 0,0.8891 -0.32559,1.7031 -0.31307,0.814 -0.87659,1.4401 -0.551,0.6136 -1.3274,0.9893 -0.76388,0.3632 -1.66551,0.3632 z m -3.04301,-4.5082 q 0,0.6762 0.21289,1.3149 0.2254,0.6261 0.62613,1.1145 0.40072,0.4884 0.96424,0.7764 0.56352,0.288 1.25227,0.288 0.71379,0 1.27731,-0.3005 0.56352,-0.3131 0.95172,-0.8015 0.40073,-0.5009 0.60109,-1.127 0.21288,-0.6261 0.21288,-1.2648 0,-0.6762 -0.2254,-1.3024 -0.21289,-0.6386 -0.62614,-1.1145 -0.40072,-0.4884 -0.96424,-0.7764 -0.551,-0.288 -1.22722,-0.288 -0.71379,0 -1.27731,0.3006 -0.56352,0.3005 -0.96425,0.7889 -0.3882,0.4884 -0.60108,1.1145 -0.21289,0.6261 -0.21289,1.2773 z"
           style="font-style:normal;font-variant:normal;font-weight:500;font-stretch:normal;font-size:12.52265644px;line-height:100%;font-family:Raleway;-inkscape-font-specification:'Raleway Medium';letter-spacing:0.14025375px;fill:#ffffff;fill-opacity:1"
           id="path4402-4-4-5-4-4-9"
           inkscape:connector-curvature="0" />
        <path
           d="m 189.85423,1053.2552 v -8.891 h 1.12704 v 7.8892 h 4.95897 v 1.0018 z"
           style="font-style:normal;font-variant:normal;font-weight:500;font-stretch:normal;font-size:12.52265644px;line-height:100%;font-family:Raleway;-inkscape-font-specification:'Raleway Medium';letter-spacing:0.14025375px;fill:#ffffff;fill-opacity:1"
           id="path4404-3-7-8-8-7-0"
           inkscape:connector-curvature="0" />
        <path
           d="m 206.20874,1053.2552 -0.92667,-0.9642 q -0.53848,0.526 -1.2147,0.814 -0.6637,0.2755 -1.42758,0.2755 -0.61361,0 -1.13956,-0.1879 -0.52596,-0.1878 -0.91416,-0.5134 -0.3882,-0.3381 -0.61361,-0.7889 -0.21288,-0.4508 -0.21288,-0.9893 0,-0.4383 0.13775,-0.814 0.15027,-0.3757 0.3882,-0.6887 0.25045,-0.3131 0.56352,-0.5761 0.31306,-0.2755 0.6637,-0.5134 -0.30055,-0.3381 -0.51343,-0.6136 -0.21289,-0.2755 -0.35063,-0.5134 -0.12523,-0.2505 -0.18784,-0.4634 -0.0626,-0.2254 -0.0626,-0.4633 0,-0.4258 0.17532,-0.7889 0.17532,-0.3757 0.47586,-0.6387 0.31307,-0.2755 0.72631,-0.4258 0.42577,-0.1502 0.91416,-0.1502 0.45081,0 0.83902,0.1252 0.40072,0.1252 0.68874,0.3631 0.30055,0.238 0.46334,0.5761 0.17532,0.3381 0.17532,0.7513 0,0.3757 -0.15027,0.7013 -0.13775,0.3256 -0.38821,0.6136 -0.23793,0.2755 -0.57604,0.526 -0.33811,0.2504 -0.71379,0.5009 l 2.2666,2.3793 q 0.23793,-0.4508 0.36316,-0.9768 0.13775,-0.5385 0.13775,-1.1395 h 0.91415 q -0.0125,0.8139 -0.21288,1.5152 -0.18784,0.7013 -0.551,1.2773 l 1.7156,1.7907 h -1.45263 z m -3.45625,-0.7513 q 0.56352,0 1.0519,-0.2254 0.48839,-0.2254 0.87659,-0.6262 l -2.52958,-2.6673 q -0.58856,0.4258 -0.96424,0.8891 -0.36316,0.4508 -0.36316,1.0394 0,0.3757 0.1628,0.6762 0.16279,0.3006 0.42577,0.5009 0.2755,0.2004 0.61361,0.3131 0.35063,0.1002 0.72631,0.1002 z m -1.33992,-6.2739 q 0,0.1378 0.0376,0.2755 0.0501,0.1253 0.15027,0.3006 0.1127,0.1628 0.30054,0.4007 0.18784,0.2254 0.48838,0.5385 0.65118,-0.4133 1.05191,-0.7889 0.40072,-0.3882 0.40072,-0.8641 0,-0.4383 -0.32559,-0.7138 -0.32559,-0.288 -0.82649,-0.288 -0.56352,0 -0.92668,0.3381 -0.35063,0.3256 -0.35063,0.8014 z"
           style="font-style:normal;font-variant:normal;font-weight:500;font-stretch:normal;font-size:12.52265644px;line-height:100%;font-family:Raleway;-inkscape-font-specification:'Raleway Medium';letter-spacing:0.14025375px;fill:#ffffff;fill-opacity:1"
           id="path4406-0-6-6-0-6-2"
           inkscape:connector-curvature="0" />
        <path
           d="m 215.86304,1053.3179 q -0.9392,0 -1.7156,-0.3757 -0.76389,-0.3882 -1.31488,-1.0144 -0.551,-0.6386 -0.85154,-1.4526 -0.30055,-0.814 -0.30055,-1.6655 0,-0.8891 0.31307,-1.7031 0.32559,-0.8139 0.88911,-1.4401 0.56352,-0.6261 1.3274,-0.9893 0.7764,-0.3757 1.67804,-0.3757 0.9392,0 1.70308,0.4008 0.76388,0.3882 1.31488,1.0268 0.55099,0.6387 0.85154,1.4527 0.30054,0.8014 0.30054,1.6404 0,0.8891 -0.32559,1.7031 -0.31307,0.814 -0.87658,1.4401 -0.551,0.6136 -1.32741,0.9893 -0.76388,0.3632 -1.66551,0.3632 z m -3.043,-4.5082 q 0,0.6762 0.21288,1.3149 0.22541,0.6261 0.62613,1.1145 0.40073,0.4884 0.96425,0.7764 0.56352,0.288 1.25226,0.288 0.71379,0 1.27731,-0.3005 0.56352,-0.3131 0.95173,-0.8015 0.40072,-0.5009 0.60108,-1.127 0.21289,-0.6261 0.21289,-1.2648 0,-0.6762 -0.22541,-1.3024 -0.21288,-0.6386 -0.62613,-1.1145 -0.40073,-0.4884 -0.96425,-0.7764 -0.55099,-0.288 -1.22722,-0.288 -0.71379,0 -1.27731,0.3006 -0.56352,0.3005 -0.96424,0.7889 -0.3882,0.4884 -0.60109,1.1145 -0.21288,0.6261 -0.21288,1.2773 z"
           style="font-style:normal;font-variant:normal;font-weight:500;font-stretch:normal;font-size:12.52265644px;line-height:100%;font-family:Raleway;-inkscape-font-specification:'Raleway Medium';letter-spacing:0.14025375px;fill:#ffffff;fill-opacity:1"
           id="path4408-7-3-2-4-8-0"
           inkscape:connector-curvature="0" />
        <path
           d="m 221.76431,1053.2552 v -8.891 h 3.70671 q 0.58856,0 1.07695,0.2504 0.5009,0.2379 0.85154,0.6512 0.36316,0.4007 0.56352,0.9141 0.20036,0.501 0.20036,1.0269 0,0.551 -0.18784,1.0644 -0.18784,0.5135 -0.53847,0.9142 -0.33812,0.4007 -0.8265,0.6386 -0.47586,0.238 -1.06443,0.238 h -2.6548 v 3.1932 z m 1.12704,-4.195 h 2.59219 q 0.35064,0 0.62613,-0.1378 0.28803,-0.1503 0.48839,-0.4007 0.20036,-0.263 0.31306,-0.6011 0.11271,-0.3381 0.11271,-0.7138 0,-0.3882 -0.13775,-0.7263 -0.12523,-0.3381 -0.35064,-0.5886 -0.21288,-0.2504 -0.51342,-0.3882 -0.28803,-0.1377 -0.61361,-0.1377 h -2.51706 z"
           style="font-style:normal;font-variant:normal;font-weight:500;font-stretch:normal;font-size:12.52265644px;line-height:100%;font-family:Raleway;-inkscape-font-specification:'Raleway Medium';letter-spacing:0.14025375px;fill:#ffffff;fill-opacity:1"
           id="path4410-8-1-8-2-9-1"
           inkscape:connector-curvature="0" />
        <path
           d="m 236.11836,1045.366 h -3.06805 v 7.8892 h -1.12704 v -7.8892 h -3.06805 v -1.0018 h 7.26314 z"
           style="font-style:normal;font-variant:normal;font-weight:500;font-stretch:normal;font-size:12.52265644px;line-height:100%;font-family:Raleway;-inkscape-font-specification:'Raleway Medium';letter-spacing:0.14025375px;fill:#ffffff;fill-opacity:1"
           id="path4412-6-7-4-9-0-9"
           inkscape:connector-curvature="0" />
        <path
           d="m 237.52693,1053.2552 v -8.891 h 1.12704 v 8.891 z"
           style="font-style:normal;font-variant:normal;font-weight:500;font-stretch:normal;font-size:12.52265644px;line-height:100%;font-family:Raleway;-inkscape-font-specification:'Raleway Medium';letter-spacing:0.14025375px;fill:#ffffff;fill-opacity:1"
           id="path4414-8-5-7-6-6-6"
           inkscape:connector-curvature="0" />
        <path
           d="m 248.60905,1053.2552 v -6.8749 l -2.95535,5.272 h -0.63866 l -2.96787,-5.272 v 6.8749 h -1.12703 v -8.891 h 1.18965 l 3.21832,5.7729 3.23085,-5.7729 h 1.17713 v 8.891 z"
           style="font-style:normal;font-variant:normal;font-weight:500;font-stretch:normal;font-size:12.52265644px;line-height:100%;font-family:Raleway;-inkscape-font-specification:'Raleway Medium';letter-spacing:0.14025375px;fill:#ffffff;fill-opacity:1"
           id="path4416-8-9-2-1-8-2"
           inkscape:connector-curvature="0" />
        <path
           d="m 251.99326,1053.2552 v -8.891 h 1.12703 v 8.891 z"
           style="font-style:normal;font-variant:normal;font-weight:500;font-stretch:normal;font-size:12.52265644px;line-height:100%;font-family:Raleway;-inkscape-font-specification:'Raleway Medium';letter-spacing:0.14025375px;fill:#ffffff;fill-opacity:1"
           id="path4418-4-6-4-0-7-1"
           inkscape:connector-curvature="0" />
        <path
           d="m 254.72276,1052.3787 5.73538,-7.0127 h -5.62268 v -1.0018 h 6.93755 v 0.8765 l -5.63519,7.0127 h 5.63519 v 1.0018 h -7.05025 z"
           style="font-style:normal;font-variant:normal;font-weight:500;font-stretch:normal;font-size:12.52265644px;line-height:100%;font-family:Raleway;-inkscape-font-specification:'Raleway Medium';letter-spacing:0.14025375px;fill:#ffffff;fill-opacity:1"
           id="path4420-3-2-0-4-9-2"
           inkscape:connector-curvature="0" />
        <path
           d="m 266.13165,1044.3642 h 0.95172 l 3.63157,8.891 h -1.20217 l -1.0519,-2.6047 h -3.73176 l -1.03938,2.6047 h -1.20217 z m 2.07876,5.4098 -1.6029,-4.1075 -1.65299,4.1075 z"
           style="font-style:normal;font-variant:normal;font-weight:500;font-stretch:normal;font-size:12.52265644px;line-height:100%;font-family:Raleway;-inkscape-font-specification:'Raleway Medium';letter-spacing:0.14025375px;fill:#ffffff;fill-opacity:1"
           id="path4422-1-1-6-2-0-0"
           inkscape:connector-curvature="0" />
        <path
           d="m 277.63407,1045.366 h -3.06805 v 7.8892 h -1.12704 v -7.8892 h -3.06805 v -1.0018 h 7.26314 z"
           style="font-style:normal;font-variant:normal;font-weight:500;font-stretch:normal;font-size:12.52265644px;line-height:100%;font-family:Raleway;-inkscape-font-specification:'Raleway Medium';letter-spacing:0.14025375px;fill:#ffffff;fill-opacity:1"
           id="path4424-4-7-2-2-3-7"
           inkscape:connector-curvature="0" />
        <path
           d="m 279.04263,1053.2552 v -8.891 h 1.12704 v 8.891 z"
           style="font-style:normal;font-variant:normal;font-weight:500;font-stretch:normal;font-size:12.52265644px;line-height:100%;font-family:Raleway;-inkscape-font-specification:'Raleway Medium';letter-spacing:0.14025375px;fill:#ffffff;fill-opacity:1"
           id="path4426-9-8-9-2-3-3"
           inkscape:connector-curvature="0" />
        <path
           d="m 286.04235,1053.3179 q -0.9392,0 -1.71561,-0.3757 -0.76388,-0.3882 -1.31488,-1.0144 -0.55099,-0.6386 -0.85154,-1.4526 -0.30054,-0.814 -0.30054,-1.6655 0,-0.8891 0.31307,-1.7031 0.32558,-0.8139 0.8891,-1.4401 0.56352,-0.6261 1.32741,-0.9893 0.7764,-0.3757 1.67803,-0.3757 0.9392,0 1.70308,0.4008 0.76389,0.3882 1.31488,1.0268 0.551,0.6387 0.85154,1.4527 0.30055,0.8014 0.30055,1.6404 0,0.8891 -0.32559,1.7031 -0.31307,0.814 -0.87659,1.4401 -0.551,0.6136 -1.3274,0.9893 -0.76388,0.3632 -1.66551,0.3632 z m -3.04301,-4.5082 q 0,0.6762 0.21289,1.3149 0.2254,0.6261 0.62613,1.1145 0.40072,0.4884 0.96424,0.7764 0.56352,0.288 1.25227,0.288 0.71379,0 1.27731,-0.3005 0.56352,-0.3131 0.95172,-0.8015 0.40073,-0.5009 0.60109,-1.127 0.21288,-0.6261 0.21288,-1.2648 0,-0.6762 -0.2254,-1.3024 -0.21289,-0.6386 -0.62614,-1.1145 -0.40072,-0.4884 -0.96424,-0.7764 -0.551,-0.288 -1.22722,-0.288 -0.71379,0 -1.27731,0.3006 -0.56352,0.3005 -0.96425,0.7889 -0.3882,0.4884 -0.60108,1.1145 -0.21289,0.6261 -0.21289,1.2773 z"
           style="font-style:normal;font-variant:normal;font-weight:500;font-stretch:normal;font-size:12.52265644px;line-height:100%;font-family:Raleway;-inkscape-font-specification:'Raleway Medium';letter-spacing:0.14025375px;fill:#ffffff;fill-opacity:1"
           id="path4428-2-5-9-0-3-1"
           inkscape:connector-curvature="0" />
        <path
           d="m 293.07067,1046.468 v 6.7872 h -1.12704 v -8.891 h 0.87659 l 5.50997,6.925 v -6.9125 h 1.12704 v 8.8785 h -0.95172 z"
           style="font-style:normal;font-variant:normal;font-weight:500;font-stretch:normal;font-size:12.52265644px;line-height:100%;font-family:Raleway;-inkscape-font-specification:'Raleway Medium';letter-spacing:0.14025375px;fill:#ffffff;fill-opacity:1"
           id="path4430-0-7-0-5-7-1"
           inkscape:connector-curvature="0" />
      </g>
    </g>
  </g>
  <text
     xml:space="preserve"
     style="font-style:italic;font-variant:normal;font-weight:normal;font-stretch:normal;font-size:37.5px;line-height:1.25;font-family:'Times New Roman';-inkscape-font-specification:'Times New Roman, Italic';text-align:center;letter-spacing:0px;word-spacing:0px;text-anchor:middle;fill:#000000;fill-opacity:1;stroke:none;stroke-width:0.9375"
     x="126.45726"
     y="46.5625"
     id="text874"><tspan
       sodipodi:role="line"
       id="tspan872"
       x="126.45726"
       y="46.5625"
       style="font-style:italic;font-variant:normal;font-weight:500;font-stretch:normal;font-size:62.5px;font-family:Raleway;-inkscape-font-specification:'Raleway Medium Italic';fill:#ffffff;stroke-width:0.9375">Tasho</tspan></text>
  <path
     style="fill:none;stroke:#ffffff;stroke-width:1.40625;stroke-linecap:butt;stroke-linejoin:miter;stroke-miterlimit:4;stroke-dasharray:1.40625003, 1.40625003;stroke-dashoffset:0;stroke-opacity:1"
     d="M 0,59.022731 H 257.0103"
     id="path876"
     inkscape:connector-curvature="0" />
</svg>
